<?xml version="1.0" encoding="utf-8"?>
<!-- Generator: Adobe Illustrator 27.5.0, SVG Export Plug-In . SVG Version: 6.00 Build 0)  -->
<svg version="1.1" xmlns="http://www.w3.org/2000/svg" xmlns:xlink="http://www.w3.org/1999/xlink" x="0px" y="0px"
	 viewBox="0 0 397.867 425.197" style="enable-background:new 0 0 397.867 425.197;" xml:space="preserve">
<g id="Capa_1">
	<rect style="fill:#FFFFFF;" width="397.867" height="425.197"/>
	<g>
		<g>
			<g>
				<g>
					<path style="fill:none;stroke:#C1C3C3;stroke-width:1.0262;stroke-miterlimit:10;stroke-dasharray:2.0824,2.0824;" d="
						M351.581,131.835c0,9.889-8.016,17.904-17.901,17.904c-9.886,0-17.901-8.016-17.901-17.904c0-9.886,8.016-17.9,17.901-17.9
						C343.565,113.935,351.581,121.949,351.581,131.835z"/>
				</g>
				<path style="fill:#C1C3C3;" d="M342.854,123.221h-18.352c-0.393,0-0.711,0.319-0.711,0.714v11.916
					c0,0.395,0.318,0.716,0.711,0.716h11.462c0.657,0.701,1.819,2.271,0.875,3.885c0,0,3.537-1.338,4.162-3.885h1.853
					c0.395,0,0.716-0.321,0.716-0.716v-11.916C343.57,123.54,343.249,123.221,342.854,123.221z M341.095,132.815h-14.83
					c-0.186,0-0.339-0.151-0.339-0.338c0-0.188,0.152-0.339,0.339-0.339h14.83c0.186,0,0.338,0.151,0.338,0.339
					C341.433,132.664,341.28,132.815,341.095,132.815z M341.095,130.233h-14.83c-0.186,0-0.339-0.153-0.339-0.341
					c0-0.187,0.152-0.338,0.339-0.338h14.83c0.186,0,0.338,0.151,0.338,0.338C341.433,130.08,341.28,130.233,341.095,130.233z
					 M341.095,127.648h-14.83c-0.186,0-0.339-0.152-0.339-0.341c0-0.187,0.152-0.338,0.339-0.338h14.83
					c0.186,0,0.338,0.151,0.338,0.338C341.433,127.496,341.28,127.648,341.095,127.648z"/>
			</g>
			<g>
				<g>
					<path style="fill:none;stroke:#C1C3C3;stroke-width:1.0262;stroke-miterlimit:10;stroke-dasharray:2.0823,2.0823;" d="
						M48.862,265.645c0,9.887-8.012,17.902-17.898,17.902c-9.889,0-17.901-8.016-17.901-17.902c0-9.886,8.013-17.901,17.901-17.901
						C40.851,247.743,48.862,255.759,48.862,265.645z"/>
				</g>
				<g>
					<path style="fill:#C1C3C3;" d="M34.121,266.393l-3.169,2.77l-3.155-2.899l-6.687,6.995h19.81c0.115,0,0.223-0.02,0.326-0.055
						L34.121,266.393z"/>
					<polygon style="fill:#C1C3C3;" points="35.224,265.43 41.894,271.805 41.894,259.6 					"/>
					<path style="fill:#C1C3C3;" d="M30.974,267.423l10.525-9.202c-0.158-0.12-0.362-0.191-0.578-0.191H21.005
						c-0.074,0-0.147,0.01-0.219,0.025L30.974,267.423z"/>
					<polygon style="fill:#C1C3C3;" points="20.032,259.12 20.032,272.278 26.724,265.275 					"/>
				</g>
			</g>
			<g>
				<g>
					<path style="fill:none;stroke:#C1C3C3;stroke-width:1.0262;stroke-miterlimit:10;stroke-dasharray:2.0824,2.0824;" d="
						M363.825,269.762c0,9.888-8.016,17.9-17.902,17.9c-9.886,0-17.903-8.013-17.903-17.9c0-9.887,8.018-17.902,17.903-17.902
						C355.81,251.859,363.825,259.875,363.825,269.762z"/>
				</g>
				<g>
					<path style="fill:#C1C3C3;" d="M357.503,267.162c-0.51,0.478-1.313,0.454-1.794-0.059c-5.241-5.582-14.043-5.86-19.625-0.622
						c-0.513,0.48-1.318,0.455-1.799-0.057c-0.479-0.512-0.456-1.317,0.059-1.796c6.604-6.199,17.019-5.869,23.216,0.734
						C358.042,265.876,358.016,266.68,357.503,267.162z"/>
				</g>
				<g>
					<path style="fill:#C1C3C3;" d="M354.755,270.227c-0.51,0.478-1.314,0.454-1.794-0.056c-3.816-4.069-10.234-4.272-14.301-0.456
						c-0.51,0.48-1.316,0.456-1.794-0.057c-0.483-0.512-0.456-1.316,0.054-1.795c5.091-4.777,13.119-4.524,17.895,0.566
						C355.292,268.941,355.27,269.746,354.755,270.227z"/>
				</g>
				<g>
					<path style="fill:#C1C3C3;" d="M352.164,273.632c-0.512,0.48-1.316,0.456-1.797-0.057c-2.476-2.639-6.636-2.771-9.272-0.294
						c-0.513,0.48-1.319,0.455-1.797-0.057c-0.48-0.512-0.456-1.316,0.057-1.798c3.659-3.435,9.432-3.251,12.868,0.408
						C352.701,272.348,352.674,273.151,352.164,273.632z"/>
				</g>
				<path style="fill:#C1C3C3;" d="M347.835,274.544c1.076,1.146,1.018,2.947-0.13,4.023c-1.145,1.075-2.943,1.019-4.023-0.129
					c-1.073-1.144-1.017-2.946,0.128-4.022C344.958,273.342,346.757,273.398,347.835,274.544z"/>
			</g>
			<g>
				<g>
					<path style="fill:none;stroke:#C1C3C3;stroke-width:1.0262;stroke-miterlimit:10;stroke-dasharray:2.0823,2.0823;" d="
						M153.467,118.31c0,9.887-8.013,17.901-17.901,17.901c-9.886,0-17.898-8.015-17.898-17.901c0-9.886,8.013-17.901,17.898-17.901
						C145.454,100.408,153.467,108.424,153.467,118.31z"/>
				</g>
				<g>
					<g>
						<path style="fill:#C1C3C3;" d="M135.565,121.04c-3.883,0-11.229-0.572-11.229-2.73c0-2.16,7.346-2.731,11.229-2.731
							s11.23,0.571,11.23,2.731C146.795,120.468,139.448,121.04,135.565,121.04z M135.565,116.483c-2.848,0-5.52,0.232-7.527,0.656
							c-2.324,0.492-2.797,1.047-2.797,1.17c0,0.122,0.473,0.678,2.797,1.169c2.008,0.424,4.68,0.657,7.527,0.657
							c2.849,0,5.521-0.233,7.528-0.657c2.321-0.491,2.797-1.047,2.797-1.169c0-0.123-0.476-0.678-2.797-1.17
							C141.086,116.716,138.414,116.483,135.565,116.483z"/>
					</g>
					<g>
						<path style="fill:#C1C3C3;" d="M135.565,125.673c-6.191,0-11.229-3.302-11.229-7.363c0-4.063,5.037-7.364,11.229-7.364
							c6.189,0,11.23,3.302,11.23,7.364C146.795,122.371,141.755,125.673,135.565,125.673z M135.565,111.848
							c-5.694,0-10.324,2.9-10.324,6.462c0,3.563,4.63,6.461,10.324,6.461c5.694,0,10.325-2.898,10.325-6.461
							C145.891,114.748,141.26,111.848,135.565,111.848z"/>
					</g>
					<g>
						<path style="fill:#C1C3C3;" d="M135.565,129.537c-2.292,0-2.897-7.346-2.897-11.228c0-3.885,0.605-11.229,2.897-11.229
							c2.292,0,2.9,7.345,2.9,11.229C138.466,122.191,137.857,129.537,135.565,129.537z M135.565,107.984
							c-0.677,0-1.995,3.646-1.995,10.325c0,6.679,1.318,10.325,1.995,10.325c0.679,0,1.993-3.647,1.993-10.325
							C137.559,111.63,136.244,107.984,135.565,107.984z"/>
					</g>
					<g>
						<path style="fill:#C1C3C3;" d="M135.565,129.537c-4.061,0-7.363-5.036-7.363-11.228c0-6.192,3.302-11.229,7.363-11.229
							c4.062,0,7.363,5.037,7.363,11.229C142.929,124.501,139.627,129.537,135.565,129.537z M135.565,107.984
							c-3.563,0-6.461,4.632-6.461,10.325c0,5.692,2.897,10.325,6.461,10.325c3.562,0,6.462-4.633,6.462-10.325
							C142.027,112.616,139.127,107.984,135.565,107.984z"/>
					</g>
					<g>
						<path style="fill:#C1C3C3;" d="M135.565,129.537c-6.191,0-11.229-5.036-11.229-11.228c0-6.192,5.037-11.229,11.229-11.229
							c6.189,0,11.23,5.037,11.23,11.229C146.795,124.501,141.755,129.537,135.565,129.537z M135.565,107.984
							c-5.694,0-10.324,4.632-10.324,10.325c0,5.692,4.63,10.325,10.324,10.325c5.694,0,10.325-4.633,10.325-10.325
							C145.891,112.616,141.26,107.984,135.565,107.984z"/>
					</g>
				</g>
			</g>
			<g>
				<g>
					<path style="fill:none;stroke:#C1C3C3;stroke-width:1.0262;stroke-miterlimit:10;stroke-dasharray:2.0823,2.0823;" d="
						M81.447,131.838c0,9.886-8.013,17.901-17.901,17.901c-9.883,0-17.898-8.016-17.898-17.901c0-9.889,8.016-17.903,17.898-17.903
						C73.435,113.935,81.447,121.949,81.447,131.838z"/>
				</g>
				<path style="fill:#C1C3C3;" d="M68.851,121.465H58.241c-0.643,0-1.162,0.521-1.162,1.161v18.421c0,0.64,0.519,1.159,1.162,1.159
					h10.609c0.643,0,1.162-0.52,1.162-1.159v-18.421C70.013,121.986,69.493,121.465,68.851,121.465z M65.085,141.278h-3.076
					c-0.208,0-0.377-0.168-0.377-0.379c0-0.207,0.169-0.376,0.377-0.376h3.076c0.203,0,0.373,0.169,0.373,0.376
					C65.458,141.11,65.288,141.278,65.085,141.278z M67.853,138.674h-8.613v-15.315h8.613V138.674z M68.681,139.542H58.408v-16.926
					h10.273V139.542z"/>
			</g>
			<g>
				<g>
					<g>
						<g>
							
								<circle style="fill:none;stroke:#C1C3C3;stroke-width:1.0262;stroke-miterlimit:10;stroke-dasharray:2.0824,2.0824;" cx="172.967" cy="58.869" r="17.901"/>
						</g>
						<g>
							<g>
								<path style="fill:#C1C3C3;" d="M180.95,65.211c-0.39-1.357-1.897-1.589-1.897-1.589l-3.299-0.945l-0.023,0.037l-1.125-1.05
									l-0.008,0.002v-0.822c0.616-0.364,1.189-0.898,1.368-1.602c0.034-0.125,0.064-0.242,0.093-0.354l0,0
									c0,0,0.101-0.37,0.221-0.865c0.75,0.105,0.775-1.761,0.775-1.761c-0.089-0.224-0.258-0.269-0.415-0.249
									c0.003-0.053,0.005-0.104,0.005-0.152c0,0,1.435-5.981-3.998-5.79c0,0-1.978,0.287-2.169,1.382c0,0-0.985,0.281-1.086,1.168
									c0,0-0.26,1.582-0.12,3.416c-0.184-0.055-0.407-0.048-0.518,0.226c0,0,0.084,1.877,0.846,1.759
									c0.06,0.215,0.125,0.428,0.204,0.633c0.044,0.182,0.096,0.374,0.146,0.588c0.182,0.703,0.756,1.237,1.371,1.602v0.77
									l-0.011-0.005l-1.276,1.191l-3.155,0.822c0,0-1.51,0.231-1.895,1.589l-0.662,2.459h7.548h1.021h0.037h0.076h0.037h1.02
									h7.547L180.95,65.211z"/>
							</g>
						</g>
						<g>
							<path style="fill:#C1C3C3;" d="M166.829,63.375l2.456-0.641c-0.081-0.021-0.133-0.029-0.133-0.029l-2.618-0.75l-0.017,0.029
								l-0.895-0.833l-0.003,0.002v-0.654c0.488-0.286,0.943-0.712,1.086-1.27c0.024-0.098,0.049-0.191,0.071-0.28l0,0
								c0,0,0.078-0.293,0.174-0.686c0.599,0.083,0.615-1.397,0.615-1.397c-0.071-0.179-0.201-0.213-0.328-0.196
								c0.002-0.044,0.005-0.083,0.005-0.122c0,0,1.137-4.744-3.172-4.594c0,0-1.569,0.227-1.721,1.096c0,0-0.782,0.224-0.86,0.927
								c0,0-0.209,1.255-0.096,2.711c-0.145-0.043-0.321-0.038-0.412,0.179c0,0,0.066,1.489,0.672,1.396
								c0.049,0.171,0.098,0.338,0.159,0.502c0.037,0.144,0.076,0.297,0.12,0.466c0.14,0.558,0.598,0.983,1.086,1.27v0.613
								l-0.005-0.004l-1.018,0.943l-2.5,0.653c0,0-1.198,0.184-1.505,1.262l-0.524,1.949h5.985h0.812h0.029h0.059h0.03h0.151
								l0.209-0.771C165.149,63.703,166.654,63.406,166.829,63.375z"/>
						</g>
					</g>
					<g>
						<path style="fill:#C1C3C3;" d="M181.58,65.916h0.059h0.032h0.807h5.988l-0.524-1.949c-0.307-1.078-1.503-1.262-1.503-1.262
							l-2.618-0.75l-0.017,0.029l-0.897-0.833l-0.005,0.002v-0.654c0.49-0.286,0.948-0.712,1.089-1.27
							c0.026-0.098,0.049-0.191,0.07-0.28l0,0c0,0,0.081-0.293,0.177-0.686c0.593,0.083,0.615-1.397,0.615-1.397
							c-0.071-0.179-0.203-0.213-0.328-0.196c0.002-0.044,0.005-0.083,0.005-0.122c0,0,1.137-4.744-3.172-4.594
							c0,0-1.571,0.227-1.721,1.096c0,0-0.782,0.224-0.86,0.927c0,0-0.209,1.255-0.099,2.711c-0.145-0.043-0.321-0.038-0.406,0.179
							c0,0,0.064,1.489,0.666,1.396c0.047,0.171,0.101,0.338,0.162,0.502c0.037,0.144,0.073,0.297,0.12,0.466
							c0.143,0.558,0.598,0.983,1.083,1.27v0.613l-0.007-0.004l-1.013,0.943l-2.503,0.653c0,0-0.005,0-0.005,0.003l2.334,0.669
							c0.188,0.032,1.677,0.335,2.081,1.765l0.208,0.774h0.152H181.58z"/>
					</g>
				</g>
				<g>
					<g>
						<path style="fill:none;stroke:#C1C3C3;stroke-width:1.0262;stroke-miterlimit:10;stroke-dasharray:2.0823,2.0823;" d="
							M243.324,58.869c0,9.886-8.016,17.901-17.898,17.901c-9.889,0-17.901-8.016-17.901-17.901s8.013-17.901,17.901-17.901
							C235.309,40.968,243.324,48.983,243.324,58.869z"/>
					</g>
					<g>
						<path style="fill:#C1C3C3;" d="M231.765,64.945h3.018l-0.277,0.354c-1.027,1.288-2.321,2.298-3.883,3.031
							c-1.52,0.703-3.125,1.055-4.802,1.055c-2.775,0-5.092-0.934-6.957-2.798c-1.865-1.864-2.797-4.33-2.797-7.396
							c0-3.045,0.868-5.613,2.605-7.702c1.738-2.088,4.158-3.134,7.251-3.134c1.865,0,3.376,0.356,4.54,1.069
							c2.743,1.679,4.113,4.256,4.113,7.732c0,1.963-0.547,3.75-1.638,5.36c-1.24,1.816-2.804,2.724-4.69,2.724
							c-0.992,0-1.649-0.406-1.961-1.216c-0.458,0.42-0.862,0.718-1.216,0.895c-0.429,0.213-0.934,0.321-1.507,0.321
							c-1.378,0-2.436-0.557-3.177-1.67c-0.646-0.957-0.969-2.162-0.969-3.617c0-1.825,0.429-3.515,1.287-5.067
							c1.023-1.854,2.378-2.782,4.064-2.782c1.064,0,1.939,0.454,2.632,1.36l0.152-0.98h2.774l-1.596,10.091
							c0,0.167,0.071,0.249,0.219,0.249c0.566,0,1.142-0.307,1.726-0.922c0.441-0.468,0.812-1.026,1.117-1.671
							c0.399-0.858,0.601-1.884,0.601-3.074c0-1.962-0.586-3.551-1.75-4.767c-1.169-1.218-2.729-1.823-4.68-1.823
							c-2.247,0-4.096,0.769-5.544,2.307c-1.449,1.537-2.175,3.605-2.175,6.202c0,2.371,0.659,4.3,1.979,5.782
							c1.378,1.555,3.235,2.33,5.576,2.33c2.15,0,4.116-0.727,5.905-2.183L231.765,64.945z M226.129,60.145
							c0.331-1.251,0.498-2.438,0.498-3.56c0-0.576-0.104-1.06-0.31-1.449c-0.255-0.499-0.645-0.746-1.171-0.746
							c-0.996,0-1.753,0.84-2.27,2.518c-0.372,1.191-0.557,2.431-0.557,3.72c0,0.605,0.105,1.134,0.324,1.581
							c0.281,0.586,0.693,0.88,1.227,0.88c0.645,0,1.165-0.347,1.569-1.041C225.663,61.656,225.892,61.021,226.129,60.145z"/>
					</g>
				</g>
			</g>
			<g>
				<g>
					<path style="fill:none;stroke:#C1C3C3;stroke-width:1.0262;stroke-miterlimit:10;stroke-dasharray:2.0823,2.0823;" d="
						M275.955,237.449c0,9.886-8.016,17.901-17.898,17.901c-9.889,0-17.904-8.016-17.904-17.901c0-9.886,8.016-17.901,17.904-17.901
						C267.94,219.548,275.955,227.563,275.955,237.449z"/>
				</g>
				<g>
					<path style="fill:#C1C3C3;" d="M267.597,227.533h-19.468c-0.483,0-0.875,0.391-0.875,0.875v13.598
						c0,0.482,0.392,0.875,0.875,0.875h19.468c0.482,0,0.875-0.393,0.875-0.875v-13.598
						C268.472,227.924,268.079,227.533,267.597,227.533z M266.908,241.274h-18.091v-12.431h18.091V241.274z"/>
					<rect x="249.587" y="229.495" style="fill:#C1C3C3;" width="16.551" height="11.13"/>
					<rect x="244.261" y="246.717" style="fill:#C1C3C3;" width="27.591" height="0.65"/>
					<path style="fill:#C1C3C3;" d="M268.472,243.501h-21.218l-2.993,2.691h27.591L268.472,243.501z M247.511,243.871h20.909
						l1.191,0.975h-23.112L247.511,243.871z M254.536,245.827l0.584-0.772h5.814l0.637,0.772H254.536z"/>
				</g>
			</g>
			<g>
				<g>
					<path style="fill:none;stroke:#C1C3C3;stroke-width:1.0262;stroke-miterlimit:10;stroke-dasharray:2.0823,2.0823;" d="
						M153.467,237.449c0,9.886-8.016,17.901-17.901,17.901c-9.886,0-17.898-8.016-17.898-17.901c0-9.889,8.013-17.901,17.898-17.901
						C145.451,219.548,153.467,227.561,153.467,237.449z"/>
				</g>
				<path style="fill:#C1C3C3;" d="M135.565,233.732c-2.885,0-5.221,2.337-5.221,5.222c0,2.883,2.336,5.222,5.221,5.222
					c2.883,0,5.222-2.339,5.222-5.222C140.787,236.069,138.448,233.732,135.565,233.732z M137.841,242.038
					c0.615-0.691,0.987-1.601,0.987-2.599c0-2.162-1.753-3.916-3.914-3.916c-0.844,0-1.621,0.265-2.256,0.715
					c0.716-0.811,1.763-1.318,2.93-1.318c2.164,0,3.914,1.752,3.914,3.914C139.502,240.159,138.851,241.328,137.841,242.038z"/>
				<path style="fill:#C1C3C3;" d="M145.665,230.541h-20.201c-0.521,0-0.948,0.425-0.948,0.949v14.928
					c0,0.524,0.427,0.946,0.948,0.946h20.201c0.525,0,0.953-0.423,0.953-0.946V231.49
					C146.618,230.966,146.189,230.541,145.665,230.541z M135.565,245.912c-3.844,0-6.959-3.115-6.959-6.958
					c0-3.844,3.115-6.959,6.959-6.959c3.844,0,6.959,3.115,6.959,6.959C142.524,242.797,139.409,245.912,135.565,245.912z
					 M145.518,233.242h-4.73v-1.421h4.73V233.242z"/>
				<path style="fill:#C1C3C3;" d="M140.066,227.533h-8.572l-2.721,2.606h13.585L140.066,227.533z M139.877,228.242h-8.245v-0.331
					h8.245V228.242z"/>
			</g>
			<g>
				<g>
					
						<line style="fill:none;stroke:#00425A;stroke-width:6.6173;stroke-miterlimit:10;" x1="198.655" y1="159.18" x2="198.655" y2="331.633"/>
					<path style="fill:none;stroke:#00425A;stroke-width:6.4194;stroke-miterlimit:10;" d="M303.63,70.727c0,0,0,43.549,0,43.67
						c0,14.002-6.241,21.193-18.218,27.776L224.4,175.709c-12.06,4.621-12.06,28.114-12.06,28.114v127.81"/>
					<path style="fill:none;stroke:#00425A;stroke-width:6.4194;stroke-miterlimit:10;" d="M94.76,70.727c0,0,0,43.549,0,43.67
						c0,14.002,6.241,21.193,18.215,27.776l61.014,33.536c12.061,4.621,12.061,28.114,12.061,28.114v127.81"/>
					<path style="fill:none;stroke:#00425A;stroke-width:6.4194;stroke-miterlimit:10;" d="M122.427,195.217h36.119
						c0,0,12.688,0.828,12.688,29.321v107.095"/>
					<path style="fill:none;stroke:#00425A;stroke-width:6.4194;stroke-miterlimit:10;" d="M274.681,195.217h-36.116
						c0,0-12.691,0.828-12.691,29.321v107.095"/>
				</g>
				<linearGradient id="SVGID_1_" gradientUnits="userSpaceOnUse" x1="161.2109" y1="125.0732" x2="245.1943" y2="125.0732">
					<stop  offset="0" style="stop-color:#00B9C5"/>
					<stop  offset="1" style="stop-color:#007880"/>
				</linearGradient>
				<path style="fill:url(#SVGID_1_);" d="M245.194,125.072c0,23.191-18.798,41.994-41.989,41.994
					c-23.193,0-41.994-18.803-41.994-41.994s18.801-41.992,41.994-41.992C226.396,83.08,245.194,101.881,245.194,125.072z"/>
				<g>
					<path style="fill:#FFFFFF;" d="M218.079,139.328h7.074l-0.652,0.826c-2.404,3.021-5.439,5.393-9.104,7.109
						c-3.571,1.65-7.329,2.476-11.269,2.476c-6.503,0-11.942-2.188-16.317-6.563c-4.376-4.374-6.563-10.155-6.563-17.349
						c0-7.145,2.04-13.168,6.116-18.068c4.076-4.901,9.743-7.351,17.004-7.351c4.376,0,7.925,0.836,10.65,2.507
						c6.435,3.939,9.653,9.985,9.653,18.14c0,4.6-1.282,8.793-3.849,12.572c-2.907,4.26-6.571,6.389-10.991,6.389
						c-2.336,0-3.87-0.949-4.603-2.852c-1.076,0.985-2.024,1.684-2.851,2.096c-1.008,0.505-2.189,0.756-3.539,0.756
						c-3.229,0-5.714-1.305-7.455-3.915c-1.512-2.244-2.267-5.073-2.267-8.486c0-4.282,1.005-8.243,3.017-11.886
						c2.4-4.352,5.579-6.528,9.536-6.528c2.492,0,4.549,1.065,6.172,3.191l0.362-2.297h6.506l-3.745,23.668
						c0,0.39,0.174,0.585,0.517,0.585c1.326,0,2.68-0.721,4.053-2.164c1.029-1.099,1.899-2.405,2.61-3.916
						c0.939-2.017,1.409-4.419,1.409-7.213c0-4.604-1.368-8.332-4.105-11.184c-2.736-2.853-6.396-4.276-10.977-4.276
						c-5.268,0-9.602,1.803-13.002,5.41c-3.399,3.607-5.101,8.458-5.101,14.548c0,5.565,1.544,10.089,4.638,13.57
						c3.226,3.641,7.589,5.462,13.087,5.462c5.04,0,9.655-1.706,13.847-5.119L218.079,139.328z M204.852,128.061
						c0.776-2.932,1.167-5.714,1.167-8.348c0-1.351-0.24-2.485-0.719-3.4c-0.601-1.17-1.513-1.752-2.753-1.752
						c-2.333,0-4.108,1.968-5.324,5.907c-0.87,2.795-1.306,5.704-1.306,8.728c0,1.418,0.252,2.656,0.757,3.709
						c0.664,1.374,1.628,2.063,2.885,2.063c1.513,0,2.738-0.815,3.678-2.441C203.764,131.612,204.301,130.122,204.852,128.061z"/>
				</g>
				<g>
					<path style="fill:#FBB040;" d="M126.977,198.898c0,23.193-18.801,41.993-41.995,41.993c-23.19,0-41.992-18.8-41.992-41.993
						c0-23.191,18.802-41.992,41.992-41.992C108.176,156.906,126.977,175.707,126.977,198.898z"/>
					<g>
						<path style="fill:#FFFFFF;" d="M84.981,190.182c-6.763,0-12.246,5.483-12.246,12.248c0,6.764,5.483,12.245,12.246,12.245
							c6.766,0,12.249-5.482,12.249-12.245C97.23,195.665,91.747,190.182,84.981,190.182z M90.323,209.663
							c1.44-1.622,2.315-3.754,2.315-6.093c0-5.074-4.113-9.188-9.188-9.188c-1.969,0-3.793,0.621-5.287,1.676
							c1.682-1.896,4.135-3.094,6.87-3.094c5.077,0,9.188,4.113,9.188,9.187C94.221,205.257,92.681,208.002,90.323,209.663z"/>
						<path style="fill:#FFFFFF;" d="M108.678,182.695H61.286c-1.229,0-2.224,0.997-2.224,2.225v35.018
							c0,1.23,0.995,2.226,2.224,2.226h47.392c1.231,0,2.224-0.995,2.224-2.226V184.92
							C110.901,183.692,109.908,182.695,108.678,182.695z M84.981,218.752c-9.013,0-16.32-7.309-16.32-16.322
							c0-9.015,7.308-16.322,16.32-16.322c9.016,0,16.323,7.308,16.323,16.322C101.305,211.443,93.997,218.752,84.981,218.752z
							 M108.33,189.032h-11.1v-3.334h11.1V189.032z"/>
						<path style="fill:#FFFFFF;" d="M95.537,175.637h-20.11l-6.381,6.115h31.871L95.537,175.637z M95.099,177.303H75.753v-0.776
							h19.346V177.303z"/>
					</g>
				</g>
				<g>
					<path style="fill:#056F8C;" d="M345.923,63.612c0,23.193-18.803,41.993-41.994,41.993c-23.191,0-41.989-18.8-41.989-41.993
						c0-23.192,18.798-41.992,41.989-41.992C327.12,21.62,345.923,40.42,345.923,63.612z"/>
					<path style="fill:#FFFFFF;" d="M325.453,43.403h-43.049c-0.924,0-1.677,0.749-1.677,1.675v27.953
						c0,0.927,0.753,1.677,1.677,1.677h26.883c1.544,1.645,4.268,5.33,2.052,9.117c0,0,8.305-3.14,9.768-9.117h4.346
						c0.927,0,1.677-0.75,1.677-1.677V45.078C327.13,44.152,326.38,43.403,325.453,43.403z M321.322,65.912h-34.785
						c-0.439,0-0.794-0.355-0.794-0.796c0-0.439,0.355-0.794,0.794-0.794h34.785c0.439,0,0.795,0.355,0.795,0.794
						C322.117,65.557,321.762,65.912,321.322,65.912z M321.322,59.85h-34.785c-0.439,0-0.794-0.356-0.794-0.794
						c0-0.438,0.355-0.796,0.794-0.796h34.785c0.439,0,0.795,0.357,0.795,0.796C322.117,59.494,321.762,59.85,321.322,59.85z
						 M321.322,53.788h-34.785c-0.439,0-0.794-0.354-0.794-0.796c0-0.438,0.355-0.794,0.794-0.794h34.785
						c0.439,0,0.795,0.356,0.795,0.794C322.117,53.434,321.762,53.788,321.322,53.788z"/>
				</g>
				<g>
					<path style="fill:#90C482;" d="M136.453,63.613c0,23.192-18.801,41.992-41.995,41.992c-23.191,0-41.994-18.8-41.994-41.992
						c0-23.192,18.803-41.993,41.994-41.993C117.652,21.62,136.453,40.421,136.453,63.613z"/>
					<g>
						<path style="fill:#FFFFFF;" d="M116.841,40.352H71.179c-1.137,0-2.054,0.919-2.054,2.053V74.3
							c0,1.135,0.917,2.054,2.054,2.054h45.662c1.135,0,2.057-0.919,2.057-2.054V42.404
							C118.897,41.271,117.976,40.352,116.841,40.352z M115.228,72.586H72.792V43.428h42.436V72.586z"/>
						<rect x="74.601" y="44.953" style="fill:#FFFFFF;" width="38.818" height="26.111"/>
						<rect x="62.097" y="85.353" style="fill:#FFFFFF;" width="64.728" height="1.524"/>
						<path style="fill:#FFFFFF;" d="M118.897,77.808H69.125l-7.028,6.312h64.728L118.897,77.808z M69.728,78.68h49.045l2.799,2.285
							H67.348L69.728,78.68z M86.205,83.267l1.375-1.81h13.637l1.495,1.81H86.205z"/>
					</g>
				</g>
				<g>
					<path style="fill:#F15A29;" d="M355.399,198.898c0,23.193-18.801,41.993-41.994,41.993c-23.191,0-41.992-18.8-41.992-41.993
						c0-23.191,18.801-41.992,41.992-41.992C336.599,156.906,355.399,175.707,355.399,198.898z"/>
					<g>
						<g>
							<g>
								<path style="fill:#FFFFFF;" d="M332.13,213.776c-0.904-3.183-4.446-3.725-4.446-3.725l-7.741-2.222l-0.049,0.086
									l-2.645-2.461l-0.013,0.008v-1.933c1.441-0.852,2.79-2.106,3.211-3.759c0.074-0.288,0.145-0.564,0.214-0.828l0,0
									c0,0,0.237-0.865,0.517-2.027c1.761,0.247,1.821-4.131,1.821-4.131c-0.213-0.524-0.602-0.631-0.976-0.582
									c0.01-0.127,0.015-0.246,0.015-0.358c0,0,3.361-14.03-9.378-13.583c0,0-4.643,0.67-5.089,3.24c0,0-2.311,0.66-2.549,2.742
									c0,0-0.608,3.709-0.28,8.012c-0.434-0.128-0.953-0.113-1.216,0.529c0,0,0.194,4.404,1.983,4.128
									c0.14,0.503,0.297,1,0.476,1.485c0.107,0.424,0.223,0.877,0.35,1.373c0.422,1.652,1.77,2.906,3.214,3.759v1.808
									l-0.022-0.012l-2.998,2.791l-7.4,1.934c0,0-3.544,0.542-4.448,3.725l-1.547,5.771h17.702h2.397h0.084h0.179h0.086h2.395
									h17.703L332.13,213.776z"/>
							</g>
						</g>
						<g>
							<path style="fill:#FFFFFF;" d="M299.007,209.471l5.76-1.503c-0.189-0.05-0.309-0.068-0.309-0.068l-6.138-1.763l-0.042,0.068
								l-2.098-1.951l-0.01,0.004v-1.53c1.145-0.677,2.213-1.675,2.547-2.983c0.059-0.229,0.117-0.447,0.169-0.657v0.001
								c0,0,0.189-0.688,0.412-1.609c1.395,0.197,1.443-3.276,1.443-3.276c-0.169-0.417-0.478-0.5-0.772-0.464
								c0.008-0.099,0.013-0.194,0.013-0.283c0,0,2.664-11.132-7.442-10.776c0,0-3.682,0.533-4.037,2.572
								c0,0-1.833,0.523-2.022,2.176c0,0-0.48,2.941-0.223,6.354c-0.341-0.1-0.755-0.088-0.961,0.422c0,0,0.152,3.493,1.571,3.273
								c0.11,0.398,0.232,0.793,0.378,1.178c0.085,0.337,0.176,0.698,0.279,1.091c0.333,1.309,1.399,2.307,2.547,2.983v1.434
								l-0.015-0.01l-2.381,2.216l-5.873,1.532c0,0-2.809,0.432-3.527,2.956l-1.228,4.578h14.048h1.899h0.066h0.14h0.071h0.353
								l0.483-1.811C295.07,210.24,298.598,209.542,299.007,209.471z"/>
						</g>
						<g>
							<path style="fill:#FFFFFF;" d="M333.608,215.434h0.14h0.071h1.899h14.046l-1.23-4.578c-0.719-2.524-3.527-2.956-3.527-2.956
								l-6.141-1.763l-0.042,0.068l-2.098-1.951l-0.01,0.004v-1.53c1.147-0.677,2.216-1.675,2.549-2.983
								c0.059-0.229,0.113-0.447,0.167-0.657v0.001c0,0,0.191-0.688,0.412-1.609c1.395,0.197,1.443-3.276,1.443-3.276
								c-0.167-0.417-0.478-0.5-0.772-0.464c0.008-0.099,0.01-0.194,0.01-0.283c0,0,2.67-11.132-7.436-10.776
								c0,0-3.685,0.533-4.04,2.572c0,0-1.831,0.523-2.022,2.176c0,0-0.48,2.941-0.221,6.354c-0.345-0.1-0.757-0.088-0.965,0.422
								c0,0,0.154,3.493,1.576,3.273c0.107,0.398,0.23,0.793,0.375,1.178c0.088,0.337,0.179,0.698,0.279,1.091
								c0.333,1.309,1.399,2.307,2.547,2.983v1.434l-0.015-0.01l-2.381,2.216l-5.87,1.532c0,0-0.01,0-0.015,0.003l5.476,1.57
								c0.441,0.078,3.932,0.787,4.886,4.143l0.49,1.818h0.352H333.608z"/>
						</g>
					</g>
				</g>
			</g>
		</g>
		<g>
			<path style="fill:#BCBEC0;" d="M253.694,391.95c-0.008,6.46-25.418,11.666-56.762,11.625
				c-31.338-0.039-56.738-5.309-56.729-11.768c0.01-6.462,25.422-11.666,56.762-11.626
				C228.302,380.222,253.704,385.491,253.694,391.95z"/>
			<g>
				<path d="M240.921,383.504c0,4.624-3.746,8.373-8.375,8.373h-71.188c-4.625,0.004-8.377-3.746-8.377-8.373l-0.002-134.84
					c0-4.624,3.748-8.374,8.373-8.374l71.191-0.002c4.625-0.001,8.375,3.75,8.375,8.374L240.921,383.504z"/>
				<path style="fill:#0D2B3D;" d="M239.026,381.713c0,4.427-3.586,8.015-8.012,8.015l-68.125,0.002
					c-4.426,0-8.014-3.587-8.014-8.014l-0.002-131.262c-0.002-4.427,3.586-8.015,8.014-8.015l68.119-0.002
					c4.43,0,8.016,3.588,8.016,8.016L239.026,381.713z"/>
				<g>
					<path style="fill:#FFFFFF;" d="M207.806,382.32c0.002,0.489-0.393,0.885-0.883,0.885l-19.941,0.001
						c-0.488-0.001-0.885-0.396-0.885-0.886l-0.002-5.781c0-0.488,0.398-0.885,0.887-0.886h19.939c0.488,0,0.885,0.397,0.885,0.886
						V382.32z"/>
					<path style="fill:#939598;" d="M186.095,379.447l0.002,2.873c0,0.489,0.396,0.885,0.885,0.886l19.941-0.001
						c0.49,0,0.885-0.395,0.883-0.885v-2.873H186.095z"/>
				</g>
				<rect x="161.384" y="250.479" style="fill:#00B8B4;" width="71.132" height="121.034"/>
				<path style="fill:#FFFFFF;" d="M157.222,244.787c-1.453,1.449-2.348,3.453-2.348,5.667l0.002,131.262
					c0,4.427,3.588,8.014,8.014,8.014l68.125-0.002c2.213,0,4.215-0.898,5.664-2.346L157.222,244.787z"/>
			</g>
		</g>
		<g>
			<g>
				<path style="fill:#003A54;" d="M173.194,315.828h-1.69v-11.205h1.69V315.828z"/>
				<path style="fill:#003A54;" d="M176.602,304.613l2.243,7.537v-7.537h1.69v11.215h-1.815l-2.325-7.182v7.182h-1.69v-11.215
					H176.602z"/>
				<path style="fill:#003A54;" d="M183.693,306.322h-1.798v-1.699h5.276v1.699h-1.788v9.506h-1.69V306.322z"/>
				<path style="fill:#003A54;" d="M188.531,315.828v-11.215h4.812v1.699h-3.121v3.059h2.28v1.699h-2.28v3.059h3.121v1.699H188.531z
					"/>
				<path style="fill:#003A54;" d="M197.17,304.623c0.942,0,1.634,0.26,2.075,0.777c0.388,0.453,0.581,1.086,0.581,1.896v1.627
					c0,0.793-0.301,1.465-0.903,2.014l1.252,4.891h-1.828l-1.024-4.221c-0.048,0-0.099,0-0.152,0h-0.975v4.221h-1.69v-11.205H197.17
					z M198.181,307.324c0-0.65-0.322-0.975-0.966-0.975h-1.02v3.586h1.02c0.269,0,0.496-0.096,0.685-0.287
					c0.188-0.189,0.281-0.42,0.281-0.688V307.324z"/>
				<path style="fill:#003A54;" d="M203.521,304.613l2.243,7.537v-7.537h1.69v11.215h-1.815l-2.325-7.182v7.182h-1.691v-11.215
					H203.521z"/>
				<path style="fill:#003A54;" d="M208.966,315.828v-11.215h4.811v1.699h-3.121v3.059h2.28v1.699h-2.28v3.059h3.121v1.699H208.966z
					"/>
				<path style="fill:#003A54;" d="M216.737,306.322h-1.798v-1.699h5.276v1.699h-1.788v9.506h-1.69V306.322z"/>
			</g>
			<g>
				<path style="fill:#FFFFFF;" d="M172.546,323.469c-0.172,0.072-0.339,0.17-0.5,0.291s-0.324,0.254-0.488,0.396
					c-0.165,0.145-0.336,0.297-0.514,0.455c-0.177,0.16-0.367,0.318-0.572,0.475c-0.205,0.156-0.429,0.305-0.671,0.445
					c-0.242,0.143-0.51,0.268-0.802,0.375c-0.293,0.105-0.615,0.191-0.968,0.254c-0.353,0.065-0.742,0.096-1.17,0.096
					c-0.474,0-0.9-0.096-1.281-0.287c-0.38-0.191-0.705-0.449-0.975-0.773c-0.27-0.324-0.479-0.701-0.624-1.131
					c-0.145-0.43-0.218-0.881-0.218-1.353c0-0.322,0.035-0.668,0.105-1.039c0.069-0.369,0.171-0.746,0.302-1.131
					c0.132-0.383,0.292-0.766,0.481-1.148c0.189-0.383,0.404-0.748,0.645-1.1c0.24-0.35,0.504-0.676,0.791-0.975
					c0.287-0.301,0.595-0.56,0.921-0.783c0.325-0.223,0.669-0.398,1.03-0.523c0.361-0.127,0.736-0.189,1.125-0.189
					c0.253,0,0.509,0.045,0.769,0.133c0.259,0.09,0.492,0.229,0.699,0.414c0.207,0.186,0.376,0.42,0.507,0.705
					c0.132,0.283,0.197,0.617,0.197,1.004c0,0.26-0.041,0.522-0.123,0.785c-0.083,0.266-0.195,0.52-0.34,0.764
					c-0.143,0.244-0.313,0.473-0.507,0.686c-0.194,0.215-0.404,0.398-0.629,0.555c-0.224,0.156-0.457,0.279-0.699,0.371
					c-0.242,0.092-0.483,0.137-0.726,0.137c-0.319,0-0.558-0.043-0.715-0.129c-0.158-0.086-0.237-0.209-0.237-0.371
					c0-0.027-0.001-0.061-0.002-0.1c-0.002-0.039-0.003-0.078-0.003-0.121c0-0.063,0.003-0.129,0.011-0.197
					c0.007-0.068,0.021-0.131,0.042-0.185c0.02-0.057,0.052-0.102,0.092-0.137c0.04-0.035,0.096-0.053,0.166-0.053
					c0.042,0,0.078,0.006,0.11,0.018c0.031,0.012,0.066,0.025,0.105,0.039c0.039,0.016,0.085,0.027,0.14,0.041
					c0.055,0.012,0.124,0.018,0.208,0.018c0.225,0,0.451-0.049,0.681-0.147c0.23-0.1,0.437-0.238,0.621-0.416
					c0.184-0.18,0.334-0.393,0.452-0.639c0.117-0.248,0.176-0.52,0.176-0.818c0-0.158-0.021-0.307-0.063-0.449
					c-0.043-0.143-0.111-0.268-0.206-0.373c-0.094-0.107-0.216-0.193-0.365-0.258c-0.148-0.064-0.33-0.098-0.544-0.098
					c-0.253,0-0.499,0.055-0.739,0.166c-0.24,0.109-0.471,0.26-0.691,0.449c-0.221,0.189-0.431,0.414-0.628,0.674
					c-0.198,0.258-0.382,0.537-0.55,0.832c-0.168,0.297-0.32,0.605-0.455,0.926c-0.135,0.32-0.25,0.641-0.345,0.961
					c-0.095,0.318-0.167,0.627-0.218,0.928c-0.051,0.299-0.076,0.576-0.076,0.828c0,0.361,0.045,0.676,0.134,0.943
					c0.09,0.27,0.217,0.492,0.382,0.67c0.164,0.18,0.366,0.313,0.605,0.4c0.238,0.088,0.507,0.131,0.805,0.131
					c0.371,0,0.718-0.045,1.038-0.139c0.321-0.092,0.627-0.215,0.918-0.365s0.572-0.32,0.844-0.51s0.544-0.381,0.816-0.57
					c0.271-0.191,0.549-0.375,0.831-0.547c0.282-0.174,0.581-0.32,0.896-0.439V323.469z"/>
				<path style="fill:#FFFFFF;" d="M174.733,321.307c0.102,0.203,0.178,0.418,0.229,0.645c0.051,0.227,0.076,0.443,0.076,0.648
					c0,0.207-0.023,0.416-0.068,0.627c-0.046,0.211-0.111,0.414-0.197,0.609c-0.086,0.197-0.191,0.381-0.316,0.553
					c-0.125,0.172-0.267,0.32-0.426,0.447c-0.16,0.125-0.334,0.227-0.523,0.299c-0.189,0.074-0.391,0.111-0.604,0.111
					c-0.309,0-0.572-0.068-0.792-0.203c-0.219-0.135-0.398-0.311-0.539-0.529c-0.14-0.217-0.242-0.461-0.308-0.734
					c-0.064-0.273-0.097-0.551-0.097-0.832c0-0.385,0.058-0.746,0.173-1.08c0.116-0.336,0.281-0.627,0.497-0.873
					c0.216-0.248,0.479-0.441,0.792-0.584c0.312-0.143,0.662-0.213,1.052-0.213c0.333,0,0.645,0.051,0.936,0.154
					c0.291,0.103,0.563,0.242,0.818,0.416c0.254,0.174,0.49,0.373,0.71,0.598c0.219,0.225,0.423,0.455,0.612,0.693l-0.1,0.742
					c-0.095-0.127-0.223-0.264-0.385-0.41c-0.161-0.148-0.332-0.291-0.513-0.432c-0.181-0.141-0.358-0.274-0.533-0.397
					c-0.176-0.125-0.326-0.228-0.452-0.315L174.733,321.307z M173.108,324.236c0.119,0,0.234-0.061,0.347-0.182
					c0.112-0.121,0.211-0.273,0.295-0.457c0.084-0.185,0.151-0.389,0.202-0.611c0.051-0.223,0.076-0.436,0.076-0.639
					c0-0.16-0.013-0.31-0.037-0.449s-0.061-0.258-0.11-0.359c-0.049-0.104-0.112-0.184-0.189-0.242
					c-0.077-0.061-0.17-0.09-0.278-0.09c-0.144,0-0.28,0.06-0.41,0.184c-0.13,0.123-0.244,0.279-0.342,0.471
					c-0.099,0.191-0.176,0.402-0.231,0.635c-0.056,0.23-0.084,0.453-0.084,0.668c0,0.146,0.014,0.285,0.042,0.414
					c0.028,0.131,0.071,0.244,0.132,0.34c0.06,0.096,0.138,0.174,0.236,0.23C172.854,324.207,172.972,324.236,173.108,324.236z"/>
				<path style="fill:#FFFFFF;" d="M178.282,324.262c0-0.045,0.004-0.109,0.011-0.193c0.007-0.084,0.018-0.182,0.032-0.289
					c0.014-0.109,0.029-0.225,0.047-0.346c0.018-0.121,0.035-0.24,0.053-0.359c0.038-0.281,0.086-0.582,0.142-0.904h-0.079
					c-0.042,0.053-0.09,0.131-0.145,0.236c-0.054,0.105-0.13,0.26-0.229,0.463c-0.098,0.203-0.224,0.467-0.376,0.791
					c-0.152,0.324-0.35,0.73-0.592,1.217c-0.07,0.145-0.151,0.242-0.244,0.293c-0.093,0.051-0.195,0.076-0.308,0.076
					c-0.143,0-0.26-0.031-0.348-0.092c-0.087-0.063-0.154-0.145-0.202-0.248c-0.047-0.103-0.079-0.221-0.095-0.352
					c-0.016-0.133-0.023-0.268-0.023-0.408c0-0.145,0.009-0.315,0.026-0.51c0.018-0.197,0.04-0.404,0.068-0.621
					s0.061-0.439,0.098-0.664c0.036-0.227,0.075-0.443,0.115-0.65c0.04-0.207,0.081-0.396,0.124-0.568
					c0.042-0.172,0.08-0.313,0.115-0.42c0.035-0.113,0.068-0.201,0.1-0.27c0.032-0.066,0.067-0.117,0.108-0.154
					c0.04-0.037,0.088-0.061,0.145-0.074c0.056-0.012,0.128-0.018,0.216-0.018c0.133,0,0.237,0.004,0.313,0.014
					c0.075,0.008,0.132,0.029,0.168,0.063c0.037,0.033,0.059,0.082,0.066,0.145c0.007,0.063,0.01,0.148,0.01,0.258
					c0,0.061-0.002,0.129-0.008,0.205c-0.005,0.076-0.013,0.16-0.023,0.248c-0.011,0.086-0.021,0.178-0.034,0.27
					c-0.013,0.094-0.025,0.184-0.039,0.271c-0.032,0.207-0.065,0.42-0.1,0.641l0.059,0.065c0.007-0.012,0.044-0.078,0.112-0.201
					c0.068-0.121,0.153-0.27,0.253-0.441c0.1-0.172,0.208-0.352,0.323-0.539c0.116-0.188,0.227-0.353,0.331-0.496
					c0.102-0.145,0.21-0.264,0.323-0.357c0.114-0.096,0.25-0.143,0.408-0.143c0.148,0,0.273,0.043,0.379,0.129
					c0.104,0.086,0.157,0.207,0.157,0.365c0,0.137-0.009,0.266-0.026,0.389c-0.018,0.123-0.039,0.242-0.065,0.358
					c-0.026,0.117-0.054,0.23-0.082,0.34c-0.027,0.111-0.054,0.223-0.078,0.34c-0.018,0.08-0.028,0.131-0.032,0.152
					c-0.003,0.021-0.005,0.035-0.005,0.041l0.058,0.065c0.007-0.012,0.048-0.076,0.121-0.197c0.073-0.121,0.164-0.268,0.27-0.44
					c0.107-0.172,0.221-0.353,0.342-0.541c0.121-0.189,0.234-0.357,0.34-0.5c0.102-0.141,0.203-0.26,0.305-0.355
					c0.102-0.096,0.227-0.145,0.373-0.145c0.165,0,0.305,0.043,0.418,0.129c0.114,0.086,0.171,0.207,0.171,0.365
					c0,0.242-0.012,0.471-0.036,0.689c-0.024,0.217-0.053,0.432-0.084,0.641c-0.032,0.211-0.059,0.424-0.085,0.639
					c-0.024,0.217-0.036,0.445-0.036,0.688c0,0.19,0.025,0.344,0.073,0.463c0.049,0.119,0.108,0.178,0.179,0.178
					c0.074,0,0.151-0.016,0.231-0.047c0.081-0.031,0.163-0.072,0.247-0.121s0.167-0.105,0.247-0.17
					c0.081-0.066,0.158-0.133,0.231-0.203c0.172-0.162,0.342-0.344,0.511-0.547l0.089,1.24c-0.154,0.123-0.308,0.25-0.46,0.383
					c-0.152,0.131-0.313,0.25-0.483,0.357c-0.171,0.105-0.357,0.193-0.561,0.262c-0.203,0.068-0.433,0.104-0.688,0.104
					c-0.127,0-0.232-0.041-0.318-0.125c-0.086-0.082-0.155-0.195-0.208-0.344c-0.053-0.147-0.09-0.32-0.113-0.52
					c-0.022-0.201-0.034-0.418-0.034-0.652c0-0.221,0.008-0.455,0.024-0.703c0.016-0.246,0.037-0.496,0.066-0.748h-0.079
					l-1.067,2.719c-0.091,0.147-0.192,0.246-0.305,0.297c-0.112,0.051-0.242,0.076-0.39,0.076c-0.112,0-0.201-0.031-0.268-0.092
					c-0.067-0.063-0.119-0.141-0.155-0.238c-0.037-0.096-0.061-0.201-0.074-0.316C178.289,324.482,178.282,324.371,178.282,324.262z
					"/>
				<path style="fill:#FFFFFF;" d="M185.183,324.262c0-0.045,0.004-0.109,0.011-0.193c0.007-0.084,0.018-0.182,0.032-0.289
					c0.014-0.109,0.029-0.225,0.047-0.346c0.017-0.121,0.035-0.24,0.053-0.359c0.038-0.281,0.086-0.582,0.142-0.904h-0.079
					c-0.042,0.053-0.09,0.131-0.145,0.236c-0.054,0.105-0.13,0.26-0.229,0.463c-0.098,0.203-0.224,0.467-0.376,0.791
					c-0.152,0.324-0.35,0.73-0.592,1.217c-0.07,0.145-0.151,0.242-0.244,0.293c-0.093,0.051-0.195,0.076-0.308,0.076
					c-0.144,0-0.26-0.031-0.348-0.092c-0.087-0.063-0.154-0.145-0.202-0.248c-0.047-0.103-0.079-0.221-0.095-0.352
					c-0.016-0.133-0.023-0.268-0.023-0.408c0-0.145,0.009-0.315,0.026-0.51c0.018-0.197,0.04-0.404,0.068-0.621
					c0.028-0.217,0.061-0.439,0.098-0.664c0.036-0.227,0.075-0.443,0.115-0.65c0.04-0.207,0.081-0.396,0.124-0.568
					c0.042-0.172,0.08-0.313,0.115-0.42c0.035-0.113,0.068-0.201,0.1-0.27c0.032-0.066,0.067-0.117,0.108-0.154
					c0.04-0.037,0.088-0.061,0.145-0.074c0.056-0.012,0.128-0.018,0.216-0.018c0.133,0,0.237,0.004,0.313,0.014
					c0.075,0.008,0.132,0.029,0.168,0.063c0.037,0.033,0.059,0.082,0.066,0.145c0.007,0.063,0.01,0.148,0.01,0.258
					c0,0.061-0.002,0.129-0.008,0.205c-0.005,0.076-0.013,0.16-0.023,0.248c-0.011,0.086-0.021,0.178-0.034,0.27
					c-0.013,0.094-0.025,0.184-0.039,0.271c-0.032,0.207-0.065,0.42-0.101,0.641l0.059,0.065c0.007-0.012,0.044-0.078,0.112-0.201
					c0.068-0.121,0.153-0.27,0.253-0.441c0.1-0.172,0.208-0.352,0.323-0.539c0.116-0.188,0.227-0.353,0.331-0.496
					c0.102-0.145,0.21-0.264,0.323-0.357c0.114-0.096,0.25-0.143,0.408-0.143c0.148,0,0.273,0.043,0.379,0.129
					c0.104,0.086,0.157,0.207,0.157,0.365c0,0.137-0.009,0.266-0.026,0.389c-0.018,0.123-0.039,0.242-0.065,0.358
					c-0.026,0.117-0.054,0.23-0.082,0.34c-0.027,0.111-0.054,0.223-0.078,0.34c-0.018,0.08-0.028,0.131-0.032,0.152
					c-0.003,0.021-0.005,0.035-0.005,0.041l0.058,0.065c0.007-0.012,0.048-0.076,0.121-0.197s0.164-0.268,0.271-0.44
					c0.107-0.172,0.221-0.353,0.342-0.541c0.121-0.189,0.234-0.357,0.34-0.5c0.102-0.141,0.203-0.26,0.305-0.355
					c0.102-0.096,0.227-0.145,0.373-0.145c0.165,0,0.305,0.043,0.418,0.129c0.114,0.086,0.171,0.207,0.171,0.365
					c0,0.242-0.012,0.471-0.036,0.689c-0.024,0.217-0.053,0.432-0.084,0.641c-0.032,0.211-0.059,0.424-0.085,0.639
					c-0.024,0.217-0.036,0.445-0.036,0.688c0,0.19,0.024,0.344,0.073,0.463c0.049,0.119,0.108,0.178,0.179,0.178
					c0.074,0,0.151-0.016,0.231-0.047c0.081-0.031,0.163-0.072,0.247-0.121s0.167-0.105,0.247-0.17
					c0.081-0.066,0.158-0.133,0.231-0.203c0.172-0.162,0.342-0.344,0.511-0.547l0.089,1.24c-0.154,0.123-0.308,0.25-0.46,0.383
					c-0.152,0.131-0.313,0.25-0.483,0.357c-0.171,0.105-0.357,0.193-0.561,0.262c-0.203,0.068-0.433,0.104-0.688,0.104
					c-0.127,0-0.232-0.041-0.318-0.125c-0.086-0.082-0.155-0.195-0.208-0.344c-0.053-0.147-0.09-0.32-0.113-0.52
					c-0.022-0.201-0.034-0.418-0.034-0.652c0-0.221,0.008-0.455,0.024-0.703c0.016-0.246,0.037-0.496,0.065-0.748h-0.079
					l-1.067,2.719c-0.091,0.147-0.192,0.246-0.305,0.297c-0.112,0.051-0.242,0.076-0.39,0.076c-0.112,0-0.201-0.031-0.268-0.092
					c-0.067-0.063-0.119-0.141-0.155-0.238c-0.037-0.096-0.062-0.201-0.074-0.316C185.189,324.482,185.183,324.371,185.183,324.262z
					"/>
				<path style="fill:#FFFFFF;" d="M193.828,320.539c0,0.094-0.011,0.223-0.031,0.387c-0.021,0.162-0.048,0.342-0.082,0.535
					c-0.033,0.195-0.068,0.396-0.107,0.603c-0.038,0.207-0.074,0.398-0.107,0.578c-0.033,0.18-0.061,0.336-0.082,0.471
					c-0.02,0.135-0.031,0.229-0.031,0.281c0,0.098,0.002,0.188,0.005,0.271c0.004,0.082,0.015,0.154,0.032,0.215
					c0.018,0.061,0.044,0.109,0.081,0.143c0.037,0.033,0.09,0.049,0.16,0.049c0.077,0,0.171-0.02,0.281-0.057
					c0.111-0.039,0.229-0.09,0.352-0.156c0.125-0.064,0.252-0.139,0.382-0.221c0.129-0.082,0.253-0.168,0.37-0.26
					c0.118-0.092,0.225-0.182,0.321-0.272c0.096-0.09,0.174-0.172,0.233-0.25c0,0.117,0.001,0.221,0.003,0.316
					c0.002,0.094,0.003,0.186,0.003,0.272c0,0.086,0.001,0.174,0.002,0.266c0.002,0.09,0.003,0.191,0.003,0.305
					c-0.077,0.076-0.173,0.158-0.286,0.246c-0.114,0.088-0.24,0.176-0.379,0.264c-0.139,0.088-0.286,0.172-0.441,0.252
					c-0.156,0.08-0.313,0.152-0.471,0.213c-0.158,0.063-0.314,0.111-0.469,0.148c-0.154,0.035-0.298,0.055-0.431,0.055
					c-0.134,0-0.247-0.027-0.342-0.08c-0.095-0.051-0.177-0.125-0.245-0.221c-0.068-0.094-0.126-0.207-0.173-0.338
					c-0.048-0.133-0.089-0.279-0.124-0.439c-0.126,0.164-0.26,0.316-0.4,0.455c-0.141,0.139-0.283,0.258-0.429,0.359
					c-0.146,0.102-0.293,0.182-0.441,0.24c-0.149,0.057-0.294,0.086-0.434,0.086c-0.115,0-0.224-0.02-0.325-0.057
					c-0.103-0.039-0.192-0.103-0.271-0.195c-0.079-0.092-0.141-0.211-0.186-0.361c-0.046-0.148-0.068-0.334-0.068-0.555
					c0-0.27,0.032-0.613,0.098-1.029c0.064-0.418,0.145-0.895,0.239-1.432c0.007-0.053,0.02-0.123,0.039-0.213
					c0.02-0.09,0.046-0.186,0.079-0.291s0.074-0.213,0.123-0.32c0.05-0.109,0.107-0.207,0.174-0.295
					c0.066-0.088,0.145-0.16,0.234-0.217c0.089-0.055,0.19-0.086,0.302-0.088c0.187,0.006,0.319,0.029,0.4,0.07
					c0.08,0.041,0.12,0.09,0.12,0.15c-0.031,0.186-0.065,0.393-0.103,0.619c-0.036,0.229-0.074,0.459-0.112,0.689
					c-0.039,0.232-0.076,0.457-0.11,0.676c-0.035,0.219-0.067,0.414-0.095,0.586c-0.028,0.172-0.05,0.311-0.066,0.416
					c-0.016,0.105-0.024,0.16-0.024,0.164c0,0.063,0.006,0.123,0.019,0.18c0.013,0.059,0.03,0.111,0.056,0.156
					c0.025,0.045,0.056,0.082,0.094,0.109c0.039,0.029,0.085,0.043,0.137,0.043c0.077,0,0.156-0.02,0.237-0.061
					c0.08-0.041,0.156-0.098,0.229-0.174c0.072-0.074,0.136-0.168,0.192-0.279c0.056-0.109,0.098-0.234,0.126-0.375l0.52-2.672
					c0.018-0.084,0.089-0.154,0.213-0.213c0.124-0.059,0.266-0.086,0.424-0.086c0.179,0,0.32,0.031,0.426,0.094
					C193.775,320.359,193.828,320.441,193.828,320.539z"/>
				<path style="fill:#FFFFFF;" d="M194.953,324.147c0-0.231,0.015-0.498,0.042-0.803c0.028-0.303,0.063-0.611,0.105-0.924
					c0.042-0.314,0.09-0.617,0.142-0.908c0.053-0.291,0.104-0.539,0.153-0.746c0.038-0.162,0.112-0.297,0.223-0.406
					c0.111-0.107,0.261-0.162,0.45-0.162c0.189,0,0.32,0.059,0.395,0.174c0.073,0.115,0.11,0.27,0.11,0.463
					c0,0.053-0.006,0.123-0.016,0.213c-0.011,0.09-0.024,0.188-0.04,0.295c-0.016,0.105-0.032,0.217-0.05,0.33
					c-0.018,0.115-0.034,0.219-0.05,0.316c-0.016,0.096-0.029,0.18-0.039,0.252c-0.011,0.072-0.017,0.119-0.017,0.145h0.105
					c0.021-0.039,0.055-0.102,0.1-0.188c0.046-0.086,0.099-0.184,0.158-0.297c0.06-0.111,0.124-0.23,0.192-0.354
					c0.068-0.125,0.132-0.244,0.191-0.359c0.059-0.113,0.114-0.213,0.163-0.301c0.049-0.088,0.086-0.152,0.11-0.195
					c0.112-0.19,0.24-0.318,0.384-0.389c0.144-0.07,0.304-0.105,0.479-0.105c0.176,0,0.314,0.074,0.418,0.221
					c0.104,0.146,0.155,0.352,0.155,0.609c0,0.039-0.008,0.103-0.023,0.195c-0.016,0.092-0.036,0.199-0.061,0.326
					c-0.024,0.127-0.052,0.264-0.081,0.416c-0.03,0.15-0.058,0.305-0.082,0.463c-0.024,0.156-0.045,0.313-0.061,0.467
					c-0.016,0.154-0.023,0.297-0.023,0.426c0,0.219,0.027,0.396,0.081,0.537c0.055,0.141,0.14,0.211,0.256,0.211
					c0.052,0,0.112-0.016,0.181-0.049c0.068-0.031,0.143-0.072,0.222-0.123c0.078-0.051,0.159-0.109,0.241-0.176
					c0.083-0.066,0.164-0.135,0.245-0.205c0.186-0.164,0.38-0.352,0.583-0.557l0.09,1.178l-0.263,0.199
					c-0.145,0.109-0.29,0.217-0.439,0.326s-0.304,0.205-0.465,0.291c-0.162,0.086-0.33,0.156-0.505,0.211
					c-0.176,0.055-0.359,0.082-0.553,0.082c-0.192,0-0.355-0.141-0.486-0.418c-0.132-0.279-0.197-0.688-0.197-1.223
					c0-0.211,0.014-0.438,0.042-0.682c0.028-0.244,0.063-0.506,0.105-0.787h-0.084l-1.378,2.736c-0.07,0.143-0.149,0.24-0.236,0.293
					c-0.088,0.053-0.189,0.08-0.306,0.08c-0.144,0-0.26-0.031-0.347-0.092c-0.088-0.063-0.155-0.145-0.203-0.248
					c-0.047-0.103-0.078-0.221-0.094-0.352C194.961,324.422,194.953,324.287,194.953,324.147z"/>
				<path style="fill:#FFFFFF;" d="M203.025,324.125c-0.126,0.115-0.283,0.24-0.471,0.371c-0.188,0.131-0.39,0.252-0.607,0.363
					c-0.217,0.109-0.438,0.203-0.665,0.275c-0.226,0.074-0.44,0.111-0.643,0.111c-0.183,0-0.336-0.025-0.461-0.076
					c-0.124-0.051-0.225-0.123-0.302-0.213c-0.077-0.092-0.133-0.203-0.166-0.334c-0.033-0.133-0.05-0.277-0.05-0.434
					c0-0.223,0.025-0.478,0.076-0.771c0.051-0.293,0.113-0.596,0.187-0.91c0.074-0.313,0.151-0.627,0.234-0.938
					c0.082-0.313,0.155-0.6,0.218-0.863c0.024-0.092,0.074-0.168,0.148-0.234c0.073-0.064,0.157-0.117,0.25-0.156
					c0.093-0.041,0.189-0.07,0.289-0.09c0.1-0.02,0.191-0.029,0.271-0.029c0.148,0,0.247,0.027,0.3,0.082
					c0.053,0.055,0.079,0.127,0.079,0.217c0,0.078-0.018,0.189-0.053,0.334c-0.035,0.147-0.079,0.311-0.131,0.494
					c-0.053,0.186-0.109,0.383-0.169,0.596c-0.06,0.211-0.115,0.424-0.168,0.637c-0.053,0.211-0.097,0.418-0.132,0.619
					c-0.035,0.201-0.052,0.383-0.052,0.545c0,0.158,0.017,0.283,0.052,0.375c0.035,0.094,0.107,0.141,0.216,0.141
					c0.126,0,0.267-0.045,0.421-0.133c0.154-0.086,0.311-0.193,0.468-0.316c0.158-0.125,0.313-0.254,0.463-0.387
					c0.15-0.135,0.284-0.248,0.399-0.342V324.125z M200.675,318.719c0-0.08,0.018-0.172,0.053-0.273
					c0.035-0.102,0.092-0.197,0.171-0.285c0.079-0.09,0.185-0.166,0.315-0.227c0.132-0.063,0.296-0.092,0.492-0.092
					c0.122,0,0.238,0.014,0.347,0.041c0.108,0.029,0.203,0.072,0.284,0.129c0.08,0.059,0.145,0.135,0.191,0.229
					c0.048,0.096,0.071,0.207,0.071,0.338c0,0.119-0.02,0.234-0.058,0.346c-0.039,0.113-0.1,0.213-0.185,0.301
					c-0.084,0.088-0.189,0.158-0.317,0.213c-0.128,0.055-0.281,0.082-0.461,0.082c-0.308,0-0.536-0.074-0.684-0.219
					C200.749,319.154,200.675,318.961,200.675,318.719z"/>
				<path style="fill:#FFFFFF;" d="M204.277,325.246c-0.322,0-0.605-0.061-0.849-0.18c-0.244-0.119-0.448-0.277-0.613-0.479
					c-0.165-0.199-0.289-0.432-0.373-0.693c-0.084-0.264-0.126-0.537-0.126-0.82c0-0.203,0.02-0.416,0.063-0.637
					c0.042-0.221,0.104-0.438,0.186-0.65c0.083-0.211,0.185-0.414,0.306-0.607c0.121-0.191,0.261-0.361,0.421-0.506
					c0.159-0.146,0.337-0.262,0.533-0.348c0.196-0.086,0.412-0.129,0.646-0.129c0.2,0,0.385,0.031,0.556,0.092
					c0.17,0.061,0.316,0.146,0.437,0.256c0.12,0.107,0.215,0.236,0.283,0.387c0.068,0.148,0.102,0.309,0.102,0.48
					c0,0.119-0.016,0.236-0.047,0.352c-0.031,0.117-0.078,0.221-0.14,0.314c-0.062,0.092-0.136,0.166-0.224,0.223
					c-0.087,0.057-0.186,0.084-0.294,0.084c-0.165,0-0.272-0.043-0.323-0.131c-0.051-0.088-0.076-0.209-0.076-0.363
					c0-0.063,0.002-0.129,0.008-0.199c0.005-0.07,0.008-0.135,0.008-0.19c0-0.084-0.009-0.154-0.026-0.211
					c-0.018-0.057-0.057-0.084-0.116-0.084c-0.143,0-0.267,0.033-0.368,0.102c-0.102,0.068-0.189,0.158-0.26,0.27
					c-0.072,0.109-0.129,0.234-0.171,0.373c-0.042,0.139-0.075,0.275-0.101,0.412c-0.024,0.137-0.04,0.268-0.047,0.393
					c-0.007,0.125-0.011,0.229-0.011,0.313c0,0.127,0.012,0.258,0.034,0.395c0.023,0.137,0.066,0.262,0.129,0.377
					c0.064,0.113,0.149,0.207,0.258,0.283c0.108,0.076,0.249,0.113,0.421,0.113c0.168,0,0.354-0.053,0.558-0.156
					c0.203-0.103,0.407-0.232,0.612-0.391c0.205-0.158,0.4-0.332,0.586-0.521c0.187-0.189,0.346-0.367,0.479-0.535l0.363,0.609
					c-0.263,0.375-0.547,0.709-0.852,1.004c-0.13,0.127-0.271,0.25-0.424,0.369c-0.152,0.119-0.312,0.225-0.479,0.318
					c-0.166,0.092-0.34,0.168-0.521,0.225C204.646,325.217,204.463,325.246,204.277,325.246z"/>
				<path style="fill:#FFFFFF;" d="M212.023,323.957c-0.081,0.113-0.188,0.244-0.323,0.395c-0.135,0.15-0.287,0.295-0.455,0.432
					s-0.349,0.252-0.542,0.348c-0.192,0.094-0.386,0.141-0.578,0.141c-0.231,0-0.424-0.074-0.578-0.223
					c-0.154-0.148-0.288-0.365-0.4-0.65c-0.084,0.1-0.188,0.199-0.31,0.301c-0.123,0.102-0.257,0.193-0.402,0.275
					c-0.146,0.082-0.298,0.15-0.455,0.203c-0.158,0.053-0.315,0.078-0.474,0.078c-0.168,0-0.332-0.033-0.491-0.102
					c-0.16-0.068-0.301-0.168-0.424-0.295c-0.122-0.129-0.221-0.285-0.294-0.469c-0.074-0.184-0.11-0.391-0.11-0.623
					c0-0.262,0.036-0.533,0.11-0.808c0.073-0.277,0.175-0.549,0.305-0.813c0.13-0.266,0.283-0.516,0.46-0.75
					c0.177-0.234,0.371-0.44,0.581-0.615c0.211-0.176,0.433-0.314,0.665-0.418c0.233-0.103,0.471-0.156,0.713-0.156
					c0.081,0,0.144,0.016,0.19,0.049c0.046,0.031,0.083,0.066,0.113,0.107c0.029,0.039,0.059,0.08,0.087,0.117
					c0.027,0.039,0.063,0.066,0.104,0.084c0.042,0.018,0.085,0.029,0.129,0.035c0.044,0.006,0.089,0.008,0.135,0.008
					c0.038,0,0.077,0,0.118-0.002c0.04-0.002,0.079-0.004,0.118-0.004c0.053,0,0.102,0.006,0.147,0.016
					c0.045,0.012,0.086,0.033,0.121,0.068c0.034,0.035,0.061,0.084,0.081,0.149c0.02,0.063,0.029,0.148,0.029,0.258
					c0,0.168-0.018,0.354-0.053,0.559c-0.035,0.205-0.074,0.416-0.116,0.633c-0.042,0.215-0.08,0.43-0.115,0.646
					c-0.035,0.215-0.053,0.42-0.053,0.611c0,0.166,0.015,0.295,0.045,0.387c0.029,0.094,0.094,0.141,0.191,0.141
					c0.074,0,0.151-0.02,0.231-0.057c0.081-0.035,0.162-0.084,0.245-0.145c0.082-0.059,0.164-0.127,0.247-0.201
					c0.082-0.076,0.16-0.154,0.233-0.234c0.172-0.189,0.346-0.404,0.521-0.643L212.023,323.957z M207.532,323.541
					c0,0.088,0.006,0.174,0.019,0.256c0.013,0.082,0.034,0.156,0.065,0.221c0.032,0.065,0.074,0.117,0.127,0.158
					c0.052,0.039,0.119,0.061,0.199,0.061c0.13,0,0.247-0.057,0.353-0.168c0.105-0.113,0.196-0.248,0.273-0.406
					c0.077-0.156,0.14-0.32,0.186-0.488c0.048-0.168,0.078-0.309,0.092-0.42l0.321-1.547c-0.144,0-0.284,0.035-0.421,0.107
					c-0.137,0.072-0.266,0.17-0.387,0.293c-0.121,0.121-0.232,0.262-0.334,0.42c-0.102,0.158-0.188,0.324-0.263,0.496
					c-0.073,0.174-0.131,0.35-0.171,0.523C207.553,323.223,207.532,323.387,207.532,323.541z"/>
				<path style="fill:#FFFFFF;" d="M215.778,324.068c-0.337,0.195-0.637,0.367-0.899,0.514c-0.263,0.148-0.497,0.271-0.702,0.369
					c-0.205,0.098-0.388,0.172-0.547,0.221c-0.16,0.049-0.305,0.074-0.434,0.074c-0.267,0-0.502-0.082-0.705-0.242
					c-0.203-0.162-0.373-0.395-0.51-0.697c-0.137-0.303-0.239-0.67-0.308-1.102c-0.068-0.432-0.102-0.916-0.102-1.457
					c0-0.209,0.009-0.434,0.026-0.672c0.017-0.238,0.042-0.477,0.073-0.711c-0.105-0.014-0.186-0.027-0.244-0.039
					c-0.059-0.012-0.12-0.025-0.185-0.037c-0.064-0.012-0.148-0.025-0.247-0.039c-0.1-0.014-0.244-0.031-0.434-0.053
					c-0.084-0.01-0.149-0.031-0.195-0.061c-0.045-0.029-0.078-0.064-0.1-0.105c-0.021-0.039-0.033-0.082-0.037-0.125
					c-0.003-0.045-0.005-0.082-0.005-0.113c0-0.07,0.034-0.125,0.103-0.16c0.068-0.037,0.156-0.065,0.263-0.082
					c0.107-0.017,0.225-0.027,0.353-0.029c0.128-0.002,0.251,0,0.368,0.002c0.117,0.004,0.223,0.006,0.316,0.008
					c0.093,0.002,0.157,0,0.192-0.008c0.095-0.473,0.215-0.932,0.36-1.375c0.145-0.443,0.308-0.838,0.488-1.184
					c0.181-0.344,0.378-0.621,0.592-0.83c0.214-0.209,0.438-0.313,0.673-0.313c0.151,0,0.289,0.041,0.413,0.125
					c0.125,0.084,0.23,0.197,0.318,0.338s0.155,0.303,0.202,0.49c0.048,0.189,0.071,0.385,0.071,0.588
					c0,0.172-0.024,0.354-0.073,0.543c-0.05,0.191-0.116,0.387-0.2,0.584c-0.084,0.199-0.184,0.398-0.297,0.603
					c-0.114,0.203-0.234,0.404-0.36,0.604c0.031,0.004,0.084,0.006,0.157,0.008c0.074,0.002,0.159,0.004,0.256,0.008
					c0.096,0.004,0.2,0.008,0.313,0.014c0.112,0.006,0.221,0.01,0.326,0.014s0.203,0.006,0.294,0.01
					c0.092,0.004,0.167,0.008,0.227,0.01c0.07,0.004,0.121,0.039,0.152,0.105c0.031,0.066,0.048,0.152,0.048,0.254
					c0,0.121-0.035,0.223-0.105,0.299c-0.07,0.078-0.147,0.115-0.231,0.115h-2.02c-0.102,0.141-0.204,0.279-0.308,0.414
					c-0.104,0.135-0.199,0.256-0.286,0.365c-0.015,0.217-0.026,0.432-0.037,0.641c-0.004,0.092-0.007,0.186-0.011,0.281
					c-0.003,0.098-0.007,0.193-0.011,0.287c-0.003,0.096-0.006,0.185-0.008,0.273c-0.002,0.088-0.002,0.168-0.002,0.242
					c0,0.189,0.018,0.35,0.052,0.478c0.035,0.129,0.086,0.236,0.153,0.318c0.066,0.082,0.148,0.142,0.244,0.178
					c0.097,0.037,0.204,0.057,0.323,0.057c0.074,0,0.166-0.018,0.276-0.053c0.11-0.035,0.231-0.084,0.362-0.145
					c0.132-0.063,0.271-0.135,0.416-0.219c0.146-0.084,0.289-0.176,0.431-0.275c0.143-0.102,0.278-0.205,0.408-0.316
					c0.13-0.111,0.247-0.223,0.353-0.34V324.068z M214.095,317.41c0-0.039-0.002-0.082-0.008-0.129
					c-0.005-0.047-0.017-0.092-0.034-0.135c-0.018-0.041-0.044-0.076-0.081-0.106c-0.037-0.027-0.089-0.041-0.155-0.041
					c-0.091,0-0.184,0.08-0.276,0.242c-0.093,0.16-0.182,0.367-0.267,0.617c-0.086,0.25-0.167,0.527-0.242,0.828
					c-0.075,0.303-0.145,0.594-0.208,0.879c0.053,0.006,0.105,0.014,0.158,0.018c0.053,0.006,0.106,0.012,0.163,0.019
					c0.104-0.18,0.215-0.373,0.328-0.582c0.114-0.209,0.217-0.414,0.308-0.615c0.092-0.201,0.167-0.391,0.227-0.564
					C214.065,317.666,214.095,317.522,214.095,317.41z"/>
				<path style="fill:#FFFFFF;" d="M218.813,324.125c-0.126,0.115-0.283,0.24-0.471,0.371c-0.188,0.131-0.39,0.252-0.607,0.363
					c-0.217,0.109-0.439,0.203-0.665,0.275c-0.226,0.074-0.44,0.111-0.644,0.111c-0.183,0-0.336-0.025-0.461-0.076
					c-0.124-0.051-0.225-0.123-0.302-0.213c-0.077-0.092-0.133-0.203-0.166-0.334c-0.033-0.133-0.05-0.277-0.05-0.434
					c0-0.223,0.025-0.478,0.076-0.771c0.051-0.293,0.113-0.596,0.187-0.91c0.074-0.313,0.151-0.627,0.234-0.938
					c0.082-0.313,0.155-0.6,0.218-0.863c0.024-0.092,0.074-0.168,0.148-0.234c0.073-0.064,0.157-0.117,0.25-0.156
					c0.093-0.041,0.189-0.07,0.289-0.09c0.1-0.02,0.19-0.029,0.27-0.029c0.148,0,0.247,0.027,0.3,0.082
					c0.053,0.055,0.079,0.127,0.079,0.217c0,0.078-0.018,0.189-0.053,0.334c-0.035,0.147-0.079,0.311-0.131,0.494
					c-0.053,0.186-0.109,0.383-0.169,0.596c-0.06,0.211-0.115,0.424-0.168,0.637c-0.053,0.211-0.097,0.418-0.132,0.619
					c-0.035,0.201-0.052,0.383-0.052,0.545c0,0.158,0.017,0.283,0.052,0.375c0.035,0.094,0.107,0.141,0.216,0.141
					c0.126,0,0.267-0.045,0.421-0.133c0.154-0.086,0.311-0.193,0.468-0.316c0.158-0.125,0.313-0.254,0.463-0.387
					c0.15-0.135,0.284-0.248,0.399-0.342V324.125z M216.462,318.719c0-0.08,0.018-0.172,0.053-0.273
					c0.035-0.102,0.092-0.197,0.171-0.285c0.079-0.09,0.185-0.166,0.316-0.227c0.132-0.063,0.296-0.092,0.492-0.092
					c0.122,0,0.238,0.014,0.347,0.041c0.108,0.029,0.203,0.072,0.284,0.129c0.08,0.059,0.145,0.135,0.191,0.229
					c0.048,0.096,0.071,0.207,0.071,0.338c0,0.119-0.02,0.234-0.058,0.346c-0.039,0.113-0.1,0.213-0.185,0.301
					c-0.084,0.088-0.189,0.158-0.317,0.213c-0.128,0.055-0.281,0.082-0.461,0.082c-0.308,0-0.536-0.074-0.684-0.219
					C216.536,319.154,216.462,318.961,216.462,318.719z"/>
				<path style="fill:#FFFFFF;" d="M221.668,321.307c0.102,0.203,0.178,0.418,0.229,0.645c0.051,0.227,0.076,0.443,0.076,0.648
					c0,0.207-0.023,0.416-0.068,0.627c-0.046,0.211-0.111,0.414-0.197,0.609c-0.086,0.197-0.191,0.381-0.315,0.553
					c-0.125,0.172-0.267,0.32-0.426,0.447c-0.16,0.125-0.334,0.227-0.523,0.299c-0.189,0.074-0.391,0.111-0.604,0.111
					c-0.309,0-0.572-0.068-0.792-0.203c-0.219-0.135-0.398-0.311-0.539-0.529c-0.14-0.217-0.242-0.461-0.308-0.734
					c-0.064-0.273-0.097-0.551-0.097-0.832c0-0.385,0.058-0.746,0.173-1.08c0.116-0.336,0.281-0.627,0.497-0.873
					c0.216-0.248,0.479-0.441,0.792-0.584c0.312-0.143,0.662-0.213,1.052-0.213c0.333,0,0.645,0.051,0.936,0.154
					c0.291,0.103,0.563,0.242,0.818,0.416c0.254,0.174,0.49,0.373,0.71,0.598c0.219,0.225,0.423,0.455,0.612,0.693l-0.1,0.742
					c-0.095-0.127-0.223-0.264-0.385-0.41c-0.161-0.148-0.332-0.291-0.513-0.432c-0.181-0.141-0.358-0.274-0.533-0.397
					c-0.176-0.125-0.326-0.228-0.452-0.315L221.668,321.307z M220.043,324.236c0.119,0,0.234-0.061,0.347-0.182
					c0.112-0.121,0.211-0.273,0.295-0.457c0.084-0.185,0.151-0.389,0.202-0.611c0.051-0.223,0.076-0.436,0.076-0.639
					c0-0.16-0.013-0.31-0.037-0.449s-0.061-0.258-0.11-0.359c-0.049-0.104-0.112-0.184-0.189-0.242
					c-0.077-0.061-0.17-0.09-0.278-0.09c-0.144,0-0.28,0.06-0.41,0.184c-0.13,0.123-0.244,0.279-0.342,0.471
					c-0.099,0.191-0.176,0.402-0.231,0.635c-0.056,0.23-0.084,0.453-0.084,0.668c0,0.146,0.014,0.285,0.042,0.414
					c0.028,0.131,0.071,0.244,0.132,0.34c0.06,0.096,0.138,0.174,0.236,0.23C219.788,324.207,219.906,324.236,220.043,324.236z"/>
				<path style="fill:#FFFFFF;" d="M223.03,324.147c0-0.231,0.015-0.498,0.042-0.803c0.028-0.303,0.063-0.611,0.105-0.924
					c0.042-0.314,0.09-0.617,0.142-0.908c0.053-0.291,0.104-0.539,0.153-0.746c0.038-0.162,0.112-0.297,0.223-0.406
					c0.111-0.107,0.261-0.162,0.45-0.162c0.19,0,0.32,0.059,0.395,0.174c0.073,0.115,0.11,0.27,0.11,0.463
					c0,0.053-0.006,0.123-0.016,0.213c-0.011,0.09-0.024,0.188-0.04,0.295c-0.016,0.105-0.032,0.217-0.05,0.33
					c-0.018,0.115-0.034,0.219-0.05,0.316c-0.016,0.096-0.029,0.18-0.039,0.252c-0.011,0.072-0.017,0.119-0.017,0.145h0.105
					c0.021-0.039,0.055-0.102,0.1-0.188c0.046-0.086,0.099-0.184,0.158-0.297c0.06-0.111,0.124-0.23,0.192-0.354
					c0.068-0.125,0.132-0.244,0.191-0.359c0.06-0.113,0.114-0.213,0.163-0.301c0.049-0.088,0.086-0.152,0.11-0.195
					c0.112-0.19,0.24-0.318,0.384-0.389c0.144-0.07,0.304-0.105,0.479-0.105c0.176,0,0.314,0.074,0.418,0.221
					c0.104,0.146,0.155,0.352,0.155,0.609c0,0.039-0.008,0.103-0.023,0.195c-0.016,0.092-0.036,0.199-0.061,0.326
					c-0.024,0.127-0.052,0.264-0.081,0.416c-0.03,0.15-0.058,0.305-0.082,0.463c-0.024,0.156-0.045,0.313-0.061,0.467
					c-0.016,0.154-0.023,0.297-0.023,0.426c0,0.219,0.027,0.396,0.081,0.537c0.055,0.141,0.14,0.211,0.256,0.211
					c0.052,0,0.112-0.016,0.181-0.049c0.068-0.031,0.143-0.072,0.222-0.123c0.078-0.051,0.159-0.109,0.241-0.176
					c0.083-0.066,0.164-0.135,0.245-0.205c0.186-0.164,0.38-0.352,0.583-0.557l0.09,1.178l-0.263,0.199
					c-0.145,0.109-0.29,0.217-0.439,0.326c-0.149,0.109-0.304,0.205-0.465,0.291c-0.162,0.086-0.33,0.156-0.505,0.211
					c-0.176,0.055-0.359,0.082-0.553,0.082c-0.192,0-0.354-0.141-0.486-0.418c-0.132-0.279-0.197-0.688-0.197-1.223
					c0-0.211,0.014-0.438,0.042-0.682c0.028-0.244,0.064-0.506,0.105-0.787h-0.084l-1.378,2.736c-0.07,0.143-0.149,0.24-0.236,0.293
					c-0.088,0.053-0.189,0.08-0.306,0.08c-0.143,0-0.26-0.031-0.347-0.092c-0.088-0.063-0.155-0.145-0.203-0.248
					c-0.047-0.103-0.078-0.221-0.094-0.352C223.038,324.422,223.03,324.287,223.03,324.147z"/>
			</g>
		</g>
		<g>
			<g>
				<path style="fill:#FFFFFF;" d="M214.884,279.518c-0.793,0.744-2.037,0.704-2.781-0.088c-8.115-8.645-21.75-9.078-30.395-0.965
					c-0.793,0.744-2.039,0.705-2.783-0.088c-0.744-0.792-0.705-2.038,0.09-2.781c10.227-9.6,26.359-9.089,35.959,1.14
					C215.716,277.529,215.677,278.774,214.884,279.518z"/>
			</g>
			<g>
				<path style="fill:#FFFFFF;" d="M210.63,284.267c-0.793,0.744-2.039,0.703-2.783-0.089c-5.912-6.3-15.846-6.614-22.146-0.702
					c-0.793,0.744-2.039,0.704-2.783-0.089c-0.742-0.792-0.703-2.038,0.09-2.781c7.881-7.398,20.313-7.003,27.711,0.878
					C211.462,282.276,211.423,283.522,210.63,284.267z"/>
			</g>
			<g>
				<path style="fill:#FFFFFF;" d="M206.614,289.541c-0.793,0.744-2.039,0.704-2.783-0.088c-3.832-4.086-10.275-4.29-14.361-0.456
					c-0.793,0.745-2.039,0.704-2.783-0.088c-0.744-0.792-0.703-2.038,0.088-2.783c5.67-5.318,14.607-5.035,19.928,0.633
					C207.444,287.552,207.405,288.798,206.614,289.541z"/>
			</g>
			<path style="fill:#FFFFFF;" d="M199.907,290.954c1.668,1.774,1.576,4.563-0.197,6.229c-1.775,1.665-4.563,1.577-6.229-0.198
				c-1.666-1.774-1.576-4.563,0.197-6.228C195.454,289.091,198.241,289.18,199.907,290.954z"/>
		</g>
	</g>
</g>
<g id="Capa_2">
</g>
</svg>
