<svg xmlns="http://www.w3.org/2000/svg" xmlns:xlink="http://www.w3.org/1999/xlink" width="500" zoomAndPan="magnify" viewBox="0 0 375 374.999991" height="500" preserveAspectRatio="xMidYMid meet" version="1.0"><path fill="#00aeef" d="M 187.484375 257.613281 L 117.4375 187.527344 L 137.636719 167.3125 C 137.636719 167.3125 137.644531 167.304688 137.644531 167.304688 L 187.484375 117.441406 L 237.320312 167.304688 C 237.328125 167.3125 237.328125 167.3125 237.335938 167.324219 L 257.53125 187.527344 Z M 187.484375 257.613281 " fill-opacity="1" fill-rule="nonzero"/><path fill="#33bef2" d="M 187.484375 117.441406 L 230.53125 74.371094 C 241.6875 63.207031 259.785156 63.207031 270.941406 74.371094 L 320.777344 124.234375 L 257.523438 187.527344 L 237.328125 167.324219 C 237.320312 167.324219 237.320312 167.3125 237.3125 167.304688 Z M 187.484375 117.441406 " fill-opacity="1" fill-rule="nonzero"/><path fill="#66cef5" d="M 257.523438 187.527344 L 320.777344 124.234375 L 363.824219 167.304688 C 374.984375 178.46875 374.984375 196.578125 363.824219 207.742188 L 320.777344 250.8125 Z M 257.523438 187.527344 " fill-opacity="1" fill-rule="nonzero"/><path fill="#99dff9" d="M 257.523438 187.527344 L 320.769531 250.820312 L 270.933594 300.683594 C 259.777344 311.847656 241.679688 311.847656 230.523438 300.683594 L 187.476562 257.613281 Z M 257.523438 187.527344 " fill-opacity="1" fill-rule="nonzero"/><path fill="#002c3c" d="M 117.4375 187.527344 L 54.179688 124.234375 L 104.015625 74.371094 C 115.175781 63.207031 133.269531 63.207031 144.429688 74.371094 L 185.507812 115.472656 L 187.476562 117.441406 L 137.636719 167.304688 C 137.636719 167.304688 137.636719 167.3125 137.628906 167.3125 Z M 117.4375 187.527344 " fill-opacity="1" fill-rule="nonzero"/><path fill="#005778" d="M 117.4375 187.527344 L 54.179688 250.820312 L 11.132812 207.75 C -0.0234375 196.585938 -0.03125 178.480469 11.132812 167.3125 L 54.179688 124.242188 Z M 117.4375 187.527344 " fill-opacity="1" fill-rule="nonzero"/><path fill="#0083b3" d="M 104.015625 300.675781 L 54.179688 250.8125 L 117.4375 187.527344 L 187.484375 257.613281 L 144.4375 300.675781 C 133.269531 311.847656 115.183594 311.847656 104.015625 300.675781 Z M 104.015625 300.675781 " fill-opacity="1" fill-rule="nonzero"/></svg>