<?xml version="1.0" encoding="utf-8"?>
<!-- Generator: Adobe Illustrator 27.5.0, SVG Export Plug-In . SVG Version: 6.00 Build 0)  -->
<svg version="1.1" id="Capa_1" xmlns="http://www.w3.org/2000/svg" xmlns:xlink="http://www.w3.org/1999/xlink" x="0px" y="0px"
	 viewBox="0 0 2372 1898" style="enable-background:new 0 0 2372 1898;" xml:space="preserve">
<g>
	<g>
		<g>
			<g>
				<path style="fill:#255B71;" d="M1370.933,1549.191V1246.53c0-20.585,16.748-37.33,37.329-37.33h475.004
					c20.582,0,37.329,16.745,37.329,37.33v302.661H1370.933z"/>
				<path style="fill:#0E3847;" d="M1883.266,1213.379c18.232,0,33.152,14.915,33.152,33.152v298.483h-541.307V1246.53
					c0-18.237,14.92-33.152,33.151-33.152H1883.266 M1883.266,1205.029h-475.004c-22.886,0-41.505,18.618-41.505,41.502v298.483
					v8.351h8.354h541.307h8.353v-8.351V1246.53C1924.771,1223.646,1906.152,1205.029,1883.266,1205.029L1883.266,1205.029z"/>
			</g>
			<g>
				<path style="fill:#CFEDFC;" d="M1416.879,1512.358c-2.209,0-4.001-1.792-4.001-4.004v-260.827c0-2.212,1.792-4.004,4.001-4.004
					h457.77c2.209,0,4.001,1.792,4.001,4.004v260.827c0,2.212-1.792,4.004-4.001,4.004H1416.879z"/>
				<path style="fill:#0E3847;" d="M1874.649,1247.527v260.827h-457.77v-260.827H1874.649 M1874.649,1239.525h-457.77
					c-4.42,0-8.001,3.584-8.001,8.002v260.827c0,4.418,3.582,8.002,8.001,8.002h457.77c4.42,0,8.005-3.584,8.005-8.002v-260.827
					C1882.654,1243.109,1879.069,1239.525,1874.649,1239.525L1874.649,1239.525z"/>
			</g>
			<g>
				<path style="fill:#F1F2F2;" d="M1706.421,1590.17c-3.636,0-364.042-0.147-369.242-2.544
					c-15.239-7.021-19.114-38.599-19.506-42.178c-0.123-1.133,0.24-2.26,1-3.105c0.76-0.85,1.844-1.335,2.98-1.335h648.224
					c1.136,0,2.219,0.485,2.979,1.335c0.76,0.844,1.122,1.972,1,3.105c-0.392,3.579-4.259,35.156-19.509,42.178
					C1952.838,1588.324,1948.826,1590.17,1706.421,1590.17z"/>
				<path style="fill:#0E3847;" d="M1969.877,1545.013c0,0-3.574,32.705-17.202,38.98c-3.44,1.585-117.428,2.179-246.253,2.179
					c-169.668,0-365.075-1.03-367.567-2.179c-13.623-6.275-17.202-38.98-17.202-38.98H1969.877 M1969.877,1537.011h-648.224
					c-2.274,0-4.442,0.964-5.959,2.658c-1.517,1.694-2.244,3.955-1.996,6.216c0.681,6.215,4.927,37.602,21.811,45.375
					c2.187,1.013,3.394,1.569,124.394,2.255c72.358,0.414,164.516,0.659,246.52,0.659c243.282,0,247.084-1.754,249.6-2.914
					c16.889-7.773,21.132-39.165,21.81-45.375c0.248-2.261-0.479-4.521-1.996-6.216
					C1974.316,1537.976,1972.151,1537.011,1969.877,1537.011L1969.877,1537.011z"/>
			</g>
			<g>
				<path style="fill:#0E3847;" d="M1712.508,1557.961c-1.732,0.8-132.529,0.447-133.488,0c-2.964-1.361-3.742-8.476-3.742-8.476
					h140.973C1716.25,1549.486,1715.472,1556.6,1712.508,1557.961z"/>
			</g>
			<g>
				<path style="fill:#E6E7E8;" d="M1916.418,1545.013V1246.53c0-18.237-14.92-33.152-33.152-33.152h-225.998v372.766
					c147.537,0.163,291.532-0.37,295.406-2.151c13.629-6.275,17.202-38.98,17.202-38.98H1916.418z"/>
			</g>
		</g>
		<g>
			<g>
				<g>
					<g>
						<path style="fill:#FBC4AB;" d="M1611.109,1512.178c-1.833,0-3.326-1.476-3.342-3.312l-1.683-189.724
							c-0.008-0.932,0.376-1.825,1.057-2.462c0.621-0.583,1.438-0.905,2.285-0.905c0.082,0,96.777,7.033,96.777,7.033
							c1.697,0.125,3.031,1.503,3.096,3.203l7.087,182.698c0.036,0.91-0.302,1.792-0.931,2.446
							c-0.629,0.654-1.498,1.024-2.408,1.024H1611.109z"/>
						<path style="fill:#0E3847;" d="M1609.426,1319.114l96.535,7.026l7.087,182.699h-101.938L1609.426,1319.114 M1609.426,1312.43
							c-1.692,0-3.328,0.643-4.573,1.809c-1.362,1.28-2.127,3.067-2.108,4.935l1.681,189.725c0.032,3.666,3.015,6.624,6.683,6.624
							h101.938c1.817,0,3.557-0.741,4.815-2.054c1.261-1.307,1.934-3.072,1.863-4.891l-7.087-182.698
							c-0.134-3.399-2.797-6.155-6.194-6.406l-96.535-7.026C1609.75,1312.436,1609.587,1312.43,1609.426,1312.43L1609.426,1312.43z"
							/>
					</g>
				</g>
				<g>
					
						<path style="fill:#FBC4AB;stroke:#0E3847;stroke-width:6.6828;stroke-linecap:round;stroke-linejoin:round;stroke-miterlimit:10;" d="
						M1692.981,1340.063c12.686-6.951,25.858-21.57,34.001-34.671c8.857-14.233,29.513-46.873,29.638-66.466
						c0.088-14.62-2.952-66.488-7.501-78.984c-12.261-33.783-95.51-21.974-107.603,11.042
						c-4.461,12.175-44.329,84.693-45.751,115.78c-0.702,15.47,12.197,41.126,32.874,52.505"/>
				</g>
			</g>
			<g>
				<g>
					<g>
						<g>
							<path style="fill:#F2982E;" d="M1548.584,1328.608c-1.24,0-2.427-0.692-3.007-1.879l-91.807-188.281
								c-0.809-1.661-0.12-3.66,1.539-4.467l309.176-150.756c0.46-0.229,0.962-0.337,1.465-0.337c0.368,0,0.735,0.06,1.089,0.18
								c0.836,0.288,1.525,0.899,1.915,1.694l91.806,188.287c0.387,0.795,0.444,1.716,0.156,2.555
								c-0.289,0.839-0.899,1.525-1.694,1.911l-309.176,150.751C1549.575,1328.499,1549.074,1328.608,1548.584,1328.608z"/>
							<path style="fill:#0E3847;" d="M1765.951,986.227l91.807,188.287l-309.176,150.75l-91.807-188.281L1765.951,986.227
								 M1765.951,979.543c-1.005,0-2.007,0.229-2.928,0.675l-309.176,150.756c-3.318,1.618-4.696,5.621-3.078,8.939l91.807,188.281
								c1.157,2.375,3.535,3.753,6.011,3.753c0.983,0,1.98-0.218,2.923-0.676l309.176-150.751c1.593-0.779,2.813-2.157,3.391-3.829
								c0.577-1.678,0.466-3.514-0.313-5.109l-91.807-188.287c-0.776-1.591-2.154-2.811-3.829-3.388
								C1767.419,979.662,1766.683,979.543,1765.951,979.543L1765.951,979.543z"/>
						</g>
					</g>
					<g>
						<g>
							<path style="fill:#F5AC2E;" d="M1548.582,1328.603c-0.932,0-1.847-0.387-2.498-1.117c-0.994-1.122-1.125-2.767-0.316-4.026
								l108.687-169.521c0.619-0.964,1.683-1.536,2.813-1.536c0.104,0,0.207,0,0.311,0.011l200.488,18.771
								c1.493,0.142,2.708,1.258,2.977,2.729c0.27,1.476-0.476,2.947-1.822,3.6l-309.176,150.751
								C1549.578,1328.494,1549.077,1328.603,1548.582,1328.603z"/>
							<path style="fill:#0E3847;" d="M1657.269,1155.742l200.489,18.771l-309.176,150.75L1657.269,1155.742 M1657.266,1149.059
								c-2.26,0-4.388,1.149-5.624,3.077l-108.687,169.521c-1.615,2.522-1.357,5.812,0.634,8.046c1.3,1.465,3.133,2.245,4.996,2.245
								c0.991,0,1.991-0.224,2.925-0.676l309.176-150.751c2.693-1.313,4.183-4.26,3.647-7.207c-0.537-2.947-2.969-5.175-5.951-5.458
								l-200.489-18.771C1657.683,1149.069,1657.473,1149.059,1657.266,1149.059L1657.266,1149.059z"/>
						</g>
					</g>
					<g>
						<g>
							<path style="fill:#FCD428;" d="M1665.091,1175.129c-0.183,0-0.365-0.011-0.55-0.043l-208.316-34.807
								c-1.432-0.24-2.549-1.378-2.756-2.816c-0.21-1.438,0.537-2.844,1.841-3.481l309.176-150.756
								c0.469-0.229,0.967-0.337,1.465-0.337c0.891,0,1.768,0.354,2.413,1.029c1.005,1.051,1.218,2.631,0.523,3.906l-100.86,185.563
								C1667.436,1174.475,1666.3,1175.129,1665.091,1175.129z"/>
							<path style="fill:#0E3847;" d="M1765.951,986.227h0.027 M1765.951,986.227l-100.86,185.563l-208.316-34.808L1765.951,986.227
								 M1765.948,979.543c-0.199,0-0.398,0.011-0.594,0.027c-0.88,0.076-1.711,0.327-2.457,0.708l-309.05,150.696
								c-2.615,1.275-4.102,4.091-3.685,6.967c0.417,2.876,2.645,5.153,5.513,5.633l208.316,34.807
								c0.368,0.06,0.738,0.093,1.103,0.093c2.419,0,4.688-1.318,5.87-3.492l100.688-185.253c0.631-1.018,0.997-2.217,0.997-3.502
								c0-3.677-2.958-6.662-6.632-6.684C1765.994,979.543,1765.97,979.543,1765.948,979.543L1765.948,979.543z"/>
						</g>
					</g>
				</g>
				<g>
					<g>
						
							<rect x="1648.568" y="1013.317" transform="matrix(0.8988 -0.4383 0.4383 0.8988 -314.5536 873.3497)" style="fill:#E6E7E8;" width="171.984" height="209.478"/>
					</g>
				</g>
			</g>
			<g>
				<g>
					
						<path style="fill:#FBC4AB;stroke:#0E3847;stroke-width:6.6828;stroke-linecap:round;stroke-linejoin:round;stroke-miterlimit:10;" d="
						M1729.128,1301.449c19.708-22.099,26.185-40.353,26.266-55.562c0.038-8.214-29.213-52.494-35.88-59.216
						c-10.982-9.254-18.308,2.702-22.349,7.659c-15.846,19.414,17.175,60.954,13.601,87.226"/>
				</g>
			</g>
			<g>
				<path style="fill:#F8F2E4;" d="M1602.535,1512.178c-1.846,0-3.342-1.493-3.342-3.339v-144.503c0-1.847,1.495-3.339,3.342-3.339
					h109.466c1.847,0,3.342,1.492,3.342,3.339v144.503c0,1.846-1.495,3.339-3.342,3.339H1602.535z"/>
				<path style="fill:#0E3847;" d="M1712.002,1364.336v144.503h-109.466v-144.503H1712.002 M1712.002,1357.653h-109.466
					c-3.69,0-6.683,2.99-6.683,6.683v144.503c0,3.693,2.993,6.683,6.683,6.683h109.466c3.69,0,6.684-2.99,6.684-6.683v-144.503
					C1718.686,1360.643,1715.692,1357.653,1712.002,1357.653L1712.002,1357.653z"/>
			</g>
			<g>
				<path style="fill:#61CAE5;" d="M1592.665,1512.178c-1.847,0-3.342-1.493-3.342-3.339v-124.457c0-1.847,1.495-3.339,3.342-3.339
					h129.202c1.846,0,3.342,1.493,3.342,3.339v124.457c0,1.846-1.495,3.339-3.342,3.339H1592.665z"/>
				<g>
					<path style="fill:#0E3847;" d="M1721.867,1384.382v124.457h-129.202v-124.457H1721.867 M1721.867,1377.698h-129.202
						c-3.69,0-6.684,2.99-6.684,6.684v124.457c0,3.693,2.994,6.683,6.684,6.683h129.202c3.69,0,6.683-2.99,6.683-6.683v-124.457
						C1728.55,1380.688,1725.557,1377.698,1721.867,1377.698L1721.867,1377.698z"/>
				</g>
			</g>
		</g>
	</g>
	<g>
		<g>
			<path style="fill:#255B71;" d="M572.514,1603.75c-47.104,0-85.426-38.321-85.426-85.417V482.058
				c0-47.102,38.321-85.423,85.426-85.423h505.568c47.107,0,85.431,38.321,85.431,85.423v1036.275
				c0,47.096-38.324,85.417-85.431,85.417H572.514z"/>
			<path style="fill:#0E3847;" d="M1078.082,406.196c41.731,0,75.874,34.132,75.874,75.863v1036.275
				c0,41.725-34.143,75.857-75.874,75.857H572.514c-41.726,0-75.868-34.132-75.868-75.857V482.058
				c0-41.731,34.143-75.863,75.868-75.863H1078.082 M1078.082,387.081H572.514c-52.375,0-94.985,42.608-94.985,94.977v1036.275
				c0,52.369,42.61,94.972,94.985,94.972h505.568c52.377,0,94.991-42.602,94.991-94.972V482.058
				C1173.073,429.689,1130.459,387.081,1078.082,387.081L1078.082,387.081z"/>
		</g>
		<g>
			<path style="fill:#CFEDFC;" d="M633.544,1450.788c-41.532,0-75.318-33.783-75.318-75.312V548.361
				c0-41.529,33.783-75.318,75.307-75.318h383.53c41.532,0,75.318,33.789,75.318,75.318v827.115
				c0,41.529-33.787,75.312-75.318,75.312H633.544z"/>
			<g>
				<path style="fill:#0E3847;" d="M1017.063,482.2c36.382,0,66.162,29.769,66.162,66.161v827.115
					c0,36.392-29.78,66.156-66.162,66.156H633.544c-36.392,0-66.161-29.763-66.161-66.156V548.361
					c0-36.392,29.769-66.161,66.15-66.161H1017.063 M1017.063,463.887h-383.53c-46.573,0-84.463,37.896-84.463,84.475v827.115
					c0,46.579,37.896,84.469,84.474,84.469h383.519c46.579,0,84.475-37.89,84.475-84.469V548.361
					C1101.538,501.782,1063.642,463.887,1017.063,463.887L1017.063,463.887z"/>
			</g>
		</g>
		<g>
			<path style="fill:#F1F2F2;" d="M694.035,1545.841c-16.292,0-29.546-13.247-29.546-29.534c0-16.293,13.253-29.551,29.546-29.551
				h262.532c16.29,0,29.54,13.258,29.54,29.551c0,16.287-13.25,29.534-29.54,29.534H694.035z"/>
			<g>
				<path style="fill:#0E3847;" d="M956.566,1495.913c11.26,0,20.383,9.129,20.383,20.394c0,11.254-9.124,20.378-20.383,20.378
					H694.035c-11.265,0-20.389-9.124-20.389-20.378c0-11.265,9.124-20.394,20.389-20.394H956.566 M956.566,1477.599H694.035
					c-21.342,0-38.702,17.365-38.702,38.707c0,21.337,17.36,38.691,38.702,38.691h262.532c21.34,0,38.697-17.354,38.697-38.691
					C995.263,1494.964,977.906,1477.599,956.566,1477.599L956.566,1477.599z"/>
			</g>
		</g>
		<g>
			<path style="fill:#E6E7E8;" d="M1078.082,406.196H832.219V1594.19h245.863c41.731,0,75.874-34.132,75.874-75.857V482.058
				C1153.956,440.327,1119.813,406.196,1078.082,406.196z"/>
		</g>
		<g>
			<g>
				<g>
					<g>
						<path style="fill:#FBC4AB;" d="M1084.984,1211.908c-0.833,0-1.669-0.153-2.468-0.469l-334.045-130.863
							c-1.759-0.686-3.151-2.081-3.835-3.84c-0.687-1.765-0.605-3.732,0.226-5.431l86.09-176.025
							c1.163-2.375,3.557-3.791,6.076-3.791c0.76,0,1.528,0.125,2.277,0.398l247.955,88.68c2.691,0.959,4.488,3.508,4.488,6.368
							v218.209c0,2.238-1.106,4.325-2.952,5.589C1087.656,1211.511,1086.324,1211.908,1084.984,1211.908z"/>
						<path style="fill:#0E3847;" d="M837.029,898.255l247.955,88.68v218.209L750.939,1074.28L837.029,898.255 M837.031,884.724
							c-5.039,0-9.829,2.828-12.155,7.588l-86.089,176.025c-1.661,3.394-1.825,7.332-0.455,10.851
							c1.37,3.524,4.153,6.308,7.672,7.691l334.045,130.863c1.594,0.621,3.269,0.931,4.935,0.931c2.682,0,5.347-0.8,7.623-2.353
							c3.696-2.522,5.905-6.706,5.905-11.178V986.934c0-5.714-3.59-10.812-8.972-12.74l-247.955-88.68
							C840.084,884.98,838.545,884.724,837.031,884.724L837.031,884.724z"/>
					</g>
				</g>
				<g>
					
						<path style="fill:#FBC4AB;stroke:#0E3847;stroke-width:13.5291;stroke-linecap:round;stroke-linejoin:round;stroke-miterlimit:10;" d="
						M853.367,933.149c-3.454-29.071-20.98-64.849-39.432-90.042c-20.056-27.399-65.758-90.842-102.469-105.866
						c-27.399-11.216-127.12-44.672-154.021-45.56c-72.722-2.468-113.396,162.822-60.515,210.463
						c19.492,17.567,125.595,147.226,182.927,173.351c28.533,13.013,86.455,8.154,123.455-22.077"/>
				</g>
			</g>
			<g>
				<g>
					<g>
						<g>
							<path style="fill:#F2982E;" d="M516.909,1220.089c-0.264,0-0.531-0.016-0.795-0.054c-1.547-0.207-2.947-1.024-3.895-2.271
								L145.284,735.095c-1.966-2.587-1.465-6.28,1.125-8.253l293.943-223.465c1.033-0.784,2.285-1.198,3.565-1.198
								c0.264,0,0.531,0.016,0.795,0.055c1.547,0.207,2.947,1.024,3.895,2.271l366.924,482.663c1.966,2.588,1.465,6.281-1.125,8.253
								l-293.932,223.47C519.442,1219.676,518.189,1220.089,516.909,1220.089z"/>
							<path style="fill:#0E3847;" d="M443.917,508.069l366.924,482.663l-293.932,223.47L149.974,731.533L443.917,508.069
								 M443.917,496.286c-2.56,0-5.069,0.838-7.128,2.407L142.844,722.159c-5.177,3.933-6.185,11.325-2.247,16.505l366.935,482.668
								c1.89,2.484,4.693,4.118,7.787,4.543c0.531,0.071,1.062,0.103,1.59,0.103c2.56,0,5.069-0.833,7.131-2.397l293.932-223.475
								c5.177-3.933,6.185-11.325,2.247-16.505L453.294,500.938c-1.89-2.484-4.693-4.118-7.786-4.543
								C444.977,496.324,444.445,496.286,443.917,496.286L443.917,496.286z"/>
						</g>
					</g>
					<g>
						<g>
							<path style="fill:#F5AC2E;" d="M516.912,1220.089c-1.803,0-3.551-0.828-4.693-2.325L145.284,735.095
								c-1.596-2.097-1.602-5.006-0.008-7.114c1.139-1.503,2.892-2.337,4.701-2.337c0.719,0,1.446,0.131,2.149,0.403
								l330.442,129.599c2.051,0.807,3.481,2.691,3.707,4.881l36.493,353.069c0.273,2.625-1.237,5.109-3.693,6.084
								C518.369,1219.959,517.636,1220.089,516.912,1220.089z"/>
							<path style="fill:#0E3847;" d="M149.974,731.533l330.442,129.599l36.493,353.069L149.974,731.533 M149.977,719.751
								c-3.611,0-7.122,1.667-9.399,4.679c-3.184,4.211-3.176,10.029,0.019,14.234l366.935,482.668
								c2.277,2.996,5.779,4.652,9.38,4.652c1.452,0,2.917-0.272,4.328-0.828c4.911-1.939,7.928-6.913,7.386-12.164l-36.493-353.069
								c-0.452-4.385-3.314-8.149-7.416-9.756L154.275,720.568C152.875,720.018,151.418,719.751,149.977,719.751L149.977,719.751z"
								/>
						</g>
					</g>
					<g>
						<g>
							<path style="fill:#FCD428;" d="M810.841,996.62c-0.583,0-1.171-0.088-1.748-0.267l-355.48-110.561
								c-2.4-0.746-4.061-2.931-4.137-5.442l-11.445-372.101c-0.079-2.56,1.506-4.875,3.92-5.731
								c0.645-0.229,1.307-0.337,1.966-0.337c1.803,0,3.551,0.828,4.69,2.326l366.924,482.663c1.55,2.038,1.604,4.843,0.133,6.94
								C814.543,995.716,812.726,996.62,810.841,996.62z"/>
							<path style="fill:#0E3847;" d="M443.917,508.069l366.924,482.663L455.362,880.17L443.917,508.069 M443.914,496.286
								c-1.313,0-2.642,0.223-3.93,0.675c-4.829,1.711-7.999,6.352-7.841,11.472l11.444,372.096
								c0.155,5.022,3.478,9.396,8.274,10.889l355.482,110.561c1.152,0.36,2.331,0.534,3.497,0.534c3.77,0,7.403-1.82,9.647-5.022
								c2.939-4.194,2.83-9.81-0.269-13.89L453.294,500.938C451.023,497.948,447.523,496.286,443.914,496.286L443.914,496.286z"/>
						</g>
					</g>
				</g>
				<g>
					<g>
						<polygon style="fill:#E6E7E8;" points="627.381,749.4 333.438,972.865 516.909,1214.201 810.841,990.731 						"/>
					</g>
				</g>
			</g>
			<g>
				<g>
					
						<path style="fill:#FBC4AB;stroke:#0E3847;stroke-width:13.5291;stroke-linecap:round;stroke-linejoin:round;stroke-miterlimit:10;" d="
						M808.147,836.092c-26.634-53.704-56.024-79.648-84.537-91.295c-15.385-6.27-120.655,15.23-138.323,22.682
						c-25.675,13.629-8.75,36.425-2.5,47.761c24.523,44.427,127.475,13.776,174.127,40.331"/>
				</g>
			</g>
			<g>
				<path style="fill:#F8F2E4;" d="M1084.984,1230.38c-0.853,0-1.711-0.164-2.522-0.49L828.15,1127.646
					c-3.467-1.395-5.148-5.333-3.753-8.797l82.663-205.614c0.668-1.667,1.972-2.996,3.622-3.699
					c0.847-0.365,1.749-0.545,2.653-0.545c0.856,0,1.714,0.164,2.522,0.49l171.648,69.01c2.563,1.029,4.244,3.513,4.244,6.275
					v238.847c0,2.244-1.117,4.347-2.977,5.605C1087.637,1229.987,1086.316,1230.38,1084.984,1230.38z"/>
				<path style="fill:#0E3847;" d="M913.335,915.756l171.649,69.01v238.847l-254.312-102.244L913.335,915.756 M913.335,902.226
					c-1.808,0-3.611,0.365-5.308,1.084c-3.298,1.411-5.905,4.068-7.245,7.397l-82.663,205.62
					c-2.786,6.929,0.575,14.811,7.506,17.594l254.312,102.244c1.629,0.654,3.342,0.981,5.047,0.981c2.661,0,5.306-0.785,7.574-2.32
					c3.723-2.517,5.954-6.717,5.954-11.21V984.767c0-5.524-3.356-10.491-8.481-12.55l-171.649-69.01
					C916.761,902.552,915.049,902.226,913.335,902.226L913.335,902.226z"/>
			</g>
			<g>
				<path style="fill:#61CAE5;" d="M1084.984,1251.907c-0.853,0-1.711-0.163-2.522-0.49l-224.107-90.097
					c-1.667-0.67-2.996-1.972-3.702-3.622c-0.703-1.651-0.722-3.514-0.052-5.175l97.57-242.688c1.06-2.642,3.598-4.244,6.278-4.244
					c0.839,0,1.694,0.158,2.52,0.49l126.537,50.871c2.563,1.03,4.244,3.513,4.244,6.275v281.913c0,2.244-1.117,4.347-2.977,5.605
					C1087.637,1251.514,1086.316,1251.907,1084.984,1251.907z"/>
				<g>
					<path style="fill:#0E3847;" d="M958.446,912.357l126.538,50.871v281.913l-224.108-90.096L958.446,912.357 M958.451,898.826
						c-5.363,0-10.437,3.208-12.559,8.482l-97.569,242.693c-1.337,3.328-1.3,7.049,0.109,10.35c1.408,3.301,4.069,5.91,7.397,7.245
						l224.107,90.096c1.629,0.653,3.342,0.98,5.047,0.98c2.661,0,5.306-0.784,7.574-2.32c3.723-2.516,5.954-6.716,5.954-11.21
						V963.228c0-5.523-3.356-10.491-8.481-12.55l-126.538-50.871C961.839,899.137,960.129,898.826,958.451,898.826L958.451,898.826z
						"/>
				</g>
			</g>
		</g>
	</g>
	<g>
		<g>
			<g>
				<path style="fill:#F1F2F2;" d="M1586.227,925.567c-1.122,0-2.195-0.474-2.952-1.302c-0.757-0.828-1.133-1.939-1.032-3.056
					l7.882-88.544c0.182-2.064,1.912-3.65,3.985-3.65h143.783c2.073,0,3.802,1.585,3.985,3.65l7.882,88.544
					c0.1,1.117-0.276,2.228-1.032,3.056c-0.757,0.828-1.83,1.302-2.952,1.302H1586.227z"/>
				<path style="fill:#0E3847;" d="M1737.892,833.019l7.882,88.544h-159.548l7.882-88.544H1737.892 M1737.892,825.017h-143.783
					c-4.145,0-7.604,3.165-7.972,7.294l-7.882,88.544c-0.199,2.233,0.55,4.45,2.067,6.112c1.517,1.656,3.658,2.598,5.905,2.598
					h159.548c2.247,0,4.387-0.943,5.905-2.598c1.517-1.662,2.266-3.878,2.067-6.112l-7.882-88.544
					C1745.497,828.182,1742.038,825.017,1737.892,825.017L1737.892,825.017z"/>
			</g>
			<g>
				<path style="fill:#255B71;" d="M1391.169,802.112V499.451c0-20.585,16.747-37.329,37.329-37.329h474.999
					c20.585,0,37.335,16.744,37.335,37.329v302.661H1391.169z"/>
				<path style="fill:#0E3847;" d="M1903.497,466.3c18.237,0,33.157,14.914,33.157,33.151v298.483h-541.307V499.451
					c0-18.237,14.914-33.151,33.151-33.151H1903.497 M1903.497,457.949h-474.999c-22.886,0-41.505,18.618-41.505,41.502v298.483
					v8.35h8.353h541.307h8.353v-8.35V499.451C1945.007,476.568,1926.386,457.949,1903.497,457.949L1903.497,457.949z"/>
			</g>
			<g>
				<path style="fill:#F1F2F2;" d="M1428.498,855.685c-20.486,0-37.152-16.668-37.152-37.15v-20.601
					c0-2.212,1.792-4.004,4.001-4.004h541.307c2.209,0,4.001,1.792,4.001,4.004v20.601c0,20.482-16.669,37.15-37.158,37.15H1428.498
					z"/>
				<g>
					<path style="fill:#0E3847;" d="M1936.654,797.934v20.601c0,18.232-14.92,33.146-33.157,33.146h-474.999
						c-18.237,0-33.151-14.914-33.151-33.146v-20.601H1936.654 M1936.654,789.932h-541.307c-4.42,0-8.002,3.584-8.002,8.002v20.601
						c0,22.688,18.461,41.148,41.153,41.148h474.999c22.695,0,41.162-18.461,41.162-41.148v-20.601
						C1944.659,793.517,1941.074,789.932,1936.654,789.932L1936.654,789.932z"/>
				</g>
			</g>
			<g>
				<path style="fill:#CFEDFC;" d="M1437.11,765.273c-2.209,0-4.001-1.792-4.001-4.004v-260.81c0-2.212,1.792-4.004,4.001-4.004
					h457.775c2.209,0,4.001,1.792,4.001,4.004v260.81c0,2.212-1.792,4.004-4.001,4.004H1437.11z"/>
				<path style="fill:#0E3847;" d="M1894.885,500.459v260.81H1437.11v-260.81H1894.885 M1894.885,492.457H1437.11
					c-4.421,0-8.002,3.584-8.002,8.002v260.81c0,4.418,3.582,8.002,8.002,8.002h457.775c4.421,0,8.005-3.584,8.005-8.002v-260.81
					C1902.89,496.041,1899.306,492.457,1894.885,492.457L1894.885,492.457z"/>
			</g>
			<g>
				<path style="fill:#F1F2F2;" d="M1560.745,946.451c-7.964,0-14.443-6.482-14.443-14.446c0-7.964,6.479-14.446,14.443-14.446
					h210.506c7.964,0,14.443,6.483,14.443,14.446c0,7.964-6.479,14.446-14.443,14.446H1560.745z"/>
				<path style="fill:#0E3847;" d="M1771.251,921.563c5.769,0,10.443,4.679,10.443,10.442c0,5.769-4.674,10.442-10.443,10.442
					h-210.506c-5.763,0-10.442-4.674-10.442-10.442c0-5.763,4.679-10.442,10.442-10.442H1771.251 M1771.251,913.561h-210.506
					c-10.17,0-18.444,8.274-18.444,18.445c0,10.17,8.274,18.444,18.444,18.444h210.506c10.17,0,18.447-8.274,18.447-18.444
					C1789.698,921.835,1781.421,913.561,1771.251,913.561L1771.251,913.561z"/>
			</g>
		</g>
		<g>
			<path style="fill:#E6E7E8;" d="M1903.497,466.3H1666v476.148h105.251c5.769,0,10.443-4.674,10.443-10.442
				c0-5.763-4.674-10.442-10.443-10.442h-25.476l-6.226-69.882h163.949c18.237,0,33.157-14.914,33.157-33.146V499.451
				C1936.654,481.214,1921.734,466.3,1903.497,466.3z"/>
		</g>
	</g>
	<g>
		<g>
			<g>
				<g>
					<path style="fill:#FBC4AB;" d="M1487.551,765.148c-1.465,0-2.762-0.953-3.192-2.353l-29.633-96.175
						c-0.457-1.482,0.163-3.083,1.498-3.868l179.577-105.62c0.531-0.311,1.114-0.458,1.691-0.458c1.021,0,2.026,0.463,2.677,1.335
						l58.034,77.453c0.558,0.746,0.781,1.694,0.61,2.615c-0.169,0.915-0.717,1.721-1.507,2.217L1499.68,764.635
						c-0.531,0.338-1.15,0.512-1.779,0.512H1487.551z"/>
					<path style="fill:#0E3847;" d="M1637.496,560.013l58.034,77.453l-197.629,124.342h-10.349l-29.633-96.175L1637.496,560.013
						 M1637.49,553.329c-1.155,0-2.323,0.3-3.382,0.926L1454.53,659.876c-2.669,1.568-3.911,4.766-2.999,7.724l29.633,96.175
						c0.863,2.806,3.454,4.717,6.387,4.717h10.349c1.258,0,2.492-0.359,3.56-1.029L1699.09,643.12
						c1.58-0.992,2.672-2.604,3.012-4.44c0.338-1.836-0.103-3.726-1.223-5.224l-58.034-77.454
						C1641.54,554.266,1639.535,553.329,1637.49,553.329L1637.49,553.329z"/>
				</g>
			</g>
			<g>
				
					<path style="fill:#FBC4AB;stroke:#0E3847;stroke-width:6.6828;stroke-linecap:round;stroke-linejoin:round;stroke-miterlimit:10;" d="
					M1632.789,578.457c-1.007-14.43,4.183-33.408,10.813-47.341c7.201-15.143,23.515-50.152,39.939-60.834
					c12.261-7.974,57.554-33.423,70.524-36.349c35.064-7.909,70.078,68.531,48.818,96.541
					c-7.839,10.322-47.336,83.047-72.741,101.023c-12.643,8.944-41.197,11.94-61.945,0.686"/>
			</g>
		</g>
		<g>
			<g>
				<g>
					<g>
						<path style="fill:#F2982E;" d="M1824.11,708.328c-0.686,0-1.359-0.207-1.925-0.61l-171.139-120.791
							c-0.724-0.512-1.218-1.286-1.367-2.163c-0.15-0.872,0.052-1.771,0.563-2.495l198.348-281.02
							c0.651-0.92,1.683-1.411,2.732-1.411c0.667,0,1.337,0.196,1.923,0.61l171.139,120.785c0.724,0.512,1.218,1.285,1.367,2.163
							c0.15,0.871-0.051,1.77-0.563,2.494l-198.348,281.025c-0.509,0.725-1.288,1.214-2.16,1.362
							C1824.489,708.312,1824.298,708.328,1824.11,708.328z"/>
						<path style="fill:#0E3847;" d="M1851.319,303.178l171.139,120.785L1824.11,704.989l-171.139-120.791L1851.319,303.178
							 M1851.324,296.495c-2.097,0-4.164,0.986-5.466,2.833l-198.348,281.02c-1.021,1.443-1.427,3.241-1.125,4.989
							c0.302,1.743,1.283,3.301,2.732,4.32l171.139,120.791c1.136,0.8,2.484,1.226,3.854,1.226c0.379,0,0.758-0.032,1.136-0.098
							c1.745-0.299,3.301-1.285,4.325-2.729l198.347-281.03c1.021-1.443,1.427-3.241,1.125-4.99
							c-0.302-1.743-1.283-3.301-2.732-4.32L1855.173,297.72C1854.001,296.893,1852.656,296.495,1851.324,296.495L1851.324,296.495z
							"/>
					</g>
				</g>
				<g>
					<g>
						<path style="fill:#F5AC2E;" d="M1824.11,708.328c-0.373,0-0.751-0.06-1.116-0.191c-1.414-0.501-2.318-1.879-2.217-3.372
							l13.602-200.908c0.084-1.248,0.858-2.342,2.004-2.844l184.746-80.117c0.431-0.185,0.88-0.272,1.329-0.272
							c0.983,0,1.942,0.43,2.593,1.231c0.945,1.16,1,2.811,0.136,4.036l-198.348,281.025
							C1826.202,707.822,1825.172,708.328,1824.11,708.328z"/>
						<path style="fill:#0E3847;" d="M2022.458,423.964L1824.11,704.989l13.602-200.908L2022.458,423.964 M2022.455,417.281
							c-0.893,0-1.797,0.18-2.655,0.555l-184.746,80.112c-2.294,0.997-3.84,3.187-4.009,5.682l-13.602,200.908
							c-0.201,2.99,1.61,5.747,4.432,6.749c0.732,0.262,1.487,0.387,2.233,0.387c2.127,0,4.183-1.019,5.464-2.827l198.347-281.03
							c1.727-2.446,1.615-5.741-0.275-8.067C2026.344,418.152,2024.422,417.281,2022.455,417.281L2022.455,417.281z"/>
					</g>
				</g>
				<g>
					<g>
						<path style="fill:#FCD428;" d="M1652.971,587.537c-1.027,0-2.024-0.474-2.666-1.324c-0.877-1.16-0.901-2.756-0.063-3.943
							l198.348-281.02c0.637-0.904,1.664-1.411,2.729-1.411c0.335,0,0.673,0.049,1.002,0.152c1.386,0.436,2.331,1.716,2.339,3.171
							l0.981,211.198c0.005,1.427-0.894,2.696-2.236,3.17l-199.328,69.822C1653.714,587.477,1653.341,587.537,1652.971,587.537z"/>
						<path style="fill:#0E3847;" d="M1851.319,303.178l0.981,211.198l-199.328,69.822L1851.319,303.178 M1851.319,296.495
							c-2.13,0-4.183,1.024-5.461,2.833l-198.348,281.02c-1.675,2.374-1.623,5.556,0.125,7.876c1.291,1.71,3.281,2.658,5.338,2.658
							c0.735,0,1.481-0.119,2.206-0.375l199.328-69.822c2.691-0.943,4.488-3.486,4.475-6.34l-0.981-211.198
							c-0.013-2.903-1.904-5.469-4.677-6.34C1852.664,296.593,1851.986,296.495,1851.319,296.495L1851.319,296.495z"/>
					</g>
				</g>
			</g>
			<g>
				<g>
					<polygon style="fill:#E6E7E8;" points="1752.142,443.683 1923.287,564.479 2022.458,423.964 1851.319,303.178 					"/>
				</g>
			</g>
		</g>
		<g>
			<g>
				
					<path style="fill:#FBC4AB;stroke:#0E3847;stroke-width:6.6828;stroke-linecap:round;stroke-linejoin:round;stroke-miterlimit:10;" d="
					M1645.764,527.182c7.958-28.521,19.822-43.828,32.585-52.108c6.891-4.472,59.952-3.764,69.212-1.781
					c13.722,4.243,7.615,16.864,5.627,22.944c-7.79,23.821-60.583,18.466-80.765,35.657"/>
			</g>
		</g>
		<g>
			<path style="fill:#F8F2E4;" d="M1435.596,765.148c-1.847,0-3.342-1.493-3.342-3.339v-79.43c0-1.138,0.58-2.195,1.536-2.811
				l166.487-106.825c0.545-0.349,1.171-0.528,1.806-0.528c0.236,0,0.476,0.022,0.713,0.076c0.866,0.185,1.62,0.714,2.1,1.46
				l59.113,92.139c0.994,1.552,0.545,3.617-1.01,4.614l-146.698,94.116c-0.537,0.349-1.163,0.528-1.803,0.528H1435.596z"/>
			<path style="fill:#0E3847;" d="M1602.084,575.554l59.112,92.139l-146.698,94.116h-78.902v-79.43L1602.084,575.554
				 M1602.084,568.87c-1.27,0-2.525,0.365-3.609,1.063l-166.488,106.819c-1.914,1.231-3.074,3.35-3.074,5.627v79.43
				c0,3.688,2.993,6.684,6.683,6.684h78.902c1.28,0,2.533-0.37,3.609-1.057l146.698-94.116c3.105-1.994,4.009-6.128,2.015-9.238
				l-59.113-92.133c-0.956-1.493-2.468-2.544-4.2-2.925C1603.037,568.919,1602.56,568.87,1602.084,568.87L1602.084,568.87z"/>
		</g>
		<g>
			<path style="fill:#61CAE5;" d="M1435.596,765.148c-1.847,0-3.342-1.493-3.342-3.339v-91.153c0-1.138,0.58-2.195,1.536-2.811
				l144.285-92.575c0.561-0.359,1.185-0.528,1.803-0.528c1.1,0,2.176,0.539,2.816,1.536l69.773,108.736
				c0.476,0.746,0.64,1.65,0.452,2.517c-0.191,0.866-0.716,1.618-1.46,2.097l-116.88,74.991c-0.539,0.349-1.166,0.528-1.806,0.528
				H1435.596z"/>
			<g>
				<path style="fill:#0E3847;" d="M1579.881,578.081l69.773,108.737l-116.88,74.991h-97.178v-91.153L1579.881,578.081
					 M1579.875,571.397c-1.237,0-2.487,0.343-3.603,1.057l-144.285,92.575c-1.914,1.231-3.074,3.35-3.074,5.627v91.153
					c0,3.688,2.993,6.684,6.683,6.684h97.178c1.28,0,2.533-0.37,3.609-1.057l116.88-74.992c1.492-0.958,2.541-2.467,2.92-4.2
					c0.379-1.732,0.055-3.546-0.904-5.033l-69.773-108.737C1584.23,572.481,1582.073,571.397,1579.875,571.397L1579.875,571.397z"/>
			</g>
		</g>
	</g>
</g>
</svg>
