<?xml version="1.0" encoding="iso-8859-1"?>
<!-- Uploaded to: SVG Repo, www.svgrepo.com, Generator: SVG Repo Mixer Tools -->
<svg version="1.1" id="Layer_1" xmlns="http://www.w3.org/2000/svg" xmlns:xlink="http://www.w3.org/1999/xlink" 
	 viewBox="0 0 512 512" xml:space="preserve">
<rect x="10.779" y="60.901" style="fill:#FF7D46;" width="490.442" height="130.07"/>
<rect x="371.874" y="104.017" style="fill:#EFEFEF;" width="86.232" height="43.835"/>
<rect x="10.779" y="190.971" style="fill:#FF7D46;" width="490.442" height="130.07"/>
<rect x="371.874" y="234.086" style="fill:#EFEFEF;" width="86.232" height="43.835"/>
<rect x="10.779" y="321.029" style="fill:#FF7D46;" width="490.442" height="130.07"/>
<rect x="371.874" y="364.145" style="fill:#EFEFEF;" width="86.232" height="43.835"/>
<g>
	<path style="fill:#231F20;" d="M501.221,50.122H10.779C4.827,50.122,0,54.948,0,60.901v390.198c0,5.953,4.827,10.779,10.779,10.779
		h490.442c5.952,0,10.779-4.826,10.779-10.779V60.901C512,54.948,507.173,50.122,501.221,50.122z M21.558,201.746h468.884v108.508
		H21.558V201.746z M21.558,71.68h468.884v108.508H21.558V71.68z M490.442,440.32H21.558V331.812h468.884V440.32z"/>
	<path style="fill:#231F20;" d="M458.105,93.238h-86.232c-5.952,0-10.779,4.826-10.779,10.779v43.835
		c0,5.953,4.827,10.779,10.779,10.779h86.232c5.952,0,10.779-4.826,10.779-10.779v-43.835
		C468.884,98.064,464.057,93.238,458.105,93.238z M447.326,137.073h-64.674v-22.277h64.674V137.073z"/>
	<path style="fill:#231F20;" d="M458.105,223.304h-86.232c-5.952,0-10.779,4.826-10.779,10.779v43.835
		c0,5.953,4.827,10.779,10.779,10.779h86.232c5.952,0,10.779-4.826,10.779-10.779v-43.835
		C468.884,228.13,464.057,223.304,458.105,223.304z M447.326,267.138h-64.674v-22.277h64.674V267.138z"/>
	<path style="fill:#231F20;" d="M371.874,418.762h86.232c5.952,0,10.779-4.826,10.779-10.779v-43.835
		c0-5.953-4.827-10.779-10.779-10.779h-86.232c-5.952,0-10.779,4.826-10.779,10.779v43.835
		C361.095,413.936,365.922,418.762,371.874,418.762z M382.653,374.927h64.674v22.277h-64.674V374.927z"/>
	<path style="fill:#231F20;" d="M66.829,115.151c-2.847,0-5.616,1.153-7.621,3.158s-3.158,4.786-3.158,7.621
		c0,2.846,1.152,5.616,3.158,7.621c2.005,2.016,4.775,3.158,7.621,3.158c2.835,0,5.616-1.143,7.62-3.158
		c2.005-2.005,3.159-4.775,3.159-7.621c0-2.835-1.153-5.616-3.159-7.621C72.445,116.304,69.664,115.151,66.829,115.151z"/>
	<path style="fill:#231F20;" d="M118.568,115.151c-5.951,0-10.779,4.829-10.779,10.779c0,5.961,4.828,10.779,10.779,10.779
		c5.95,0,10.779-4.818,10.779-10.779C129.347,119.98,124.518,115.151,118.568,115.151z"/>
	<path style="fill:#231F20;" d="M170.307,115.151c-2.835,0-5.616,1.153-7.621,3.158c-2.005,2.005-3.158,4.786-3.158,7.621
		c0,2.835,1.152,5.616,3.158,7.621c2.005,2.016,4.786,3.158,7.621,3.158s5.616-1.143,7.62-3.158
		c2.005-2.005,3.159-4.786,3.159-7.621c0-2.835-1.153-5.616-3.159-7.621C175.923,116.304,173.142,115.151,170.307,115.151z"/>
	<path style="fill:#231F20;" d="M66.829,245.221c-2.847,0-5.616,1.153-7.621,3.158s-3.158,4.786-3.158,7.621
		c0,2.835,1.152,5.616,3.158,7.621c2.005,2.005,4.775,3.158,7.621,3.158c2.835,0,5.616-1.153,7.62-3.158
		c2.005-2.005,3.159-4.786,3.159-7.621c0-2.835-1.153-5.616-3.159-7.621C72.445,246.373,69.664,245.221,66.829,245.221z"/>
	<path style="fill:#231F20;" d="M118.568,245.221c-5.951,0-10.779,4.829-10.779,10.779c0,5.95,4.828,10.779,10.779,10.779
		c5.95,0,10.779-4.829,10.779-10.779C129.347,250.05,124.518,245.221,118.568,245.221z"/>
	<path style="fill:#231F20;" d="M170.307,245.221c-2.835,0-5.616,1.153-7.621,3.158c-2.005,2.005-3.158,4.786-3.158,7.621
		c0,2.835,1.152,5.616,3.158,7.621c2.005,2.005,4.786,3.158,7.621,3.158s5.616-1.153,7.62-3.158
		c2.005-2.005,3.159-4.786,3.159-7.621c0-2.835-1.153-5.616-3.159-7.621C175.923,246.373,173.142,245.221,170.307,245.221z"/>
	<path style="fill:#231F20;" d="M66.829,396.847c2.835,0,5.616-1.153,7.62-3.158c2.005-2.005,3.159-4.786,3.159-7.621
		c0-2.846-1.153-5.616-3.159-7.621c-2.004-2.016-4.785-3.158-7.62-3.158c-2.847,0-5.616,1.143-7.621,3.158
		c-2.005,2.005-3.158,4.786-3.158,7.621s1.152,5.616,3.158,7.621C61.214,395.695,63.983,396.847,66.829,396.847z"/>
	<path style="fill:#231F20;" d="M118.568,396.847c5.95,0,10.779-4.829,10.779-10.779c0-5.961-4.829-10.779-10.779-10.779
		c-5.951,0-10.779,4.818-10.779,10.779C107.789,392.018,112.617,396.847,118.568,396.847z"/>
	<path style="fill:#231F20;" d="M170.307,396.847c2.835,0,5.616-1.153,7.62-3.158c2.005-2.005,3.159-4.786,3.159-7.621
		s-1.153-5.616-3.159-7.632c-2.004-2.005-4.785-3.147-7.62-3.147s-5.616,1.143-7.621,3.147c-2.005,2.016-3.158,4.797-3.158,7.632
		c0,2.835,1.152,5.616,3.158,7.621C164.692,395.695,167.472,396.847,170.307,396.847z"/>
	<path style="fill:#231F20;" d="M279.887,115.151H247.19c-5.952,0-10.779,4.826-10.779,10.779c0,5.953,4.827,10.779,10.779,10.779
		h32.697c5.952,0,10.779-4.826,10.779-10.779C290.666,119.977,285.84,115.151,279.887,115.151z"/>
	<path style="fill:#231F20;" d="M279.887,245.218H247.19c-5.952,0-10.779,4.826-10.779,10.779s4.827,10.779,10.779,10.779h32.697
		c5.952,0,10.779-4.826,10.779-10.779S285.84,245.218,279.887,245.218z"/>
	<path style="fill:#231F20;" d="M247.19,396.842h32.697c5.952,0,10.779-4.826,10.779-10.779s-4.827-10.779-10.779-10.779H247.19
		c-5.952,0-10.779,4.826-10.779,10.779S241.238,396.842,247.19,396.842z"/>
</g>
</svg>