<svg xmlns="http://www.w3.org/2000/svg" xmlns:xlink="http://www.w3.org/1999/xlink" width="500" zoomAndPan="magnify" viewBox="0 0 375 225" height="300" preserveAspectRatio="xMidYMid meet" version="1.0"><defs><clipPath id="98a38550a1"><path d="M 13 154 L 134 154 L 134 225 L 13 225 Z M 13 154 " clip-rule="nonzero"/></clipPath><clipPath id="fca8228e20"><path d="M 360.828125 96.574219 L 78.417969 293.433594 L -0.0703125 180.839844 L 282.339844 -16.019531 Z M 360.828125 96.574219 " clip-rule="nonzero"/></clipPath><clipPath id="dc996f63a5"><path d="M 360.828125 96.574219 L 78.417969 293.433594 L -0.0703125 180.839844 L 282.339844 -16.019531 Z M 360.828125 96.574219 " clip-rule="nonzero"/></clipPath><clipPath id="cd88228a55"><path d="M 136.890625 192.046875 L 50 252.613281 L 0.0078125 180.898438 L 86.898438 120.328125 Z M 136.890625 192.046875 " clip-rule="nonzero"/></clipPath><clipPath id="dcf93a3084"><path d="M 95 0 L 357 0 L 357 224 L 95 224 Z M 95 0 " clip-rule="nonzero"/></clipPath><clipPath id="0428517d0a"><path d="M 360.828125 96.574219 L 78.417969 293.433594 L -0.0703125 180.839844 L 282.339844 -16.019531 Z M 360.828125 96.574219 " clip-rule="nonzero"/></clipPath><clipPath id="ac2d0eeb83"><path d="M 360.828125 96.574219 L 78.417969 293.433594 L -0.0703125 180.839844 L 282.339844 -16.019531 Z M 360.828125 96.574219 " clip-rule="nonzero"/></clipPath></defs><g clip-path="url(#98a38550a1)"><g clip-path="url(#fca8228e20)"><g clip-path="url(#dc996f63a5)"><g clip-path="url(#cd88228a55)"><path fill="#a8b8ff" d="M 23.359375 213.695312 C 29.785156 220.492188 38.492188 224.382812 47.839844 224.625 C 56.613281 224.875 76.925781 221.925781 95.734375 216.585938 C 98.753906 215.722656 101.601562 214.847656 104.261719 213.960938 L 103.15625 213.738281 L 103.105469 213.730469 L 103.054688 213.71875 C 99.082031 212.820312 95.820312 210.460938 93.761719 207.304688 C 93.546875 207.363281 93.359375 207.425781 93.148438 207.480469 C 75.457031 212.503906 55.996094 215.390625 48.101562 215.175781 C 41.285156 214.992188 34.925781 212.160156 30.226562 207.203125 C 25.515625 202.230469 23.046875 195.742188 23.21875 188.910156 C 23.460938 180.488281 27.765625 173.105469 34.207031 168.613281 C 38.535156 165.597656 43.828125 163.890625 49.484375 164.03125 C 57.546875 164.246094 76.902344 168 94.125 173.683594 C 94.457031 173.796875 94.792969 173.910156 95.097656 174.019531 C 95.742188 174.21875 96.34375 174.417969 96.933594 174.632812 C 97.542969 174.851562 98.148438 175.054688 98.734375 175.269531 C 104.109375 177.191406 108.425781 179.050781 111.871094 180.777344 C 112.480469 181.089844 113.078125 181.386719 113.636719 181.691406 C 114.265625 182.035156 114.871094 182.375 115.425781 182.703125 C 121.925781 186.472656 124.011719 189.496094 123.976562 191.132812 C 123.953125 192.09375 123.207031 193.304688 121.863281 194.589844 C 125.203125 196.367188 129.277344 196.523438 132.8125 194.84375 C 133.191406 193.703125 133.394531 192.570312 133.425781 191.394531 C 133.601562 185.324219 129.121094 179.660156 119.84375 174.320312 C 119.273438 174 118.695312 173.667969 118.085938 173.355469 C 117.519531 173.035156 116.933594 172.726562 116.308594 172.425781 C 111.863281 170.152344 106.496094 167.941406 100.253906 165.769531 C 99.675781 165.570312 99.0625 165.351562 98.445312 165.160156 C 98.011719 165 97.535156 164.847656 97.085938 164.699219 C 96.933594 164.644531 96.789062 164.609375 96.640625 164.550781 C 78.488281 158.59375 58.585938 154.824219 49.742188 154.578125 C 40.441406 154.332031 31.519531 157.710938 24.699219 164.171875 C 17.910156 170.609375 14.023438 179.292969 13.769531 188.648438 C 13.511719 198.007812 16.921875 206.90625 23.359375 213.695312 " fill-opacity="1" fill-rule="nonzero"/></g></g></g></g><g clip-path="url(#dcf93a3084)"><g clip-path="url(#0428517d0a)"><g clip-path="url(#ac2d0eeb83)"><path fill="#a8b8ff" d="M 118.433594 170.644531 C 125.695312 165.582031 135.679688 167.363281 140.742188 174.625 C 145.804688 181.890625 144.023438 191.871094 136.757812 196.933594 C 135.550781 197.777344 134.265625 198.417969 132.933594 198.886719 C 132.464844 199.074219 131.980469 199.207031 131.492188 199.335938 C 131.023438 199.457031 130.542969 199.5625 130.074219 199.613281 C 126.113281 200.253906 122.019531 199.347656 118.671875 197.089844 C 118.390625 196.917969 118.113281 196.71875 117.851562 196.507812 C 117.574219 196.308594 117.332031 196.089844 117.082031 195.867188 C 116.105469 195.027344 115.21875 194.054688 114.449219 192.953125 C 112.289062 189.847656 111.378906 186.261719 111.59375 182.765625 C 108.285156 181.0625 103.972656 179.179688 98.421875 177.167969 L 95.136719 197.46875 C 94.796875 199.988281 95.324219 202.433594 96.492188 204.503906 C 96.644531 204.789062 96.824219 205.078125 97.007812 205.34375 C 97.203125 205.621094 97.402344 205.875 97.609375 206.144531 C 99.160156 208.039062 101.316406 209.441406 103.890625 210.023438 L 111.125 211.4375 L 112.804688 211.765625 L 114.433594 212.082031 L 172.695312 223.472656 C 175.726562 224.054688 178.847656 223.402344 181.375 221.640625 L 351.503906 103.050781 C 356.640625 99.46875 357.90625 92.386719 354.324219 87.25 L 296.988281 4.992188 C 293.394531 -0.160156 286.324219 -1.40625 281.183594 2.171875 L 111.058594 120.761719 C 108.53125 122.527344 106.835938 125.226562 106.324219 128.261719 L 100.5625 163.894531 C 107.320312 166.214844 113.074219 168.613281 117.824219 171.09375 C 118.015625 170.9375 118.234375 170.785156 118.433594 170.644531 " fill-opacity="1" fill-rule="nonzero"/></g></g></g></svg>