<svg xmlns="http://www.w3.org/2000/svg" xmlns:xlink="http://www.w3.org/1999/xlink" width="500" zoomAndPan="magnify" viewBox="0 0 375 374.999991" height="500" preserveAspectRatio="xMidYMid meet" version="1.0"><defs><clipPath id="b228bb87ee"><path d="M 18.503906 171.832031 L 37.253906 171.832031 L 37.253906 203.332031 L 18.503906 203.332031 Z M 18.503906 171.832031 " clip-rule="nonzero"/></clipPath></defs><path fill="#48cae4" d="M 53.957031 187.53125 C 53.957031 188.40625 53.917969 189.28125 53.832031 190.152344 C 53.746094 191.023438 53.617188 191.886719 53.445312 192.746094 C 53.273438 193.601562 53.0625 194.449219 52.808594 195.289062 C 52.554688 196.125 52.261719 196.949219 51.925781 197.757812 C 51.589844 198.566406 51.21875 199.355469 50.804688 200.128906 C 50.394531 200.898438 49.945312 201.648438 49.457031 202.375 C 48.972656 203.105469 48.453125 203.804688 47.898438 204.484375 C 47.34375 205.160156 46.757812 205.804688 46.136719 206.425781 C 45.519531 207.042969 44.871094 207.632812 44.195312 208.1875 C 43.519531 208.742188 42.816406 209.261719 42.089844 209.75 C 41.363281 210.234375 40.613281 210.683594 39.84375 211.097656 C 39.070312 211.507812 38.28125 211.882812 37.472656 212.21875 C 36.667969 212.550781 35.84375 212.847656 35.007812 213.101562 C 34.171875 213.355469 33.324219 213.566406 32.464844 213.738281 C 31.605469 213.910156 30.742188 214.035156 29.871094 214.121094 C 29.003906 214.207031 28.128906 214.25 27.253906 214.25 C 26.378906 214.25 25.507812 214.207031 24.636719 214.121094 C 23.765625 214.035156 22.902344 213.910156 22.046875 213.738281 C 21.1875 213.566406 20.339844 213.355469 19.503906 213.101562 C 18.667969 212.847656 17.84375 212.550781 17.035156 212.21875 C 16.226562 211.882812 15.4375 211.507812 14.667969 211.097656 C 13.894531 210.683594 13.148438 210.234375 12.417969 209.75 C 11.691406 209.261719 10.992188 208.742188 10.316406 208.1875 C 9.636719 207.632812 8.992188 207.042969 8.371094 206.425781 C 7.753906 205.804688 7.167969 205.160156 6.613281 204.484375 C 6.058594 203.804688 5.539062 203.105469 5.050781 202.375 C 4.566406 201.648438 4.117188 200.898438 3.703125 200.128906 C 3.292969 199.355469 2.917969 198.566406 2.585938 197.757812 C 2.25 196.949219 1.957031 196.125 1.703125 195.289062 C 1.449219 194.449219 1.234375 193.601562 1.066406 192.746094 C 0.894531 191.886719 0.765625 191.023438 0.679688 190.152344 C 0.59375 189.28125 0.550781 188.40625 0.550781 187.53125 C 0.550781 186.65625 0.59375 185.785156 0.679688 184.914062 C 0.765625 184.042969 0.894531 183.175781 1.066406 182.320312 C 1.234375 181.460938 1.449219 180.613281 1.703125 179.777344 C 1.957031 178.9375 2.25 178.117188 2.585938 177.308594 C 2.917969 176.5 3.292969 175.707031 3.703125 174.9375 C 4.117188 174.164062 4.566406 173.414062 5.050781 172.6875 C 5.539062 171.960938 6.058594 171.257812 6.613281 170.582031 C 7.167969 169.90625 7.753906 169.257812 8.371094 168.636719 C 8.992188 168.019531 9.636719 167.433594 10.316406 166.878906 C 10.992188 166.324219 11.691406 165.800781 12.417969 165.316406 C 13.148438 164.828125 13.894531 164.378906 14.667969 163.96875 C 15.4375 163.554688 16.226562 163.179688 17.035156 162.847656 C 17.84375 162.511719 18.667969 162.21875 19.503906 161.964844 C 20.339844 161.707031 21.1875 161.496094 22.046875 161.324219 C 22.902344 161.15625 23.765625 161.027344 24.636719 160.941406 C 25.507812 160.855469 26.378906 160.8125 27.253906 160.8125 C 28.128906 160.8125 29.003906 160.855469 29.871094 160.941406 C 30.742188 161.027344 31.605469 161.15625 32.464844 161.324219 C 33.324219 161.496094 34.171875 161.707031 35.007812 161.964844 C 35.84375 162.21875 36.667969 162.511719 37.472656 162.847656 C 38.28125 163.179688 39.070312 163.554688 39.84375 163.96875 C 40.613281 164.378906 41.363281 164.828125 42.089844 165.316406 C 42.816406 165.800781 43.519531 166.324219 44.195312 166.878906 C 44.871094 167.433594 45.519531 168.019531 46.136719 168.636719 C 46.757812 169.257812 47.34375 169.90625 47.898438 170.582031 C 48.453125 171.257812 48.972656 171.960938 49.457031 172.6875 C 49.945312 173.414062 50.394531 174.164062 50.804688 174.9375 C 51.21875 175.707031 51.589844 176.5 51.925781 177.308594 C 52.261719 178.117188 52.554688 178.9375 52.808594 179.777344 C 53.0625 180.613281 53.273438 181.460938 53.445312 182.320312 C 53.617188 183.175781 53.746094 184.042969 53.832031 184.914062 C 53.917969 185.785156 53.957031 186.65625 53.957031 187.53125 Z M 53.957031 187.53125 " fill-opacity="1" fill-rule="nonzero"/><path fill="#00b4d8" d="M 134.070312 187.199219 C 134.082031 188.074219 134.050781 188.945312 133.976562 189.820312 C 133.902344 190.691406 133.785156 191.558594 133.625 192.417969 C 133.464844 193.277344 133.261719 194.128906 133.019531 194.96875 C 132.777344 195.808594 132.492188 196.636719 132.167969 197.449219 C 131.84375 198.261719 131.480469 199.054688 131.078125 199.832031 C 130.675781 200.609375 130.234375 201.367188 129.757812 202.097656 C 129.28125 202.832031 128.773438 203.542969 128.226562 204.226562 C 127.679688 204.910156 127.101562 205.5625 126.492188 206.191406 C 125.878906 206.816406 125.242188 207.414062 124.570312 207.976562 C 123.902344 208.539062 123.207031 209.070312 122.488281 209.566406 C 121.765625 210.058594 121.023438 210.519531 120.257812 210.941406 C 119.488281 211.363281 118.707031 211.746094 117.902344 212.09375 C 117.097656 212.4375 116.277344 212.742188 115.445312 213.007812 C 114.613281 213.273438 113.765625 213.496094 112.910156 213.675781 C 112.054688 213.859375 111.195312 213.996094 110.324219 214.09375 C 109.457031 214.191406 108.582031 214.246094 107.710938 214.257812 C 106.835938 214.265625 105.960938 214.234375 105.089844 214.160156 C 104.21875 214.085938 103.351562 213.96875 102.492188 213.808594 C 101.632812 213.648438 100.785156 213.449219 99.945312 213.203125 C 99.101562 212.960938 98.277344 212.675781 97.464844 212.351562 C 96.652344 212.027344 95.859375 211.664062 95.082031 211.261719 C 94.304688 210.859375 93.550781 210.417969 92.816406 209.941406 C 92.085938 209.464844 91.375 208.953125 90.691406 208.40625 C 90.007812 207.859375 89.355469 207.28125 88.730469 206.671875 C 88.101562 206.0625 87.507812 205.421875 86.945312 204.75 C 86.382812 204.082031 85.851562 203.386719 85.355469 202.664062 C 84.863281 201.945312 84.402344 201.199219 83.980469 200.433594 C 83.558594 199.667969 83.175781 198.882812 82.832031 198.078125 C 82.484375 197.273438 82.179688 196.453125 81.914062 195.621094 C 81.652344 194.785156 81.429688 193.941406 81.246094 193.085938 C 81.066406 192.230469 80.925781 191.367188 80.828125 190.496094 C 80.734375 189.625 80.679688 188.753906 80.667969 187.878906 C 80.65625 187.003906 80.6875 186.132812 80.761719 185.257812 C 80.835938 184.386719 80.953125 183.519531 81.113281 182.660156 C 81.273438 181.800781 81.476562 180.949219 81.71875 180.109375 C 81.960938 179.269531 82.246094 178.441406 82.570312 177.628906 C 82.894531 176.816406 83.257812 176.023438 83.660156 175.246094 C 84.0625 174.46875 84.5 173.710938 84.976562 172.980469 C 85.453125 172.246094 85.964844 171.535156 86.511719 170.851562 C 87.058594 170.167969 87.636719 169.515625 88.246094 168.886719 C 88.859375 168.261719 89.496094 167.664062 90.167969 167.101562 C 90.835938 166.539062 91.53125 166.007812 92.25 165.511719 C 92.972656 165.019531 93.714844 164.558594 94.480469 164.136719 C 95.246094 163.714844 96.03125 163.332031 96.835938 162.984375 C 97.640625 162.640625 98.457031 162.335938 99.292969 162.070312 C 100.125 161.804688 100.96875 161.582031 101.824219 161.402344 C 102.683594 161.21875 103.542969 161.082031 104.414062 160.984375 C 105.28125 160.886719 106.15625 160.832031 107.027344 160.820312 C 107.902344 160.8125 108.777344 160.84375 109.648438 160.917969 C 110.519531 160.992188 111.382812 161.109375 112.246094 161.269531 C 113.105469 161.429688 113.953125 161.628906 114.792969 161.875 C 115.632812 162.117188 116.460938 162.402344 117.273438 162.726562 C 118.085938 163.050781 118.878906 163.414062 119.65625 163.816406 C 120.433594 164.21875 121.1875 164.660156 121.921875 165.136719 C 122.652344 165.613281 123.363281 166.125 124.046875 166.671875 C 124.726562 167.21875 125.382812 167.796875 126.007812 168.40625 C 126.636719 169.015625 127.230469 169.65625 127.792969 170.328125 C 128.355469 170.996094 128.886719 171.691406 129.382812 172.414062 C 129.875 173.132812 130.335938 173.878906 130.757812 174.644531 C 131.179688 175.410156 131.5625 176.195312 131.90625 177 C 132.253906 177.804688 132.558594 178.625 132.820312 179.457031 C 133.085938 180.292969 133.308594 181.136719 133.492188 181.992188 C 133.671875 182.847656 133.8125 183.710938 133.910156 184.582031 C 134.003906 185.453125 134.058594 186.324219 134.070312 187.199219 Z M 134.070312 187.199219 " fill-opacity="1" fill-rule="nonzero"/><path fill="#0096c7" d="M 188.105469 160.816406 C 188.980469 160.835938 189.851562 160.898438 190.71875 161.003906 C 191.585938 161.109375 192.445312 161.257812 193.300781 161.449219 C 194.15625 161.636719 194.996094 161.871094 195.828125 162.140625 C 196.660156 162.414062 197.472656 162.726562 198.273438 163.082031 C 199.074219 163.433594 199.855469 163.824219 200.617188 164.257812 C 201.378906 164.6875 202.117188 165.152344 202.835938 165.65625 C 203.550781 166.15625 204.238281 166.695312 204.902344 167.265625 C 205.566406 167.835938 206.199219 168.4375 206.804688 169.070312 C 207.410156 169.703125 207.980469 170.363281 208.519531 171.050781 C 209.058594 171.738281 209.5625 172.453125 210.03125 173.191406 C 210.5 173.929688 210.933594 174.691406 211.328125 175.472656 C 211.722656 176.253906 212.078125 177.050781 212.394531 177.867188 C 212.710938 178.683594 212.988281 179.511719 213.222656 180.355469 C 213.457031 181.199219 213.648438 182.050781 213.800781 182.910156 C 213.953125 183.773438 214.058594 184.640625 214.125 185.511719 C 214.191406 186.386719 214.214844 187.261719 214.195312 188.136719 C 214.175781 189.007812 214.113281 189.882812 214.007812 190.75 C 213.902344 191.617188 213.753906 192.480469 213.5625 193.335938 C 213.375 194.1875 213.140625 195.03125 212.871094 195.863281 C 212.597656 196.695312 212.285156 197.511719 211.929688 198.3125 C 211.578125 199.113281 211.1875 199.894531 210.757812 200.65625 C 210.328125 201.417969 209.863281 202.15625 209.359375 202.875 C 208.855469 203.589844 208.320312 204.28125 207.75 204.945312 C 207.179688 205.605469 206.578125 206.242188 205.949219 206.847656 C 205.316406 207.449219 204.65625 208.023438 203.964844 208.5625 C 203.277344 209.101562 202.566406 209.605469 201.828125 210.078125 C 201.089844 210.546875 200.328125 210.976562 199.550781 211.371094 C 198.769531 211.769531 197.96875 212.125 197.15625 212.441406 C 196.339844 212.757812 195.511719 213.03125 194.667969 213.265625 C 193.824219 213.503906 192.972656 213.695312 192.113281 213.847656 C 191.25 213.996094 190.382812 214.105469 189.511719 214.171875 C 188.640625 214.238281 187.765625 214.261719 186.890625 214.242188 C 186.019531 214.222656 185.148438 214.160156 184.277344 214.054688 C 183.410156 213.949219 182.550781 213.800781 181.695312 213.609375 C 180.84375 213.417969 180 213.1875 179.167969 212.914062 C 178.339844 212.640625 177.523438 212.328125 176.722656 211.976562 C 175.921875 211.621094 175.140625 211.230469 174.378906 210.800781 C 173.617188 210.371094 172.878906 209.90625 172.164062 209.402344 C 171.445312 208.898438 170.757812 208.363281 170.09375 207.792969 C 169.429688 207.222656 168.796875 206.621094 168.191406 205.988281 C 167.589844 205.355469 167.015625 204.695312 166.476562 204.007812 C 165.9375 203.316406 165.433594 202.605469 164.964844 201.867188 C 164.496094 201.125 164.0625 200.367188 163.667969 199.585938 C 163.273438 198.804688 162.917969 198.007812 162.601562 197.191406 C 162.285156 196.375 162.011719 195.546875 161.773438 194.703125 C 161.539062 193.859375 161.347656 193.007812 161.195312 192.144531 C 161.046875 191.285156 160.9375 190.417969 160.871094 189.542969 C 160.804688 188.671875 160.78125 187.796875 160.800781 186.921875 C 160.820312 186.046875 160.882812 185.175781 160.988281 184.308594 C 161.09375 183.4375 161.242188 182.578125 161.433594 181.722656 C 161.621094 180.867188 161.855469 180.027344 162.125 179.195312 C 162.398438 178.363281 162.710938 177.546875 163.066406 176.746094 C 163.417969 175.945312 163.808594 175.164062 164.238281 174.402344 C 164.667969 173.640625 165.136719 172.898438 165.636719 172.183594 C 166.140625 171.46875 166.675781 170.777344 167.246094 170.113281 C 167.816406 169.449219 168.417969 168.816406 169.050781 168.210938 C 169.679688 167.605469 170.34375 167.035156 171.03125 166.496094 C 171.71875 165.957031 172.433594 165.449219 173.171875 164.980469 C 173.90625 164.511719 174.667969 164.078125 175.449219 163.683594 C 176.226562 163.289062 177.027344 162.933594 177.839844 162.617188 C 178.65625 162.300781 179.484375 162.023438 180.328125 161.789062 C 181.171875 161.554688 182.023438 161.363281 182.882812 161.210938 C 183.746094 161.058594 184.613281 160.953125 185.484375 160.886719 C 186.355469 160.820312 187.230469 160.796875 188.105469 160.816406 Z M 188.105469 160.816406 " fill-opacity="1" fill-rule="nonzero"/><path fill="#0077b6" d="M 268.890625 160.847656 C 269.765625 160.890625 270.632812 160.972656 271.5 161.101562 C 272.363281 161.226562 273.222656 161.394531 274.070312 161.609375 C 274.917969 161.820312 275.753906 162.070312 276.578125 162.363281 C 277.402344 162.65625 278.210938 162.992188 279 163.363281 C 279.792969 163.738281 280.5625 164.148438 281.316406 164.597656 C 282.066406 165.046875 282.792969 165.53125 283.496094 166.050781 C 284.199219 166.570312 284.875 167.125 285.523438 167.710938 C 286.171875 168.296875 286.792969 168.914062 287.378906 169.5625 C 287.96875 170.207031 288.523438 170.882812 289.046875 171.585938 C 289.566406 172.289062 290.054688 173.011719 290.503906 173.761719 C 290.957031 174.511719 291.371094 175.285156 291.746094 176.074219 C 292.121094 176.863281 292.457031 177.671875 292.75 178.496094 C 293.046875 179.316406 293.300781 180.152344 293.515625 181.003906 C 293.730469 181.851562 293.902344 182.707031 294.03125 183.574219 C 294.160156 184.4375 294.25 185.308594 294.292969 186.183594 C 294.335938 187.054688 294.339844 187.929688 294.296875 188.804688 C 294.253906 189.679688 294.171875 190.546875 294.042969 191.414062 C 293.917969 192.28125 293.75 193.136719 293.539062 193.988281 C 293.324219 194.835938 293.074219 195.671875 292.78125 196.496094 C 292.488281 197.320312 292.152344 198.128906 291.78125 198.921875 C 291.410156 199.714844 291 200.484375 290.550781 201.234375 C 290.101562 201.988281 289.617188 202.714844 289.097656 203.417969 C 288.578125 204.121094 288.023438 204.800781 287.4375 205.449219 C 286.851562 206.097656 286.234375 206.71875 285.589844 207.304688 C 284.941406 207.894531 284.265625 208.449219 283.566406 208.972656 C 282.863281 209.496094 282.136719 209.980469 281.390625 210.433594 C 280.640625 210.882812 279.871094 211.296875 279.078125 211.671875 C 278.289062 212.046875 277.484375 212.382812 276.660156 212.679688 C 275.835938 212.976562 275 213.230469 274.152344 213.445312 C 273.304688 213.660156 272.449219 213.832031 271.585938 213.960938 C 270.71875 214.089844 269.851562 214.175781 268.976562 214.222656 C 268.101562 214.265625 267.230469 214.269531 266.355469 214.226562 C 265.484375 214.183594 264.613281 214.101562 263.746094 213.972656 C 262.882812 213.847656 262.023438 213.675781 261.175781 213.464844 C 260.328125 213.253906 259.492188 213.003906 258.667969 212.707031 C 257.84375 212.414062 257.035156 212.082031 256.246094 211.710938 C 255.453125 211.335938 254.683594 210.925781 253.933594 210.476562 C 253.179688 210.027344 252.453125 209.542969 251.75 209.023438 C 251.046875 208.503906 250.371094 207.949219 249.722656 207.363281 C 249.074219 206.777344 248.453125 206.160156 247.867188 205.511719 C 247.277344 204.863281 246.722656 204.191406 246.199219 203.488281 C 245.679688 202.785156 245.191406 202.058594 244.742188 201.308594 C 244.289062 200.558594 243.878906 199.789062 243.5 199 C 243.125 198.210938 242.792969 197.402344 242.496094 196.578125 C 242.199219 195.753906 241.945312 194.917969 241.730469 194.070312 C 241.515625 193.222656 241.34375 192.367188 241.214844 191.5 C 241.085938 190.632812 241 189.765625 240.953125 188.890625 C 240.910156 188.015625 240.90625 187.144531 240.949219 186.269531 C 240.992188 185.394531 241.074219 184.523438 241.203125 183.660156 C 241.328125 182.792969 241.5 181.933594 241.710938 181.085938 C 241.921875 180.238281 242.171875 179.398438 242.464844 178.574219 C 242.757812 177.75 243.09375 176.945312 243.464844 176.152344 C 243.835938 175.359375 244.25 174.589844 244.695312 173.835938 C 245.144531 173.085938 245.628906 172.359375 246.148438 171.65625 C 246.667969 170.949219 247.222656 170.273438 247.808594 169.625 C 248.394531 168.976562 249.011719 168.355469 249.660156 167.769531 C 250.304688 167.179688 250.980469 166.625 251.679688 166.101562 C 252.382812 165.578125 253.109375 165.09375 253.859375 164.640625 C 254.605469 164.191406 255.378906 163.777344 256.167969 163.402344 C 256.957031 163.027344 257.761719 162.691406 258.585938 162.394531 C 259.410156 162.097656 260.246094 161.84375 261.09375 161.628906 C 261.941406 161.414062 262.796875 161.242188 263.664062 161.113281 C 264.527344 160.984375 265.394531 160.894531 266.269531 160.851562 C 267.144531 160.808594 268.015625 160.804688 268.890625 160.847656 Z M 268.890625 160.847656 " fill-opacity="1" fill-rule="nonzero"/><path fill="#023e8a" d="M 347.746094 160.8125 C 348.621094 160.8125 349.492188 160.855469 350.363281 160.941406 C 351.230469 161.027344 352.097656 161.15625 352.953125 161.328125 C 353.8125 161.5 354.660156 161.710938 355.496094 161.964844 C 356.332031 162.21875 357.15625 162.515625 357.960938 162.847656 C 358.769531 163.183594 359.558594 163.558594 360.332031 163.96875 C 361.101562 164.382812 361.851562 164.832031 362.578125 165.320312 C 363.304688 165.804688 364.007812 166.328125 364.683594 166.882812 C 365.359375 167.4375 366.007812 168.023438 366.625 168.644531 C 367.242188 169.261719 367.828125 169.910156 368.382812 170.585938 C 368.9375 171.261719 369.457031 171.964844 369.945312 172.691406 C 370.429688 173.417969 370.878906 174.167969 371.289062 174.941406 C 371.703125 175.714844 372.074219 176.503906 372.410156 177.3125 C 372.746094 178.121094 373.039062 178.945312 373.292969 179.78125 C 373.546875 180.617188 373.757812 181.464844 373.929688 182.324219 C 374.097656 183.183594 374.226562 184.046875 374.3125 184.917969 C 374.398438 185.789062 374.441406 186.660156 374.441406 187.535156 C 374.441406 188.410156 374.398438 189.285156 374.3125 190.15625 C 374.226562 191.027344 374.097656 191.890625 373.925781 192.75 C 373.757812 193.605469 373.542969 194.457031 373.289062 195.292969 C 373.035156 196.128906 372.742188 196.953125 372.40625 197.761719 C 372.070312 198.570312 371.699219 199.359375 371.285156 200.132812 C 370.875 200.902344 370.425781 201.652344 369.9375 202.378906 C 369.453125 203.105469 368.933594 203.808594 368.378906 204.484375 C 367.824219 205.160156 367.234375 205.808594 366.617188 206.429688 C 366 207.046875 365.351562 207.632812 364.675781 208.1875 C 364 208.742188 363.296875 209.265625 362.570312 209.75 C 361.84375 210.234375 361.09375 210.683594 360.324219 211.097656 C 359.550781 211.511719 358.761719 211.882812 357.953125 212.21875 C 357.144531 212.554688 356.324219 212.847656 355.484375 213.101562 C 354.648438 213.355469 353.800781 213.566406 352.945312 213.738281 C 352.085938 213.910156 351.222656 214.039062 350.351562 214.121094 C 349.480469 214.207031 348.609375 214.25 347.734375 214.25 C 346.859375 214.25 345.988281 214.207031 345.117188 214.121094 C 344.246094 214.035156 343.382812 213.910156 342.527344 213.738281 C 341.667969 213.566406 340.820312 213.355469 339.984375 213.101562 C 339.148438 212.847656 338.324219 212.550781 337.515625 212.214844 C 336.707031 211.882812 335.917969 211.507812 335.148438 211.09375 C 334.375 210.683594 333.628906 210.234375 332.898438 209.746094 C 332.171875 209.261719 331.472656 208.742188 330.796875 208.183594 C 330.121094 207.628906 329.472656 207.042969 328.855469 206.425781 C 328.234375 205.804688 327.648438 205.15625 327.09375 204.480469 C 326.539062 203.804688 326.019531 203.101562 325.535156 202.375 C 325.046875 201.648438 324.597656 200.898438 324.1875 200.125 C 323.773438 199.355469 323.402344 198.566406 323.066406 197.757812 C 322.730469 196.949219 322.4375 196.125 322.183594 195.289062 C 321.929688 194.449219 321.71875 193.601562 321.546875 192.746094 C 321.375 191.886719 321.246094 191.023438 321.164062 190.152344 C 321.078125 189.28125 321.035156 188.40625 321.035156 187.53125 C 321.035156 186.65625 321.078125 185.785156 321.164062 184.914062 C 321.25 184.042969 321.378906 183.175781 321.550781 182.320312 C 321.71875 181.460938 321.933594 180.613281 322.1875 179.777344 C 322.441406 178.9375 322.734375 178.117188 323.070312 177.308594 C 323.40625 176.5 323.78125 175.707031 324.191406 174.9375 C 324.605469 174.164062 325.054688 173.417969 325.539062 172.6875 C 326.027344 171.960938 326.546875 171.257812 327.101562 170.582031 C 327.65625 169.90625 328.242188 169.257812 328.863281 168.640625 C 329.480469 168.019531 330.128906 167.433594 330.804688 166.878906 C 331.480469 166.324219 332.183594 165.804688 332.910156 165.316406 C 333.636719 164.832031 334.386719 164.382812 335.15625 163.96875 C 335.929688 163.558594 336.71875 163.183594 337.527344 162.847656 C 338.332031 162.511719 339.15625 162.21875 339.992188 161.964844 C 340.828125 161.710938 341.675781 161.496094 342.535156 161.328125 C 343.394531 161.15625 344.257812 161.027344 345.128906 160.941406 C 345.996094 160.855469 346.871094 160.8125 347.746094 160.8125 Z M 347.746094 160.8125 " fill-opacity="1" fill-rule="evenodd"/><path fill="#48cae4" d="M 101.5625 139.945312 C 101.15625 138.960938 100.710938 138 100.21875 137.054688 C 99.730469 136.113281 99.203125 135.191406 98.632812 134.292969 C 98.066406 133.394531 97.460938 132.523438 96.816406 131.679688 C 96.175781 130.832031 95.496094 130.015625 94.78125 129.226562 C 94.070312 128.441406 93.324219 127.683594 92.546875 126.960938 C 91.765625 126.238281 90.960938 125.550781 90.121094 124.894531 C 89.285156 124.242188 88.421875 123.625 87.53125 123.046875 C 86.640625 122.464844 85.726562 121.925781 84.789062 121.425781 C 83.851562 120.921875 82.894531 120.464844 81.917969 120.046875 C 80.941406 119.625 79.949219 119.25 78.941406 118.917969 C 77.933594 118.585938 76.910156 118.296875 75.878906 118.050781 C 74.84375 117.804688 73.800781 117.605469 72.75 117.449219 C 71.699219 117.292969 70.644531 117.183594 69.585938 117.117188 C 68.523438 117.050781 67.464844 117.03125 66.402344 117.058594 C 65.339844 117.085938 64.28125 117.15625 63.226562 117.273438 C 62.171875 117.394531 61.121094 117.554688 60.078125 117.761719 C 59.039062 117.96875 58.007812 118.222656 56.988281 118.519531 C 55.964844 118.816406 54.960938 119.15625 53.96875 119.539062 C 52.980469 119.921875 52.007812 120.34375 51.050781 120.8125 C 50.097656 121.277344 49.164062 121.785156 48.253906 122.332031 C 47.34375 122.878906 46.457031 123.464844 45.597656 124.085938 C 44.738281 124.710938 43.90625 125.367188 43.101562 126.0625 C 42.296875 126.757812 41.523438 127.484375 40.78125 128.246094 C 40.039062 129.007812 39.332031 129.800781 38.660156 130.621094 C 37.988281 131.445312 37.351562 132.292969 36.75 133.171875 C 36.148438 134.046875 35.585938 134.949219 35.0625 135.871094 C 34.542969 136.796875 34.058594 137.742188 33.617188 138.710938 C 33.175781 139.675781 32.777344 140.660156 32.417969 141.660156 C 32.0625 142.664062 31.75 143.675781 31.476562 144.707031 C 31.207031 145.734375 30.984375 146.769531 30.800781 147.816406 C 30.621094 148.867188 30.484375 149.917969 30.394531 150.976562 C 30.304688 152.035156 30.261719 153.097656 30.261719 154.160156 L 24.277344 154.160156 C 24.28125 152.914062 24.335938 151.667969 24.445312 150.425781 C 24.554688 149.183594 24.71875 147.949219 24.933594 146.71875 C 25.152344 145.492188 25.421875 144.273438 25.742188 143.070312 C 26.066406 141.863281 26.441406 140.675781 26.863281 139.503906 C 27.289062 138.332031 27.765625 137.179688 28.292969 136.046875 C 28.816406 134.917969 29.390625 133.8125 30.011719 132.730469 C 30.632812 131.648438 31.300781 130.597656 32.011719 129.574219 C 32.726562 128.550781 33.480469 127.558594 34.28125 126.601562 C 35.078125 125.644531 35.917969 124.722656 36.796875 123.839844 C 37.675781 122.953125 38.589844 122.109375 39.542969 121.304688 C 40.492188 120.5 41.480469 119.734375 42.496094 119.015625 C 43.515625 118.296875 44.5625 117.621094 45.640625 116.992188 C 46.714844 116.363281 47.816406 115.785156 48.945312 115.25 C 50.074219 114.71875 51.21875 114.234375 52.390625 113.800781 C 53.558594 113.367188 54.742188 112.988281 55.945312 112.65625 C 57.148438 112.328125 58.363281 112.050781 59.589844 111.824219 C 60.816406 111.601562 62.046875 111.429688 63.289062 111.3125 C 64.53125 111.195312 65.773438 111.132812 67.019531 111.121094 C 68.265625 111.113281 69.511719 111.15625 70.753906 111.253906 C 71.996094 111.355469 73.234375 111.507812 74.460938 111.714844 C 75.691406 111.917969 76.910156 112.179688 78.117188 112.492188 C 79.324219 112.800781 80.515625 113.167969 81.691406 113.582031 C 82.867188 113.996094 84.019531 114.464844 85.15625 114.980469 C 86.289062 115.496094 87.402344 116.058594 88.488281 116.671875 C 89.574219 117.285156 90.628906 117.941406 91.660156 118.644531 C 92.6875 119.351562 93.683594 120.097656 94.648438 120.890625 C 95.613281 121.679688 96.539062 122.511719 97.433594 123.382812 C 98.324219 124.253906 99.175781 125.160156 99.988281 126.109375 C 100.804688 127.054688 101.574219 128.03125 102.300781 129.042969 C 103.03125 130.058594 103.710938 131.097656 104.351562 132.171875 C 104.988281 133.242188 105.578125 134.339844 106.121094 135.464844 C 106.664062 136.585938 107.15625 137.730469 107.597656 138.898438 C 109.8125 138.0625 111.613281 136.6875 113.003906 134.773438 L 107.375 154.136719 L 95.265625 138.015625 C 97.179688 139.269531 99.277344 139.914062 101.5625 139.945312 Z M 101.5625 139.945312 " fill-opacity="1" fill-rule="evenodd"/><path fill="#0096c7" d="M 261.808594 139.945312 C 261.402344 138.960938 260.953125 138 260.464844 137.054688 C 259.976562 136.113281 259.449219 135.191406 258.878906 134.292969 C 258.3125 133.394531 257.707031 132.523438 257.0625 131.679688 C 256.417969 130.832031 255.742188 130.015625 255.027344 129.226562 C 254.3125 128.441406 253.566406 127.683594 252.789062 126.960938 C 252.011719 126.238281 251.203125 125.550781 250.367188 124.894531 C 249.527344 124.242188 248.664062 123.625 247.773438 123.046875 C 246.882812 122.464844 245.96875 121.925781 245.035156 121.425781 C 244.097656 120.921875 243.140625 120.464844 242.164062 120.046875 C 241.1875 119.625 240.195312 119.25 239.1875 118.917969 C 238.175781 118.585938 237.15625 118.296875 236.125 118.050781 C 235.089844 117.804688 234.046875 117.605469 232.996094 117.449219 C 231.945312 117.292969 230.890625 117.183594 229.832031 117.117188 C 228.769531 117.050781 227.707031 117.03125 226.648438 117.058594 C 225.585938 117.085938 224.527344 117.15625 223.46875 117.273438 C 222.414062 117.390625 221.367188 117.554688 220.324219 117.761719 C 219.28125 117.96875 218.25 118.222656 217.230469 118.519531 C 216.210938 118.816406 215.207031 119.15625 214.214844 119.539062 C 213.222656 119.921875 212.25 120.34375 211.296875 120.8125 C 210.34375 121.277344 209.410156 121.785156 208.5 122.332031 C 207.589844 122.878906 206.703125 123.464844 205.84375 124.085938 C 204.980469 124.710938 204.148438 125.367188 203.34375 126.0625 C 202.542969 126.757812 201.769531 127.484375 201.027344 128.246094 C 200.285156 129.007812 199.578125 129.800781 198.90625 130.621094 C 198.230469 131.445312 197.59375 132.292969 196.996094 133.171875 C 196.394531 134.046875 195.832031 134.949219 195.308594 135.871094 C 194.785156 136.796875 194.304688 137.742188 193.863281 138.710938 C 193.421875 139.675781 193.019531 140.660156 192.664062 141.660156 C 192.308594 142.664062 191.992188 143.675781 191.722656 144.707031 C 191.453125 145.734375 191.226562 146.769531 191.046875 147.816406 C 190.867188 148.867188 190.730469 149.917969 190.640625 150.976562 C 190.550781 152.035156 190.503906 153.097656 190.507812 154.160156 L 184.523438 154.160156 C 184.527344 152.914062 184.582031 151.667969 184.695312 150.429688 C 184.804688 149.1875 184.96875 147.953125 185.1875 146.722656 C 185.402344 145.496094 185.671875 144.28125 185.996094 143.078125 C 186.320312 141.871094 186.695312 140.683594 187.121094 139.511719 C 187.546875 138.34375 188.023438 137.191406 188.546875 136.0625 C 189.074219 134.929688 189.648438 133.824219 190.269531 132.746094 C 190.890625 131.664062 191.558594 130.613281 192.273438 129.589844 C 192.984375 128.570312 193.742188 127.578125 194.539062 126.621094 C 195.339844 125.664062 196.175781 124.746094 197.054688 123.859375 C 197.933594 122.976562 198.847656 122.132812 199.800781 121.328125 C 200.753906 120.523438 201.738281 119.761719 202.753906 119.042969 C 203.773438 118.324219 204.820312 117.652344 205.898438 117.023438 C 206.972656 116.394531 208.074219 115.8125 209.199219 115.28125 C 210.328125 114.75 211.476562 114.265625 212.644531 113.832031 C 213.8125 113.402344 214.996094 113.019531 216.199219 112.691406 C 217.398438 112.359375 218.613281 112.082031 219.839844 111.859375 C 221.066406 111.632812 222.296875 111.460938 223.539062 111.34375 C 224.777344 111.226562 226.023438 111.164062 227.269531 111.15625 C 228.511719 111.144531 229.757812 111.191406 231 111.289062 C 232.242188 111.386719 233.476562 111.539062 234.707031 111.746094 C 235.933594 111.949219 237.152344 112.210938 238.359375 112.519531 C 239.566406 112.832031 240.757812 113.195312 241.929688 113.609375 C 243.105469 114.023438 244.261719 114.488281 245.394531 115.003906 C 246.53125 115.519531 247.640625 116.082031 248.726562 116.695312 C 249.8125 117.308594 250.867188 117.964844 251.898438 118.667969 C 252.925781 119.371094 253.921875 120.117188 254.886719 120.90625 C 255.851562 121.695312 256.777344 122.527344 257.671875 123.398438 C 258.5625 124.269531 259.414062 125.175781 260.226562 126.121094 C 261.042969 127.066406 261.8125 128.042969 262.539062 129.054688 C 263.269531 130.066406 263.953125 131.105469 264.589844 132.175781 C 265.230469 133.246094 265.820312 134.34375 266.363281 135.464844 C 266.90625 136.589844 267.398438 137.730469 267.84375 138.898438 C 270.054688 138.0625 271.855469 136.6875 273.242188 134.773438 L 267.609375 154.136719 L 255.550781 138.007812 C 257.449219 139.257812 259.535156 139.90625 261.808594 139.945312 Z M 261.808594 139.945312 " fill-opacity="1" fill-rule="evenodd"/><path fill="#00b4d8" d="M 187.730469 236.167969 C 187.289062 237.335938 186.796875 238.480469 186.257812 239.605469 C 185.714844 240.730469 185.125 241.832031 184.488281 242.902344 C 183.851562 243.976562 183.171875 245.023438 182.441406 246.035156 C 181.714844 247.050781 180.945312 248.03125 180.132812 248.980469 C 179.320312 249.925781 178.46875 250.835938 177.574219 251.710938 C 176.683594 252.582031 175.753906 253.417969 174.792969 254.207031 C 173.828125 255 172.832031 255.75 171.800781 256.457031 C 170.773438 257.160156 169.714844 257.820312 168.628906 258.4375 C 167.539062 259.050781 166.429688 259.613281 165.292969 260.132812 C 164.15625 260.648438 163 261.117188 161.824219 261.53125 C 160.648438 261.949219 159.457031 262.3125 158.25 262.628906 C 157.039062 262.941406 155.820312 263.199219 154.589844 263.40625 C 153.359375 263.613281 152.121094 263.765625 150.878906 263.867188 C 149.636719 263.964844 148.390625 264.011719 147.140625 264 C 145.894531 263.992188 144.648438 263.929688 143.40625 263.8125 C 142.164062 263.695312 140.929688 263.523438 139.703125 263.296875 C 138.472656 263.074219 137.257812 262.796875 136.054688 262.464844 C 134.851562 262.132812 133.664062 261.753906 132.496094 261.320312 C 131.324219 260.886719 130.175781 260.402344 129.046875 259.867188 C 127.917969 259.332031 126.816406 258.753906 125.738281 258.121094 C 124.660156 257.492188 123.613281 256.816406 122.59375 256.097656 C 121.574219 255.375 120.589844 254.613281 119.636719 253.804688 C 118.683594 253 117.769531 252.152344 116.890625 251.265625 C 116.011719 250.382812 115.171875 249.457031 114.371094 248.5 C 113.574219 247.539062 112.816406 246.546875 112.105469 245.523438 C 111.394531 244.5 110.726562 243.445312 110.105469 242.359375 C 109.484375 241.277344 108.910156 240.171875 108.386719 239.039062 C 107.859375 237.90625 107.386719 236.75 106.960938 235.578125 C 106.535156 234.402344 106.164062 233.214844 105.84375 232.007812 C 105.519531 230.800781 105.253906 229.582031 105.035156 228.351562 C 104.820312 227.121094 104.660156 225.886719 104.550781 224.640625 C 104.445312 223.398438 104.390625 222.152344 104.390625 220.902344 L 110.371094 220.902344 C 110.371094 221.964844 110.414062 223.027344 110.503906 224.085938 C 110.59375 225.144531 110.730469 226.199219 110.910156 227.246094 C 111.089844 228.292969 111.316406 229.332031 111.585938 230.359375 C 111.855469 231.390625 112.167969 232.402344 112.523438 233.40625 C 112.882812 234.40625 113.28125 235.390625 113.722656 236.355469 C 114.164062 237.324219 114.644531 238.269531 115.167969 239.195312 C 115.691406 240.121094 116.253906 241.023438 116.851562 241.898438 C 117.453125 242.777344 118.089844 243.625 118.761719 244.449219 C 119.4375 245.269531 120.144531 246.0625 120.886719 246.824219 C 121.625 247.585938 122.398438 248.3125 123.203125 249.007812 C 124.007812 249.703125 124.839844 250.363281 125.699219 250.984375 C 126.5625 251.609375 127.445312 252.195312 128.355469 252.742188 C 129.269531 253.289062 130.199219 253.796875 131.15625 254.261719 C 132.109375 254.730469 133.082031 255.152344 134.074219 255.539062 C 135.066406 255.921875 136.070312 256.261719 137.089844 256.558594 C 138.109375 256.851562 139.140625 257.105469 140.183594 257.3125 C 141.226562 257.519531 142.273438 257.683594 143.332031 257.800781 C 144.386719 257.917969 145.445312 257.992188 146.507812 258.015625 C 147.570312 258.042969 148.632812 258.023438 149.691406 257.957031 C 150.75 257.894531 151.808594 257.785156 152.859375 257.628906 C 153.910156 257.472656 154.953125 257.269531 155.984375 257.023438 C 157.019531 256.78125 158.039062 256.488281 159.050781 256.15625 C 160.058594 255.824219 161.050781 255.445312 162.027344 255.027344 C 163.003906 254.609375 163.960938 254.148438 164.898438 253.648438 C 165.832031 253.148438 166.746094 252.605469 167.636719 252.027344 C 168.527344 251.445312 169.390625 250.828125 170.230469 250.175781 C 171.066406 249.519531 171.875 248.832031 172.652344 248.109375 C 173.429688 247.382812 174.175781 246.628906 174.890625 245.839844 C 175.601562 245.054688 176.28125 244.234375 176.921875 243.390625 C 177.566406 242.542969 178.171875 241.671875 178.738281 240.773438 C 179.308594 239.875 179.835938 238.953125 180.324219 238.007812 C 180.8125 237.066406 181.261719 236.101562 181.667969 235.121094 C 179.386719 235.152344 177.292969 235.800781 175.386719 237.058594 L 187.5 220.933594 L 193.132812 240.296875 C 191.742188 238.382812 189.945312 237.003906 187.730469 236.167969 Z M 187.730469 236.167969 " fill-opacity="1" fill-rule="evenodd"/><path fill="#0077b6" d="M 347.960938 236.167969 C 347.519531 237.335938 347.027344 238.480469 346.484375 239.605469 C 345.945312 240.730469 345.355469 241.828125 344.71875 242.902344 C 344.078125 243.976562 343.398438 245.019531 342.667969 246.03125 C 341.941406 247.046875 341.171875 248.027344 340.359375 248.972656 C 339.546875 249.921875 338.691406 250.832031 337.800781 251.703125 C 336.910156 252.578125 335.980469 253.410156 335.015625 254.199219 C 334.050781 254.992188 333.054688 255.742188 332.027344 256.449219 C 330.996094 257.152344 329.9375 257.8125 328.851562 258.425781 C 327.765625 259.039062 326.65625 259.605469 325.519531 260.121094 C 324.382812 260.636719 323.226562 261.105469 322.050781 261.519531 C 320.875 261.9375 319.683594 262.300781 318.476562 262.613281 C 317.265625 262.925781 316.046875 263.1875 314.816406 263.394531 C 313.585938 263.601562 312.351562 263.753906 311.105469 263.851562 C 309.863281 263.953125 308.617188 263.996094 307.371094 263.988281 C 306.121094 263.976562 304.875 263.914062 303.636719 263.796875 C 302.394531 263.679688 301.15625 263.507812 299.929688 263.285156 C 298.703125 263.058594 297.488281 262.78125 296.285156 262.453125 C 295.082031 262.121094 293.894531 261.738281 292.726562 261.304688 C 291.554688 260.871094 290.40625 260.390625 289.277344 259.855469 C 288.152344 259.320312 287.046875 258.742188 285.96875 258.109375 C 284.894531 257.480469 283.84375 256.808594 282.824219 256.085938 C 281.808594 255.367188 280.820312 254.601562 279.867188 253.796875 C 278.917969 252.988281 278 252.144531 277.121094 251.257812 C 276.242188 250.371094 275.402344 249.449219 274.605469 248.492188 C 273.804688 247.53125 273.050781 246.539062 272.335938 245.515625 C 271.625 244.492188 270.957031 243.4375 270.335938 242.355469 C 269.714844 241.273438 269.140625 240.164062 268.613281 239.035156 C 268.089844 237.902344 267.613281 236.746094 267.191406 235.574219 C 266.765625 234.402344 266.390625 233.210938 266.070312 232.003906 C 265.746094 230.796875 265.480469 229.582031 265.261719 228.351562 C 265.046875 227.121094 264.882812 225.886719 264.777344 224.640625 C 264.667969 223.398438 264.613281 222.152344 264.613281 220.902344 L 270.59375 220.902344 C 270.59375 221.964844 270.640625 223.027344 270.730469 224.085938 C 270.820312 225.144531 270.953125 226.199219 271.136719 227.246094 C 271.316406 228.292969 271.542969 229.332031 271.8125 230.359375 C 272.082031 231.386719 272.394531 232.402344 272.753906 233.402344 C 273.109375 234.402344 273.507812 235.386719 273.949219 236.351562 C 274.390625 237.320312 274.875 238.265625 275.398438 239.191406 C 275.921875 240.117188 276.484375 241.015625 277.082031 241.894531 C 277.683594 242.769531 278.320312 243.621094 278.992188 244.441406 C 279.667969 245.265625 280.375 246.054688 281.117188 246.816406 C 281.855469 247.578125 282.628906 248.304688 283.433594 249 C 284.238281 249.695312 285.070312 250.355469 285.929688 250.976562 C 286.792969 251.601562 287.675781 252.183594 288.589844 252.730469 C 289.5 253.277344 290.429688 253.785156 291.386719 254.25 C 292.339844 254.71875 293.3125 255.144531 294.304688 255.527344 C 295.292969 255.910156 296.300781 256.25 297.320312 256.542969 C 298.339844 256.839844 299.371094 257.09375 300.414062 257.300781 C 301.453125 257.507812 302.503906 257.671875 303.558594 257.789062 C 304.613281 257.90625 305.671875 257.976562 306.734375 258.003906 C 307.796875 258.03125 308.859375 258.011719 309.917969 257.945312 C 310.980469 257.882812 312.035156 257.773438 313.085938 257.617188 C 314.136719 257.460938 315.179688 257.257812 316.210938 257.015625 C 317.246094 256.769531 318.265625 256.480469 319.273438 256.144531 C 320.285156 255.8125 321.277344 255.4375 322.253906 255.019531 C 323.230469 254.601562 324.1875 254.140625 325.121094 253.640625 C 326.058594 253.136719 326.972656 252.597656 327.863281 252.019531 C 328.753906 251.4375 329.617188 250.820312 330.457031 250.167969 C 331.292969 249.515625 332.101562 248.824219 332.878906 248.101562 C 333.65625 247.378906 334.402344 246.625 335.117188 245.835938 C 335.828125 245.046875 336.507812 244.230469 337.152344 243.386719 C 337.792969 242.539062 338.398438 241.667969 338.96875 240.769531 C 339.535156 239.871094 340.066406 238.953125 340.554688 238.007812 C 341.042969 237.0625 341.492188 236.101562 341.898438 235.121094 C 339.613281 235.152344 337.515625 235.800781 335.609375 237.058594 L 347.714844 220.933594 L 353.347656 240.296875 C 351.960938 238.386719 350.164062 237.007812 347.960938 236.167969 Z M 347.960938 236.167969 " fill-opacity="1" fill-rule="evenodd"/><path fill="#ffffff" d="M 27.253906 166.492188 C 27.945312 166.492188 28.632812 166.523438 29.316406 166.59375 C 30 166.660156 30.683594 166.761719 31.359375 166.894531 C 32.03125 167.03125 32.699219 167.199219 33.359375 167.398438 C 34.019531 167.597656 34.664062 167.828125 35.300781 168.09375 C 35.9375 168.355469 36.558594 168.652344 37.167969 168.976562 C 37.773438 169.300781 38.363281 169.65625 38.9375 170.039062 C 39.511719 170.421875 40.0625 170.832031 40.59375 171.265625 C 41.128906 171.703125 41.636719 172.167969 42.125 172.652344 C 42.609375 173.140625 43.074219 173.652344 43.511719 174.183594 C 43.945312 174.714844 44.355469 175.269531 44.738281 175.84375 C 45.121094 176.414062 45.476562 177.003906 45.800781 177.613281 C 46.125 178.222656 46.417969 178.84375 46.683594 179.480469 C 46.945312 180.117188 47.179688 180.765625 47.378906 181.425781 C 47.578125 182.082031 47.746094 182.75 47.878906 183.425781 C 48.011719 184.101562 48.113281 184.785156 48.183594 185.46875 C 48.25 186.15625 48.28125 186.84375 48.28125 187.53125 C 48.28125 188.222656 48.25 188.910156 48.183594 189.59375 C 48.113281 190.28125 48.011719 190.960938 47.878906 191.636719 C 47.746094 192.3125 47.578125 192.980469 47.378906 193.640625 C 47.179688 194.300781 46.945312 194.945312 46.683594 195.582031 C 46.417969 196.21875 46.125 196.84375 45.800781 197.449219 C 45.476562 198.058594 45.121094 198.648438 44.738281 199.222656 C 44.355469 199.792969 43.945312 200.347656 43.511719 200.878906 C 43.074219 201.414062 42.609375 201.921875 42.125 202.410156 C 41.636719 202.898438 41.128906 203.359375 40.59375 203.796875 C 40.0625 204.234375 39.511719 204.644531 38.9375 205.027344 C 38.363281 205.410156 37.773438 205.761719 37.167969 206.085938 C 36.558594 206.414062 35.9375 206.707031 35.300781 206.96875 C 34.664062 207.234375 34.019531 207.464844 33.359375 207.667969 C 32.699219 207.867188 32.03125 208.035156 31.359375 208.167969 C 30.683594 208.300781 30 208.402344 29.316406 208.472656 C 28.632812 208.539062 27.945312 208.570312 27.253906 208.574219 C 26.566406 208.570312 25.878906 208.539062 25.195312 208.472656 C 24.507812 208.402344 23.828125 208.300781 23.152344 208.167969 C 22.476562 208.035156 21.808594 207.867188 21.152344 207.667969 C 20.492188 207.464844 19.84375 207.234375 19.207031 206.96875 C 18.570312 206.707031 17.949219 206.414062 17.34375 206.085938 C 16.734375 205.761719 16.144531 205.410156 15.574219 205.027344 C 15 204.644531 14.449219 204.234375 13.914062 203.796875 C 13.382812 203.359375 12.875 202.898438 12.386719 202.410156 C 11.898438 201.921875 11.4375 201.414062 11 200.878906 C 10.5625 200.347656 10.152344 199.792969 9.769531 199.222656 C 9.386719 198.648438 9.035156 198.058594 8.710938 197.449219 C 8.386719 196.84375 8.089844 196.21875 7.828125 195.582031 C 7.5625 194.945312 7.332031 194.300781 7.132812 193.640625 C 6.933594 192.980469 6.765625 192.3125 6.632812 191.636719 C 6.496094 190.960938 6.394531 190.28125 6.328125 189.59375 C 6.261719 188.910156 6.226562 188.222656 6.226562 187.53125 C 6.226562 186.84375 6.261719 186.15625 6.328125 185.46875 C 6.398438 184.785156 6.5 184.105469 6.632812 183.429688 C 6.769531 182.753906 6.9375 182.085938 7.136719 181.425781 C 7.335938 180.765625 7.566406 180.117188 7.832031 179.480469 C 8.09375 178.847656 8.390625 178.222656 8.714844 177.617188 C 9.039062 177.007812 9.394531 176.417969 9.777344 175.847656 C 10.160156 175.273438 10.566406 174.71875 11.003906 174.1875 C 11.441406 173.65625 11.902344 173.144531 12.390625 172.660156 C 12.878906 172.171875 13.386719 171.710938 13.917969 171.273438 C 14.453125 170.835938 15.003906 170.425781 15.578125 170.042969 C 16.148438 169.660156 16.738281 169.304688 17.34375 168.980469 C 17.953125 168.65625 18.574219 168.359375 19.210938 168.097656 C 19.847656 167.832031 20.492188 167.601562 21.152344 167.402344 C 21.8125 167.199219 22.480469 167.03125 23.152344 166.898438 C 23.828125 166.761719 24.507812 166.664062 25.195312 166.59375 C 25.878906 166.527344 26.566406 166.492188 27.253906 166.492188 Z M 27.253906 164.484375 C 26.5 164.488281 25.75 164.523438 24.996094 164.597656 C 24.246094 164.671875 23.503906 164.78125 22.761719 164.929688 C 22.023438 165.078125 21.292969 165.261719 20.570312 165.480469 C 19.847656 165.699219 19.140625 165.953125 18.441406 166.242188 C 17.746094 166.53125 17.066406 166.855469 16.398438 167.210938 C 15.734375 167.566406 15.089844 167.953125 14.460938 168.375 C 13.835938 168.792969 13.230469 169.242188 12.644531 169.722656 C 12.0625 170.199219 11.503906 170.707031 10.972656 171.242188 C 10.4375 171.773438 9.933594 172.332031 9.453125 172.917969 C 8.976562 173.5 8.527344 174.105469 8.109375 174.734375 C 7.691406 175.359375 7.304688 176.007812 6.949219 176.671875 C 6.59375 177.339844 6.269531 178.019531 5.980469 178.71875 C 5.691406 179.414062 5.441406 180.125 5.222656 180.847656 C 5.003906 181.570312 4.820312 182.300781 4.671875 183.042969 C 4.523438 183.78125 4.414062 184.527344 4.339844 185.277344 C 4.265625 186.027344 4.230469 186.78125 4.230469 187.535156 C 4.230469 188.292969 4.269531 189.042969 4.34375 189.796875 C 4.417969 190.546875 4.527344 191.292969 4.675781 192.03125 C 4.820312 192.773438 5.003906 193.503906 5.222656 194.226562 C 5.441406 194.949219 5.695312 195.65625 5.984375 196.355469 C 6.273438 197.050781 6.597656 197.734375 6.953125 198.398438 C 7.308594 199.066406 7.695312 199.710938 8.113281 200.339844 C 8.535156 200.964844 8.984375 201.570312 9.460938 202.15625 C 9.941406 202.738281 10.445312 203.296875 10.980469 203.832031 C 11.511719 204.363281 12.070312 204.871094 12.652344 205.347656 C 13.238281 205.828125 13.84375 206.277344 14.46875 206.695312 C 15.097656 207.113281 15.742188 207.503906 16.410156 207.859375 C 17.074219 208.214844 17.753906 208.535156 18.453125 208.824219 C 19.148438 209.113281 19.859375 209.367188 20.578125 209.585938 C 21.300781 209.804688 22.03125 209.988281 22.773438 210.136719 C 23.511719 210.28125 24.257812 210.394531 25.007812 210.46875 C 25.757812 210.539062 26.511719 210.578125 27.265625 210.578125 C 28.019531 210.578125 28.773438 210.539062 29.523438 210.464844 C 30.273438 210.390625 31.019531 210.28125 31.757812 210.132812 C 32.496094 209.988281 33.230469 209.804688 33.949219 209.585938 C 34.671875 209.367188 35.382812 209.113281 36.078125 208.824219 C 36.773438 208.535156 37.457031 208.210938 38.121094 207.855469 C 38.785156 207.5 39.433594 207.113281 40.058594 206.691406 C 40.6875 206.273438 41.292969 205.824219 41.875 205.34375 C 42.457031 204.867188 43.015625 204.359375 43.550781 203.828125 C 44.082031 203.292969 44.589844 202.734375 45.066406 202.152344 C 45.546875 201.566406 45.996094 200.960938 46.414062 200.335938 C 46.832031 199.707031 47.21875 199.058594 47.574219 198.394531 C 47.929688 197.730469 48.253906 197.046875 48.542969 196.351562 C 48.832031 195.652344 49.085938 194.945312 49.304688 194.222656 C 49.523438 193.5 49.707031 192.769531 49.851562 192.027344 C 50 191.289062 50.109375 190.542969 50.183594 189.789062 C 50.257812 189.039062 50.292969 188.285156 50.292969 187.53125 C 50.292969 186.777344 50.257812 186.023438 50.183594 185.273438 C 50.109375 184.523438 50 183.777344 49.851562 183.035156 C 49.703125 182.296875 49.519531 181.5625 49.300781 180.839844 C 49.082031 180.121094 48.828125 179.410156 48.539062 178.710938 C 48.25 178.015625 47.925781 177.332031 47.570312 176.667969 C 47.214844 176.003906 46.828125 175.355469 46.410156 174.726562 C 45.988281 174.101562 45.542969 173.496094 45.0625 172.910156 C 44.582031 172.328125 44.078125 171.769531 43.542969 171.234375 C 43.011719 170.703125 42.453125 170.195312 41.867188 169.71875 C 41.285156 169.238281 40.679688 168.789062 40.054688 168.371094 C 39.425781 167.949219 38.777344 167.5625 38.113281 167.207031 C 37.449219 166.851562 36.765625 166.527344 36.070312 166.242188 C 35.375 165.953125 34.664062 165.699219 33.941406 165.476562 C 33.21875 165.257812 32.488281 165.078125 31.75 164.929688 C 31.007812 164.78125 30.265625 164.671875 29.511719 164.597656 C 28.761719 164.523438 28.007812 164.484375 27.253906 164.484375 Z M 27.253906 164.484375 " fill-opacity="1" fill-rule="evenodd"/><path fill="#ffffff" d="M 107.382812 166.492188 C 108.070312 166.492188 108.757812 166.527344 109.441406 166.59375 C 110.128906 166.660156 110.808594 166.761719 111.484375 166.898438 C 112.160156 167.03125 112.824219 167.199219 113.484375 167.398438 C 114.144531 167.601562 114.792969 167.832031 115.425781 168.097656 C 116.0625 168.359375 116.683594 168.652344 117.292969 168.980469 C 117.898438 169.304688 118.488281 169.65625 119.0625 170.042969 C 119.632812 170.425781 120.1875 170.835938 120.71875 171.273438 C 121.25 171.707031 121.761719 172.171875 122.246094 172.660156 C 122.734375 173.144531 123.195312 173.65625 123.632812 174.1875 C 124.070312 174.722656 124.480469 175.273438 124.859375 175.847656 C 125.242188 176.421875 125.597656 177.011719 125.921875 177.617188 C 126.246094 178.226562 126.539062 178.847656 126.804688 179.484375 C 127.066406 180.121094 127.296875 180.769531 127.496094 181.429688 C 127.699219 182.089844 127.863281 182.757812 128 183.433594 C 128.132812 184.109375 128.234375 184.789062 128.300781 185.476562 C 128.367188 186.160156 128.402344 186.847656 128.402344 187.535156 C 128.402344 188.226562 128.367188 188.914062 128.300781 189.597656 C 128.234375 190.285156 128.132812 190.964844 127.996094 191.640625 C 127.863281 192.316406 127.695312 192.984375 127.496094 193.644531 C 127.296875 194.304688 127.0625 194.953125 126.800781 195.585938 C 126.535156 196.222656 126.242188 196.847656 125.917969 197.453125 C 125.59375 198.0625 125.238281 198.652344 124.855469 199.226562 C 124.472656 199.796875 124.0625 200.351562 123.625 200.882812 C 123.1875 201.414062 122.726562 201.925781 122.238281 202.414062 C 121.753906 202.898438 121.242188 203.363281 120.710938 203.796875 C 120.179688 204.234375 119.625 204.644531 119.054688 205.027344 C 118.480469 205.410156 117.890625 205.765625 117.285156 206.089844 C 116.675781 206.414062 116.054688 206.707031 115.417969 206.972656 C 114.78125 207.234375 114.132812 207.46875 113.476562 207.667969 C 112.816406 207.867188 112.148438 208.035156 111.472656 208.167969 C 110.796875 208.304688 110.117188 208.402344 109.433594 208.472656 C 108.746094 208.539062 108.058594 208.574219 107.371094 208.574219 C 106.683594 208.570312 105.996094 208.539062 105.308594 208.472656 C 104.625 208.402344 103.945312 208.300781 103.269531 208.167969 C 102.59375 208.03125 101.925781 207.867188 101.269531 207.664062 C 100.609375 207.464844 99.960938 207.234375 99.324219 206.96875 C 98.6875 206.707031 98.066406 206.410156 97.460938 206.085938 C 96.851562 205.761719 96.261719 205.410156 95.691406 205.027344 C 95.117188 204.644531 94.566406 204.234375 94.03125 203.796875 C 93.5 203.359375 92.992188 202.894531 92.503906 202.410156 C 92.015625 201.921875 91.554688 201.410156 91.117188 200.878906 C 90.679688 200.347656 90.273438 199.792969 89.890625 199.21875 C 89.507812 198.648438 89.152344 198.058594 88.828125 197.449219 C 88.503906 196.84375 88.210938 196.21875 87.945312 195.582031 C 87.683594 194.945312 87.449219 194.296875 87.25 193.640625 C 87.050781 192.980469 86.882812 192.3125 86.75 191.636719 C 86.617188 190.960938 86.515625 190.28125 86.445312 189.59375 C 86.378906 188.910156 86.347656 188.222656 86.347656 187.53125 C 86.347656 186.84375 86.378906 186.15625 86.449219 185.46875 C 86.515625 184.785156 86.617188 184.101562 86.75 183.425781 C 86.886719 182.75 87.054688 182.082031 87.253906 181.421875 C 87.453125 180.765625 87.683594 180.117188 87.949219 179.480469 C 88.214844 178.84375 88.507812 178.21875 88.832031 177.613281 C 89.15625 177.003906 89.511719 176.414062 89.894531 175.84375 C 90.277344 175.269531 90.6875 174.714844 91.125 174.183594 C 91.558594 173.652344 92.023438 173.140625 92.507812 172.652344 C 92.996094 172.167969 93.507812 171.703125 94.039062 171.265625 C 94.570312 170.828125 95.125 170.421875 95.695312 170.039062 C 96.269531 169.65625 96.859375 169.300781 97.46875 168.976562 C 98.074219 168.652344 98.695312 168.355469 99.332031 168.09375 C 99.96875 167.828125 100.617188 167.597656 101.277344 167.398438 C 101.933594 167.199219 102.601562 167.03125 103.277344 166.894531 C 103.953125 166.761719 104.632812 166.660156 105.320312 166.59375 C 106.003906 166.523438 106.691406 166.492188 107.382812 166.492188 Z M 107.382812 164.484375 C 106.628906 164.484375 105.875 164.523438 105.125 164.597656 C 104.375 164.671875 103.628906 164.78125 102.886719 164.929688 C 102.148438 165.078125 101.417969 165.257812 100.695312 165.480469 C 99.972656 165.699219 99.265625 165.953125 98.566406 166.242188 C 97.871094 166.53125 97.1875 166.851562 96.523438 167.207031 C 95.859375 167.5625 95.210938 167.949219 94.585938 168.371094 C 93.957031 168.789062 93.351562 169.238281 92.769531 169.71875 C 92.1875 170.195312 91.628906 170.703125 91.09375 171.234375 C 90.5625 171.769531 90.054688 172.328125 89.578125 172.910156 C 89.097656 173.496094 88.648438 174.101562 88.230469 174.726562 C 87.8125 175.355469 87.425781 176.003906 87.070312 176.667969 C 86.714844 177.332031 86.390625 178.015625 86.101562 178.710938 C 85.8125 179.410156 85.558594 180.121094 85.339844 180.84375 C 85.121094 181.5625 84.9375 182.296875 84.792969 183.035156 C 84.644531 183.777344 84.535156 184.523438 84.460938 185.273438 C 84.386719 186.023438 84.347656 186.777344 84.347656 187.53125 C 84.347656 188.285156 84.386719 189.039062 84.460938 189.789062 C 84.535156 190.542969 84.644531 191.289062 84.792969 192.027344 C 84.9375 192.769531 85.121094 193.5 85.339844 194.222656 C 85.558594 194.945312 85.8125 195.652344 86.101562 196.351562 C 86.390625 197.046875 86.714844 197.730469 87.070312 198.394531 C 87.425781 199.0625 87.8125 199.707031 88.230469 200.335938 C 88.648438 200.964844 89.097656 201.570312 89.578125 202.152344 C 90.054688 202.734375 90.5625 203.292969 91.09375 203.828125 C 91.628906 204.359375 92.1875 204.867188 92.769531 205.347656 C 93.351562 205.824219 93.957031 206.273438 94.585938 206.695312 C 95.210938 207.113281 95.859375 207.5 96.523438 207.855469 C 97.1875 208.210938 97.871094 208.535156 98.566406 208.824219 C 99.265625 209.113281 99.972656 209.367188 100.695312 209.585938 C 101.417969 209.804688 102.148438 209.988281 102.886719 210.132812 C 103.628906 210.28125 104.375 210.390625 105.125 210.464844 C 105.875 210.539062 106.628906 210.578125 107.382812 210.578125 C 108.136719 210.578125 108.886719 210.539062 109.640625 210.464844 C 110.390625 210.390625 111.136719 210.28125 111.875 210.132812 C 112.613281 209.988281 113.34375 209.804688 114.066406 209.585938 C 114.789062 209.367188 115.5 209.113281 116.195312 208.824219 C 116.890625 208.535156 117.574219 208.210938 118.238281 207.855469 C 118.902344 207.5 119.550781 207.113281 120.175781 206.695312 C 120.804688 206.273438 121.410156 205.824219 121.992188 205.347656 C 122.574219 204.867188 123.132812 204.359375 123.667969 203.828125 C 124.199219 203.292969 124.707031 202.734375 125.183594 202.152344 C 125.664062 201.570312 126.113281 200.964844 126.53125 200.335938 C 126.949219 199.707031 127.339844 199.0625 127.695312 198.394531 C 128.050781 197.730469 128.371094 197.046875 128.660156 196.351562 C 128.949219 195.652344 129.203125 194.945312 129.421875 194.222656 C 129.640625 193.5 129.824219 192.769531 129.972656 192.027344 C 130.117188 191.289062 130.230469 190.542969 130.300781 189.789062 C 130.375 189.039062 130.414062 188.285156 130.414062 187.53125 C 130.414062 186.777344 130.375 186.023438 130.300781 185.273438 C 130.226562 184.523438 130.117188 183.777344 129.96875 183.035156 C 129.820312 182.296875 129.636719 181.566406 129.417969 180.84375 C 129.199219 180.121094 128.945312 179.410156 128.65625 178.714844 C 128.367188 178.019531 128.046875 177.335938 127.6875 176.671875 C 127.332031 176.003906 126.945312 175.359375 126.527344 174.730469 C 126.109375 174.105469 125.660156 173.5 125.179688 172.914062 C 124.703125 172.332031 124.195312 171.773438 123.664062 171.242188 C 123.128906 170.707031 122.570312 170.199219 121.988281 169.722656 C 121.40625 169.242188 120.800781 168.792969 120.171875 168.375 C 119.546875 167.957031 118.902344 167.566406 118.234375 167.210938 C 117.570312 166.855469 116.890625 166.535156 116.191406 166.246094 C 115.496094 165.957031 114.789062 165.703125 114.066406 165.480469 C 113.34375 165.261719 112.613281 165.078125 111.875 164.929688 C 111.132812 164.785156 110.390625 164.671875 109.636719 164.597656 C 108.886719 164.523438 108.136719 164.488281 107.382812 164.484375 Z M 107.382812 164.484375 " fill-opacity="1" fill-rule="evenodd"/><path fill="#ffffff" d="M 187.5 166.492188 C 188.1875 166.492188 188.875 166.523438 189.5625 166.59375 C 190.246094 166.660156 190.925781 166.761719 191.601562 166.894531 C 192.277344 167.03125 192.945312 167.199219 193.605469 167.398438 C 194.261719 167.597656 194.910156 167.828125 195.546875 168.09375 C 196.183594 168.355469 196.804688 168.652344 197.414062 168.976562 C 198.019531 169.300781 198.609375 169.65625 199.183594 170.039062 C 199.753906 170.421875 200.308594 170.832031 200.839844 171.265625 C 201.371094 171.703125 201.882812 172.167969 202.367188 172.652344 C 202.855469 173.140625 203.316406 173.652344 203.753906 174.183594 C 204.191406 174.714844 204.601562 175.269531 204.984375 175.84375 C 205.367188 176.414062 205.71875 177.003906 206.046875 177.613281 C 206.371094 178.222656 206.664062 178.84375 206.925781 179.480469 C 207.191406 180.117188 207.421875 180.765625 207.621094 181.425781 C 207.824219 182.082031 207.988281 182.75 208.125 183.425781 C 208.257812 184.101562 208.359375 184.785156 208.425781 185.46875 C 208.496094 186.15625 208.527344 186.84375 208.527344 187.53125 C 208.527344 188.222656 208.496094 188.910156 208.425781 189.59375 C 208.359375 190.28125 208.257812 190.960938 208.125 191.636719 C 207.988281 192.3125 207.824219 192.980469 207.621094 193.640625 C 207.421875 194.300781 207.191406 194.945312 206.925781 195.582031 C 206.664062 196.21875 206.371094 196.84375 206.046875 197.449219 C 205.71875 198.058594 205.367188 198.648438 204.984375 199.222656 C 204.601562 199.792969 204.191406 200.347656 203.753906 200.878906 C 203.316406 201.414062 202.855469 201.921875 202.367188 202.410156 C 201.882812 202.898438 201.371094 203.359375 200.839844 203.796875 C 200.308594 204.234375 199.753906 204.644531 199.183594 205.027344 C 198.609375 205.410156 198.019531 205.761719 197.414062 206.085938 C 196.804688 206.414062 196.183594 206.707031 195.546875 206.96875 C 194.910156 207.234375 194.261719 207.464844 193.605469 207.667969 C 192.945312 207.867188 192.277344 208.035156 191.601562 208.167969 C 190.925781 208.300781 190.246094 208.402344 189.5625 208.472656 C 188.875 208.539062 188.1875 208.570312 187.5 208.574219 C 186.8125 208.570312 186.125 208.539062 185.4375 208.472656 C 184.753906 208.402344 184.074219 208.300781 183.398438 208.167969 C 182.722656 208.035156 182.054688 207.867188 181.394531 207.667969 C 180.738281 207.464844 180.089844 207.234375 179.453125 206.96875 C 178.816406 206.707031 178.195312 206.414062 177.585938 206.085938 C 176.980469 205.761719 176.390625 205.410156 175.816406 205.027344 C 175.246094 204.644531 174.691406 204.234375 174.160156 203.796875 C 173.628906 203.359375 173.117188 202.898438 172.632812 202.410156 C 172.144531 201.921875 171.683594 201.414062 171.246094 200.878906 C 170.808594 200.347656 170.398438 199.792969 170.015625 199.222656 C 169.632812 198.648438 169.28125 198.058594 168.953125 197.449219 C 168.628906 196.84375 168.335938 196.21875 168.074219 195.582031 C 167.808594 194.945312 167.578125 194.300781 167.378906 193.640625 C 167.175781 192.980469 167.011719 192.3125 166.875 191.636719 C 166.742188 190.960938 166.640625 190.28125 166.574219 189.59375 C 166.503906 188.910156 166.472656 188.222656 166.472656 187.53125 C 166.472656 186.84375 166.507812 186.15625 166.574219 185.46875 C 166.640625 184.785156 166.742188 184.101562 166.878906 183.425781 C 167.011719 182.75 167.179688 182.085938 167.378906 181.425781 C 167.578125 180.765625 167.8125 180.117188 168.074219 179.480469 C 168.339844 178.84375 168.632812 178.222656 168.957031 177.613281 C 169.28125 177.007812 169.636719 176.417969 170.019531 175.84375 C 170.402344 175.269531 170.808594 174.71875 171.246094 174.1875 C 171.683594 173.652344 172.144531 173.144531 172.632812 172.65625 C 173.121094 172.167969 173.628906 171.707031 174.160156 171.269531 C 174.695312 170.832031 175.246094 170.421875 175.820312 170.039062 C 176.390625 169.65625 176.980469 169.304688 177.589844 168.976562 C 178.195312 168.652344 178.816406 168.359375 179.453125 168.09375 C 180.089844 167.832031 180.738281 167.597656 181.398438 167.398438 C 182.054688 167.199219 182.722656 167.03125 183.398438 166.898438 C 184.074219 166.761719 184.753906 166.660156 185.4375 166.59375 C 186.125 166.527344 186.8125 166.492188 187.5 166.492188 Z M 187.5 164.484375 C 186.746094 164.484375 185.992188 164.523438 185.242188 164.597656 C 184.492188 164.671875 183.746094 164.78125 183.007812 164.929688 C 182.265625 165.078125 181.535156 165.257812 180.8125 165.480469 C 180.09375 165.699219 179.382812 165.953125 178.6875 166.242188 C 177.988281 166.53125 177.308594 166.851562 176.644531 167.207031 C 175.976562 167.5625 175.332031 167.949219 174.703125 168.371094 C 174.078125 168.789062 173.472656 169.238281 172.886719 169.71875 C 172.304688 170.195312 171.746094 170.703125 171.214844 171.234375 C 170.679688 171.769531 170.175781 172.328125 169.695312 172.910156 C 169.21875 173.496094 168.769531 174.101562 168.347656 174.726562 C 167.929688 175.355469 167.542969 176.003906 167.1875 176.667969 C 166.832031 177.332031 166.511719 178.015625 166.222656 178.710938 C 165.933594 179.410156 165.679688 180.121094 165.460938 180.84375 C 165.242188 181.5625 165.058594 182.296875 164.910156 183.035156 C 164.761719 183.777344 164.652344 184.523438 164.578125 185.273438 C 164.503906 186.023438 164.46875 186.777344 164.46875 187.53125 C 164.46875 188.285156 164.503906 189.039062 164.578125 189.789062 C 164.652344 190.542969 164.761719 191.289062 164.910156 192.027344 C 165.058594 192.769531 165.242188 193.5 165.460938 194.222656 C 165.679688 194.945312 165.933594 195.652344 166.222656 196.351562 C 166.511719 197.046875 166.832031 197.730469 167.1875 198.394531 C 167.542969 199.0625 167.929688 199.707031 168.347656 200.335938 C 168.769531 200.964844 169.21875 201.570312 169.695312 202.152344 C 170.175781 202.734375 170.679688 203.292969 171.214844 203.828125 C 171.746094 204.359375 172.304688 204.867188 172.886719 205.347656 C 173.472656 205.824219 174.078125 206.273438 174.703125 206.695312 C 175.332031 207.113281 175.976562 207.5 176.644531 207.855469 C 177.308594 208.210938 177.988281 208.535156 178.6875 208.824219 C 179.382812 209.113281 180.09375 209.367188 180.8125 209.585938 C 181.535156 209.804688 182.265625 209.988281 183.007812 210.132812 C 183.746094 210.28125 184.492188 210.390625 185.242188 210.464844 C 185.992188 210.539062 186.746094 210.578125 187.5 210.578125 C 188.253906 210.578125 189.007812 210.539062 189.757812 210.464844 C 190.507812 210.390625 191.253906 210.28125 191.992188 210.132812 C 192.734375 209.988281 193.464844 209.804688 194.1875 209.585938 C 194.90625 209.367188 195.617188 209.113281 196.3125 208.824219 C 197.011719 208.535156 197.691406 208.210938 198.355469 207.855469 C 199.023438 207.5 199.667969 207.113281 200.296875 206.695312 C 200.921875 206.273438 201.527344 205.824219 202.113281 205.347656 C 202.695312 204.867188 203.253906 204.359375 203.785156 203.828125 C 204.320312 203.292969 204.824219 202.734375 205.304688 202.152344 C 205.78125 201.570312 206.230469 200.964844 206.652344 200.335938 C 207.070312 199.707031 207.457031 199.0625 207.8125 198.394531 C 208.167969 197.730469 208.488281 197.046875 208.777344 196.351562 C 209.066406 195.652344 209.320312 194.945312 209.539062 194.222656 C 209.757812 193.5 209.941406 192.769531 210.089844 192.027344 C 210.238281 191.289062 210.347656 190.542969 210.421875 189.789062 C 210.496094 189.039062 210.53125 188.285156 210.53125 187.53125 C 210.53125 186.777344 210.496094 186.023438 210.421875 185.273438 C 210.347656 184.523438 210.234375 183.777344 210.089844 183.035156 C 209.941406 182.296875 209.757812 181.566406 209.539062 180.84375 C 209.320312 180.121094 209.066406 179.410156 208.777344 178.714844 C 208.488281 178.015625 208.164062 177.335938 207.808594 176.667969 C 207.453125 176.003906 207.066406 175.359375 206.648438 174.730469 C 206.230469 174.101562 205.78125 173.496094 205.300781 172.914062 C 204.824219 172.332031 204.316406 171.773438 203.785156 171.238281 C 203.25 170.703125 202.691406 170.199219 202.109375 169.71875 C 201.527344 169.242188 200.921875 168.792969 200.292969 168.371094 C 199.667969 167.953125 199.019531 167.566406 198.355469 167.210938 C 197.691406 166.855469 197.007812 166.53125 196.3125 166.242188 C 195.617188 165.953125 194.90625 165.699219 194.183594 165.480469 C 193.464844 165.261719 192.734375 165.078125 191.992188 164.929688 C 191.253906 164.78125 190.507812 164.671875 189.757812 164.597656 C 189.007812 164.523438 188.253906 164.488281 187.5 164.484375 Z M 187.5 164.484375 " fill-opacity="1" fill-rule="evenodd"/><path fill="#ffffff" d="M 267.617188 166.492188 C 268.308594 166.492188 268.992188 166.527344 269.679688 166.59375 C 270.363281 166.664062 271.042969 166.765625 271.71875 166.898438 C 272.394531 167.035156 273.0625 167.199219 273.722656 167.402344 C 274.378906 167.601562 275.027344 167.835938 275.664062 168.097656 C 276.300781 168.363281 276.921875 168.65625 277.527344 168.980469 C 278.136719 169.308594 278.726562 169.660156 279.296875 170.042969 C 279.871094 170.429688 280.421875 170.839844 280.953125 171.277344 C 281.484375 171.714844 281.996094 172.175781 282.480469 172.664062 C 282.96875 173.148438 283.429688 173.660156 283.867188 174.195312 C 284.304688 174.726562 284.710938 175.277344 285.09375 175.851562 C 285.476562 176.425781 285.828125 177.015625 286.152344 177.625 C 286.476562 178.230469 286.773438 178.855469 287.035156 179.492188 C 287.296875 180.128906 287.53125 180.773438 287.730469 181.433594 C 287.929688 182.09375 288.097656 182.761719 288.230469 183.4375 C 288.363281 184.113281 288.464844 184.792969 288.53125 185.480469 C 288.597656 186.164062 288.632812 186.851562 288.632812 187.542969 C 288.632812 188.230469 288.597656 188.917969 288.53125 189.605469 C 288.460938 190.289062 288.359375 190.96875 288.226562 191.644531 C 288.089844 192.320312 287.921875 192.988281 287.722656 193.648438 C 287.523438 194.308594 287.292969 194.957031 287.027344 195.589844 C 286.765625 196.226562 286.46875 196.851562 286.144531 197.457031 C 285.820312 198.066406 285.464844 198.65625 285.082031 199.226562 C 284.699219 199.800781 284.289062 200.351562 283.855469 200.886719 C 283.417969 201.417969 282.953125 201.929688 282.46875 202.414062 C 281.980469 202.902344 281.46875 203.363281 280.9375 203.800781 C 280.40625 204.238281 279.851562 204.648438 279.28125 205.03125 C 278.707031 205.414062 278.117188 205.765625 277.511719 206.089844 C 276.902344 206.414062 276.28125 206.710938 275.644531 206.972656 C 275.007812 207.238281 274.359375 207.46875 273.703125 207.667969 C 273.042969 207.867188 272.375 208.035156 271.699219 208.167969 C 271.023438 208.304688 270.34375 208.402344 269.660156 208.472656 C 268.972656 208.539062 268.289062 208.574219 267.597656 208.574219 C 266.910156 208.570312 266.222656 208.539062 265.539062 208.46875 C 264.851562 208.402344 264.171875 208.300781 263.496094 208.167969 C 262.820312 208.03125 262.15625 207.867188 261.496094 207.664062 C 260.835938 207.464844 260.1875 207.234375 259.554688 206.96875 C 258.917969 206.707031 258.296875 206.410156 257.6875 206.085938 C 257.082031 205.761719 256.492188 205.40625 255.917969 205.023438 C 255.347656 204.640625 254.792969 204.230469 254.261719 203.792969 C 253.730469 203.355469 253.21875 202.894531 252.734375 202.40625 C 252.246094 201.921875 251.785156 201.410156 251.347656 200.878906 C 250.910156 200.34375 250.5 199.792969 250.117188 199.21875 C 249.734375 198.648438 249.382812 198.054688 249.058594 197.449219 C 248.734375 196.839844 248.4375 196.21875 248.175781 195.582031 C 247.914062 194.945312 247.679688 194.296875 247.480469 193.640625 C 247.28125 192.980469 247.113281 192.3125 246.980469 191.636719 C 246.84375 190.960938 246.746094 190.28125 246.675781 189.59375 C 246.609375 188.910156 246.574219 188.222656 246.574219 187.53125 C 246.578125 186.84375 246.609375 186.15625 246.679688 185.46875 C 246.746094 184.78125 246.847656 184.101562 246.984375 183.425781 C 247.117188 182.75 247.285156 182.082031 247.484375 181.421875 C 247.6875 180.761719 247.917969 180.117188 248.183594 179.480469 C 248.445312 178.84375 248.738281 178.21875 249.066406 177.613281 C 249.390625 177.003906 249.746094 176.414062 250.128906 175.839844 C 250.511719 175.269531 250.921875 174.714844 251.359375 174.183594 C 251.792969 173.648438 252.257812 173.140625 252.746094 172.652344 C 253.230469 172.164062 253.742188 171.703125 254.273438 171.265625 C 254.808594 170.828125 255.359375 170.417969 255.933594 170.035156 C 256.503906 169.652344 257.09375 169.300781 257.703125 168.976562 C 258.3125 168.652344 258.933594 168.355469 259.570312 168.09375 C 260.207031 167.828125 260.855469 167.597656 261.511719 167.398438 C 262.171875 167.199219 262.839844 167.03125 263.515625 166.894531 C 264.191406 166.761719 264.871094 166.660156 265.558594 166.59375 C 266.242188 166.523438 266.929688 166.492188 267.617188 166.492188 Z M 267.617188 164.484375 C 266.863281 164.488281 266.113281 164.527344 265.363281 164.601562 C 264.613281 164.675781 263.867188 164.789062 263.128906 164.9375 C 262.390625 165.085938 261.660156 165.269531 260.9375 165.492188 C 260.214844 165.710938 259.507812 165.964844 258.8125 166.257812 C 258.117188 166.546875 257.433594 166.871094 256.769531 167.226562 C 256.105469 167.582031 255.460938 167.972656 254.835938 168.390625 C 254.207031 168.8125 253.605469 169.261719 253.023438 169.742188 C 252.441406 170.222656 251.882812 170.726562 251.351562 171.261719 C 250.820312 171.796875 250.3125 172.355469 249.835938 172.941406 C 249.359375 173.523438 248.910156 174.128906 248.492188 174.757812 C 248.074219 175.386719 247.6875 176.03125 247.335938 176.699219 C 246.980469 177.363281 246.660156 178.046875 246.371094 178.742188 C 246.085938 179.441406 245.832031 180.152344 245.613281 180.875 C 245.394531 181.59375 245.214844 182.328125 245.066406 183.066406 C 244.921875 183.808594 244.8125 184.554688 244.738281 185.304688 C 244.667969 186.054688 244.628906 186.808594 244.632812 187.5625 C 244.632812 188.316406 244.671875 189.070312 244.746094 189.820312 C 244.820312 190.570312 244.929688 191.316406 245.078125 192.054688 C 245.226562 192.796875 245.410156 193.527344 245.632812 194.246094 C 245.851562 194.96875 246.105469 195.679688 246.394531 196.375 C 246.683594 197.070312 247.007812 197.753906 247.363281 198.417969 C 247.71875 199.082031 248.105469 199.730469 248.527344 200.355469 C 248.945312 200.980469 249.394531 201.585938 249.875 202.171875 C 250.351562 202.753906 250.859375 203.308594 251.394531 203.84375 C 251.925781 204.375 252.484375 204.882812 253.070312 205.359375 C 253.652344 205.839844 254.257812 206.285156 254.882812 206.703125 C 255.511719 207.125 256.160156 207.511719 256.824219 207.867188 C 257.488281 208.21875 258.167969 208.542969 258.867188 208.832031 C 259.5625 209.117188 260.273438 209.371094 260.996094 209.589844 C 261.714844 209.808594 262.445312 209.992188 263.1875 210.136719 C 263.925781 210.285156 264.671875 210.394531 265.421875 210.46875 C 266.171875 210.542969 266.925781 210.578125 267.679688 210.578125 C 268.433594 210.578125 269.183594 210.539062 269.933594 210.464844 C 270.683594 210.390625 271.429688 210.28125 272.167969 210.132812 C 272.910156 209.984375 273.640625 209.800781 274.359375 209.582031 C 275.082031 209.363281 275.792969 209.109375 276.488281 208.820312 C 277.183594 208.53125 277.863281 208.207031 278.53125 207.851562 C 279.195312 207.496094 279.839844 207.109375 280.46875 206.6875 C 281.09375 206.269531 281.699219 205.820312 282.28125 205.339844 C 282.863281 204.863281 283.421875 204.355469 283.953125 203.824219 C 284.488281 203.289062 284.992188 202.730469 285.472656 202.148438 C 285.949219 201.5625 286.398438 200.957031 286.816406 200.332031 C 287.234375 199.703125 287.621094 199.058594 287.976562 198.390625 C 288.332031 197.726562 288.65625 197.042969 288.945312 196.347656 C 289.230469 195.652344 289.484375 194.941406 289.703125 194.21875 C 289.921875 193.496094 290.105469 192.765625 290.253906 192.027344 C 290.398438 191.285156 290.511719 190.539062 290.585938 189.789062 C 290.660156 189.039062 290.695312 188.285156 290.695312 187.53125 C 290.695312 186.777344 290.65625 186.023438 290.582031 185.269531 C 290.507812 184.519531 290.398438 183.773438 290.25 183.03125 C 290.101562 182.289062 289.917969 181.558594 289.699219 180.835938 C 289.480469 180.113281 289.226562 179.402344 288.9375 178.703125 C 288.648438 178.003906 288.324219 177.324219 287.96875 176.65625 C 287.609375 175.992188 287.222656 175.34375 286.800781 174.714844 C 286.382812 174.089844 285.933594 173.480469 285.453125 172.898438 C 284.972656 172.316406 284.464844 171.757812 283.929688 171.222656 C 283.398438 170.6875 282.835938 170.183594 282.253906 169.703125 C 281.667969 169.226562 281.0625 168.777344 280.433594 168.355469 C 279.804688 167.9375 279.160156 167.550781 278.492188 167.195312 C 277.824219 166.839844 277.144531 166.519531 276.445312 166.230469 C 275.746094 165.941406 275.035156 165.6875 274.3125 165.46875 C 273.589844 165.25 272.859375 165.070312 272.117188 164.921875 C 271.375 164.777344 270.628906 164.667969 269.878906 164.59375 C 269.128906 164.519531 268.375 164.484375 267.617188 164.484375 Z M 267.617188 164.484375 " fill-opacity="1" fill-rule="evenodd"/><path fill="#ffffff" d="M 347.746094 166.492188 C 348.433594 166.492188 349.121094 166.527344 349.804688 166.59375 C 350.492188 166.660156 351.171875 166.761719 351.847656 166.898438 C 352.523438 167.03125 353.1875 167.199219 353.847656 167.398438 C 354.507812 167.601562 355.15625 167.832031 355.789062 168.097656 C 356.425781 168.359375 357.046875 168.652344 357.65625 168.980469 C 358.261719 169.304688 358.851562 169.65625 359.425781 170.042969 C 359.996094 170.425781 360.550781 170.835938 361.082031 171.273438 C 361.613281 171.707031 362.125 172.171875 362.609375 172.660156 C 363.097656 173.144531 363.558594 173.65625 363.996094 174.1875 C 364.433594 174.722656 364.84375 175.273438 365.226562 175.847656 C 365.605469 176.421875 365.960938 177.011719 366.285156 177.617188 C 366.609375 178.226562 366.902344 178.847656 367.167969 179.484375 C 367.429688 180.121094 367.660156 180.769531 367.863281 181.429688 C 368.0625 182.089844 368.226562 182.757812 368.363281 183.433594 C 368.496094 184.109375 368.597656 184.789062 368.664062 185.476562 C 368.730469 186.160156 368.765625 186.847656 368.765625 187.535156 C 368.765625 188.226562 368.730469 188.914062 368.664062 189.597656 C 368.597656 190.285156 368.496094 190.964844 368.359375 191.640625 C 368.226562 192.316406 368.058594 192.984375 367.859375 193.644531 C 367.660156 194.304688 367.425781 194.953125 367.164062 195.585938 C 366.898438 196.222656 366.605469 196.847656 366.28125 197.453125 C 365.957031 198.0625 365.601562 198.652344 365.21875 199.226562 C 364.835938 199.796875 364.425781 200.351562 363.988281 200.882812 C 363.554688 201.414062 363.089844 201.925781 362.605469 202.414062 C 362.117188 202.898438 361.605469 203.363281 361.074219 203.796875 C 360.542969 204.234375 359.988281 204.644531 359.417969 205.027344 C 358.84375 205.410156 358.253906 205.765625 357.648438 206.089844 C 357.039062 206.414062 356.417969 206.707031 355.78125 206.972656 C 355.144531 207.234375 354.496094 207.46875 353.839844 207.667969 C 353.179688 207.867188 352.511719 208.035156 351.835938 208.167969 C 351.160156 208.304688 350.480469 208.402344 349.796875 208.472656 C 349.109375 208.539062 348.421875 208.574219 347.734375 208.574219 C 347.046875 208.570312 346.359375 208.539062 345.675781 208.472656 C 344.988281 208.402344 344.308594 208.300781 343.632812 208.167969 C 342.957031 208.03125 342.289062 207.867188 341.632812 207.664062 C 340.972656 207.464844 340.324219 207.234375 339.6875 206.96875 C 339.050781 206.707031 338.429688 206.410156 337.824219 206.085938 C 337.214844 205.761719 336.625 205.410156 336.054688 205.027344 C 335.480469 204.644531 334.929688 204.234375 334.394531 203.796875 C 333.863281 203.359375 333.355469 202.894531 332.867188 202.410156 C 332.378906 201.921875 331.917969 201.410156 331.480469 200.878906 C 331.046875 200.347656 330.636719 199.792969 330.253906 199.21875 C 329.871094 198.648438 329.515625 198.058594 329.191406 197.449219 C 328.867188 196.84375 328.574219 196.21875 328.308594 195.582031 C 328.046875 194.945312 327.816406 194.296875 327.613281 193.640625 C 327.414062 192.980469 327.246094 192.3125 327.113281 191.636719 C 326.980469 190.960938 326.878906 190.28125 326.8125 189.59375 C 326.742188 188.910156 326.710938 188.222656 326.710938 187.53125 C 326.710938 186.84375 326.742188 186.15625 326.8125 185.46875 C 326.878906 184.785156 326.980469 184.101562 327.113281 183.425781 C 327.25 182.75 327.417969 182.082031 327.617188 181.421875 C 327.816406 180.765625 328.050781 180.117188 328.3125 179.480469 C 328.578125 178.84375 328.871094 178.21875 329.195312 177.613281 C 329.519531 177.003906 329.875 176.414062 330.257812 175.84375 C 330.640625 175.269531 331.050781 174.714844 331.488281 174.183594 C 331.925781 173.652344 332.386719 173.140625 332.875 172.652344 C 333.359375 172.167969 333.871094 171.703125 334.402344 171.265625 C 334.933594 170.828125 335.488281 170.421875 336.058594 170.039062 C 336.632812 169.65625 337.222656 169.300781 337.832031 168.976562 C 338.4375 168.652344 339.058594 168.355469 339.695312 168.09375 C 340.332031 167.828125 340.980469 167.597656 341.640625 167.398438 C 342.300781 167.199219 342.964844 167.03125 343.640625 166.894531 C 344.316406 166.761719 344.996094 166.660156 345.683594 166.59375 C 346.367188 166.523438 347.054688 166.492188 347.746094 166.492188 Z M 347.746094 164.484375 C 346.992188 164.484375 346.238281 164.523438 345.488281 164.597656 C 344.738281 164.671875 343.992188 164.78125 343.25 164.929688 C 342.511719 165.078125 341.78125 165.257812 341.058594 165.480469 C 340.335938 165.699219 339.628906 165.953125 338.929688 166.242188 C 338.234375 166.53125 337.554688 166.851562 336.886719 167.207031 C 336.222656 167.5625 335.574219 167.949219 334.949219 168.371094 C 334.320312 168.789062 333.714844 169.238281 333.132812 169.71875 C 332.550781 170.195312 331.992188 170.703125 331.457031 171.234375 C 330.925781 171.769531 330.417969 172.328125 329.941406 172.910156 C 329.460938 173.496094 329.011719 174.101562 328.59375 174.726562 C 328.175781 175.355469 327.789062 176.003906 327.433594 176.667969 C 327.078125 177.332031 326.753906 178.015625 326.464844 178.710938 C 326.175781 179.410156 325.921875 180.121094 325.703125 180.84375 C 325.484375 181.5625 325.300781 182.296875 325.15625 183.035156 C 325.007812 183.777344 324.898438 184.523438 324.824219 185.273438 C 324.75 186.023438 324.710938 186.777344 324.710938 187.53125 C 324.710938 188.285156 324.75 189.039062 324.824219 189.789062 C 324.898438 190.542969 325.007812 191.289062 325.15625 192.027344 C 325.300781 192.769531 325.484375 193.5 325.703125 194.222656 C 325.921875 194.945312 326.175781 195.652344 326.464844 196.351562 C 326.753906 197.046875 327.078125 197.730469 327.433594 198.394531 C 327.789062 199.0625 328.175781 199.707031 328.59375 200.335938 C 329.011719 200.964844 329.460938 201.570312 329.941406 202.152344 C 330.417969 202.734375 330.925781 203.292969 331.457031 203.828125 C 331.992188 204.363281 332.550781 204.867188 333.132812 205.347656 C 333.714844 205.824219 334.320312 206.273438 334.949219 206.695312 C 335.574219 207.113281 336.222656 207.5 336.886719 207.855469 C 337.554688 208.210938 338.234375 208.535156 338.929688 208.824219 C 339.628906 209.113281 340.335938 209.367188 341.058594 209.585938 C 341.78125 209.804688 342.511719 209.988281 343.25 210.132812 C 343.992188 210.28125 344.738281 210.390625 345.488281 210.464844 C 346.238281 210.539062 346.992188 210.578125 347.746094 210.578125 C 348.5 210.578125 349.25 210.539062 350.003906 210.464844 C 350.753906 210.390625 351.5 210.28125 352.238281 210.132812 C 352.976562 209.988281 353.707031 209.804688 354.429688 209.585938 C 355.152344 209.367188 355.863281 209.113281 356.558594 208.824219 C 357.253906 208.535156 357.9375 208.210938 358.601562 207.855469 C 359.265625 207.5 359.914062 207.113281 360.539062 206.695312 C 361.167969 206.273438 361.773438 205.824219 362.355469 205.347656 C 362.9375 204.867188 363.496094 204.363281 364.03125 203.828125 C 364.5625 203.292969 365.070312 202.734375 365.546875 202.152344 C 366.027344 201.570312 366.476562 200.964844 366.894531 200.335938 C 367.3125 199.707031 367.703125 199.0625 368.058594 198.394531 C 368.414062 197.730469 368.734375 197.046875 369.023438 196.351562 C 369.3125 195.652344 369.566406 194.945312 369.785156 194.222656 C 370.003906 193.5 370.1875 192.769531 370.335938 192.027344 C 370.480469 191.289062 370.59375 190.542969 370.664062 189.789062 C 370.738281 189.039062 370.777344 188.285156 370.777344 187.53125 C 370.777344 186.777344 370.738281 186.023438 370.664062 185.273438 C 370.589844 184.523438 370.480469 183.777344 370.332031 183.035156 C 370.183594 182.296875 370 181.566406 369.78125 180.84375 C 369.5625 180.121094 369.308594 179.414062 369.019531 178.714844 C 368.730469 178.019531 368.410156 177.335938 368.054688 176.671875 C 367.695312 176.003906 367.308594 175.359375 366.890625 174.730469 C 366.472656 174.105469 366.023438 173.5 365.542969 172.914062 C 365.066406 172.332031 364.558594 171.773438 364.027344 171.242188 C 363.492188 170.707031 362.933594 170.199219 362.351562 169.722656 C 361.769531 169.242188 361.164062 168.792969 360.539062 168.375 C 359.910156 167.957031 359.265625 167.566406 358.597656 167.210938 C 357.933594 166.855469 357.253906 166.535156 356.554688 166.246094 C 355.859375 165.957031 355.152344 165.703125 354.429688 165.480469 C 353.707031 165.261719 352.976562 165.078125 352.238281 164.929688 C 351.496094 164.785156 350.753906 164.671875 350 164.597656 C 349.25 164.523438 348.5 164.488281 347.746094 164.484375 Z M 347.746094 164.484375 " fill-opacity="1" fill-rule="evenodd"/><g clip-path="url(#b228bb87ee)"><path fill="#000000" d="M 28.019531 203.34375 L 29.289062 203.332031 C 31.757812 203.3125 34.371094 202.523438 36.640625 201.105469 L 37.242188 200.730469 L 37.242188 177.035156 L 34.726562 174.472656 L 34.15625 174.09375 C 32.398438 172.921875 30.332031 172.171875 28.183594 171.933594 L 27.304688 171.832031 L 26.917969 172.640625 C 26.269531 173.988281 25.351562 175.203125 24.109375 176.359375 C 22.925781 177.472656 21.21875 178.601562 19.105469 179.953125 L 18.519531 180.332031 L 18.519531 187.804688 L 21.035156 190.367188 L 22.6875 189.808594 C 23.691406 189.46875 24.644531 189.089844 25.5 188.683594 L 25.5 200.777344 L 28.015625 203.34375 Z M 28.019531 203.34375 " fill-opacity="1" fill-rule="nonzero"/></g><path fill="#ffffff" d="M 33.472656 175.164062 C 33.472656 182.59375 33.472656 190.023438 33.472656 197.445312 C 31.484375 198.6875 29.113281 199.464844 26.761719 199.484375 C 26.761719 193.726562 26.761719 187.972656 26.761719 182.210938 C 25.617188 183.105469 24.511719 183.867188 23.472656 184.441406 C 22.4375 185.015625 21.152344 185.566406 19.78125 186.027344 C 19.78125 184.367188 19.78125 182.703125 19.78125 181.035156 C 21.816406 179.730469 23.671875 178.515625 24.964844 177.300781 C 26.273438 176.082031 27.304688 174.734375 28.046875 173.203125 C 29.960938 173.414062 31.832031 174.070312 33.46875 175.164062 Z M 33.472656 175.164062 " fill-opacity="1" fill-rule="nonzero"/></svg>