<svg xmlns="http://www.w3.org/2000/svg" xmlns:xlink="http://www.w3.org/1999/xlink" viewBox="0 0 1080 929.74"><style><![CDATA[.AI{fill:#ff969b}.AJ{fill:#6ac079}.AK{fill:#212d60}.AL{fill:#d75646}.AM{fill:#4f97d1}.AN{fill:#71d4ff}.AO{fill:#fff}.AP{fill:#f0f0fc}.AQ{fill:#0c25ba}.AR{opacity:.43}.AS{fill:#6278b7}.AT{opacity:.2}.AU{fill:#9faffc}.AV{fill:#9898ed}.AW{fill:#232f6d}.AX{fill:#4a5ea5}]]></style><defs><linearGradient id="A" x1="866.05" y1="491.55" x2="878.47" y2="491.55" xlink:href="#p"><stop offset="0" stop-color="#eaeaf9"></stop><stop offset="1" stop-color="#bebeed"></stop></linearGradient><linearGradient id="B" x1="870.66" y1="414.1" x2="870.66" y2="493.56" xlink:href="#p"><stop offset="0" stop-color="#eaeaf9"></stop><stop offset=".24" stop-color="#dbdbf5"></stop><stop offset=".66" stop-color="#c6c6ef"></stop><stop offset=".94" stop-color="#bebeed"></stop></linearGradient><linearGradient id="C" x1="191.27" y1="409.12" x2="349.7" y2="409.12" xlink:href="#p"><stop offset=".29" stop-color="#eaeaf9"></stop><stop offset=".39" stop-color="#e3e3f7"></stop><stop offset=".53" stop-color="#d0d0f2"></stop><stop offset=".63" stop-color="#bebeed"></stop></linearGradient><linearGradient id="D" x1="261.82" y1="409.61" x2="186.54" y2="409.61" xlink:href="#p"><stop offset=".46" stop-color="#fff"></stop><stop offset=".49" stop-color="#f8f8fd"></stop><stop offset=".53" stop-color="#e5e5f8"></stop><stop offset=".57" stop-color="#c7c7ef"></stop><stop offset=".58" stop-color="#bebeed"></stop></linearGradient><linearGradient id="E" x1="342.63" y1="261.48" x2="393.55" y2="261.48" xlink:href="#p"><stop offset=".29" stop-color="#4a5ea5"></stop><stop offset=".36" stop-color="#46599e"></stop><stop offset=".47" stop-color="#3b4c8b"></stop><stop offset=".59" stop-color="#28366d"></stop><stop offset=".63" stop-color="#212d60"></stop></linearGradient><linearGradient id="F" x1="387.79" y1="214.87" x2="349.87" y2="214.87" xlink:href="#E"></linearGradient><linearGradient id="G" x1="34.66" y1="643.92" x2="131.18" y2="643.92" xlink:href="#C"></linearGradient><linearGradient id="H" x1="126.29" y1="582.22" x2="80.14" y2="582.22" xlink:href="#p"><stop offset=".01" stop-color="#2234a4"></stop><stop offset=".13" stop-color="#263299"></stop><stop offset=".46" stop-color="#2f2d81"></stop><stop offset=".75" stop-color="#342a72"></stop><stop offset="1" stop-color="#36296d"></stop></linearGradient><linearGradient id="I" x1="85.86" y1="510.67" x2="105.62" y2="510.67" xlink:href="#E"></linearGradient><linearGradient id="J" x1="142" y1="590.06" x2="92.99" y2="590.06" xlink:href="#H"></linearGradient><linearGradient id="K" x1="837.3" y1="808.12" x2="980.84" y2="808.12" xlink:href="#E"></linearGradient><linearGradient id="L" x1="837.3" y1="746.56" x2="980.84" y2="746.56" xlink:href="#E"></linearGradient><linearGradient id="M" x1="837.3" y1="684.86" x2="980.84" y2="684.86" xlink:href="#E"></linearGradient><linearGradient id="N" x1="837.3" y1="622.74" x2="980.84" y2="622.74" xlink:href="#E"></linearGradient><linearGradient id="O" x1="215.84" y1="688.44" x2="761.3" y2="688.44" xlink:href="#p"><stop offset=".46" stop-color="#eaeaf9"></stop><stop offset=".51" stop-color="#e3e3f7"></stop><stop offset=".57" stop-color="#d0d0f2"></stop><stop offset=".62" stop-color="#bebeed"></stop></linearGradient><linearGradient id="P" x1="942.96" y1="616.77" x2="493.56" y2="357.31" xlink:href="#p"><stop offset=".37" stop-color="#bebeed"></stop><stop offset=".54" stop-color="#eaeaf9"></stop></linearGradient><linearGradient id="Q" x1="390.4" y1="89.7" x2="618.26" y2="89.7" xlink:href="#p"><stop offset=".46" stop-color="#eaeaf9"></stop><stop offset=".5" stop-color="#e8e8f8"></stop><stop offset=".51" stop-color="#e1e1f6"></stop><stop offset=".53" stop-color="#d4d4f3"></stop><stop offset=".54" stop-color="#c3c3ee"></stop><stop offset=".54" stop-color="#bebeed"></stop></linearGradient><linearGradient id="R" x1="503.61" y1="121.71" x2="508.03" y2="121.71" xlink:href="#p"><stop offset="0" stop-color="#ff6f1b"></stop><stop offset="1" stop-color="#ff3933"></stop></linearGradient><linearGradient id="S" x1="496.98" y1="117.87" x2="501.4" y2="117.87" xlink:href="#p"><stop offset="0" stop-color="#ffd33f"></stop><stop offset="1" stop-color="#ff7364"></stop></linearGradient><linearGradient id="T" x1="811.87" y1="715.04" x2="781.15" y2="715.04" xlink:href="#p"><stop offset=".01" stop-color="#9faffc"></stop><stop offset="1" stop-color="#e6f6ff"></stop></linearGradient><linearGradient id="U" x1="814.31" y1="758.14" x2="769.12" y2="758.14" xlink:href="#T"></linearGradient><linearGradient id="V" x1="799.5" y1="704.53" x2="781.54" y2="704.53" xlink:href="#E"></linearGradient><linearGradient id="W" x1="785.38" y1="732.95" x2="750.84" y2="732.95" xlink:href="#E"></linearGradient><linearGradient id="X" x1="554.96" y1="797.9" x2="588.29" y2="797.9" xlink:href="#E"></linearGradient><linearGradient id="Y" x1="657.78" y1="205.37" x2="898.26" y2="205.37" xlink:href="#A"></linearGradient><linearGradient id="Z" x1="591.46" y1="130.76" x2="646.04" y2="130.76" xlink:href="#A"></linearGradient><path id="a" d="M933.59 808.62l80.58-46.53a6.84 6.84 0 0 0 0-11.86l-81-46.78a21.67 21.67 0 0 0-21.64 0l-82 47.37a6.6 6.6 0 0 0 0 11.43l80.32 46.37a23.81 23.81 0 0 0 23.74 0z"></path><path id="b" d="M1002.94 787.68l-7.31 4.22-.07 7.56 7.38-4.25a6.81 6.81 0 0 0 2.82-5.4c0-2.07-1.27-3.03-2.82-2.13z"></path><path id="c" d="M907.62 707.61a7.17 7.17 0 0 0 3.27 5.62c1.8 1 3.26.21 3.26-1.86a7.19 7.19 0 0 0-3.26-5.62c-1.81-1.04-3.27-.21-3.27 1.86z"></path><path id="d" d="M884.66 694.35a7.19 7.19 0 0 0 3.26 5.63c1.8 1 3.27.2 3.27-1.86a7.2 7.2 0 0 0-3.27-5.63c-1.8-1.04-3.26-.21-3.26 1.86z"></path><path id="e" d="M873.18 687.72a7.19 7.19 0 0 0 3.26 5.63c1.8 1 3.26.2 3.26-1.86a7.19 7.19 0 0 0-3.26-5.63c-1.8-1.04-3.26-.21-3.26 1.86z"></path><path id="f" d="M850.22 674.46a7.19 7.19 0 0 0 3.26 5.63c1.8 1 3.26.21 3.26-1.86a7.19 7.19 0 0 0-3.26-5.63c-1.8-1.04-3.26-.2-3.26 1.86z"></path><path id="g" d="M455.31 338.71l-.08 7.12-6.25-3.7.08-7.13 6.25 3.71z"></path><path id="h" d="M455.48 324.31l-.08 7.13-6.25-3.71.08-7.12 6.25 3.7z"></path><path id="i" d="M464.91 344.39l-.09 7.13-6.25-3.71.08-7.12 6.26 3.7z"></path><path id="j" d="M474.67 350.18l-.09 7.13-6.25-3.71.09-7.12 6.25 3.7z"></path><path id="k" d="M541.73 386.51l-29.79-17.21v3.1l29.79 17.21v-3.1z"></path><path id="l" d="M511.94 424.14v3.1l20.19 11.66v-3.1l-20.19-11.66z"></path><path id="m" d="M561.93 332.1v3.22l11.9 6.99.02-3.21-11.92-7z"></path><path id="n" d="M623.26 401.85l-36.96-21.71.03-3.21 36.95 21.71-.02 3.21z"></path><path id="o" d="M617.46 477.46l-41.44-24.34.02-3.21 41.44 24.34-.02 3.21z"></path><linearGradient id="p" gradientUnits="userSpaceOnUse"></linearGradient></defs><path d="M870 604.91a.93.93 0 0 1-.93-.93V485.57a.93.93 0 0 1 1.85 0V604a.93.93 0 0 1-.92.91z" class="AJ"></path><path d="M870.61 459.17a.93.93 0 0 1-.92-.93V408.4l-118.56-67.57a.92.92 0 0 1-.47-.8v-43.79a.93.93 0 0 1 1.85 0v43.25l118.56 67.57a.93.93 0 0 1 .47.81v50.37a.93.93 0 0 1-.93.93zm-191.79-23.09a.93.93 0 0 1-.93-.92V259.24a.93.93 0 1 1 1.85 0v175.92a.92.92 0 0 1-.92.92zm33.76 22.2a.92.92 0 0 1-.92-.92V281.44a.93.93 0 0 1 1.85 0v175.92a.93.93 0 0 1-.93.92z" class="AV"></path><path d="M834.49,453.79a1.34,1.34,0,0,0-.5.16c-.1,0,3.94-2.56,3.94-2.56q.17,1,.39,2.07Z" fill="#947baf"></path><path d="M866.77,488.92c4.42,1.28,8.35.85,11.39-1.08l.31.38-12.42,7a2.44,2.44,0,0,0,.72-1.94Z" fill="url(#A)"></path><path d="M902.65 475.92l-3.79-4.7a28 28 0 0 0 .8-6.75 37 37 0 0 0-.61-6.46l3.93-2.24c.94-.35 1.22-1.76.59-3.38l-3.16-8.1a5.84 5.84 0 0 0-1-1.69 3.27 3.27 0 0 0-2.47-1.39l-4.06.34a54.05 54.05 0 0 0-11.09-13.69v-4.94a6 6 0 0 0-.4-2.05 5.61 5.61 0 0 0-2.16-2.83l-6.31-3.64a1.53 1.53 0 0 0-1.91.06l-12.37 6.92-3.4-4.22c-1-1.23-2.23-1.73-3-1.32 0-.07-14.8 8.37-14.8 8.37a3.16 3.16 0 0 1 2.78 1.46l4.05 5a12.87 12.87 0 0 1 8.54-1.44 18.73 18.73 0 0 1 2.54.56v-5a3.83 3.83 0 0 1 .05-.6 3 3 0 0 1 .15-.57 2.1 2.1 0 0 1 .24-.46 1.47 1.47 0 0 1 .55-.47l1.81-1.05-1.79 1a1.29 1.29 0 0 1 .71-.11 2.57 2.57 0 0 1 .41.09 3.26 3.26 0 0 1 .43.2l6.31 3.65a5.35 5.35 0 0 1 2 2.47 1.17 1.17 0 0 0 .05.11l.21.58c.06.19.11.37.15.56a.8.8 0 0 1 0 .15c0 .14.06.29.08.43a5.63 5.63 0 0 1 0 .58v5a49.43 49.43 0 0 1 7.4 8l.13.18a48.5 48.5 0 0 1 1.17 1.64c.15.21.28.43.42.64.28.41.55.82.81 1.24.4.63.79 1.28 1.16 1.93h.24l3.82-.33a2.62 2.62 0 0 1 1.68.63 3.47 3.47 0 0 1 .45.41 4.38 4.38 0 0 1 .41.45 3.07 3.07 0 0 1 .27.36 4.38 4.38 0 0 1 .28.42c0 .06.07.13.11.2a5 5 0 0 1 .29.62l3.16 8.1a3.51 3.51 0 0 1 .11 2.72 6 6 0 0 1-.54.58 1.4 1.4 0 0 1-.36.13h-.15l-.73.06-3.22.27a38.16 38.16 0 0 1 1 8.29c0 .61 0 1.21-.06 1.79l-.14 1.5a1.23 1.23 0 0 1 0 .19 20.63 20.63 0 0 1-.61 3.11 14.73 14.73 0 0 0 1.08 1.47l2.74 3.39a7.49 7.49 0 0 1 .45.65l.09.16c.1.18.19.36.28.55l.05.12a5.79 5.79 0 0 1 .22.62c.07.3.12.52.15.74s0 .31 0 .46a4.13 4.13 0 0 1 0 .44v.19a1.55 1.55 0 0 1-.07.23 1.5 1.5 0 0 1-.19.38l-3.15 4.45c0 .06-.1.09-.14.14a1988.19 1988.19 0 0 0 14.46-8.16 1.21 1.21 0 0 0 .72-.48l3.16-4.45a2.52 2.52 0 0 0 .3-1.71 5.8 5.8 0 0 0-1.31-2.75z" fill="url(#B)"></path><path d="M834.47 433.72l4 4.91a24.47 24.47 0 0 0-1 7.12 35.27 35.27 0 0 0 .47 5.64q.17 1 .39 2.07l-3.83.33a1.34 1.34 0 0 0-.5.16c-.81.45-1 1.78-.44 3.3l3.16 8.1c.7 1.8 2.27 3.19 3.49 3.08l3.75-.31a53.27 53.27 0 0 0 11.4 14.21v4.39a6.12 6.12 0 0 0 2.55 4.88l6.31 3.64a1.55 1.55 0 0 0 1.84 0 2.44 2.44 0 0 0 .72-1.94v-4.39c4.42 1.28 8.35.85 11.39-1.08l.31.38 3.43 4.26c1.14 1.42 2.59 1.86 3.35 1.08 0-.05.09-.08.14-.14l3.15-4.45a1.5 1.5 0 0 0 .19-.38 1.55 1.55 0 0 0 .07-.23v-.19-.36-.54a6.34 6.34 0 0 0-.14-.68 4.91 4.91 0 0 0-.23-.68l-.05-.12c-.09-.19-.18-.37-.28-.55l-.09-.16a7.49 7.49 0 0 0-.45-.65l-2.7-3.42-1.1-1.37a21.94 21.94 0 0 0 .63-3.21 1.23 1.23 0 0 0 0-.19 24.57 24.57 0 0 0 .14-1.5 31.7 31.7 0 0 0 .06-1.79 38.16 38.16 0 0 0-1-8.29l3.22-.27.73-.06h.15a1.28 1.28 0 0 0 .37-.14 1.23 1.23 0 0 0 .28-.23 1.42 1.42 0 0 0 .25-.34 3.51 3.51 0 0 0-.11-2.72l-3.16-8.1a5 5 0 0 0-.29-.62c0-.07-.07-.14-.11-.2a4.38 4.38 0 0 0-.28-.42 3.07 3.07 0 0 0-.27-.36 4.38 4.38 0 0 0-.41-.45 3.47 3.47 0 0 0-.45-.41 2.62 2.62 0 0 0-1.68-.63l-3.82.33h-.24c-.37-.65-.76-1.3-1.16-1.93-.26-.42-.53-.83-.81-1.24-.14-.21-.27-.43-.42-.64a48.5 48.5 0 0 0-1.17-1.64l-.13-.18a49.16 49.16 0 0 0-7.37-8v-1.74-3.25a5.63 5.63 0 0 0 0-.58c0-.14-.05-.29-.08-.43a.8.8 0 0 0 0-.15c0-.19-.09-.37-.15-.57l-.21-.57a1.17 1.17 0 0 1-.05-.11 5.35 5.35 0 0 0-2-2.47l-6.31-3.65a2.27 2.27 0 0 0-.43-.19 1.11 1.11 0 0 0-.34-.08 1.29 1.29 0 0 0-.8.1 1.37 1.37 0 0 0-.51.42 1.81 1.81 0 0 0-.25.44 2.42 2.42 0 0 0-.16.56 3.56 3.56 0 0 0-.07.68v5a18.73 18.73 0 0 0-2.54-.56 12.87 12.87 0 0 0-8.54 1.44l-4.05-5a3 3 0 0 0-2.76-1.43 1.2 1.2 0 0 0-.73.49l-3.15 4.45c-.75.97-.33 3.01.88 4.52zm8.59 18c0-3.55.94-6.3 2.53-8.13a7.46 7.46 0 0 1 2.61-1.94c-1 .44 1.83-1 1.83-1 2.76-1.78 6.68-1.63 11 .88a17.9 17.9 0 0 1 1.09.68l.24.16c.35.24.7.48 1 .74l.14.11c.32.24.62.49.93.75l.21.18c.33.28.66.58 1 .88l.19.18a34.87 34.87 0 0 1 .86.86l.15.16.92 1c.07.08.13.16.2.23l.84 1c.27.32.63.81.91 1.2l.18.25c.28.39.54.78.8 1.17s.54.85.77 1.24l.16.25q.36.62.69 1.23c0 .07.07.14.11.2q.3.57.57 1.14a2.26 2.26 0 0 1 .11.22c.21.43.4.85.58 1.28a2 2 0 0 1 .11.26l.49 1.2v.14c.16.44.32.87.46 1.31l.09.28c.14.45.27.89.39 1.33s.26 1 .37 1.52v.21c.1.48.18 1 .25 1.43v.26c.06.48.12 1 .15 1.42v.21 1.46c0 4.51-1.51 7.74-4 9.42-.15.1-.28.21-.44.3l-.14.07-2.28 1.23-.13.31a6.11 6.11 0 0 1-.77.38 8 8 0 0 1-2.1.57 12.9 12.9 0 0 1-7.89-2c-8.38-4.9-15.18-16.62-15.18-26.24z" class="AP"></path><path d="M871.93 475.87a13.8 13.8 0 0 0 1.49-6.63l-.07-1.59v-.13c0-.52-.11-1-.19-1.59v-.12l-.3-1.64-.44-1.77c-.28-1-.6-1.94-1-2.91l-1.25-2.84-1.49-2.75-.06-.11-1.66-2.51-.09-.13-.89-1.16a.39.39 0 0 0-.08-.1l-.86-1-.12-.15-.93-1-.17-.17-.88-.87-.13-.13-1-.88-.22-.18-.94-.76-.1-.08-1-.73-.25-.17-1.07-.66a14.37 14.37 0 0 0-6.12-2.05 8.26 8.26 0 0 0-3.92.63c-1 .44 1.83-1 1.83-1 2.76-1.78 6.68-1.63 11 .88a17.9 17.9 0 0 1 1.09.68l.24.16c.35.24.7.48 1 .74l.14.11c.32.24.62.49.93.75l.21.18c.33.28.66.58 1 .88l.19.18a34.87 34.87 0 0 1 .86.86l.15.16.92 1c.07.08.13.16.2.23l.84 1c.27.32.63.81.91 1.2l.18.25c.28.39.54.78.8 1.17s.54.85.77 1.24l.16.25q.36.62.69 1.23c0 .07.07.14.11.2q.3.57.57 1.14a2.26 2.26 0 0 1 .11.22c.21.43.4.85.58 1.28a2 2 0 0 1 .11.26l.49 1.2v.14c.16.44.32.87.46 1.31l.09.28c.14.45.27.89.39 1.33s.26 1 .37 1.52v.21c.1.48.18 1 .25 1.43v.26c.06.48.12 1 .15 1.42v.21 1.46c0 4.51-1.51 7.74-4 9.42-.15.1-.28.21-.44.3l-.14.07-2.28 1.23a8.05 8.05 0 0 0 2.81-2.86z" fill="#407a48"></path><path d="M845.59 443.58c-1.59 1.83-2.53 4.58-2.53 8.13 0 9.62 6.8 21.34 15.18 26.18a12.9 12.9 0 0 0 7.89 2 8 8 0 0 0 2.1-.57 6.11 6.11 0 0 0 .77-.32l.42-.26a8.05 8.05 0 0 0 2.51-2.83 13.8 13.8 0 0 0 1.49-6.63c0-.53 0-1.06-.07-1.59v-.13c0-.52-.11-1-.19-1.59v-.12a47.1 47.1 0 0 0-.3-1.64c-.11-.55-.28-1.21-.44-1.77-.28-1-.6-1.94-1-2.94s-.78-1.89-1.24-2.81-1-1.88-1.49-2.75l-.06-.11a38.9 38.9 0 0 0-1.66-2.51l-.09-.13c-.29-.39-.59-.78-.89-1.16a.39.39 0 0 0-.08-.1c-.28-.35-.57-.7-.86-1l-.12-.15a17.99 17.99 0 0 0-.93-1l-.17-.17a24.02 24.02 0 0 0-.88-.87l-.13-.13a21.65 21.65 0 0 0-1-.88l-.22-.18c-.31-.26-.62-.52-.94-.76l-.1-.08-1-.73-.25-.17a23.66 23.66 0 0 0-1.07-.66 14.37 14.37 0 0 0-6.12-2.05 8.26 8.26 0 0 0-3.92.63 7.46 7.46 0 0 0-2.61 1.85zm5.08 14.87c0-.12 0-.24-.07-.36s-.08-.45-.11-.67a3 3 0 0 1 0-.42c0-.19-.05-.37-.06-.55s0-.3 0-.45a3.89 3.89 0 0 1 0-.48v-.46-.41c0-.13 0-.31.06-.47s0-.23.06-.35.07-.3.11-.45.05-.2.08-.3.1-.3.16-.44l.09-.24a5.78 5.78 0 0 1 .22-.43l.1-.18a5.71 5.71 0 0 1 .28-.4l.1-.14a3.89 3.89 0 0 1 .34-.36l.1-.1a4 4 0 0 1 .4-.32 4.17 4.17 0 0 1 .56-.33 4.47 4.47 0 0 1 .61-.23 5.38 5.38 0 0 1 .67-.14 5.22 5.22 0 0 1 1.31 0c4.31.54 9.18 5.77 10.87 11.7a15.07 15.07 0 0 1 .3 1.25c0 .12 0 .25.07.37.05.29.09.57.13.85v.38.84.27a9.51 9.51 0 0 1-.06 1.08 7 7 0 0 1-.18.95v.21c-.07.24-.15.47-.23.69 0 .06-.05.12-.08.19a4.87 4.87 0 0 1-.36.68 4.32 4.32 0 0 1-.56.74 3 3 0 0 1-.37.35l-.23.17-.26.17-.23.14-.37.16-.12.04a4 4 0 0 1-.57.14h-.21a3.57 3.57 0 0 1-.47 0h-.2a5.58 5.58 0 0 1-.7 0c-4.31-.54-9.18-5.77-10.87-11.7-.15-.29-.23-.64-.31-.99z" class="AJ"></path><path d="M850.49 457.42a3 3 0 0 1 0-.42c0-.19-.05-.37-.06-.55s0-.3 0-.45a3.89 3.89 0 0 1 0-.48v-.46-.41c0-.13 0-.31.06-.47s0-.23.06-.35.07-.3.11-.45l.08-.3c.03-.1.1-.3.16-.44l.09-.24.22-.43.1-.18.28-.4.1-.14a3.89 3.89 0 0 1 .34-.36l.1-.1a4 4 0 0 1 .4-.32 4.17 4.17 0 0 1 .56-.33 4.47 4.47 0 0 1 .61-.23 5.38 5.38 0 0 1 .67-.14 5.85 5.85 0 0 1 .71 0c-1.56 1.66-2 4.77-.94 8.51 1.7 5.92 6.57 11.16 10.87 11.7h.6a3 3 0 0 1-.37.35l-.23.17-.26.17-.23.14-.37.16-.15.03a4 4 0 0 1-.57.14h-.21a3.57 3.57 0 0 1-.47 0h-.2a5.58 5.58 0 0 1-.7 0c-4.31-.54-9.18-5.77-10.87-11.7-.11-.36-.19-.71-.27-1.06 0-.12 0-.24-.07-.36s-.12-.38-.15-.6z" fill="#288936"></path><path d="M865 469.94c-4.3-.54-9.17-5.78-10.87-11.7-1.07-3.74-.62-6.85.94-8.51h.6c4.31.54 9.18 5.77 10.87 11.7a15.07 15.07 0 0 1 .3 1.25c0 .12 0 .25.07.37.05.29.09.57.13.85v.38.84.27a9.2 9.2 0 0 1-.06 1.07 6.82 6.82 0 0 1-.18 1v.21c-.07.24-.15.47-.23.69 0 .06-.05.12-.08.19a4.87 4.87 0 0 1-.36.68 4.32 4.32 0 0 1-.56.74z" class="AW"></path><path d="M394.69 432.67l-73.57-42.11a23.77 23.77 0 0 0-23.52 0l-71.85 40.92v25.83l60.46 35.39h35.61l73.07-44.39a9 9 0 0 0-.2-15.64z" class="AQ AR"></path><path d="M209.58,325.75V448.09a5.44,5.44,0,0,0,2.74,4.73L276.63,490a19,19,0,0,0,19,0l64.09-37a5.24,5.24,0,0,0,2.62-4.86l.39-121.85Z" fill="url(#C)"></path><path d="M276.7 367.37l-64.31-37.13a5.46 5.46 0 0 1 0-9.46l64.66-37.33a17.25 17.25 0 0 1 17.27 0l65.47 37.79c3.51 2 4 6.73.51 8.76l-64.6 37.37a19 19 0 0 1-19 0z" class="AP"></path><path d="M219.9 437.07v-92a2.52 2.52 0 0 1 .08-.56 2.45 2.45 0 0 0-3.26 2.31v92a4 4 0 0 0 2 3.49l56 32.3a1.8 1.8 0 0 0 2.71-1.56v-.46l-55.52-32a4 4 0 0 1-2.01-3.52z" fill="url(#D)"></path><path d="M274.73 376l-54.31-31.33a2.72 2.72 0 0 0-.44-.18 2.52 2.52 0 0 0-.08.56v92a4 4 0 0 0 2 3.49l55.52 32v-91.9a5.44 5.44 0 0 0-2.69-4.64z" class="AK"></path><path d="M236.61,386.65c4.25,2.46,7.72.48,7.72-4.4s-3.47-10.87-7.72-13.33c-.09,0-.09-4.28-.09-4.28,6.38,3.68,11.49,12.51,11.49,19.74s-5.11,10.14-11.4,6.51c-.09-.06-.09-4.3-.09-4.3Z" class="AJ"></path><path d="M236.68 364.73V369c-4.19-2.37-7.59-.43-7.63 4.37l-3.69-2.09c.02-7.19 5.08-10.1 11.32-6.55zm13.54 49.95v3.1c-3.06-1.73-5.54-.31-5.57 3.19l-2.7-1.52c.05-5.24 3.71-7.36 8.27-4.77zm-.31 25.01c7.51 4.34 13.62.85 13.62-7.78s-6.11-19.18-13.62-23.52l-.16-.08v-7.48l.16.09c11.1 6.41 20.13 22 20.13 34.75s-9 17.91-20.13 11.49l-.16-.09v-7.48z" fill="#474ab6"></path><path d="M236.56 416.17a.76.76 0 0 0 0 .15c0 8.56 6 19 13.46 23.41v7.48c-11-6.47-20-22-20-34.66-.02-.06 6.54 3.62 6.54 3.62z" class="AM"></path><path d="M405 283l-24.35-14.1a7.78 7.78 0 0 0-7.78 0l-23.23 20.3 19.47 13.94h11.77L405 288.25a3 3 0 0 0 0-5.25z" class="AQ AR"></path><path d="M393.56,219.63H342.63v68.94a1.83,1.83,0,0,0,.91,1.57l21.39,12.35a6.3,6.3,0,0,0,6.31,0l21.32-12.31a1.74,1.74,0,0,0,.87-1.61h.13Z" fill="url(#E)"></path><path d="M365 233.65l-21.43-12.35a1.82 1.82 0 0 1 0-3.15l21.5-12.41a5.72 5.72 0 0 1 5.74 0l21.77 12.57a1.75 1.75 0 0 1 0 3l-21.31 12.31a6.36 6.36 0 0 1-6.27.03z" class="AS"></path><path d="M366.21 230l-15.42-8.9a1.31 1.31 0 0 1 0-2.27l15.5-8.95a4.14 4.14 0 0 1 4.14 0l15.69 9.06a1.26 1.26 0 0 1 0 2.19L370.76 230a4.56 4.56 0 0 1-4.55 0z" class="AK"></path><path d="M350.78 220l15.53-9a4.21 4.21 0 0 1 4.15 0l15.72 9.05a1.24 1.24 0 0 1 .46.45 1.27 1.27 0 0 0-.46-1.73l-15.72-9.05a4.21 4.21 0 0 0-4.15 0l-15.53 8.93a1.31 1.31 0 0 0-.49 1.78 1.3 1.3 0 0 1 .49-.43z" fill="url(#F)"></path><path d="M379.65,238.06a3.24,3.24,0,0,1,1.35-2.57c.74-.43,1.35,0,1.35,1v25.34l-2.7,1.5Z" fill="#474ab6"></path><path d="M382.35,261.85V284.3a3.25,3.25,0,0,1-1.35,2.57c-.74.42-1.35,0-1.35-1v-22.5Z" class="AN"></path><path d="M97.92 532.48c1.23-.71 1.07-2-.35-2.77l-1.83-1.06a5.34 5.34 0 0 0-4.8-.2c-1.23.71-1.08 2 .34 2.78l1.83 1a5.36 5.36 0 0 0 4.81.25z" fill="#ffab83"></path><path d="M168.65 636.07l-51.31-29.78a16.37 16.37 0 0 0-16.41 0l-65.72 37.92L93 678.5h24.85l51-31.39a6.43 6.43 0 0 0-.2-11.04z" class="AQ AR"></path><path d="M154.28,609.06v32a4.62,4.62,0,0,1-2.33,4l-54.6,31.53a16.14,16.14,0,0,1-16.13,0L26.79,645.2a4.43,4.43,0,0,1-2.22-4.12h-.33v-32Z" fill="url(#G)"></path><path d="M97.28 644.26l54.61-31.53a4.64 4.64 0 0 0 0-8L97 573a14.67 14.67 0 0 0-14.67 0l-55.6 32.09a4.48 4.48 0 0 0 0 7.75l54.42 31.42a16.14 16.14 0 0 0 16.13 0z" class="AP"></path><path d="M165.77 567.43a9.47 9.47 0 0 1-4.66-1.07l-59-34.05a3.54 3.54 0 0 1-2-3c0-1.39 1-2.76 2.74-3.77l21-12.14c3.14-1.81 7.92-2 10.66-.42l59 34a3.55 3.55 0 0 1 2 3c0 1.39-1 2.76-2.75 3.77l-21 12.14a12.26 12.26 0 0 1-5.99 1.54zm-4.13-2c2.44 1.41 6.75 1.23 9.59-.42l21-12.14c1.41-.81 2.22-1.85 2.22-2.85A2.52 2.52 0 0 0 193 548l-59-34.1c-2.45-1.41-6.75-1.22-9.6.42l-21 12.14c-1.4.81-2.21 1.85-2.21 2.85a2.52 2.52 0 0 0 1.49 2.08z" class="AJ"></path><path d="M142.2 537.55a3.111 3.111 0 1 1 4.42 4.38l-3.47 3.51a3.111 3.111 0 1 1-4.42-4.38zm-15.13-3.94a3.111 3.111 0 0 1 4.42 4.38L128 541.5a3.115 3.115 0 0 1-4.42-4.39z" class="AI"></path><path d="M126.87,542.68l-11.73,6.6c-3.36,1.89-7.77,5.4-11.87,5.22-4.9-.22-7.19-4.64-9.68-8.16l-8.16-11.47c-2.4-3.39,3.18-6.61,5.57-3.25l6,8.47c1.75,2.45,4.26,8.38,7.84,7.59,3.36-.75,7.34-4.13,10.33-5.81l8.44-4.75c3.62-2,6.87,3.52,3.25,5.56Z" class="AJ"></path><path d="M109.83 570.36c-9.33 4.34-18.19 10.22-27.17 15.27-5.78 3.25-.58 12.15 5.2 8.89l23.52-13.21c.52-.3 1.19-.8 1.88-1.23 0-.44.45-.59 1.71-.79a4.89 4.89 0 0 0-1.71.79 11.39 11.39 0 0 0 .52 2.11c0 .21.09.42.14.63l12.37 7.09c-1.66-13.2-6.13-24.36-16.46-19.55z" fill="url(#H)"></path><path d="M113.26 580.08a4.89 4.89 0 0 1 1.71-.79c-1.26.2-1.68.35-1.71.79z" fill="#2a4280"></path><path d="M87.1 504.14a5.56 5.56 0 0 0 2.2-1.21c.45-.56.52-1.36 1-1.88 1.21-1.3 3.57.18 5.09-.73a9.67 9.67 0 0 1 1.14-.79c1.48-.59 2.81 1.72 4.38 1.42a5.09 5.09 0 0 1 1.24-.34 1.61 1.61 0 0 1 1 .5 6.4 6.4 0 0 1 1.46 2.26 1.81 1.81 0 0 1 .82.72 2.34 2.34 0 0 1 .23 1 6.76 6.76 0 0 1-.93 3.44 5.27 5.27 0 0 1-.43 1.42 7.88 7.88 0 0 1-2.3 3l-1.26.9v1.77a.68.68 0 0 1-.67.68.62.62 0 0 1-.4-.15 3.24 3.24 0 0 0 0-.55c0-1.27-.56-2.31-1.25-2.31s-1.25 1-1.25 2.31a3.32 3.32 0 0 0 .42 1.71 30.33 30.33 0 0 1-1.28 2.84c-.75 1.25-2.22 2.24-3.44 1.57a2.71 2.71 0 0 1-.61-.47 6 6 0 0 1-.79-1 1.16 1.16 0 0 1-.54-.39c-.24-.32-.31-.75-.53-1.09-.52-.8-1.78-1-2-2-.15-.57.18-1.17.05-1.75-.21-.89-1.37-1.23-1.75-2.07s.11-1.69.27-2.55a7.24 7.24 0 0 0-1-4.33c-.38-.72.36-1.57 1.13-1.93z" fill="url(#I)"></path><path d="M92.87 521.69c1.22.67 2.69-.32 3.44-1.57a30.33 30.33 0 0 0 1.28-2.84 3.32 3.32 0 0 1-.42-1.71c0-1.27.56-2.31 1.25-2.31s1.25 1 1.25 2.31a3.24 3.24 0 0 1 0 .55.61.61 0 0 0 .39.15.68.68 0 0 0 .68-.68v-1.77l1.26-.9a7.88 7.88 0 0 0 2.3-3v5.65a7.28 7.28 0 0 1-6.61 7.25l.14 7.13c0 2.21-5.31 2.2-5.35 0l-.18-8.73a2.71 2.71 0 0 0 .57.47z" class="AI"></path><path d="M120.25 487.5l114.61 66.17a5.16 5.16 0 0 0 7.74-4.46v-65.32a9.53 9.53 0 0 0-4.78-8.27l-117.94-68.1a1.47 1.47 0 0 0-2.21 1.27V483a5.14 5.14 0 0 0 2.58 4.5z" class="AK"></path><path d="M135.51 435.79l-13.47-7.78v1.4l13.47 7.78v-1.4zm0 5.04l-13.47-7.78v1.4l13.47 7.78v-1.4zm-13.47-21.03v1.4l4.71 2.72v-1.4l-4.71-2.72zm0 2.74v1.4l4.71 2.72v-1.41l-4.71-2.71zm0 19.31v1.4l3.95 2.29v-1.41l-3.95-2.28zm0 2.74v1.4l3.95 2.28v-1.4l-3.95-2.28zm0 8.22v1.4l9.13 5.27v-1.4l-9.13-5.27zm0 5.47v1.41l9.13 5.27v-1.4l-9.13-5.28zm0 2.92v1.4l3.43 1.99v-1.41l-3.43-1.98zm0 8.22v1.4l3.43 1.98v-1.4l-3.43-1.98zm0 5.48v1.4l3.43 1.98v-1.4l-3.43-1.98z" class="AN"></path><path d="M127.69 587.09a4.08 4.08 0 0 1 1-.39c-.79.17-1.05.12-1 .39z" fill="#2a4280"></path><path d="M95.27 594.3c6.27-3.66 12.48-7.68 18.81-11.39 3.16-1.84 6.33-3.63 9.58-5.22 10.22-5 14.09 6 16.42 13.64.76 2.51 1.37 5 1.91 7.59l-12.67-7.27c-.3-.92-.57-1.85-.91-2.76-.4-1.09-.67-1.56-.72-1.8a4.08 4.08 0 0 1 1-.39c-.77.17-1 .12-1 .39-.92.5-1.9 1.3-2.64 1.73l-.33.19-23.3 13.91c-5.74 3.35-11.87-5.27-6.15-8.62z" fill="url(#J)"></path><path d="M80.79 547.72c.48-7.84 3.3-21.91 10.24-19.89 6.33 1.83 11.58 3.18 14 7.91a3.31 3.31 0 0 1 .58.55c2 2.82 10.27 16.85 13.85 16.06 3.29-.73 3-1.66 18.77-10.56 3.62-2 6.87 3.52 3.25 5.56-18.62 10.48-19.79 12-23.59 11.82-4-.18-5.6-2.14-11.59-10.72-.34 6.09-.81 17.52-.42 42.58 0 2 .84 8.85-.22 10.53-1.19 1.88-2 3.32-4.14 3.24a14.07 14.07 0 0 1-6.12-1.75c-15.4-8.44-15.59-10.12-16.07-19.78-.6-11.83.75-23.72 1.46-35.55z" class="AJ"></path><path d="M143.56 440.68v1.45l5.4 3.17.01-1.45-5.41-3.17zm0 2.84v1.46l5.38 3.16.01-1.45-5.39-3.17zm0 2.85v1.46l5.36 3.14.01-1.45-5.37-3.15zm0 2.85v1.45l13.36 7.85.01-1.45-13.37-7.85zm0 5.24v1.45l9.77 5.74.01-1.45-9.78-5.74zm0 2.84v1.46l9.75 5.72.01-1.45-9.76-5.73zm37.1 21.74l-8.11-4.76-.01 1.45 8.12 4.77v-1.46zm-37.1-18.89v1.46l9.72 5.7.01-1.44-9.73-5.72zm31.65.57l-24.98-14.67.01-1.45 24.98 14.67-.01 1.45zm-6.28-.84l-18.72-11 .01-1.45 18.72 11-.01 1.45zm11.73 5.41l-10.38-6.1-.01 1.45 10.39 6.1v-1.45zm0 2.87l-30.46-17.89-.01 1.45 30.47 17.9v-1.46zm0 2.85l-20.39-11.98-.01 1.45 20.4 11.98v-1.45zm0 5.24l-26.05-15.31-.01 1.45 26.06 15.31v-1.45zm-9.39-1.21l-16.7-9.81.02-1.45 16.69 9.8-.01 1.46zm9.18 8.23l-25.9-15.21.01-1.45 25.9 15.21-.01 1.45zm-21.75-9.33l-9.89-5.8.02-1.45 9.88 5.81-.01 1.44zm21.96 11.43l-20.65-12.13-.01 1.45 20.66 12.14v-1.46zm0 2.87l-31.85-18.72-.02 1.45 31.87 18.72v-1.45zm-8.65-.78l-23.24-13.65.01-1.45 23.24 13.65-.01 1.45zm8.65 3.62l-7.21-4.23-.01 1.45 7.22 4.24v-1.46zm-37.1-18.94v1.46l9.69 5.69.01-1.45-9.7-5.7zm0 2.85v1.45l25.08 14.73.01-1.45-25.09-14.73zm37.1 21.75l-10.54-6.19-.01 1.45 10.55 6.2v-1.46zm-37.1-18.91v1.46l18.35 10.78.01-1.45-18.36-10.79zm0 2.85v1.45l22.02 12.94.01-1.45-22.03-12.94zm30.27 22.27l-24.62-14.47.01-1.45 24.62 14.47-.01 1.45zm6.27 6.53l-30.92-18.16.01-1.45 30.92 18.16-.01 1.45zm6.02-44.72v1.46l5.39 3.17.02-1.45-5.41-3.18zm0 2.85v1.46l5.37 3.15.01-1.45-5.38-3.16zm0 2.85v1.45l5.35 3.15.01-1.45-5.36-3.15zm0 2.84v1.46l13.35 7.84.01-1.45-13.36-7.85zm0 5.24V480l9.76 5.73.01-1.45-9.77-5.74zm0 2.85v1.46l9.74 5.72.01-1.45-9.75-5.73zm37.09 21.74l-8.11-4.77-.01 1.45 8.12 4.77v-1.45zm-37.09-18.89v1.45l9.72 5.71.01-1.45-9.73-5.71zm31.64.57l-24.98-14.67.01-1.45 24.98 14.67-.01 1.45zm-6.28-.84l-18.72-11 .01-1.45 18.72 11-.01 1.45zm11.73 5.4l-10.38-6.09-.01 1.45 10.39 6.1v-1.46zm0 2.88l-30.46-17.9-.01 1.45 30.47 17.9v-1.45zm0 2.84l-20.39-11.97-.01 1.45 20.4 11.98v-1.46zm0 5.24l-26.05-15.3-.01 1.45 26.06 15.31v-1.46zm-9.39-1.21l-16.69-9.81.01-1.45 16.7 9.81-.02 1.45zm9.18 8.24l-25.89-15.21.01-1.45 25.89 15.21-.01 1.45zm-21.75-9.33l-9.88-5.8.01-1.45 9.88 5.8-.01 1.45zm21.96 11.43l-20.65-12.13-.01 1.45 20.66 12.14v-1.46zm0 2.86l-31.85-18.71-.01 1.45 31.86 18.72v-1.46zm-8.65-.77l-23.24-13.66.02-1.45 23.23 13.66-.01 1.45zm8.65 3.62l-7.21-4.23-.01 1.44 7.22 4.25v-1.46zm-37.09-18.94v1.45l9.69 5.69.01-1.45-9.7-5.69zm0 2.84v1.46l25.07 14.73.02-1.45-25.09-14.74zm37.09 21.76l-10.54-6.19-.01 1.45 10.55 6.19v-1.45zm-37.09-18.91v1.46l18.34 10.77.02-1.45-18.36-10.78zm0 2.85v1.45l22.01 12.93.01-1.45-22.02-12.93zm30.27 22.27l-24.63-14.47.01-1.45 24.63 14.47-.01 1.45zm6.26 6.52l-30.91-18.16.01-1.45 30.91 18.16-.01 1.45z" fill="#626fa6"></path><g class="AR AQ"><path d="M221.07 588.94l213.59-122.21a15.18 15.18 0 0 1 15.1 0l353.74 202.4a6.33 6.33 0 0 1 0 11L605 793.73h-45.23l-338.7-193.79a6.33 6.33 0 0 1 0-11z"></path></g><path d="M1038.91 796.53l-75.73-43.95a24.17 24.17 0 0 0-24.2 0l-97 56 85.26 50.59h36.66l75.22-46.32a9.49 9.49 0 0 0-.21-16.32z" class="AQ AR"></path><path d="M1017.7,756.66v47.27a6.83,6.83,0,0,1-3.43,5.93l-80.59,46.52a23.81,23.81,0,0,1-23.8,0L829.56,810a6.53,6.53,0,0,1-3.27-6.08h-.5V756.66Z" fill="url(#K)"></path><use xlink:href="#a" class="AS"></use><g class="AN"><path d="M943.59,821.94a6.79,6.79,0,0,0-2.82,5.39c0,2.07,1.27,3,2.82,2.14l52-30,.07-7.56Z"></path><use xlink:href="#b"></use></g><path d="M1017.7,695.1v47.27a6.83,6.83,0,0,1-3.43,5.93l-80.59,46.52a23.81,23.81,0,0,1-23.8,0l-80.32-46.37a6.53,6.53,0,0,1-3.27-6.08h-.5V695.1Z" fill="url(#L)"></path><use xlink:href="#a" y="-61.56" class="AS"></use><g class="AN"><path d="M943.59,760.38a6.79,6.79,0,0,0-2.82,5.39c0,2.07,1.27,3,2.82,2.14l52-30,.07-7.56Z"></path><use xlink:href="#b" y="-61.56"></use></g><path d="M1017.7,633.4v47.27a6.83,6.83,0,0,1-3.43,5.93l-80.59,46.52a23.81,23.81,0,0,1-23.8,0l-80.32-46.37a6.53,6.53,0,0,1-3.27-6.08h-.5V633.4Z" fill="url(#M)"></path><use xlink:href="#a" y="-123.26" class="AS"></use><g class="AN"><path d="M943.59,698.68a6.79,6.79,0,0,0-2.82,5.39c0,2.07,1.27,3,2.82,2.14l52-30,.07-7.56Z"></path><use xlink:href="#b" y="-123.26"></use></g><path d="M1017.7,571.28v47.27a6.83,6.83,0,0,1-3.43,5.93L933.68,671a23.81,23.81,0,0,1-23.8,0l-80.32-46.37a6.53,6.53,0,0,1-3.27-6.08h-.5V571.28Z" fill="url(#N)"></path><use xlink:href="#a" y="-185.38" class="AS"></use><g class="AN"><path d="M943.59,636.56a6.79,6.79,0,0,0-2.82,5.39c0,2.07,1.27,3,2.82,2.14l52-30,.07-7.56Z"></path><use xlink:href="#b" y="-185.38"></use></g><path d="M905.94 643.25a7.16 7.16 0 0 0 3.27 5.62c1.8 1 3.26.21 3.26-1.86a7.19 7.19 0 0 0-3.26-5.62c-1.81-1.04-3.27-.21-3.27 1.86zm-11.48-6.63a7.18 7.18 0 0 0 3.27 5.63c1.8 1 3.26.2 3.26-1.86a7.19 7.19 0 0 0-3.26-5.63c-1.81-1.04-3.27-.21-3.27 1.86zM883 630a7.19 7.19 0 0 0 3.26 5.63c1.81 1 3.27.2 3.27-1.86a7.18 7.18 0 0 0-3.27-5.63c-1.82-1.05-3.26-.22-3.26 1.86zm-11.5-6.64a7.19 7.19 0 0 0 3.26 5.63c1.81 1 3.27.21 3.27-1.86a7.18 7.18 0 0 0-3.27-5.63c-1.76-1.04-3.26-.2-3.26 1.86z" class="AK"></path><g class="AO"><path d="M860 616.73a7.19 7.19 0 0 0 3.26 5.63c1.8 1 3.26.21 3.26-1.86a7.19 7.19 0 0 0-3.26-5.63c-1.78-1.04-3.26-.2-3.26 1.86zm-11.46-6.62a7.19 7.19 0 0 0 3.26 5.62c1.8 1 3.26.21 3.26-1.86a7.19 7.19 0 0 0-3.26-5.62c-1.8-1.04-3.26-.25-3.26 1.86zm-11.48-6.63a7.19 7.19 0 0 0 3.26 5.62c1.8 1 3.26.21 3.26-1.86a7.19 7.19 0 0 0-3.26-5.62c-1.8-1.04-3.26-.21-3.26 1.86z"></path><use xlink:href="#c"></use></g><g class="AJ"><path d="M896.14 701a7.19 7.19 0 0 0 3.26 5.62c1.81 1 3.27.21 3.27-1.86a7.17 7.17 0 0 0-3.27-5.62c-1.8-1.06-3.26-.23-3.26 1.86z"></path><use xlink:href="#d"></use><use xlink:href="#e"></use><path d="M861.7 681.09a7.19 7.19 0 0 0 3.26 5.63c1.8 1 3.26.21 3.26-1.86a7.19 7.19 0 0 0-3.26-5.63c-1.8-1.04-3.26-.23-3.26 1.86z"></path><use xlink:href="#f"></use></g><g class="AO"><path d="M838.74 667.84a7.19 7.19 0 0 0 3.26 5.62c1.8 1 3.26.21 3.26-1.86A7.17 7.17 0 0 0 842 666c-1.8-1.06-3.26-.23-3.26 1.84z"></path><use xlink:href="#e" x="31.93" y="81.9"></use></g><path d="M893.62 763a7.18 7.18 0 0 0 3.27 5.63c1.8 1 3.26.21 3.26-1.86a7.19 7.19 0 0 0-3.26-5.63c-1.81-1.05-3.27-.21-3.27 1.86zm-11.48-6.64a7.18 7.18 0 0 0 3.27 5.63c1.8 1 3.26.21 3.26-1.86a7.19 7.19 0 0 0-3.26-5.63c-1.81-1.04-3.27-.2-3.27 1.86z" class="AK"></path><path d="M870.66 749.74a7.19 7.19 0 0 0 3.26 5.62c1.81 1 3.27.21 3.27-1.86a7.16 7.16 0 0 0-3.27-5.62c-1.8-1.04-3.26-.21-3.26 1.86zm-11.48-6.63a7.19 7.19 0 0 0 3.26 5.62c1.81 1 3.27.21 3.27-1.86a7.17 7.17 0 0 0-3.27-5.62c-1.8-1.04-3.26-.25-3.26 1.86zm-11.48-6.63a7.17 7.17 0 0 0 3.3 5.62c1.8 1 3.26.21 3.26-1.85a7.19 7.19 0 0 0-3.26-5.63c-1.84-1.04-3.3-.21-3.3 1.86zm-11.48-6.63a7.19 7.19 0 0 0 3.26 5.63c1.8 1 3.26.2 3.26-1.86a7.19 7.19 0 0 0-3.26-5.63c-1.8-.99-3.26-.21-3.26 1.86z" class="AO"></path><g class="AK"><use xlink:href="#f" x="54.05" y="153.08"></use><path d="M892.78 820.92a7.2 7.2 0 0 0 3.27 5.62c1.8 1 3.26.21 3.26-1.86a7.17 7.17 0 0 0-3.26-5.62c-1.8-1.06-3.27-.21-3.27 1.86z"></path></g><g class="AJ"><use xlink:href="#c" x="-26.32" y="106.68"></use><path d="M869.82 807.66a7.17 7.17 0 0 0 3.26 5.62c1.81 1 3.27.21 3.27-1.86a7.17 7.17 0 0 0-3.27-5.62c-1.8-1.04-3.26-.21-3.26 1.86zM858.34 801a7.19 7.19 0 0 0 3.26 5.63c1.81 1 3.27.2 3.27-1.86a7.18 7.18 0 0 0-3.27-5.63c-1.8-1.01-3.26-.14-3.26 1.86z"></path></g><g class="AK"><use xlink:href="#d" x="-37.8" y="100.05"></use><use xlink:href="#f" x="-14.84" y="113.31"></use></g><path d="M569.19,771.45a31.38,31.38,0,0,1-31.43-.17L215.92,582.6l-.09.33v17.39a12.22,12.22,0,0,0,6.15,10.6l311,177.91a41.26,41.26,0,0,0,41,0L751,687.64a20.24,20.24,0,0,0,10.2-17.35l.15-12.5Z" fill="url(#O)"></path><path d="M568.59 771.79l189.65-108.5a5.87 5.87 0 0 0 0-10.19L430.62 465.66a14.08 14.08 0 0 0-14 0l-197.8 113.18a5.86 5.86 0 0 0 0 10.19l319.44 182.76a30.56 30.56 0 0 0 30.33 0z" fill="#f7f7f9"></path><path d="M679.51 634.84a11.68 11.68 0 0 0 10.57 0c2.93-1.68 2.94-4.41 0-6.08a11.68 11.68 0 0 0-10.57 0c-2.9 1.68-2.91 4.41 0 6.08zm14.74 8.49a11.75 11.75 0 0 0 10.57 0c2.93-1.69 2.94-4.41 0-6.09a11.71 11.71 0 0 0-10.57 0c-2.9 1.69-2.91 4.41 0 6.09zm14.75 8.48a11.73 11.73 0 0 0 10.58 0c2.93-1.69 2.94-4.41 0-6.09a11.75 11.75 0 0 0-10.57 0c-2.92 1.69-2.94 4.41-.01 6.09z" fill="#7777d8"></path><path d="M361.12 649l61.69 35.51c6.91 4 19 3.48 26.95-1.11l22.61-13c8-4.59 8.85-11.53 1.94-15.51l-61.7-35.51c-6.9-4-19-3.48-26.94 1.12l-22.62 13c-7.98 4.57-8.84 11.5-1.93 15.5zm52.76-135.27l-21.26-12.24 21.14-12.16 21.26 12.25-21.14 12.15zm25.3 14.53l-21.27-12.22 21.13-12.15 21.29 12.25-21.15 12.12zm25.29 14.59l-21.25-12.27 21.15-12.14 21.26 12.27-21.16 12.14zm25.33 14.57l-21.28-12.22 21.13-12.22 21.28 12.26-21.13 12.18zm25.27 14.55l-21.26-12.22 21.12-12.18 21.29 12.2-21.15 12.2zm25.31 14.56l-21.29-12.25 21.12-12.15 21.31 12.24-21.14 12.16zm25.27 14.55l-21.26-12.22 21.15-12.2 21.25 12.27-21.14 12.15zm25.31 14.56l-21.27-12.23 21.12-12.16 21.3 12.25-21.15 12.14zm25.29 14.57l-21.26-12.28 21.12-12.15 21.3 12.28-21.16 12.15zm25.29 14.56l-21.26-12.23 21.13-12.18 21.26 12.25-21.13 12.16zm25.31 14.58l-21.29-12.25 21.16-12.21 21.25 12.25-21.12 12.21zm25.3 14.54l-21.29-12.26 21.13-12.16 21.29 12.21-21.13 12.21zm-305.2-144.65l-21.27-12.26 21.13-12.13 21.29 12.2-21.15 12.19zm25.3 14.57l-21.3-12.24 21.17-12.17 21.25 12.26-21.12 12.15zm25.3 14.54l-21.27-12.21 21.11-12.17 21.28 12.22-21.12 12.16zm25.3 14.57l-21.29-12.25 21.12-12.16 21.29 12.24-21.12 12.17zm25.27 14.56l-21.26-12.27 21.13-12.16 21.28 12.27-21.15 12.16zm25.28 14.56l-21.24-12.23 21.12-12.18 21.28 12.26-21.16 12.15zm25.32 14.57l-21.27-12.24 21.14-12.16 21.26 12.2-21.13 12.2zm25.27 14.54l-21.27-12.22 21.16-12.19L585.12 619l-21.13 12.15zm25.31 14.54l-21.27-12.21 21.16-12.18 21.25 12.24-21.14 12.15zm25.31 14.58l-21.29-12.25 21.15-12.15 21.25 12.24-21.11 12.16zm25.29 14.57l-21.28-12.27 21.14-12.17 21.26 12.26-21.12 12.18zm25.28 14.56l-21.27-12.25 21.14-12.18 21.29 12.25-21.16 12.18zM359.04 545.31l-21.27-12.23 21.14-12.17 21.26 12.23-21.13 12.17zm25.28 14.57l-21.24-12.26 21.12-12.17 21.27 12.25-21.15 12.18zm25.32 14.55l-21.3-12.24 21.16-12.17 21.27 12.27-21.13 12.14zm25.27 14.58l-21.25-12.25 21.13-12.17 21.28 12.21-21.16 12.21zm25.3 14.52l-21.25-12.23 21.1-12.15 21.31 12.22-21.16 12.16zm25.28 14.58l-21.26-12.23 21.15-12.18 21.29 12.25-21.18 12.16zm25.33 14.56l-21.26-12.26 21.13-12.15 21.26 12.26-21.13 12.15zm25.28 14.55L514.83 635l21.13-12.18 21.29 12.26-21.15 12.14zm25.29 14.57l-21.25-12.25 21.14-12.2 21.26 12.28-21.15 12.17zm25.3 14.55l-21.26-12.24 21.13-12.17 21.29 12.21-21.16 12.2zm25.3 14.56l-21.29-12.25 21.15-12.15 21.27 12.22-21.13 12.18zm25.3 14.55l-21.28-12.23 21.16-12.17 21.24 12.24-21.12 12.16z" class="AV"></path><path d="M373.72 692.62l-11-6.31A6.72 6.72 0 0 1 360 681c0-2 1.26-3 2.79-2.1l11 6.31a6.71 6.71 0 0 1 2.79 5.32c-.07 2.02-1.33 2.97-2.86 2.09z" class="AO"></path><path d="M428.7,214.57l.37-.22a4,4,0,0,0-.34.23Z" fill="#757575"></path><path d="M789.17 410a35.72 35.72 0 0 0-17.42-25.26l-313.62-180a12.8 12.8 0 0 0-12.76-.05c.05-.07-15.9 9.45-15.9 9.45a12.78 12.78 0 0 1 12.72.06L755.5 394a35.62 35.62 0 0 1 17.28 24.62 35.11 35.11 0 0 1 .64 6.33v207.49a17.24 17.24 0 0 1-8.34 14.82l15.31-8.56a17.15 17.15 0 0 0 9.29-15.32V415.71a35.06 35.06 0 0 0-.51-5.71z" fill="url(#P)"></path><path d="M428.73 214.58a4 4 0 0 1 .34-.23l.4-.24a12.78 12.78 0 0 1 12.72.06L755.5 394a35.69 35.69 0 0 1 17.92 31v207.44a17.34 17.34 0 0 1-25.87 15.06l-307-174.42a35 35 0 0 1-17.68-30.39V225.35a12.72 12.72 0 0 1 5.86-10.77z" fill="#f7f7f9"></path><path d="M751.5 402.39L438.61 222.67a5.49 5.49 0 0 0-8.22 4.77l.48 214.56a28.62 28.62 0 0 0 14.5 24.83l299.54 169.92a12.47 12.47 0 0 0 18.63-10.85V423.21a24 24 0 0 0-12.04-20.82z" class="AK"></path><path d="M454.84 425.83c0-4.41 3.09-6.2 6.92-4.05v-11.71c-9.68-5.51-17.51-1-17.56 10.05l10.69 6.17c-.04-.16-.05-.29-.05-.46z" class="AO"></path><path d="M454.86 426.29l-10.69-6.17c0 5.71 2 11.93 5.19 17.46l7.69-4.61a14.69 14.69 0 0 1-2.19-6.68z" class="AX"></path><path d="M480 440.54c-.05-11.19-7.94-24.78-17.68-30.4l-.12-.07v11.71a15.48 15.48 0 0 1 7.12 12.15c0 4.45-3.15 6.24-7 4a14.12 14.12 0 0 1-4.8-5l-7.69 4.61c3.19 5.5 7.59 10.3 12.45 13.12 9.81 5.66 17.73 1.15 17.73-10.06-.01.01-.01-.03-.01-.06z" class="AJ"></path><path d="M523.35 313.47v2.81c-2.78-1.57-5-.28-5.05 2.89l-2.45-1.38c.01-4.79 3.37-6.67 7.5-4.32zm-.28 22.67c6.81 3.93 12.35.77 12.35-7.05s-5.54-17.38-12.35-21.32l-.14-.07v-6.79l.14.08c10.06 5.82 18.25 19.95 18.25 31.51s-8.19 16.23-18.25 10.41l-.14-.09V336z" class="AX"></path><path d="M511 314.82v.18c0 7.77 5.46 17.24 12.2 21.23V343c-10-5.87-18.1-19.92-18.1-31.42-.04-.09 5.9 3.24 5.9 3.24z" class="AJ"></path><use xlink:href="#g" class="AL"></use><g class="AM"><use xlink:href="#h"></use><use xlink:href="#g" x="0.34" y="-28.79"></use></g><use xlink:href="#g" x="0.51" y="-43.19" class="AL"></use><g class="AU"><use xlink:href="#h" x="0.51" y="-43.19" class="AT"></use><path d="M456.16 266.73l-.08 7.12-6.26-3.7.09-7.13 6.25 3.71z" class="AT"></path><use xlink:href="#i" class="AT"></use></g><path d="M465.08 330l-.09 7.12-6.25-3.7.08-7.13 6.26 3.71z" class="AL"></path><path d="M465.25 315.6l-.09 7.13-6.25-3.71.08-7.13 6.26 3.71z" class="AJ"></path><use xlink:href="#h" x="9.93" y="-23.11" class="AM"></use><g class="AU"><use xlink:href="#g" x="10.27" y="-51.9" class="AT"></use><path d="M465.75 272.41l-.08 7.13-6.25-3.71.08-7.13 6.25 3.71z" opacity="0"></path></g><g class="AM"><use xlink:href="#j"></use><use xlink:href="#j" x="0.17" y="-14.4"></use></g><path d="M475.01 321.39l-.09 7.12-6.25-3.7.09-7.13 6.25 3.71z" class="AT AU"></path><use xlink:href="#j" x="0.51" y="-43.19" class="AL"></use><use xlink:href="#i" x="10.44" y="-51.8" class="AM"></use><use xlink:href="#g" x="20.2" y="-60.51" opacity="0" class="AU"></use><use xlink:href="#j" x="9.08" y="5.38" class="AJ"></use><use xlink:href="#i" x="19.01" y="-3.23" class="AL"></use><g class="AM"><use xlink:href="#g" x="28.77" y="-11.94"></use><use xlink:href="#h" x="28.77" y="-11.94"></use><use xlink:href="#h" x="28.94" y="-26.34"></use></g><use xlink:href="#g" x="29.28" y="-55.13" class="AJ"></use><use xlink:href="#k" class="AL"></use><use xlink:href="#k" y="11.15" class="AM"></use><g class="AL"><path d="M511.94 351.13v3.1l10.42 6.02v-3.11l-10.42-6.01zm0 6.06v3.1l10.42 6.01v-3.1l-10.42-6.01zm0 42.72v3.1l8.74 5.05v-3.1l-8.74-5.05zm0 6.06v3.1l8.74 5.05v-3.1l-8.74-5.05z"></path><use xlink:href="#l"></use><use xlink:href="#l" y="12.12"></use></g><path d="M511.94 442.71v3.1l7.59 4.39v-3.1l-7.59-4.39z" class="AM"></path><path d="M511.94 460.89v3.1l7.59 4.38v-3.1l-7.59-4.38z" class="AL"></path><path d="M511.94 473v3.1l7.59 4.38v-3.1l-7.59-4.38z" class="AM"></path><g class="AX"><path d="M561.93 325.8v3.22l11.94 7.02.03-3.21-11.97-7.03z"></path><use xlink:href="#m"></use><path d="M561.93 338.4v3.23l11.85 6.96.02-3.21-11.87-6.98zm0 6.3v3.23l29.56 17.36.02-3.21-29.58-17.38zm0 11.6v3.22l21.61 12.7.02-3.21-21.63-12.71zm0 6.3v3.22l21.56 12.67.02-3.21-21.58-12.68zm82.1 48.12l-17.95-10.55-.02 3.21 17.97 10.56v-3.22zm-82.1-41.82v3.23l21.51 12.63.03-3.2-21.54-12.66zm70.04 1.27l-55.29-32.48.03-3.21 55.28 32.48-.02 3.21zm-13.9-1.86l-41.44-24.35.03-3.21 41.44 24.35-.03 3.21zm25.96 11.97l-22.97-13.5-.03 3.21 23 13.51v-3.22zm0 6.35l-67.42-39.6-.02 3.21 67.44 39.62v-3.23zm0 6.31l-45.13-26.52-.02 3.21 45.15 26.53v-3.22zm0 11.59l-57.66-33.87-.02 3.21 57.68 33.89v-3.23z"></path><use xlink:href="#n"></use><path d="M643.58 420.09l-57.33-33.67.03-3.22 57.32 33.68-.02 3.21zm-48.16-20.65l-21.87-12.85.03-3.21 21.87 12.85-.03 3.21zm48.61 25.3l-45.7-26.86-.03 3.21 45.73 26.87v-3.22zm0 6.33l-70.5-41.42-.03 3.21 70.53 41.44v-3.23zm-19.14-1.72l-51.44-30.21.03-3.21 51.44 30.21-.03 3.21zm19.14 8.03L628.08 428l-.03 3.21 15.98 9.39v-3.22zm-82.1-41.94v3.23l21.44 12.59.03-3.21-21.47-12.61zm0 6.3v3.23l55.51 32.61.02-3.21-55.53-32.63zm82.1 48.16l-23.32-13.7-.03 3.21 23.35 13.71v-3.22zm-82.1-41.85v3.22l40.61 23.86.03-3.21-40.64-23.87zm0 6.3v3.22l48.72 28.62.03-3.21-48.75-28.63zm67 49.3l-54.52-32.03.03-3.21 54.51 32.03-.02 3.21zm13.86 14.44l-68.42-40.2.02-3.21 68.43 40.2-.03 3.21zm-81.48-43.13v3.22l11.95 7.02.02-3.21-11.97-7.03z"></path><use xlink:href="#m" x="-0.62" y="109.16"></use><path d="M561.31 447.56v3.22l11.85 6.96.02-3.21-11.87-6.97zm0 6.3v3.22l29.56 17.37.03-3.21-29.59-17.38zm0 11.6v3.22l21.61 12.7.03-3.21-21.64-12.71zm0 6.3v3.22l21.56 12.67.03-3.21-21.59-12.68zm82.11 48.12l-17.95-10.55-.03 3.21 17.98 10.56v-3.22zm-82.11-41.82v3.22l21.52 12.64.02-3.21-21.54-12.65zm70.04 1.27l-55.28-32.48.02-3.21 55.29 32.48-.03 3.21z"></path><use xlink:href="#o"></use><path d="M643.42 489.43l-22.98-13.49-.02 3.21 23 13.51v-3.23zm0 6.36l-67.43-39.61-.02 3.21 67.45 39.63v-3.23zm0 6.3l-45.13-26.51-.03 3.21 45.16 26.53v-3.23zm0 11.6l-57.66-33.87-.03 3.21 57.69 33.89v-3.23z"></path><use xlink:href="#n" x="-0.62" y="109.16"></use><path d="M642.96 529.25l-57.33-33.68.03-3.21 57.33 33.68-.03 3.21zm-48.15-20.65l-21.88-12.85.03-3.21 21.87 12.85-.02 3.21zm48.61 25.29l-45.71-26.85-.03 3.21 45.74 26.87v-3.23zm0 6.34l-70.51-41.42-.03 3.21 70.54 41.44v-3.23zm-19.14-1.72l-51.44-30.22.02-3.21 51.44 30.22-.02 3.21zm19.14 8.02l-15.96-9.37-.02 3.21 15.98 9.39v-3.23zm-82.11-41.93v3.22l21.45 12.6.02-3.21-21.47-12.61zm0 6.3v3.23l55.51 32.6.03-3.21-55.54-32.62z"></path><use xlink:href="#m" x="97.13" y="48.57"></use><path d="M659.06 386.97v3.22l11.85 6.96.02-3.21-11.87-6.97zm0 6.3v3.22l29.56 17.37.02-3.21-29.58-17.38zm0 11.6v3.22l21.61 12.7.03-3.21-21.64-12.71zm0 6.3v3.22l21.56 12.67.03-3.21-21.59-12.68zm82.11 48.12l-17.95-10.55-.03 3.21 17.98 10.56v-3.22zm-82.11-41.82v3.22l21.51 12.64.03-3.21-21.54-12.65z"></path><use xlink:href="#o" x="97.75" y="-60.59"></use><path d="M741.17 428.84l-22.98-13.5-.03 3.21 23.01 13.52v-3.23zm0 6.36l-67.43-39.61-.02 3.21 67.45 39.63v-3.23zm0 6.3l-45.14-26.51-.02 3.21 45.16 26.53v-3.23zm0 11.6l-57.67-33.87-.02 3.21 57.69 33.88v-3.22z"></path><use xlink:href="#n" x="97.13" y="48.57"></use><path d="M740.71 468.66l-57.33-33.68.03-3.21 57.32 33.68-.02 3.21zm-48.15-20.65l-21.88-12.85.03-3.21 21.87 12.85-.02 3.21zm48.61 25.29l-45.71-26.85-.03 3.21 45.74 26.86v-3.22zm0 6.34l-70.51-41.42-.03 3.21 70.54 41.44v-3.23zm-19.15-1.72l-51.43-30.22.02-3.21 51.44 30.22-.03 3.21zm19.15 8.02l-15.96-9.37-.02 3.21 15.98 9.39v-3.23zm-82.11-41.93v3.22l21.44 12.6.03-3.21-21.47-12.61zm0 6.3v3.22l55.51 32.61.03-3.21-55.54-32.62zm82.11 48.16l-23.33-13.71-.02 3.21 23.35 13.72v-3.22zm-82.11-41.86v3.22l40.61 23.86.03-3.21-40.64-23.87zm0 6.3v3.22l48.72 28.63.03-3.21-48.75-28.64zm67 49.3l-54.52-32.02.03-3.21L726.09 509l-.03 3.21zm13.87 14.45l-68.43-40.2.02-3.21 68.43 40.2-.02 3.21zm-81.49-43.14v3.23l11.95 7.01.02-3.2-11.97-7.04zm0 6.3v3.23l11.9 6.99.03-3.21-11.93-7.01zm0 6.31v3.22l11.85 6.96.03-3.21-11.88-6.97zm0 6.3v3.22L688 523.01l.03-3.21-29.59-17.37zm0 15.91v3.23l21.61 12.69.03-3.21-21.64-12.71zm0 6.3v3.23l21.57 12.66.02-3.21-21.59-12.68zm0 6.3v3.23l21.52 12.63.02-3.2-21.54-12.66zm70.04-3.05l-55.28-32.48.02-3.21 55.29 32.48-.03 3.21z"></path><use xlink:href="#o" x="97.13" y="48.57"></use><path d="M740.55 538l-22.98-13.5-.02 3.21 23 13.51V538zm0 6.36l-67.42-39.61-.03 3.21 67.45 39.62v-3.22zm0 6.3l-45.13-26.51-.03 3.21 45.16 26.52v-3.22zm0 15.91l-57.66-33.87-.03 3.21 57.69 33.89v-3.23zm-20.78-2.68l-36.95-21.71.02-3.21 36.96 21.71-.03 3.21zm20.32 18.24l-57.32-33.67.02-3.21 57.33 33.67-.03 3.21zm-48.15-20.65l-21.87-12.85.02-3.21 21.87 12.85-.02 3.21zm48.61 31.64l-70.51-41.42-.02 3.2 70.53 41.44v-3.22zm-19.14-1.73l-51.44-30.21.02-3.21 51.44 30.21-.02 3.21zm-62.97-33.91v3.23l21.45 12.59.02-3.2-21.47-12.62zm0 6.3v3.23l55.51 32.61.03-3.21-55.54-32.63z"></path></g><path d="M511.4 112.46L474.17 91l-.2-.13L403.28 50a3.57 3.57 0 0 0-3.93-.11l-4 2.33a.58.58 0 0 1 .2-.1 3.6 3.6 0 0 1 3.48.39l35.31 20.4 35.37 20.42.21.12 9 5.2L507.19 115a11.12 11.12 0 0 1 5.05 8.71V130l4.21-2.42v-6.42a11.12 11.12 0 0 0-5.05-8.7z" fill="url(#Q)"></path><path d="M512.16,130.06c.08.05.08,68.28.08,68.28a3.83,3.83,0,0,1-1,2.88c2-1.11,3.92-2.24,3.9-2.26a3.59,3.59,0,0,0,1.33-3.13V127.59Z" fill="#1d2856"></path><path d="M512.24,130.11,431.45,83.29c0,.07-37.42-21.62-37.42-21.62v68.41a11.12,11.12,0,0,0,5.05,8.71l37.22,21.49.2.13,70.69,40.81a3.71,3.71,0,0,0,3.39.45l.11-.06.13-.07a2.08,2.08,0,0,0,.4-.32,3.83,3.83,0,0,0,1-2.88Z" class="AW"></path><path d="M507.19 115L479 98.68l-9-5.2-.21-.12-35.4-20.42-35.31-20.4a3.6 3.6 0 0 0-3.48-.39 1.24 1.24 0 0 0-.2.1 3.58 3.58 0 0 0-1.4 3.17v6.25l37.42 21.69c0-.07 80.79 46.75 80.79 46.75v-6.42a11.12 11.12 0 0 0-5.02-8.69z" class="AP"></path><path d="M507.81 124a2 2 0 0 0 .22-1 4.88 4.88 0 0 0-2.21-3.81 2.18 2.18 0 0 0-.89-.3 1.29 1.29 0 0 0-.57.09l.95-.51a1.52 1.52 0 0 1 1.61.13 4.86 4.86 0 0 1 2.21 3.81 1.56 1.56 0 0 1-.58 1.37c-.08.06-1.17.64-1.17.64a1.1 1.1 0 0 0 .43-.42z" fill="#f90000"></path><path d="M504.36 119a1.29 1.29 0 0 1 .57-.09 2.18 2.18 0 0 1 .89.3A4.88 4.88 0 0 1 508 123a2 2 0 0 1-.22 1 1.1 1.1 0 0 1-.43.45 1.53 1.53 0 0 1-1.56-.16 4.86 4.86 0 0 1-2.21-3.81 1.47 1.47 0 0 1 .78-1.48z" fill="url(#R)"></path><path d="M501.19 120.11a2.11 2.11 0 0 0 .21-1 4.86 4.86 0 0 0-2.21-3.81 2 2 0 0 0-.89-.3 1.32 1.32 0 0 0-.57.09l1-.51a1.5 1.5 0 0 1 1.6.13 4.86 4.86 0 0 1 2.21 3.81 1.58 1.58 0 0 1-.57 1.37l-1.17.64a1.24 1.24 0 0 0 .39-.42z" fill="#ffd33f"></path><path d="M497.73 115.12a1.32 1.32 0 0 1 .57-.09 2 2 0 0 1 .89.3 4.86 4.86 0 0 1 2.21 3.81 2.11 2.11 0 0 1-.21 1 1.24 1.24 0 0 1-.43.45 1.55 1.55 0 0 1-1.57-.16 4.86 4.86 0 0 1-2.21-3.81 1.47 1.47 0 0 1 .75-1.5z" fill="url(#S)"></path><path d="M494.61 116.26a2 2 0 0 0 .22-1 4.89 4.89 0 0 0-2.21-3.82 2.15 2.15 0 0 0-.89-.29 1.08 1.08 0 0 0-.57.09l.95-.52a1.54 1.54 0 0 1 1.61.13 4.88 4.88 0 0 1 2.21 3.81 1.59 1.59 0 0 1-.58 1.38l-1.16.63a1.15 1.15 0 0 0 .42-.41z" fill="#40b8e2"></path><path d="M491.16 111.28a1.08 1.08 0 0 1 .57-.09 2.15 2.15 0 0 1 .89.29 4.89 4.89 0 0 1 2.21 3.82 2 2 0 0 1-.22 1 1.15 1.15 0 0 1-.42.45 1.55 1.55 0 0 1-1.57-.15 4.88 4.88 0 0 1-2.21-3.81 1.47 1.47 0 0 1 .75-1.51z" class="AN"></path><path d="M916.42 509.59c-.55 3.09.29 6.61-1.52 9.18-1.94 2.78-9.09 4.6-13.34 9.73-7.13 8.62-1.78 22.64 11 25s19-9.49 12.6-20c-3.24-5.27 2-4.84 3.81-7.53.91-1.34 1.92-4.14 1.24-5.62a20.93 20.93 0 0 1-1.29-3.14c-2.33-6.94 6.28-4.14 7.58-9.87 2.23-9.94-17.81-10.34-20.08 2.25z" class="AL"></path><path d="M921.39 532.07c-4.27 7-10.54 14.37-13.3 22.07-.17.46-.3.94-.46 1.41l6.35 2a20.41 20.41 0 0 1 .54-1.46l1.37-2.68 11.29-18c2.26-3.65-3.54-7.02-5.79-3.34z" class="AI"></path><path d="M884.9 639.12c-1.94-1.12-5.37-1-7.61.32l-3 1.71c-2.24 1.29-2.49 3.27-.55 4.39s5.37 1 7.62-.31l3-1.71c2.24-1.3 2.49-3.27.54-4.4zm23.16 10.01c-2.18-.53-5.43.57-7.21 2.44l-2.36 2.48c-1.79 1.87-1.47 3.84.71 4.37s5.42-.57 7.21-2.44l2.36-2.47c1.79-1.88 1.47-3.85-.71-4.38z" class="AO"></path><path d="M930 599.64c-7.43 4.86-15.74 9.22-22.63 14.81-3.32 2.69-4.2 7.11-5 11.17-1.53 8-1.94 16.68.58 24.56 1.31 4.1 7.79 2.35 6.46-1.78-2.3-7.19-1.87-15.24-.27-22.54 1-4.7.87-5.16 4.29-7.39l19.92-13c3.59-2.36.24-8.16-3.38-5.79zm-43.71 39.48l6.55-25.41c2.84-10.57 12.36-14.61 21-20 3.66-2.27.29-8.08-3.38-5.79-9.77 6.08-20.17 10.83-23.72 22.7-2.62 8.78-4.59 17.81-6.88 26.68-1.07 4.18 5.39 6 6.47 1.78z" class="AI"></path><path d="M938.8 535.24c2.22 5.16 2.39 11.27 2.51 17.12q.29 14.37.59 28.73c.13 6.36.16 13.16-2.59 18.5a26 26 0 0 1-5.6 6.89 99.93 99.93 0 0 1-9.93 8.26 3.72 3.72 0 0 1-5.52 0c-6.93-4.79-13.79-10.24-18.67-18.05a9.56 9.56 0 0 1-1.79-5c0-3.14 2.43-5.31 4.6-6.88q3.48-2.5 7-4.86a18.22 18.22 0 0 0 5.28-4.55c2.33-3.34 2.77-8.09 3.1-12.51l1.35-18.25c.31-4.15.64-8.42 2.19-12.1 4.51-10.65 13.76-5.93 17.48 2.7z" class="AO"></path><path d="M936.64 508.19c0-.31 0-.63-.07-.93 0-.13-.05-.2-.09-.22a4.39 4.39 0 0 0-1.69-3.44 9.91 9.91 0 0 0-6.59-2.86 6.7 6.7 0 0 0-5.1 2c-.71.67-2.84 2.74-2.35 3.74a3.68 3.68 0 0 0 1.3 1.5c2.47 1.57 6.43-.6 8.72 2.11a4 4 0 0 1 .84 1.5c.22.87 0 1.93.76 2.5a.72.72 0 0 0 .19.11 3.1 3.1 0 0 1-.09-.76c0-1.22.59-2.21 1.3-2.21s1.31 1 1.31 2.21-.49 2-1.13 2.18a1.57 1.57 0 0 1 .08.49v.7a7.08 7.08 0 0 0 1-1.41 17.29 17.29 0 0 0 1-2.31l.34-1a8.92 8.92 0 0 0 .31-2 14 14 0 0 0-.04-1.9z" class="AL"></path><path d="M934 515.6c.64-.15 1.13-1.06 1.13-2.18s-.59-2.21-1.31-2.21-1.3 1-1.3 2.21a3.1 3.1 0 0 0 .09.76.72.72 0 0 1-.19-.11c-.71-.57-.54-1.63-.76-2.5a4 4 0 0 0-.84-1.5c-2.29-2.71-6.25-.54-8.72-2.11v5.92a7.17 7.17 0 0 0 6.24 7.09l.1 5.51a5 5 0 0 0-2.44.52c-1.45.84-1.27 2.33.41 3.3l2.12 1.22a6.36 6.36 0 0 0 5.7.24c1.36-.79 1.28-2.12-.1-3.09a1.51 1.51 0 0 0 .14-.68l-.2-11.23v-.7a1.57 1.57 0 0 0-.07-.46zm-31.27 64.64c-.86 4.22 5.6 6 6.47 1.79 1.58-7.75 2.68-18.27 4.78-24.48l-6.35-2c-2.52 7.79-3.26 16.72-4.9 24.69z" class="AI"></path><path d="M899.13 603.42l23.09-13.33a.93.93 0 0 0 0-1.62L907.51 580a2.13 2.13 0 0 0-2.13 0l-23.22 13.41a.76.76 0 0 0 0 1.33l15.09 8.71a1.86 1.86 0 0 0 1.88-.03z" class="AO"></path><path d="M898.68 602.34l22.29-12.87-15.06-8.69-22.28 12.86 15.05 8.7z" class="AW"></path><g class="AI"><path d="M903.93,579.42a3.24,3.24,0,0,1,2.66,5.91l-4.69,2.11a3.24,3.24,0,0,1-2.66-5.91Z"></path><path d="M909.35,582.61a3.24,3.24,0,0,1,2.66,5.91l-4.69,2.11a3.24,3.24,0,0,1-2.66-5.91Z"></path><path d="M933 536.83q.79 6.93 1.61 13.86c.49 4.23 2.49 11.15.15 15.12s-8.42 6.24-12 8.47L911 581.54c-3.67 2.26-.3 8.06 3.38 5.79l13.36-8.33c4.39-2.71 10-5.24 12.76-9.85 2.93-5 1.68-10.56 1.06-16l-1.91-16.4c-.49-4.23-7.2-4.28-6.7 0zM827.85 699.14l.48.08a3.32 3.32 0 0 0 3.88-2.3l1.18-5.3a3 3 0 0 0-2.6-3.42l-.48-.09a3.33 3.33 0 0 0-3.88 2.3l-1.18 5.3a3 3 0 0 0 2.6 3.43zm6.03 68.94l.2.39a3.5 3.5 0 0 0 4.37 1.47l5.57-2.22a2.8 2.8 0 0 0 1.66-3.86l-.2-.39a3.51 3.51 0 0 0-4.37-1.47l-5.58 2.22a2.8 2.8 0 0 0-1.65 3.86z"></path><path d="M827.37 693.93c4.36-1.59 6.26 4.68 2 6.25a126.81 126.81 0 0 0-17.45 8l-4-5.52a145.08 145.08 0 0 1 19.45-8.73z"></path></g><path d="M782.08 721.76a106.17 106.17 0 0 1 25.8-19.09l4 5.52c-9.12 5-18 11.28-24.6 18.15-3.09 3.18-8.28-1.43-5.2-4.58z" fill="url(#T)"></path><path d="M809.67 871.94c-2.13-1.09-5.88-1-8.33.3l-3.24 1.66c-2.46 1.25-2.73 3.16-.6 4.25a10.38 10.38 0 0 0 8.33-.31l3.24-1.65c2.46-1.25 2.73-3.19.6-4.25zM787.1 861.4a10.38 10.38 0 0 0-8.33.31l-3.24 1.65c-2.46 1.25-2.73 3.17-.6 4.25s5.88.95 8.33-.3l3.24-1.66c2.5-1.25 2.73-3.16.6-4.25z" class="AK"></path><path d="M798.07 777.55c13 29.6 14.11 64.63 7.49 95.43-1.41 6.55-12.73 3.77-11.32-2.76 6.24-29.05 4.71-62-7.5-89.91-2.73-6.24 8.62-8.93 11.33-2.76zm-19.22 43.98c.35-11.93-4.19-23.94-8.36-35.49-.9-2.5 1.22-5 4.18-5H781c4.64 13.17 10 26.77 9.61 40.54s-5 27.6-7.9 41c-1.44 6.55-12.76 3.78-11.33-2.76 2.72-12.54 7.09-25.56 7.47-38.29z" class="AL"></path><path d="M838 764.58c4.18 1.94.47 7.54-3.7 5.59-7.84-3.65-16.29-6.9-23.91-11l4-5.5c7.48 4.03 15.79 7.33 23.61 10.91z" class="AI"></path><path d="M774.09 764.39c5.63-41.88 5.17-43.84 10.83-45 7.48-1.59 12.9 6.12 14.47 12.31l4.52 8.87c2.16 4.24 3.84 9.52 8.47 12.11a25.22 25.22 0 0 0 1.93 1l-4 5.5c-.93-.49-1.85-1-2.74-1.52-3.39-2-6-5.2-8.11-8.84-1.31 6.69-4 9.75-4 16.65s3.41 11.13 7.49 25.25c4.43 15.35-31.47-.86-33.37-7-2.25-7.48 3.97-15.3 4.51-19.33z" fill="url(#U)"></path><g class="AI"><path d="M785.23 712.15l.23 9.68c0 2.22 6.15 2.22 6.1 0l-.22-9.68c-.05-2.22-6.16-2.22-6.11 0z"></path><path d="M787.7,714.69a2,2,0,0,1-1.44-.61c-2.68-2.85-2.58-8.53-.79-12.48,1.16-2.59,2.22-3.78,6.86-3.92,1.17,0,4.39-.27,5.59,1.13.35.14.68.29,1,.44v8.1c0,4-3.72,7.34-8.31,7.34Z"></path></g><path d="M796.31 704.68c-1.51 1-3.22 1.84-4.31 3.27-.92 1.21-1.29 2.72-2.14 4s-2.53 2.25-3.92 1.59c-2.76-1.33-6.4-10.09-3.09-15.46 2.32-3.75 12.83-3.18 15.48-1s.14 6.15-2.02 7.6z" fill="url(#V)"></path><path d="M790.85 707.35c0 1.29.64 2.33 1.42 2.33s1.43-1 1.43-2.33-.64-2.33-1.43-2.33-1.42 1.05-1.42 2.33zm1.82 16.4c1.49-.75 1.3-2.09-.41-3l-2.16-1.1a7.25 7.25 0 0 0-5.81-.21c-1.48.75-1.3 2.09.42 3l2.15 1.1a7.25 7.25 0 0 0 5.81.21z" class="AI"></path><path d="M775.83 710.53c-4.22 1.88-9.34 3.26-11.39 7-1.7 3.13-.65 6.9-1.7 10.25-1.57 5-7.34 8-10.16 12.51-3.67 5.88-1.3 14 4.94 17.86s15.43 3.11 21.05-1.41a15.49 15.49 0 0 0 4.43-18.47c-1.24-2.64-3.21-5-4.38-7.63s-1.42-5.94.63-8.14c1.1-1.19 2.8-2 3.39-3.46.79-2-.83-4.08-.62-6.15s5.08-5.94 2.71-7.4-6.91 4.15-8.9 5.04z" fill="url(#W)"></path><path d="M582 697.24c.67 3.33-.34 7.11 1.84 9.88 2.35 3 11 5 16.12 10.48 8.62 9.28 2.16 24.38-13.23 26.89s-23-10.21-15.24-21.47c2.39-3.45 1-4.63-1-5.68 1.3-.2 2.39-.85 2.37-2l-.22-11.25v-.7a1.33 1.33 0 0 0-.09-.49 2.09 2.09 0 0 0 1.27-2.18c0-1.22-.66-2.21-1.46-2.21s-1.47 1-1.47 2.21a3.1 3.1 0 0 0 .1.76 1.55 1.55 0 0 1-.22-.12c-.79-.57-.6-1.63-.85-2.49-.16-.56-.3-1.61-.94-1.5-9 1.47-5.15-4.85-10.13-3.76-.08 0-.08 3.17-.08 3.17a4.87 4.87 0 0 1-1-1.94c-2.7-10.72 21.52-11.16 24.23 2.4z" class="AM"></path><path d="M568.21 876.83c-2.28-1.2-6.3-1.05-8.93.34l-3.47 1.83c-2.63 1.4-2.92 3.53-.64 4.74s6.29 1 8.93-.34l3.47-1.84c2.63-1.39 2.92-3.56.64-4.73zm35.29-30.15a10.27 10.27 0 0 0-8 3.75l-2.31 3c-1.75 2.28-1 4.33 1.58 4.55a10.31 10.31 0 0 0 7.95-3.75l2.31-3c1.8-2.29 1.09-4.33-1.53-4.55z" class="AK"></path><g class="AI"><path d="M555.49 801.71l.27-3.7 1.24-24.69a4 4 0 0 1 2.44-3.63 5.93 5.93 0 0 1 5.28.12 3.47 3.47 0 0 1 1.71 3.37l-1.14 22.65-.4 4c-.59 4.83-1.21 9.81 1.66 12.66 7.68 7.61 15.83 15.07 23.71 22.28l12 11c2.21 2.06 1.49 4.53-.21 6.06a4.59 4.59 0 0 1-6.44.08l-12.43-11.33c-8.22-7.4-16.72-15-24.36-23-4.3-4.48-3.82-10.02-3.33-15.87z"></path><path d="M585.89,783.25c-14.38,26.27-18,61.2-15.89,91.37.53,7.41-9.53,7.37-10.06,0-2.29-32.08,2-69.32,17.27-97.2,3.43-6.28,12.14-.49,8.68,5.83Z"></path></g><path d="M555.27 808.37s4.06 7.94 18.34 9.62l14.68-29.47-32.5-10.71s-1.44 19.97-.52 30.56z" fill="url(#X)"></path><path d="M552.4 747.31l4.21 4.8-4.73 2.95-4-4.61z" fill="#e9dbef"></path><path d="M531.77 761.63q6.36-4.41 12.71-8.83l3.4-2.35 4 4.61-3 1.87-13.88 9.69c-3.28 2.24-6.42-2.78-3.23-4.99z" class="AI"></path><path d="M564 715.92a9.74 9.74 0 0 1 1.94-.86 11 11 0 0 1 9.7 1.4l-9.73 71.81-2.64-1.32z" class="AO"></path><path d="M561 747.58a9.53 9.53 0 0 1-.71 1.22 15.35 15.35 0 0 1-3.64 3.31l-4.2-4.81 2.28-1.58 7-26.4a2.92 2.92 0 0 1 .47-1 4.55 4.55 0 0 1 1.88-2.43l-.73 71c-3.29-1.76-5.79-3.72-6.57-5.29-3.51-7.11 4.29-16.06 4.28-20.16l-.06-13.86z" class="AK"></path><path d="M598.2 754.19l6.33-1.06 1.06 4.42-6.08 1.13-1.31-4.49z" fill="#e9dbef"></path><path d="M605.59 757.55l1 3.8 4.71 16.11c1.06 3.59-5 5.12-6.06 1.53-2-6.73-3.77-13.54-5.72-20.31z" class="AI"></path><path d="M596 746.44c-.12-.17-.28-.33-.42-.5-.41-1.18.83 1.06.42.5z" fill="#2b1c3c"></path><path d="M575.67 716.46a17.23 17.23 0 0 1 2.86 2.26 2.4 2.4 0 0 1 1.2.76l11.93 13.19c3.17 3.51 7.79 7.22 9.86 11.4a44.4 44.4 0 0 1 3 9.06l-6.33 1.06c-.83-2.73-1.69-5.44-2.62-8.14v-.11c.14.17.3.33.42.5.44.6-.8-1.68-.42-.5-.41-.47-.86-.93-1.27-1.37-2.4-2.57-4.71-5.21-7.07-7.82l-1.76-1.94c1.92 12.45-2 14.87-.7 23.89 1 6.74 8.5 11.62 5 26.35-2.18 9.21-14.77 7.28-23.83 3.22z" class="AK"></path><path d="M574 718.76c1.37-.73 1.2-2-.38-2.84l-2-1.06a6.47 6.47 0 0 0-5.36-.2c-1.37.72-1.19 2 .39 2.84l2 1a6.47 6.47 0 0 0 5.35.26z" class="AI"></path><path d="M566.22 708.65l.11 5.33c-.88-1.57-1.59-3.82-.91-5.12l.11-.21z" class="AN"></path><path d="M558.87 693.63c5-1.09 1.17 5.23 10.13 3.76.64-.11.78.94.94 1.5.25.86.06 1.92.85 2.49a1.55 1.55 0 0 0 .22.12 3.1 3.1 0 0 1-.1-.76c0-1.22.66-2.21 1.47-2.21s1.46 1 1.46 2.21a2.09 2.09 0 0 1-1.27 2.18 1.33 1.33 0 0 1 .09.49v.7l.22 11.25c0 1.13-1.07 1.78-2.37 2-1.86.29-4.15-.37-4.18-2v-1.38c0-1.78-.08-3.55-.11-5.33h-.68c-3.73 0-6.75-2.7-6.75-6v-9l.08-.02zm-33.03 73.95a3.78 3.78 0 0 0 4.82 1.53l4-1.79a3.21 3.21 0 0 0 1.67-4.42 3.76 3.76 0 0 0-4.82-1.53l-4 1.78a3.22 3.22 0 0 0-1.67 4.43zm81.41 18.94a3.56 3.56 0 0 0 4-2.89l.52-4.06a3.39 3.39 0 0 0-3.15-3.68 3.56 3.56 0 0 0-4 2.9l-.53 4.06a3.39 3.39 0 0 0 3.16 3.67z" class="AI"></path><path d="M409.22,134.31l12-17.85a3.26,3.26,0,0,1,5.78.79l2.72,8.18a2.61,2.61,0,0,0,4.36,1L447.05,113a4.23,4.23,0,0,1,7.05,1.56l9.4,27.22a7.58,7.58,0,0,0,11.85,3.47l1.44-1.13a2.78,2.78,0,0,1,4.41,1.48l8.89,34.13Z" class="AN"></path><path d="M648.44 270.19a.94.94 0 0 1-.46-.13l-133.83-78.32a.93.93 0 1 1 .94-1.6l132.43 77.51v-29.84a.93.93 0 1 1 1.85 0v31.45a.92.92 0 0 1-.47.8.84.84 0 0 1-.46.13z" class="AV"></path><path d="M819.06 162.36c-27.27-64.67-88.33-107-123.3-83.36l-38 22.14C693.53 83.55 750.3 124.9 776.68 187c21.46 5 50.5 25.75 71.14 73.91 10.36 27 13.22 62.69-8.16 77.45l41-23.69h-.16c44.23-26.12-.93-138.23-61.44-152.31zm72.44 77.87l-.56.27z" fill="url(#Y)"></path><path d="M651.28 104.93l1.83-1.07-1.52 1.12z" fill="#f2e8ea"></path><path d="M618.55 140.2c-10.41-6-19.9-7-27.09-3.78l39.09-22.78c4.21-3 9.5-4.2 15.49-3.45-8.17 9.31-13 23.33-13.13 41.35a69.11 69.11 0 0 0-14.36-11.34z" fill="url(#Z)"></path><path d="M711 107.8l4.55 2.8 1.13.74 4.35 3 .73.55 3.56 2.72 1.45 1.16q1.9 1.55 3.78 3.18l1.64 1.48 2.29 2.1 2 1.91 2 1.95q1.8 1.81 3.55 3.7l1 1.11q4.1 4.49 7.94 9.34 4.05 5.11 7.76 10.57a189.94 189.94 0 0 1 13.64 23.41l.64 1.3 3.54 7.76.19.44 4.26 1.18a69 69 0 0 1 13.42 6.05l3.84 2.36 1.09.73 2.87 2 1 .73 3.7 2.86.3.26 3.34 2.86.94.85q1.45 1.32 2.88 2.7l.69.67q1.79 1.75 3.51 3.61l.25.27q1.59 1.71 3.14 3.5l.65.76q1.53 1.8 3 3.66l.21.27 3.3 4.32a.44.44 0 0 0 .08.11q1.51 2.08 3 4.23l.34.51a150.72 150.72 0 0 1 8.4 14.11l.1.19a146 146 0 0 1 6.84 15.13 130.22 130.22 0 0 1 4.64 14.54l.15.62 1 4.41c0 .11 0 .21.07.32l.87 4.76c0 .13 0 .27.05.4l.54 4c0 .43.09.85.13 1.28l.27 3.25c0 .43.06.86.08 1.28l.12 4.31a61.73 61.73 0 0 1-3.32 21 42.91 42.91 0 0 1-2.08 4.82 33.25 33.25 0 0 1-8.86 11.1l-1.83 1.34c-11.22 7.6-27.36 7.11-45.3-3.24l-178.31-103V232c-21.31-13.79-38.2-43.79-38.2-68.61 0-13.86 5.26-23.26 13.61-27 7.19-3.22 16.68-2.23 27.09 3.78a69.11 69.11 0 0 1 14.36 11.34c.14-18 5-32 13.13-41.35a38.36 38.36 0 0 1 5.55-5.21c.5-.38 1-.76 1.52-1.12a38.15 38.15 0 0 1 4.67-2.72c13.88-6.83 32.56-5.18 53.16 6.69z" class="AP"></path></svg>