<?xml version="1.0" encoding="utf-8"?>
<!-- Generator: Adobe Illustrator 27.5.0, SVG Export Plug-In . SVG Version: 6.00 Build 0)  -->
<svg version="1.1" id="Layer_1" xmlns="http://www.w3.org/2000/svg" xmlns:xlink="http://www.w3.org/1999/xlink" x="0px" y="0px"
	 viewBox="0 0 586.617 350" style="enable-background:new 0 0 586.617 350;" xml:space="preserve">
<g>
	<rect x="0" style="fill:#B47BED;" width="586.617" height="350"/>
	<g>
		<path style="fill:#8D56CC;" d="M40.693,283.841c0,0-51.823-33.835,5.764-116.862C64.321,141.223,26.421,63.186,98.69,53
			c50.289-7.088,97.56,77.625,197.179,28.506c96.023-47.345,192.488-48.598,244.568,6.409
			c20.533,21.689,50.049,92.781-3.154,138.025c-11.512,9.79-83.811,47.046,14.24,56.553L40.693,283.841z"/>
		<path style="fill:#7748BC;" d="M553.182,283.49c0,4.676-107.518,8.466-256.184,8.466c-148.667,0-256.305-3.44-256.305-8.115
			c0-4.675,107.638-8.815,256.305-8.815C445.664,275.025,553.182,278.815,553.182,283.49z"/>
		<g>
			<g>
				<path style="fill:#FFFFFF;" d="M155.08,108.525c-0.128,3.109-2.763,5.521-5.869,5.385c-3.115-0.131-5.525-2.763-5.396-5.874
					c0.137-3.113,2.768-5.523,5.878-5.388C152.803,102.782,155.218,105.411,155.08,108.525z"/>
			</g>
			<path style="fill:#FC76B2;" d="M169.064,105.15c-1.778-1.587-2.717-4.274-2.364-6.553c0.22-1.426,4.229-3.902,4.229-3.902
				l-5.98-6.497c0,0-2.804,3.801-4.233,3.9c-2.198,0.157-4.678-0.969-6.014-2.799c-0.848-1.163,0.251-5.745,0.251-5.745
				l-8.829-0.384c0,0,0.693,4.664-0.246,5.749c-1.301,1.498-3.626,2.256-5.521,1.878c-1.411-0.28-3.693-4.403-3.693-4.403
				l-6.767,5.681c0,0,3.661,2.963,3.699,4.402c0.06,2.41-1.223,5.07-3.245,6.511c-1.172,0.836-5.754-0.318-5.754-0.318l-0.491,8.82
				c0,0,4.664-0.64,5.737,0.314c1.773,1.59,2.717,4.277,2.364,6.555c-0.22,1.422-4.233,3.9-4.233,3.9l5.981,6.497
				c0,0,2.799-3.799,4.237-3.898c2.189-0.159,4.678,0.969,6.014,2.797c0.848,1.166-0.247,5.748-0.247,5.748l8.824,0.379
				c0,0-0.697-4.665,0.242-5.75c1.305-1.493,3.634-2.256,5.525-1.878c1.408,0.287,3.699,4.406,3.699,4.406l6.763-5.683
				c0,0-3.661-2.965-3.704-4.402c-0.053-2.41,1.223-5.07,3.248-6.51c1.174-0.834,5.756,0.322,5.756,0.322l0.488-8.818
				C174.798,105.471,170.136,106.105,169.064,105.15z M148.827,122.897c-8.069-0.351-14.336-7.175-13.984-15.246
				c0.349-8.074,7.17-14.337,15.247-13.989c8.07,0.349,14.336,7.175,13.984,15.247C163.726,116.984,156.903,123.245,148.827,122.897
				z"/>
			<g>
				<g>
					<g>
						<path style="fill:#E563A4;" d="M160.628,108.961c-0.266,6.17-5.483,10.955-11.654,10.687
							c-6.167-0.266-10.951-5.482-10.685-11.649c0.266-6.171,5.483-10.957,11.65-10.691
							C156.111,97.575,160.895,102.793,160.628,108.961z"/>
					</g>
				</g>
			</g>
		</g>
		<g>
			<g>
				<path style="fill:#FFFFFF;" d="M521.359,115.129c-0.105,2.563-2.277,4.551-4.836,4.439c-2.568-0.108-4.555-2.278-4.449-4.841
					c0.113-2.566,2.281-4.552,4.846-4.441C519.482,110.396,521.473,112.563,521.359,115.129z"/>
			</g>
			<path style="fill:#FC76B2;" d="M532.885,112.348c-1.465-1.308-2.24-3.523-1.947-5.401c0.182-1.175,3.484-3.216,3.484-3.216
				l-4.928-5.354c0,0-2.313,3.133-3.49,3.214c-1.811,0.129-3.856-0.798-4.957-2.307c-0.699-0.959,0.207-4.735,0.207-4.735
				l-7.277-0.316c0,0,0.572,3.844-0.201,4.739c-1.074,1.235-2.99,1.86-4.551,1.548c-1.164-0.231-3.045-3.629-3.045-3.629
				l-5.578,4.683c0,0,3.018,2.442,3.049,3.629c0.049,1.986-1.008,4.179-2.676,5.366c-0.965,0.689-4.742-0.262-4.742-0.262
				l-0.404,7.27c0,0,3.844-0.528,4.729,0.259c1.461,1.31,2.238,3.525,1.947,5.402c-0.18,1.172-3.488,3.214-3.488,3.214l4.93,5.355
				c0,0,2.307-3.131,3.492-3.213c1.805-0.131,3.855,0.799,4.957,2.305c0.699,0.961-0.203,4.738-0.203,4.738l7.273,0.313
				c0,0-0.574-3.845,0.199-4.739c1.076-1.23,2.994-1.86,4.553-1.548c1.162,0.236,3.049,3.631,3.049,3.631l5.574-4.684
				c0,0-3.018-2.444-3.053-3.628c-0.043-1.986,1.008-4.178,2.678-5.366c0.969-0.688,4.744,0.266,4.744,0.266l0.402-7.268
				C537.611,112.613,533.769,113.135,532.885,112.348z M516.205,126.975c-6.65-0.29-11.816-5.914-11.525-12.566
				c0.287-6.654,5.91-11.817,12.566-11.53c6.652,0.287,11.816,5.914,11.525,12.567C528.484,122.102,522.861,127.262,516.205,126.975
				z"/>
			<g>
				<g>
					<g>
						<path style="fill:#E563A4;" d="M525.932,115.489c-0.219,5.085-4.519,9.029-9.605,8.809c-5.082-0.219-9.025-4.519-8.807-9.601
							c0.221-5.087,4.52-9.031,9.603-8.813C522.209,106.104,526.152,110.405,525.932,115.489z"/>
					</g>
				</g>
			</g>
		</g>
		<g>
			<g>
				<path style="fill:#BFACF7;" d="M534.879,167.188c-0.129,3.109-2.764,5.521-5.869,5.385c-3.115-0.131-5.525-2.763-5.396-5.874
					c0.137-3.113,2.768-5.523,5.877-5.388C532.602,161.444,535.016,164.074,534.879,167.188z"/>
			</g>
			<path style="fill:#BFACF7;" d="M548.861,163.813c-1.777-1.587-2.717-4.274-2.363-6.553c0.221-1.426,4.229-3.902,4.229-3.902
				l-5.98-6.497c0,0-2.803,3.801-4.232,3.9c-2.197,0.157-4.678-0.969-6.014-2.799c-0.85-1.163,0.25-5.745,0.25-5.745l-8.828-0.384
				c0,0,0.691,4.664-0.246,5.749c-1.303,1.498-3.627,2.256-5.521,1.878c-1.412-0.28-3.693-4.403-3.693-4.403l-6.768,5.681
				c0,0,3.66,2.963,3.699,4.402c0.059,2.41-1.225,5.07-3.246,6.511c-1.172,0.836-5.754-0.318-5.754-0.318l-0.49,8.82
				c0,0,4.664-0.64,5.736,0.314c1.773,1.59,2.717,4.277,2.363,6.554c-0.219,1.422-4.232,3.9-4.232,3.9l5.98,6.497
				c0,0,2.799-3.8,4.236-3.898c2.189-0.159,4.678,0.97,6.016,2.797c0.848,1.166-0.248,5.748-0.248,5.748l8.824,0.38
				c0,0-0.695-4.665,0.242-5.75c1.307-1.493,3.635-2.257,5.525-1.879c1.408,0.287,3.699,4.406,3.699,4.406l6.762-5.683
				c0,0-3.66-2.966-3.703-4.401c-0.053-2.41,1.223-5.07,3.248-6.511c1.174-0.834,5.756,0.322,5.756,0.322l0.488-8.818
				C554.596,164.134,549.934,164.768,548.861,163.813z M528.625,181.559c-8.068-0.351-14.336-7.174-13.984-15.245
				c0.35-8.074,7.172-14.337,15.248-13.989c8.068,0.349,14.336,7.175,13.982,15.247
				C543.523,175.647,536.701,181.908,528.625,181.559z"/>
			<g>
				<g>
					<g>
						<path style="fill:#BFACF7;" d="M540.426,167.624c-0.266,6.17-5.482,10.955-11.654,10.687
							c-6.166-0.266-10.951-5.481-10.684-11.648c0.266-6.171,5.482-10.956,11.65-10.691
							C535.908,156.237,540.693,161.455,540.426,167.624z"/>
					</g>
				</g>
			</g>
		</g>
		<g>
			<g>
				<path style="fill:#BFACF7;" d="M106.898,87.947c-0.088,2.149-1.909,3.815-4.055,3.721c-2.152-0.09-3.817-1.909-3.728-4.059
					c0.095-2.15,1.913-3.816,4.061-3.722C105.325,83.979,106.994,85.796,106.898,87.947z"/>
			</g>
			<path style="fill:#BFACF7;" d="M116.56,85.615c-1.229-1.096-1.877-2.953-1.634-4.527c0.152-0.985,2.922-2.696,2.922-2.696
				l-4.132-4.489c0,0-1.938,2.626-2.925,2.695c-1.519,0.108-3.232-0.669-4.155-1.934c-0.586-0.804,0.173-3.97,0.173-3.97
				l-6.101-0.265c0,0,0.479,3.223-0.169,3.973c-0.899,1.035-2.505,1.56-3.815,1.298c-0.975-0.193-2.551-3.042-2.551-3.042
				l-4.675,3.925c0,0,2.529,2.047,2.555,3.042c0.041,1.665-0.845,3.503-2.242,4.498c-0.81,0.578-3.976-0.22-3.976-0.22l-0.339,6.094
				c0,0,3.223-0.442,3.964,0.217c1.225,1.099,1.877,2.956,1.633,4.529c-0.151,0.982-2.925,2.695-2.925,2.695l4.132,4.489
				c0,0,1.934-2.625,2.927-2.693c1.513-0.11,3.232,0.669,4.156,1.933c0.586,0.805-0.17,3.971-0.17,3.971l6.097,0.262
				c0,0-0.481-3.223,0.167-3.973c0.902-1.032,2.511-1.56,3.817-1.298c0.973,0.198,2.555,3.044,2.555,3.044l4.673-3.926
				c0,0-2.53-2.049-2.559-3.042c-0.037-1.665,0.845-3.502,2.244-4.498c0.811-0.576,3.977,0.223,3.977,0.223l0.337-6.093
				C120.522,85.837,117.301,86.275,116.56,85.615z M102.578,97.877c-5.575-0.242-9.906-4.957-9.662-10.534
				c0.241-5.578,4.954-9.905,10.534-9.665c5.576,0.241,9.905,4.957,9.661,10.535C112.872,93.792,108.158,98.117,102.578,97.877z"/>
			<g>
				<g>
					<g>
						<path style="fill:#BFACF7;" d="M110.731,88.249c-0.184,4.263-3.788,7.569-8.052,7.384c-4.261-0.184-7.566-3.788-7.382-8.049
							c0.184-4.264,3.789-7.57,8.05-7.387C107.61,80.381,110.916,83.986,110.731,88.249z"/>
					</g>
				</g>
			</g>
		</g>
		<g>
			<path style="fill:#FFF1D6;" d="M505.078,235.933c0,5.473-4.441,9.916-9.91,9.916H286.897c-5.472,0-9.915-4.443-9.915-9.916
				V104.93c0-5.476,4.443-9.922,9.915-9.922h208.271c5.469,0,9.91,4.447,9.91,9.922V235.933z"/>
			<polygon style="fill:#252956;" points="423.889,278.578 358.586,278.578 362.559,222.054 417.938,222.054 			"/>
			<path style="fill:#252956;" d="M505.078,235.933c0,5.473-4.441,9.916-9.91,9.916H286.897c-5.472,0-9.915-4.443-9.915-9.916
				V104.93c0-5.476,4.443-9.922,9.915-9.922h208.271c5.469,0,9.91,4.447,9.91,9.922V235.933z"/>
			<rect x="285.909" y="105.038" style="fill:#6265D8;" width="208.556" height="107.093"/>
			<path style="fill:#191D3A;" d="M286.897,245.849h208.271c5.469,0,9.91-4.443,9.91-9.916v-14.877H276.982v14.877
				C276.982,241.405,281.425,245.849,286.897,245.849z"/>
			<rect x="326.777" y="269.656" style="fill:#191D3A;" width="125.818" height="8.922"/>
		</g>
		<path style="fill:#DBD4F9;" d="M340.318,124.813c0,7.324-5.939,13.263-13.27,13.263c-7.322,0-13.264-5.939-13.264-13.263
			c0-7.329,5.941-13.266,13.264-13.266C334.379,111.547,340.318,117.483,340.318,124.813z"/>
		<path style="fill:#B47BED;" d="M331.982,124.813c0,2.72-2.207,4.927-4.934,4.927c-2.719,0-4.928-2.208-4.928-4.927
			c0-2.723,2.209-4.933,4.928-4.933C329.775,119.879,331.982,122.09,331.982,124.813z"/>
		<path style="fill:#DBD4F9;" d="M340.318,171.826c0,7.327-5.939,13.268-13.27,13.268c-7.322,0-13.264-5.941-13.264-13.268
			c0-7.327,5.941-13.263,13.264-13.263C334.379,158.563,340.318,164.499,340.318,171.826z"/>
		<path style="fill:#B47BED;" d="M331.982,171.826c0,2.723-2.207,4.93-4.934,4.93c-2.719,0-4.928-2.208-4.928-4.93
			c0-2.721,2.209-4.93,4.928-4.93C329.775,166.896,331.982,169.105,331.982,171.826z"/>
		<g>
			<polygon style="fill:#B47BED;" points="468.867,140.123 403.543,139.869 403.543,126.048 327.049,126.048 327.049,123.572 
				406.017,123.572 406.017,137.405 468.877,137.649 			"/>
		</g>
		<g>
			<polygon style="fill:#B47BED;" points="406.017,174.771 327.049,174.771 327.049,172.294 403.543,172.294 403.543,158.473 
				468.867,158.219 468.877,160.692 406.017,160.937 			"/>
		</g>
		<g>
			<rect x="76.709" y="142.934" style="fill:#FC76B2;" width="84.794" height="84.79"/>
			<rect x="76.709" y="142.934" style="fill:#E85DA3;" width="84.794" height="8.009"/>
			<path style="fill:#F5F9FC;" d="M83.565,147.229c0,1.024-0.73,1.854-1.628,1.854c-0.898,0-1.624-0.83-1.624-1.854
				c0-1.026,0.726-1.856,1.624-1.856C82.835,145.373,83.565,146.202,83.565,147.229z"/>
			<path style="fill:#F5F9FC;" d="M88.44,147.229c0,1.024-0.728,1.854-1.626,1.854c-0.898,0-1.624-0.83-1.624-1.854
				c0-1.026,0.726-1.856,1.624-1.856C87.713,145.373,88.44,146.202,88.44,147.229z"/>
			<path style="fill:#F5F9FC;" d="M93.318,147.229c0,1.024-0.724,1.854-1.63,1.854c-0.898,0-1.624-0.83-1.624-1.854
				c0-1.026,0.725-1.856,1.624-1.856C92.595,145.373,93.318,146.202,93.318,147.229z"/>
			<rect x="80.313" y="157.965" style="fill:#FCB6D9;" width="76.859" height="14.169"/>
			<rect x="80.313" y="206.941" style="fill:#FCB6D9;" width="76.859" height="14.165"/>
			<rect x="80.313" y="174.555" style="fill:#FCB6D9;" width="36.754" height="12.548"/>
			<rect x="80.313" y="189.301" style="fill:#FCB6D9;" width="36.754" height="12.55"/>
			<rect x="123.13" y="174.555" style="fill:#FCB6D9;" width="34.042" height="27.296"/>
		</g>
		<g>
			<rect x="105.197" y="115.091" style="fill:#50545F;" width="91.826" height="167.671"/>
			<g>
				<g>
					<rect x="116.53" y="122.743" style="fill:#2F3543;" width="75.509" height="13.964"/>
					<rect x="116.53" y="150.06" style="fill:#2F3543;" width="75.509" height="13.962"/>
					<rect x="116.53" y="166.45" style="fill:#2F3543;" width="75.509" height="13.963"/>
					<rect x="108.535" y="136.707" style="fill:#50545F;" width="83.505" height="13.353"/>
					<rect x="108.535" y="198.624" style="fill:#50545F;" width="83.505" height="13.353"/>
					<rect x="111.498" y="139.589" style="fill:#130F40;" width="80.541" height="7.588"/>
					<rect x="116.53" y="211.977" style="fill:#2F3543;" width="75.509" height="13.964"/>
					<rect x="116.53" y="184.662" style="fill:#2F3543;" width="75.509" height="13.962"/>
					<rect x="116.53" y="228.367" style="fill:#2F3543;" width="75.509" height="13.962"/>
					<rect x="116.53" y="244.756" style="fill:#2F3543;" width="75.509" height="13.964"/>
					<rect x="116.53" y="261.148" style="fill:#2F3543;" width="75.509" height="13.962"/>
					<rect x="111.498" y="201.505" style="fill:#130F40;" width="80.541" height="7.589"/>
					<rect x="133.413" y="125.325" style="fill:#130F40;" width="55.225" height="8.649"/>
					<rect x="118.826" y="125.325" style="fill:#7BEB9D;" width="0.968" height="8.649"/>
					<rect x="121.856" y="125.325" style="fill:#7BEB9D;" width="0.97" height="8.649"/>
					<rect x="124.89" y="125.325" style="fill:#7BEB9D;" width="0.967" height="8.649"/>
					<rect x="128.442" y="125.325" style="fill:#2DADE0;" width="0.969" height="8.649"/>
					<g>
						<rect x="118.826" y="153.457" style="fill:#7BEB9D;" width="0.968" height="2.315"/>
						<rect x="121.856" y="153.457" style="fill:#7BEB9D;" width="0.97" height="2.315"/>
						<rect x="124.89" y="153.457" style="fill:#7BEB9D;" width="0.967" height="2.315"/>
						<rect x="128.442" y="153.457" style="fill:#2DADE0;" width="0.969" height="2.315"/>
						<rect x="118.826" y="158.919" style="fill:#7BEB9D;" width="0.968" height="2.316"/>
						<rect x="121.856" y="158.919" style="fill:#7BEB9D;" width="0.97" height="2.316"/>
						<rect x="124.89" y="158.919" style="fill:#7BEB9D;" width="0.967" height="2.316"/>
						<rect x="128.442" y="158.919" style="fill:#2DADE0;" width="0.969" height="2.316"/>
					</g>
					<g>
						<rect x="118.826" y="169.467" style="fill:#7BEB9D;" width="0.968" height="2.313"/>
						<rect x="121.856" y="169.467" style="fill:#7BEB9D;" width="0.97" height="2.313"/>
						<rect x="124.89" y="169.467" style="fill:#7BEB9D;" width="0.967" height="2.313"/>
						<rect x="128.442" y="169.467" style="fill:#2DADE0;" width="0.969" height="2.313"/>
						<rect x="118.826" y="174.93" style="fill:#7BEB9D;" width="0.968" height="2.315"/>
						<rect x="121.856" y="174.93" style="fill:#7BEB9D;" width="0.97" height="2.315"/>
						<rect x="124.89" y="174.93" style="fill:#7BEB9D;" width="0.967" height="2.315"/>
						<rect x="128.442" y="174.93" style="fill:#2DADE0;" width="0.969" height="2.315"/>
					</g>
					<g>
						<rect x="118.826" y="187.68" style="fill:#7BEB9D;" width="0.968" height="2.313"/>
						<rect x="121.856" y="187.68" style="fill:#7BEB9D;" width="0.97" height="2.313"/>
						<rect x="124.89" y="187.68" style="fill:#7BEB9D;" width="0.967" height="2.313"/>
						<rect x="128.442" y="187.68" style="fill:#2DADE0;" width="0.969" height="2.313"/>
						<rect x="118.826" y="193.142" style="fill:#7BEB9D;" width="0.968" height="2.314"/>
						<rect x="121.856" y="193.142" style="fill:#7BEB9D;" width="0.97" height="2.314"/>
						<rect x="124.89" y="193.142" style="fill:#7BEB9D;" width="0.967" height="2.314"/>
						<rect x="128.442" y="193.142" style="fill:#2DADE0;" width="0.969" height="2.314"/>
					</g>
					<g>
						<rect x="118.826" y="214.994" style="fill:#7BEB9D;" width="0.968" height="2.313"/>
						<rect x="121.856" y="214.994" style="fill:#7BEB9D;" width="0.97" height="2.313"/>
						<rect x="124.89" y="214.994" style="fill:#7BEB9D;" width="0.967" height="2.313"/>
						<rect x="128.442" y="214.994" style="fill:#2DADE0;" width="0.969" height="2.313"/>
						<rect x="118.826" y="220.457" style="fill:#7BEB9D;" width="0.968" height="2.316"/>
						<rect x="121.856" y="220.457" style="fill:#7BEB9D;" width="0.97" height="2.316"/>
						<rect x="124.89" y="220.457" style="fill:#7BEB9D;" width="0.967" height="2.316"/>
						<rect x="128.442" y="220.457" style="fill:#2DADE0;" width="0.969" height="2.316"/>
					</g>
					<g>
						<rect x="118.826" y="231.385" style="fill:#7BEB9D;" width="0.968" height="2.316"/>
						<rect x="121.856" y="231.385" style="fill:#7BEB9D;" width="0.97" height="2.316"/>
						<rect x="124.89" y="231.385" style="fill:#7BEB9D;" width="0.967" height="2.316"/>
						<rect x="128.442" y="231.385" style="fill:#2DADE0;" width="0.969" height="2.316"/>
						<rect x="118.826" y="236.85" style="fill:#7BEB9D;" width="0.968" height="2.313"/>
						<rect x="121.856" y="236.85" style="fill:#7BEB9D;" width="0.97" height="2.313"/>
						<rect x="124.89" y="236.85" style="fill:#7BEB9D;" width="0.967" height="2.313"/>
						<rect x="128.442" y="236.85" style="fill:#2DADE0;" width="0.969" height="2.313"/>
					</g>
					<g>
						<rect x="118.826" y="247.773" style="fill:#7BEB9D;" width="0.968" height="2.316"/>
						<rect x="121.856" y="247.773" style="fill:#7BEB9D;" width="0.97" height="2.316"/>
						<rect x="124.89" y="247.773" style="fill:#7BEB9D;" width="0.967" height="2.316"/>
						<rect x="128.442" y="247.773" style="fill:#2DADE0;" width="0.969" height="2.316"/>
						<rect x="118.826" y="253.239" style="fill:#7BEB9D;" width="0.968" height="2.314"/>
						<rect x="121.856" y="253.239" style="fill:#7BEB9D;" width="0.97" height="2.314"/>
						<rect x="124.89" y="253.239" style="fill:#7BEB9D;" width="0.967" height="2.314"/>
						<rect x="128.442" y="253.239" style="fill:#2DADE0;" width="0.969" height="2.314"/>
					</g>
					<g>
						<rect x="118.826" y="264.165" style="fill:#7BEB9D;" width="0.968" height="2.314"/>
						<rect x="121.856" y="264.165" style="fill:#7BEB9D;" width="0.97" height="2.314"/>
						<rect x="124.89" y="264.165" style="fill:#7BEB9D;" width="0.967" height="2.314"/>
						<rect x="128.442" y="264.165" style="fill:#2DADE0;" width="0.969" height="2.314"/>
						<rect x="118.826" y="269.626" style="fill:#7BEB9D;" width="0.968" height="2.316"/>
						<rect x="121.856" y="269.626" style="fill:#7BEB9D;" width="0.97" height="2.316"/>
						<rect x="124.89" y="269.626" style="fill:#7BEB9D;" width="0.967" height="2.316"/>
						<rect x="128.442" y="269.626" style="fill:#2DADE0;" width="0.969" height="2.316"/>
					</g>
					<rect x="133.413" y="152.64" style="fill:#130F40;" width="55.225" height="8.651"/>
					<rect x="133.413" y="169.031" style="fill:#130F40;" width="55.225" height="8.649"/>
					<rect x="133.413" y="187.241" style="fill:#130F40;" width="55.225" height="8.65"/>
					<rect x="133.413" y="214.559" style="fill:#130F40;" width="55.225" height="8.649"/>
					<rect x="133.413" y="230.947" style="fill:#130F40;" width="55.225" height="8.652"/>
					<rect x="133.413" y="247.339" style="fill:#130F40;" width="55.225" height="8.648"/>
					<rect x="133.413" y="263.728" style="fill:#130F40;" width="55.225" height="8.649"/>
					<rect x="135.595" y="127.45" style="fill:#2DADE0;" width="50.859" height="1.517"/>
					<rect x="135.595" y="130.029" style="fill:#2DADE0;" width="50.859" height="1.519"/>
					<rect x="135.595" y="154.765" style="fill:#2DADE0;" width="50.859" height="1.518"/>
					<rect x="135.595" y="157.346" style="fill:#2DADE0;" width="50.859" height="1.518"/>
					<rect x="135.595" y="171.156" style="fill:#2DADE0;" width="50.859" height="1.518"/>
					<rect x="135.595" y="173.734" style="fill:#2DADE0;" width="50.859" height="1.518"/>
					<rect x="135.595" y="189.366" style="fill:#2DADE0;" width="50.859" height="1.517"/>
					<rect x="135.595" y="191.945" style="fill:#2DADE0;" width="50.859" height="1.52"/>
					<rect x="135.595" y="216.682" style="fill:#2DADE0;" width="50.859" height="1.52"/>
					<rect x="135.595" y="219.262" style="fill:#2DADE0;" width="50.859" height="1.518"/>
					<rect x="135.595" y="233.07" style="fill:#2DADE0;" width="50.859" height="1.52"/>
					<rect x="135.595" y="235.654" style="fill:#2DADE0;" width="50.859" height="1.518"/>
					<rect x="135.595" y="249.464" style="fill:#2DADE0;" width="50.859" height="1.517"/>
					<rect x="135.595" y="252.043" style="fill:#2DADE0;" width="50.859" height="1.519"/>
					<rect x="135.595" y="265.852" style="fill:#2DADE0;" width="50.859" height="1.518"/>
					<rect x="135.595" y="268.433" style="fill:#2DADE0;" width="50.859" height="1.518"/>
					<rect x="113.459" y="141.752" style="fill:#2DADE0;" width="76.951" height="3.756"/>
					<rect x="114.902" y="142.89" style="fill:#FE839C;" width="74.29" height="1.367"/>
					<rect x="113.945" y="203.669" style="fill:#2DADE0;" width="76.359" height="3.755"/>
					<rect x="115.379" y="204.809" style="fill:#FE839C;" width="73.713" height="1.364"/>
				</g>
				<rect x="197.023" y="115.091" style="fill:#2F3543;" width="24.317" height="167.671"/>
			</g>
		</g>
		<g>
			<rect x="207.917" y="167.14" style="fill:#6265D8;" width="54.264" height="114.627"/>
			<rect x="249.52" y="167.14" style="fill:#4F58C1;" width="18.581" height="114.54"/>
			<g>
				<rect x="211.913" y="171.969" style="fill:#130F40;" width="33.767" height="4.675"/>
				<path style="fill:#2DADE0;" d="M215.117,174.322c0,0.59-0.436,1.069-0.972,1.069c-0.54,0-0.976-0.48-0.976-1.069
					c0-0.592,0.435-1.069,0.976-1.069C214.681,173.252,215.117,173.73,215.117,174.322z"/>
				<path style="fill:#2DADE0;" d="M218.235,174.322c0,0.59-0.438,1.069-0.974,1.069c-0.537,0-0.973-0.48-0.973-1.069
					c0-0.592,0.436-1.069,0.973-1.069C217.796,173.252,218.235,173.73,218.235,174.322z"/>
				<path style="fill:#2DADE0;" d="M221.35,174.322c0,0.59-0.435,1.069-0.974,1.069c-0.537,0-0.973-0.48-0.973-1.069
					c0-0.592,0.436-1.069,0.973-1.069C220.915,173.252,221.35,173.73,221.35,174.322z"/>
				<rect x="223.299" y="173.252" style="fill:#FE839C;" width="21.039" height="2.139"/>
				<rect x="211.913" y="177.67" style="fill:#130F40;" width="33.767" height="4.676"/>
				<path style="fill:#2DADE0;" d="M215.117,180.024c0,0.59-0.436,1.069-0.972,1.069c-0.54,0-0.976-0.479-0.976-1.069
					c0-0.591,0.435-1.069,0.976-1.069C214.681,178.955,215.117,179.434,215.117,180.024z"/>
				<path style="fill:#2DADE0;" d="M218.235,180.024c0,0.59-0.438,1.069-0.974,1.069c-0.537,0-0.973-0.479-0.973-1.069
					c0-0.591,0.436-1.069,0.973-1.069C217.796,178.955,218.235,179.434,218.235,180.024z"/>
				<path style="fill:#2DADE0;" d="M221.35,180.024c0,0.59-0.435,1.069-0.974,1.069c-0.537,0-0.973-0.479-0.973-1.069
					c0-0.591,0.436-1.069,0.973-1.069C220.915,178.955,221.35,179.434,221.35,180.024z"/>
				<rect x="242.39" y="178.955" style="fill:#FE839C;" width="1.948" height="2.139"/>
				<rect x="232.605" y="178.955" style="fill:#FE839C;" width="8.399" height="2.139"/>
				<rect x="223.299" y="178.955" style="fill:#FE839C;" width="7.318" height="2.139"/>
				<rect x="211.913" y="184.516" style="fill:#130F40;" width="33.767" height="8.71"/>
				<rect x="213.169" y="186.31" style="fill:#2DADE0;" width="31.168" height="1.007"/>
				<rect x="213.169" y="188.367" style="fill:#2DADE0;" width="31.168" height="1.005"/>
				<rect x="213.169" y="190.427" style="fill:#2DADE0;" width="31.168" height="1.002"/>
			</g>
			<g>
				<rect x="211.913" y="196.085" style="fill:#130F40;" width="33.767" height="4.676"/>
				<path style="fill:#2DADE0;" d="M215.117,198.439c0,0.591-0.436,1.069-0.972,1.069c-0.54,0-0.976-0.479-0.976-1.069
					c0-0.59,0.435-1.068,0.976-1.068C214.681,197.37,215.117,197.849,215.117,198.439z"/>
				<path style="fill:#2DADE0;" d="M218.235,198.439c0,0.591-0.438,1.069-0.974,1.069c-0.537,0-0.973-0.479-0.973-1.069
					c0-0.59,0.436-1.068,0.973-1.068C217.796,197.37,218.235,197.849,218.235,198.439z"/>
				<path style="fill:#2DADE0;" d="M221.35,198.439c0,0.591-0.435,1.069-0.974,1.069c-0.537,0-0.973-0.479-0.973-1.069
					c0-0.59,0.436-1.068,0.973-1.068C220.915,197.37,221.35,197.849,221.35,198.439z"/>
				<rect x="223.299" y="197.37" style="fill:#FE839C;" width="21.039" height="2.138"/>
				<rect x="211.913" y="201.788" style="fill:#130F40;" width="33.767" height="4.676"/>
				<path style="fill:#2DADE0;" d="M215.117,204.143c0,0.591-0.436,1.068-0.972,1.068c-0.54,0-0.976-0.477-0.976-1.068
					c0-0.592,0.435-1.069,0.976-1.069C214.681,203.073,215.117,203.551,215.117,204.143z"/>
				<path style="fill:#2DADE0;" d="M218.235,204.143c0,0.591-0.438,1.068-0.974,1.068c-0.537,0-0.973-0.477-0.973-1.068
					c0-0.592,0.436-1.069,0.973-1.069C217.796,203.073,218.235,203.551,218.235,204.143z"/>
				<path style="fill:#2DADE0;" d="M221.35,204.143c0,0.591-0.435,1.068-0.974,1.068c-0.537,0-0.973-0.477-0.973-1.068
					c0-0.592,0.436-1.069,0.973-1.069C220.915,203.073,221.35,203.551,221.35,204.143z"/>
				<rect x="242.39" y="203.073" style="fill:#FE839C;" width="1.948" height="2.138"/>
				<rect x="232.605" y="203.073" style="fill:#FE839C;" width="8.399" height="2.138"/>
				<rect x="223.299" y="203.073" style="fill:#FE839C;" width="7.318" height="2.138"/>
				<rect x="211.913" y="208.633" style="fill:#130F40;" width="33.767" height="8.713"/>
				<rect x="213.169" y="210.428" style="fill:#2DADE0;" width="31.168" height="1.004"/>
				<rect x="213.169" y="212.484" style="fill:#2DADE0;" width="31.168" height="1.008"/>
				<rect x="213.169" y="214.544" style="fill:#2DADE0;" width="31.168" height="1.003"/>
			</g>
			<g>
				<rect x="211.913" y="220.204" style="fill:#130F40;" width="33.767" height="4.674"/>
				<path style="fill:#2DADE0;" d="M215.117,222.556c0,0.591-0.436,1.07-0.972,1.07c-0.54,0-0.976-0.479-0.976-1.07
					c0-0.589,0.435-1.067,0.976-1.067C214.681,221.488,215.117,221.967,215.117,222.556z"/>
				<path style="fill:#2DADE0;" d="M218.235,222.556c0,0.591-0.438,1.07-0.974,1.07c-0.537,0-0.973-0.479-0.973-1.07
					c0-0.589,0.436-1.067,0.973-1.067C217.796,221.488,218.235,221.967,218.235,222.556z"/>
				<path style="fill:#2DADE0;" d="M221.35,222.556c0,0.591-0.435,1.07-0.974,1.07c-0.537,0-0.973-0.479-0.973-1.07
					c0-0.589,0.436-1.067,0.973-1.067C220.915,221.488,221.35,221.967,221.35,222.556z"/>
				<rect x="223.299" y="221.488" style="fill:#FE839C;" width="21.039" height="2.138"/>
				<rect x="211.913" y="225.904" style="fill:#130F40;" width="33.767" height="4.676"/>
				<path style="fill:#2DADE0;" d="M215.117,228.258c0,0.593-0.436,1.07-0.972,1.07c-0.54,0-0.976-0.478-0.976-1.07
					c0-0.588,0.435-1.069,0.976-1.069C214.681,227.189,215.117,227.67,215.117,228.258z"/>
				<path style="fill:#2DADE0;" d="M218.235,228.258c0,0.593-0.438,1.07-0.974,1.07c-0.537,0-0.973-0.478-0.973-1.07
					c0-0.588,0.436-1.069,0.973-1.069C217.796,227.189,218.235,227.67,218.235,228.258z"/>
				<path style="fill:#2DADE0;" d="M221.35,228.258c0,0.593-0.435,1.07-0.974,1.07c-0.537,0-0.973-0.478-0.973-1.07
					c0-0.588,0.436-1.069,0.973-1.069C220.915,227.189,221.35,227.67,221.35,228.258z"/>
				<rect x="242.39" y="227.189" style="fill:#FE839C;" width="1.948" height="2.14"/>
				<rect x="232.605" y="227.189" style="fill:#FE839C;" width="8.399" height="2.14"/>
				<rect x="223.299" y="227.189" style="fill:#FE839C;" width="7.318" height="2.14"/>
				<rect x="211.913" y="232.75" style="fill:#130F40;" width="33.767" height="8.711"/>
				<rect x="213.169" y="234.545" style="fill:#2DADE0;" width="31.168" height="1.006"/>
				<rect x="213.169" y="236.604" style="fill:#2DADE0;" width="31.168" height="1.004"/>
				<rect x="213.169" y="238.663" style="fill:#2DADE0;" width="31.168" height="1.002"/>
			</g>
			<g>
				<rect x="211.913" y="244.319" style="fill:#130F40;" width="33.767" height="4.676"/>
				<path style="fill:#2DADE0;" d="M215.117,246.673c0,0.59-0.436,1.07-0.972,1.07c-0.54,0-0.976-0.48-0.976-1.07
					c0-0.593,0.435-1.067,0.976-1.067C214.681,245.606,215.117,246.08,215.117,246.673z"/>
				<path style="fill:#2DADE0;" d="M218.235,246.673c0,0.59-0.438,1.07-0.974,1.07c-0.537,0-0.973-0.48-0.973-1.07
					c0-0.593,0.436-1.067,0.973-1.067C217.796,245.606,218.235,246.08,218.235,246.673z"/>
				<path style="fill:#2DADE0;" d="M221.35,246.673c0,0.59-0.435,1.07-0.974,1.07c-0.537,0-0.973-0.48-0.973-1.07
					c0-0.593,0.436-1.067,0.973-1.067C220.915,245.606,221.35,246.08,221.35,246.673z"/>
				<rect x="223.299" y="245.606" style="fill:#FE839C;" width="21.039" height="2.138"/>
				<rect x="211.913" y="250.021" style="fill:#130F40;" width="33.767" height="4.676"/>
				<path style="fill:#2DADE0;" d="M215.117,252.375c0,0.592-0.436,1.068-0.972,1.068c-0.54,0-0.976-0.477-0.976-1.068
					c0-0.589,0.435-1.068,0.976-1.068C214.681,251.307,215.117,251.786,215.117,252.375z"/>
				<path style="fill:#2DADE0;" d="M218.235,252.375c0,0.592-0.438,1.068-0.974,1.068c-0.537,0-0.973-0.477-0.973-1.068
					c0-0.589,0.436-1.068,0.973-1.068C217.796,251.307,218.235,251.786,218.235,252.375z"/>
				<path style="fill:#2DADE0;" d="M221.35,252.375c0,0.592-0.435,1.068-0.974,1.068c-0.537,0-0.973-0.477-0.973-1.068
					c0-0.589,0.436-1.068,0.973-1.068C220.915,251.307,221.35,251.786,221.35,252.375z"/>
				<rect x="242.39" y="251.307" style="fill:#FE839C;" width="1.948" height="2.137"/>
				<rect x="232.605" y="251.307" style="fill:#FE839C;" width="8.399" height="2.137"/>
				<rect x="223.299" y="251.307" style="fill:#FE839C;" width="7.318" height="2.137"/>
				<rect x="211.913" y="256.867" style="fill:#130F40;" width="33.767" height="8.711"/>
				<rect x="213.169" y="258.664" style="fill:#2DADE0;" width="31.168" height="1.003"/>
				<rect x="213.169" y="260.719" style="fill:#2DADE0;" width="31.168" height="1.004"/>
				<rect x="213.169" y="262.778" style="fill:#2DADE0;" width="31.168" height="1.003"/>
			</g>
			<rect x="207.917" y="269.237" style="fill:#7880EA;" width="41.603" height="12.442"/>
			<rect x="249.52" y="269.237" style="fill:#424FAD;" width="18.581" height="12.442"/>
		</g>
		<g>
			<rect x="469.609" y="130.578" style="fill:#BFACF7;" width="47.111" height="148.46"/>
			<rect x="471.32" y="134.663" style="fill:#B47BED;" width="42.842" height="11.741"/>
			<rect x="475.422" y="146.404" style="fill:#B47BED;" width="38.74" height="12.279"/>
			<rect x="475.422" y="160.815" style="fill:#B47BED;" width="38.74" height="12.275"/>
			<rect x="475.422" y="175.231" style="fill:#B47BED;" width="38.74" height="12.271"/>
			<rect x="475.422" y="189.634" style="fill:#B47BED;" width="38.74" height="12.28"/>
			<rect x="472.84" y="137.197" style="fill:#130F40;" width="41.322" height="6.668"/>
			<g>
				<rect x="476.6" y="149.059" style="fill:#7BEB9D;" width="0.498" height="2.032"/>
				<rect x="478.156" y="149.059" style="fill:#7BEB9D;" width="0.496" height="2.032"/>
				<rect x="479.711" y="149.059" style="fill:#7BEB9D;" width="0.498" height="2.032"/>
				<rect x="481.535" y="149.059" style="fill:#2DADE0;" width="0.494" height="2.032"/>
				<rect x="476.6" y="153.86" style="fill:#7BEB9D;" width="0.498" height="2.033"/>
				<rect x="478.156" y="153.86" style="fill:#7BEB9D;" width="0.496" height="2.033"/>
				<rect x="479.711" y="153.86" style="fill:#7BEB9D;" width="0.498" height="2.033"/>
				<rect x="481.535" y="153.86" style="fill:#2DADE0;" width="0.494" height="2.033"/>
			</g>
			<g>
				<rect x="476.6" y="163.465" style="fill:#7BEB9D;" width="0.498" height="2.037"/>
				<rect x="478.156" y="163.465" style="fill:#7BEB9D;" width="0.496" height="2.037"/>
				<rect x="479.711" y="163.465" style="fill:#7BEB9D;" width="0.498" height="2.037"/>
				<rect x="481.535" y="163.465" style="fill:#2DADE0;" width="0.494" height="2.037"/>
				<rect x="476.6" y="168.273" style="fill:#7BEB9D;" width="0.498" height="2.027"/>
				<rect x="478.156" y="168.273" style="fill:#7BEB9D;" width="0.496" height="2.027"/>
				<rect x="479.711" y="168.273" style="fill:#7BEB9D;" width="0.498" height="2.027"/>
				<rect x="481.535" y="168.273" style="fill:#2DADE0;" width="0.494" height="2.027"/>
			</g>
			<g>
				<rect x="476.6" y="177.881" style="fill:#7BEB9D;" width="0.498" height="2.032"/>
				<rect x="478.156" y="177.881" style="fill:#7BEB9D;" width="0.496" height="2.032"/>
				<rect x="479.711" y="177.881" style="fill:#7BEB9D;" width="0.498" height="2.032"/>
				<rect x="481.535" y="177.881" style="fill:#2DADE0;" width="0.494" height="2.032"/>
				<rect x="476.6" y="182.679" style="fill:#7BEB9D;" width="0.498" height="2.036"/>
				<rect x="478.156" y="182.679" style="fill:#7BEB9D;" width="0.496" height="2.036"/>
				<rect x="479.711" y="182.679" style="fill:#7BEB9D;" width="0.498" height="2.036"/>
				<rect x="481.535" y="182.679" style="fill:#2DADE0;" width="0.494" height="2.036"/>
			</g>
			<g>
				<rect x="476.6" y="192.288" style="fill:#7BEB9D;" width="0.498" height="2.032"/>
				<rect x="478.156" y="192.288" style="fill:#7BEB9D;" width="0.496" height="2.032"/>
				<rect x="479.711" y="192.288" style="fill:#7BEB9D;" width="0.498" height="2.032"/>
				<rect x="481.535" y="192.288" style="fill:#2DADE0;" width="0.494" height="2.032"/>
				<rect x="476.6" y="197.095" style="fill:#7BEB9D;" width="0.498" height="2.036"/>
				<rect x="478.156" y="197.095" style="fill:#7BEB9D;" width="0.496" height="2.036"/>
				<rect x="479.711" y="197.095" style="fill:#7BEB9D;" width="0.498" height="2.036"/>
				<rect x="481.535" y="197.095" style="fill:#2DADE0;" width="0.494" height="2.036"/>
			</g>
			<rect x="484.084" y="148.673" style="fill:#130F40;" width="28.332" height="7.605"/>
			<rect x="484.084" y="163.08" style="fill:#130F40;" width="28.332" height="7.609"/>
			<rect x="484.084" y="177.496" style="fill:#130F40;" width="28.332" height="7.601"/>
			<rect x="484.084" y="191.902" style="fill:#130F40;" width="28.332" height="7.606"/>
			<rect x="485.203" y="150.543" style="fill:#2DADE0;" width="26.094" height="1.332"/>
			<rect x="485.203" y="152.808" style="fill:#2DADE0;" width="26.094" height="1.335"/>
			<rect x="485.203" y="164.95" style="fill:#2DADE0;" width="26.094" height="1.335"/>
			<rect x="485.203" y="167.215" style="fill:#2DADE0;" width="26.094" height="1.339"/>
			<rect x="485.203" y="179.366" style="fill:#2DADE0;" width="26.094" height="1.33"/>
			<rect x="485.203" y="181.63" style="fill:#2DADE0;" width="26.094" height="1.331"/>
			<rect x="485.203" y="193.769" style="fill:#2DADE0;" width="26.094" height="1.34"/>
			<rect x="485.203" y="196.042" style="fill:#2DADE0;" width="26.094" height="1.335"/>
			<rect x="474.096" y="139.097" style="fill:#2DADE0;" width="39.178" height="3.301"/>
			<rect x="474.832" y="140.096" style="fill:#FE839C;" width="37.818" height="1.207"/>
			<rect x="471.32" y="205.008" style="fill:#B47BED;" width="42.842" height="11.736"/>
			<rect x="475.422" y="216.744" style="fill:#B47BED;" width="38.74" height="12.28"/>
			<rect x="475.422" y="231.159" style="fill:#B47BED;" width="38.74" height="12.275"/>
			<rect x="475.422" y="245.567" style="fill:#B47BED;" width="38.74" height="12.278"/>
			<rect x="475.422" y="259.978" style="fill:#B47BED;" width="38.74" height="12.28"/>
			<rect x="472.84" y="207.541" style="fill:#130F40;" width="41.322" height="6.669"/>
			<g>
				<rect x="476.6" y="219.398" style="fill:#7BEB9D;" width="0.498" height="2.031"/>
				<rect x="478.156" y="219.398" style="fill:#7BEB9D;" width="0.496" height="2.031"/>
				<rect x="479.711" y="219.398" style="fill:#7BEB9D;" width="0.498" height="2.031"/>
				<rect x="481.535" y="219.398" style="fill:#2DADE0;" width="0.494" height="2.031"/>
				<rect x="476.6" y="224.204" style="fill:#7BEB9D;" width="0.498" height="2.033"/>
				<rect x="478.156" y="224.204" style="fill:#7BEB9D;" width="0.496" height="2.033"/>
				<rect x="479.711" y="224.204" style="fill:#7BEB9D;" width="0.498" height="2.033"/>
				<rect x="481.535" y="224.204" style="fill:#2DADE0;" width="0.494" height="2.033"/>
			</g>
			<g>
				<rect x="476.6" y="233.81" style="fill:#7BEB9D;" width="0.498" height="2.031"/>
				<rect x="478.156" y="233.81" style="fill:#7BEB9D;" width="0.496" height="2.031"/>
				<rect x="479.711" y="233.81" style="fill:#7BEB9D;" width="0.498" height="2.031"/>
				<rect x="481.535" y="233.81" style="fill:#2DADE0;" width="0.494" height="2.031"/>
				<rect x="476.6" y="238.616" style="fill:#7BEB9D;" width="0.498" height="2.032"/>
				<rect x="478.156" y="238.616" style="fill:#7BEB9D;" width="0.496" height="2.032"/>
				<rect x="479.711" y="238.616" style="fill:#7BEB9D;" width="0.498" height="2.032"/>
				<rect x="481.535" y="238.616" style="fill:#2DADE0;" width="0.494" height="2.032"/>
			</g>
			<g>
				<rect x="476.6" y="248.221" style="fill:#7BEB9D;" width="0.498" height="2.032"/>
				<rect x="478.156" y="248.221" style="fill:#7BEB9D;" width="0.496" height="2.032"/>
				<rect x="479.711" y="248.221" style="fill:#7BEB9D;" width="0.498" height="2.032"/>
				<rect x="481.535" y="248.221" style="fill:#2DADE0;" width="0.494" height="2.032"/>
				<rect x="476.6" y="253.023" style="fill:#7BEB9D;" width="0.498" height="2.036"/>
				<rect x="478.156" y="253.023" style="fill:#7BEB9D;" width="0.496" height="2.036"/>
				<rect x="479.711" y="253.023" style="fill:#7BEB9D;" width="0.498" height="2.036"/>
				<rect x="481.535" y="253.023" style="fill:#2DADE0;" width="0.494" height="2.036"/>
			</g>
			<g>
				<rect x="476.6" y="262.632" style="fill:#7BEB9D;" width="0.498" height="2.037"/>
				<rect x="478.156" y="262.632" style="fill:#7BEB9D;" width="0.496" height="2.037"/>
				<rect x="479.711" y="262.632" style="fill:#7BEB9D;" width="0.498" height="2.037"/>
				<rect x="481.535" y="262.632" style="fill:#2DADE0;" width="0.494" height="2.037"/>
				<rect x="476.6" y="267.435" style="fill:#7BEB9D;" width="0.498" height="2.037"/>
				<rect x="478.156" y="267.435" style="fill:#7BEB9D;" width="0.496" height="2.037"/>
				<rect x="479.711" y="267.435" style="fill:#7BEB9D;" width="0.498" height="2.037"/>
				<rect x="481.535" y="267.435" style="fill:#2DADE0;" width="0.494" height="2.037"/>
			</g>
			<rect x="484.084" y="219.012" style="fill:#130F40;" width="28.332" height="7.61"/>
			<rect x="484.084" y="233.424" style="fill:#130F40;" width="28.332" height="7.61"/>
			<rect x="484.084" y="247.84" style="fill:#130F40;" width="28.332" height="7.601"/>
			<rect x="484.084" y="262.246" style="fill:#130F40;" width="28.332" height="7.606"/>
			<rect x="485.203" y="220.883" style="fill:#2DADE0;" width="26.094" height="1.331"/>
			<rect x="485.203" y="223.151" style="fill:#2DADE0;" width="26.094" height="1.335"/>
			<rect x="485.203" y="235.29" style="fill:#2DADE0;" width="26.094" height="1.34"/>
			<rect x="485.203" y="237.563" style="fill:#2DADE0;" width="26.094" height="1.335"/>
			<rect x="485.203" y="249.705" style="fill:#2DADE0;" width="26.094" height="1.332"/>
			<rect x="485.203" y="251.974" style="fill:#2DADE0;" width="26.094" height="1.332"/>
			<rect x="485.203" y="264.116" style="fill:#2DADE0;" width="26.094" height="1.337"/>
			<rect x="485.203" y="266.381" style="fill:#2DADE0;" width="26.094" height="1.34"/>
			<rect x="474.096" y="209.445" style="fill:#2DADE0;" width="39.178" height="3.301"/>
			<rect x="474.832" y="210.44" style="fill:#FE839C;" width="37.818" height="1.199"/>
			<rect x="516.721" y="130.578" style="fill:#9E6ADB;" width="9.832" height="148.46"/>
		</g>
		<path style="fill:#DBD4F9;" d="M106.293,129.846c-1.41,0-2.719,0.425-3.812,1.152c-1.753-2.993-4.994-5.01-8.715-5.01
			c-0.574,0-1.134,0.059-1.683,0.153c-2.114-4.057-6.355-6.827-11.246-6.827c-7.004,0-12.683,5.679-12.683,12.682
			c0,0.162,0.006,0.322,0.011,0.482c-2.551,0.97-4.38,3.392-4.479,6.261h6.411h13.925h15.662h13.212
			c0.19-0.632,0.296-1.299,0.296-1.991C113.194,132.937,110.105,129.846,106.293,129.846z"/>
		<path style="fill:#DBD4F9;" d="M462.656,96.95c-1.771,0-3.414,0.534-4.787,1.446c-2.201-3.758-6.27-6.29-10.941-6.29
			c-0.721,0-1.424,0.074-2.113,0.191c-2.656-5.093-7.98-8.571-14.121-8.571c-8.793,0-15.924,7.13-15.924,15.924
			c0,0.203,0.008,0.404,0.014,0.605c-3.203,1.218-5.5,4.26-5.623,7.862h8.049h17.486h19.664h16.59
			c0.238-0.794,0.371-1.631,0.371-2.5C471.32,100.83,467.441,96.95,462.656,96.95z"/>
		<path style="fill:#DBD4F9;" d="M397.514,74.322c-1.492,0-2.875,0.45-4.031,1.218c-1.853-3.165-5.279-5.296-9.215-5.296
			c-0.605,0-1.199,0.062-1.779,0.161c-2.236-4.289-6.719-7.218-11.891-7.218c-7.404,0-13.41,6.004-13.41,13.409
			c0,0.171,0.008,0.34,0.014,0.51c-2.697,1.026-4.633,3.587-4.736,6.621h6.777h14.725h16.56h13.969
			c0.201-0.668,0.314-1.373,0.314-2.105C404.81,77.59,401.543,74.322,397.514,74.322z"/>
		<g>
			<path style="fill:#EDEDED;" d="M68.896,260.343c5.322,2.73,13.5,5.448,21.932,5.448c9.089,0,13.893-3.754,13.893-9.468
				c0-5.448-4.159-8.559-14.675-12.326c-14.526-5.067-24.006-13.106-24.006-25.825c0-14.929,12.464-26.344,33.106-26.344
				c9.86,0,17.118,2.073,22.313,4.411l-4.412,15.967c-3.502-1.693-9.734-4.159-18.292-4.159c-8.571,0-12.717,3.894-12.717,8.443
				c0,5.575,4.931,8.041,16.22,12.326c15.435,5.701,22.704,13.753,22.704,26.078c0,14.664-11.289,27.128-35.294,27.128
				c-9.987,0-19.859-2.603-24.789-5.32L68.896,260.343z"/>
			<path style="fill:#EDEDED;" d="M192.945,243.733H160.76v20.769h35.951v16.22h-55.799v-87.465h53.978v16.219H160.76v18.165h32.185
				V243.733z"/>
			<path style="fill:#EDEDED;" d="M212.792,194.419c6.359-1.035,15.828-1.808,26.333-1.808c12.982,0,22.07,1.947,28.291,6.877
				c5.196,4.147,8.052,10.251,8.052,18.293c0,11.162-7.914,18.821-15.447,21.541v0.392c6.105,2.464,9.468,8.305,11.68,16.356
				c2.718,9.859,5.46,21.275,7.142,24.651h-20.25c-1.429-2.466-3.502-9.607-6.094-20.379c-2.339-10.896-6.093-13.879-14.145-14.007
				h-5.979v34.386h-19.583V194.419z M232.374,232.054h7.788c9.871,0,15.711-4.932,15.711-12.579c0-8.053-5.46-12.072-14.537-12.198
				c-4.803,0-7.533,0.379-8.962,0.645V232.054z"/>
			<path style="fill:#EDEDED;" d="M312.178,280.722l-28.025-87.465h21.668l10.643,36.987c2.984,10.379,5.715,20.366,7.787,31.275
				h0.392c2.211-10.518,4.93-20.896,7.912-30.895l11.162-37.367h21.023l-29.455,87.465H312.178z"/>
			<path style="fill:#EDEDED;" d="M428.691,243.733H396.51v20.769h35.951v16.22h-55.797v-87.465h53.977v16.219H396.51v18.165h32.182
				V243.733z"/>
			<path style="fill:#EDEDED;" d="M448.541,194.419c6.359-1.035,15.826-1.808,26.344-1.808c12.982,0,22.059,1.947,28.291,6.877
				c5.195,4.147,8.051,10.251,8.051,18.293c0,11.162-7.924,18.821-15.457,21.541v0.392c6.105,2.464,9.478,8.305,11.68,16.356
				c2.73,9.859,5.459,21.275,7.141,24.651h-20.238c-1.43-2.466-3.514-9.607-6.094-20.379c-2.348-10.896-6.105-13.879-14.145-14.007
				h-5.978v34.386h-19.594V194.419z M468.135,232.054h7.787c9.871,0,15.701-4.932,15.701-12.579c0-8.053-5.449-12.072-14.539-12.198
				c-4.791,0-7.521,0.379-8.949,0.645V232.054z"/>
			<rect x="140.913" y="193.257" style="fill:#EDEDED;" width="14.033" height="57.625"/>
		</g>
		<g>
			<path style="fill:#6D1F48;" d="M84.59,256.643c0,1.241-6.867,2.248-15.339,2.248c-8.469,0-15.335-1.007-15.335-2.248
				c0-1.243,6.866-2.252,15.335-2.252C77.723,254.391,84.59,255.399,84.59,256.643z"/>
			<path style="fill:#6D1F48;" d="M69.251,254.391c-8.469,0-15.335,1.009-15.335,2.252H84.59
				C84.59,255.399,77.723,254.391,69.251,254.391z"/>
			<path style="fill:#7042B2;" d="M61.941,266.377c0,0,9.803-18.029,0-27.108c-9.8-9.084-6.587-21.351-2.787-27.27
				c3.803-5.922,0.35-23.301-10.464-20.183c-10.816,3.111-9.104,25.725-3.977,30.222c9.09,7.979-1.188,22.07,13.761,27.449
				C65.7,252.083,61.941,266.377,61.941,266.377z"/>
			<path style="fill:#E38CDF;" d="M76.159,188.329c-3.409-2.07-10.016-5.368-11.974,6.847c-2.471,15.398,16.996,22.15,10.689,27.374
				c-14.27,11.814-19.378,21.832-10.689,31.841c4.111,4.733,5.925,10.407-1.931,10.58c-7.852,0.171,27.476-1.453,19.413-27.049
				c-1.595-5.069,14.124-14.69,5.764-26.674C82.028,203.511,87.977,195.488,76.159,188.329z"/>
			<path style="fill:#6366DD;" d="M64.816,263.162c0,0,7.193-5.775,1.726-11.223c-11.399-11.35,4.461-16.455-4.36-25.234
				c-8.816-8.779-0.15-21.403,8.863-21.132c2.754,0.086,7.445,0.594,1.333,8.426c-9.999,12.806-0.063,20.543,1.694,24.31
				C77.76,246.23,77.621,258.543,64.816,263.162z"/>
			<path style="fill:#9E7BF3;" d="M71.853,263.563c0,0-5.852-10.756,0-16.179c5.849-5.42,3.93-12.737,1.663-16.273
				c-2.269-3.529-0.207-13.902,6.247-12.045c6.454,1.86,5.433,15.355,2.372,18.039c-5.425,4.762,0.711,13.171-8.211,16.379
				C69.609,255.035,71.853,263.563,71.853,263.563z"/>
			<path style="fill:#99305E;" d="M69.251,258.891c-8.469,0-15.335-1.007-15.335-2.248l3.27,27.198
				c0,1.243,5.402,2.252,12.066,2.252c6.667,0,12.07-1.009,12.07-2.252l3.269-27.198C84.59,257.884,77.723,258.891,69.251,258.891z"
				/>
		</g>
		<g>
			<g>
				<g>
					<path style="fill:#F9B5A0;" d="M243.204,170.75c0.553,7.014,3.203,21.461,6.186,20.475c2.978-0.982,4.328-2.534,2.452-2.439
						c-1.874,0.097-2.003-0.077-2.107-0.612c-0.703-3.384,0.345-10.514,0.124-15.677C249.607,166.511,242.714,164.62,243.204,170.75
						z"/>
					<path style="fill:#7585F8;" d="M247.679,190.278c0,0,2.935,0.174,4.162-1.492c0,0,3.04-0.61,1.462,0.794
						C251.721,190.99,248.396,192.876,247.679,190.278z"/>
				</g>
				<path style="fill:#F28F19;" d="M232.803,157.788c0,0,10.871-4.143,15.036,0.163c3.74,3.877,3.152,24.43,3.152,24.43
					s-2.684,2.531-6.24,2.021l-4.412-14.786c0,0-7.487,1.821-10.763-0.523c-7.77-5.579-1.893-8.536-1.893-8.536L232.803,157.788z"/>
			</g>
			<path style="fill:#E28C71;" d="M226.899,135.195c0.822-0.292,3.45-0.262,4.633,1.929c1.584,2.932,1.604,9.722,5.522,12.123
				c3.929,2.402,6.652,0.909,8.605,0.143c1.956-0.764,2.377-1.985,3.564-2.3c1.189-0.319,1.502,1.106-1.333,3.085
				c-1.357,0.946-7.517,6.422-12.722,4.432C228.352,151.991,221.992,136.914,226.899,135.195z"/>
			<g>
				<g>
					<path style="fill:#F9B5A0;" d="M225.224,176.08c-4.03,5.765-11.164,18.604-8.237,19.739c2.925,1.135,4.951,0.793,3.442-0.325
						c-1.509-1.116-1.497-1.33-1.239-1.813c1.61-3.059,6.948-7.898,10.058-12.025C232.859,176.877,228.739,171.036,225.224,176.08z"
						/>
					<path style="fill:#7585F8;" d="M216.267,194.001c0,0,2.156,2,4.163,1.493c0,0,2.736,1.461,0.623,1.54
						C218.937,197.12,215.17,196.463,216.267,194.001z"/>
				</g>
				<path style="fill:#F4A517;" d="M225.43,159.462c0,0,11.025,3.71,11.505,9.68c0.422,5.372-13.09,20.866-13.09,20.866
					s-3.681,0.251-6.104-2.404l5.992-14.217c0,0-6.939-3.355-7.98-7.247c-2.452-9.243,3.964-7.795,3.964-7.795L225.43,159.462z"/>
			</g>
			<g>
				<polygon style="fill:#191D3A;" points="232.307,165.44 224.487,160.075 238.653,154.679 				"/>
				<polygon style="fill:#252956;" points="236.862,154.426 250.154,150.44 246.073,160.627 232.307,165.44 				"/>
			</g>
			<path style="fill:#EFBEBD;" d="M227.415,134.93c0,0-3.731,0.757-2.77,6.34c0.963,5.583,2.152,7.881,2.152,7.881
				s3.682,0.472,8.643-2.553C235.441,146.599,232.515,133.125,227.415,134.93z"/>
			<path style="fill:#FCDCDA;" d="M232.726,155.906c1.374-4.868,0.687-11.318-0.977-15.878c-2.309-6.325-8.481-5.764-12.13-4.718
				c-3.649,1.051-9.663,2.632-6.358,10.35c2.298,5.385,1.451,9.006,0.497,14.692l0,0c-0.03,0.151-0.063,0.285-0.094,0.431
				c-0.007-0.007-0.018-0.01-0.018-0.01c0.002,0.003,0.011,0.005,0.018,0.01C211.657,167.096,231.17,161.433,232.726,155.906z"/>
			<path style="fill:#E67052;" d="M220.996,130.424c0,0,1.728,2.808-0.186,4.618c-1.967,1.854,6.841,5.349,6.443,3.643
				c-0.517-2.207-1.803-3.404-0.994-6.096L220.996,130.424z"/>
			<path style="fill:#F3B294;" d="M225.092,124.283c2.1,1.579,5.016,9.232,3.22,11.195c-0.796,0.846-4.472,0.391-7.118-2.82
				c-1.087-1.313-2.534-3.851-1.392-6.699C220.317,124.672,222.65,122.445,225.092,124.283z"/>
			<path style="fill:#963734;" d="M227.137,125.016c0.532,0.944,0.432,1.186-2.497,1.965c-2.92,0.785-3.452,0.649-3.069,1.322
				c1.118,1.985-1.046,1.809,0.312,4.176c1.357,2.367-1.298,1.127-2.63-0.784c-0.258-0.388-1.718-2.244-0.623-5.495
				C219.927,122.404,225.179,121.565,227.137,125.016z"/>
			<path style="fill:#AA3C3C;" d="M218.63,126.2c-1.19,3.018,0.365,5.107,0.623,5.495c0.99,1.421,2.721,2.503,2.968,1.935
				c0.296-0.685-1.637-0.723-1.296-2.527c0.339-1.807-0.862-2.056-0.753-3.606c0.106-1.552,1.276-1.39,4.568-2.278
				c1.339-0.357,1.541-0.917,1.322-1.45C223.705,121.894,219.892,123.024,218.63,126.2z"/>
			<path style="fill:#EFBEBD;" d="M213.758,160.352c-0.03,0.151-0.063,0.285-0.094,0.431c-0.007-0.007-0.018-0.01-0.018-0.01
				c0.002,0.003,0.011,0.005,0.018,0.01c-1.557,4.883,9.761,2.601,15.684-1.24c0.416-1.886-4.576-0.378-6.94-1.121
				c-5.453-1.725,9.163-7.81,6.143-8.036c-3.254-0.247-7.127,1.884-6.909-2.837c0.207-4.717,0.004-6.57-2.461-8.672
				c-5.036-4.29-7.583,1.545-6.591,4.782c0.157,0.622,0.357,1.278,0.671,2.002C215.56,151.044,214.713,154.666,213.758,160.352z"/>
			<path style="fill:#E28C71;" d="M215.478,138.12c0.876,0.107,3.219,1.294,3.316,3.781c0.123,3.331-2.857,9.43-0.4,13.317
				c2.47,3.889,5.564,3.749,7.656,3.927c2.095,0.174,3.013-0.735,4.222-0.494c1.201,0.233,0.858,1.661-2.56,2.178
				c-1.64,0.249-9.578,2.45-13.372-1.635C209.378,153.837,210.321,137.499,215.478,138.12z"/>
			<path style="fill:#FCDCDA;" d="M216.123,137.377c0,0-3.759-0.605-4.823,4.959c-1.065,5.564-0.761,8.134-0.761,8.134
				s3.28,1.738,8.99,0.654C219.528,151.125,221.532,137.482,216.123,137.377z"/>
			<path style="fill:#AA3C3C;" d="M222.163,133.275c0,0,3.503,1.984,5.103,1.016c1.6-0.967,1.123-3.14,1.606-2.488
				c0.67,0.902,0.873,4.613-1.485,4.546c-2.359-0.068-4.878-1.742-6.248-2.878L222.163,133.275z"/>
		</g>
		<g>
			<path style="fill:#EE9D7F;" d="M150.967,227.447c-2.886-7.751,1.618-15.17,0.693-20.209c-1.097-5.961-11.403-4.542-15.103-3.016
				c-3.698,1.517-9.823,3.873-5.471,11.583c3.033,5.379,2.565,9.271,2.227,15.35l0,0c-0.016,0.162-0.037,0.304-0.049,0.461
				c-0.014-0.003-0.021-0.004-0.021-0.004c0,0.001,0.007,0.004,0.021,0.009c-1.942,17.281-2.837,23.459-4.351,29.999
				c-1.734,7.481-3.77,23.458-0.437,23.539c3.332,0.088,5.197-1.023,3.274-1.616c-1.92-0.598-1.997-0.827-1.936-1.423
				c0.826-7.718,11.77-19.74,12.701-28.912c0.315-3.135,0.53-5.992,0.682-8.507c1.246,6.72,0.329,13.845,0.435,16.202
				c0.35,8.386,1.98,24.228,5.626,24.26c3.885,0.032,5.795-1.15,3.312-1.722c-2.144-0.496-2.056-0.607-2.017-1.191
				c0.522-8.466,4.251-24.113,4.964-34.171C156.348,236.474,151.126,227.893,150.967,227.447z"/>
			<path style="fill:#EE9D7F;" d="M147.15,204.619c0.803-0.466,2.714-0.826,4.044,1.559c1.787,3.189,3.005,11.119,7.292,13.751
				c4.29,2.634,7.164,1.035,9.242,0.226c2.076-0.814,2.493-2.138,3.757-2.472c1.262-0.335,1.649,1.219-1.339,3.334
				c-1.436,1.011-7.872,6.904-13.518,4.704C149.225,222.833,143.298,206.847,147.15,204.619z"/>
			<path style="fill:#C86CDB;" d="M151.962,229.44c-6.643,4.877-15.181,3.362-18.79,2.591c-0.981,8.7-6.694,41.297-7.362,45.779
				c2.916,1.062,3.885,1.288,4.729,1.288c15.571-22.884,12.505-31.883,12.658-34.397c0.532,2.897-1.261,20.438,1.781,34.397
				c1.024,0.722,4.108,1.662,6.317,0c0.111-0.895,4.163-30.198,4.222-31.02C156.128,239.552,153.479,232.673,151.962,229.44z"/>
			<path style="fill:#E67052;" d="M130.217,213.994c0,0-3.527-9.988,7.743-0.659c1.658,1.369,0.939,7.962,0.939,7.962l-4.677,2.461
				L130.217,213.994z"/>
			<path style="fill:#FCDCDA;" d="M135.767,204.547c0,0,2.984,5.939,9.767,5.939c1.916,0,4.931-1.092-1.184-7.884l2.209,0.491
				c0,0,5.884,7.338,7.782,17.333c1.9,10.001,0.021,14.561,0.021,14.561s-2.016,1.723-11.159,2.544
				c-4.083,0.365-7.547,0.077-10.557-0.864c0,0,1.279-11.465,0.543-15.369c0,0,5.419-0.008,4.852-7.25
				c-0.473-5.982-7.119-3.949-7.121-6.354C130.919,206.256,135.767,204.547,135.767,204.547z"/>
			<path style="fill:#E67052;" d="M137.437,198.932c0,0,2.132,2.747,0.33,4.865c-1.835,2.172,7.8,4.817,7.183,3.072
				c-0.794-2.254-2.28-3.355-1.747-6.276L137.437,198.932z"/>
			<path style="fill:#F3B294;" d="M141.024,192.017c2.383,1.413,6.326,9.105,4.66,11.366c-0.727,0.984-4.636,0.932-7.783-2.129
				c-1.292-1.257-3.11-3.747-2.232-6.86C136.059,192.979,138.246,190.372,141.024,192.017z"/>
			<path style="fill:#EFBEBD;" d="M139.208,232.774c-0.485-1.478,0.253-2.385,2.709-2.714c3.639-0.481,9.279-3.001,6.244-2.427
				c-3.039,0.575-7.226,0.701-10.669,0c-3.456-0.699-4.302-6.337-4.302-6.337c0.736,3.904-0.543,15.369-0.543,15.369
				c3.01,0.941,6.474,1.23,10.557,0.864c9.143-0.821,11.159-2.544,11.159-2.544C142.267,236.792,139.621,234.002,139.208,232.774z"
				/>
			<path style="fill:#AA3C3C;" d="M142.106,190.4c1.059,0.431,0.569,3.212-2.411,4.369c-2.969,1.16-2.378,1.209-1.905,1.872
				c1.404,1.956-0.884,2.02,0.814,4.345c1.702,2.324-1.234,1.334-2.837-0.52c-0.331-0.37-2.637-2.093-1.853-5.63
				C134.828,190.707,139.492,189.34,142.106,190.4z"/>
			<path style="fill:#F3B294;" d="M143.076,201.633c0,0,0.386-1.441,1.421-1.741c1.03-0.3,1.117,0.986,0.991,1.462
				c-0.131,0.472-1.552,1.656-2.412,1.388C142.213,202.474,142.884,202.134,143.076,201.633z"/>
			<path style="fill:#7585F8;" d="M147.213,283.256c0,0,2.902,1.268,4.688,0c0,0,3.264,0.49,1.214,1.359
				C151.055,285.492,147.091,286.22,147.213,283.256z"/>
			<path style="fill:#7585F8;" d="M127.063,283.543c0,0,2.901,1.267,4.687,0c0,0,3.267,0.491,1.212,1.364
				C130.905,285.78,126.942,286.509,127.063,283.543z"/>
			<g>
				<polygon style="fill:#EA68C3;" points="154.311,230.207 145.314,224.036 161.608,217.829 				"/>
				<polygon style="fill:#FE88D4;" points="159.549,217.538 174.839,212.953 170.145,224.671 154.311,230.207 				"/>
			</g>
			<path style="fill:#EFBEBD;" d="M146.56,203.093c0,0,4.428-0.813,6.603,6.844c0.227,0.798,0.917,3.645,0.917,3.645l-1.636,0.229
				C152.443,213.81,149.421,206.243,146.56,203.093z"/>
			<g>
				<path style="fill:#AA3C3C;" d="M143.317,199.621c0,0-0.016-0.89,1.115-1.13c1.132-0.238,1.535-0.179,2.163-0.721
					C147.221,197.229,144.916,201.334,143.317,199.621z"/>
				<path style="fill:#AA3C3C;" d="M143.571,199.767c0,0-0.684-0.57-1.578,0.162c-0.896,0.731-1.104,1.083-1.918,1.234
					C139.26,201.311,143.904,202.086,143.571,199.767z"/>
			</g>
			<path style="fill:#C86CDB;" d="M136.158,239.251c0,0,8.108-21.082,0.178-31.354l-3.757-1.925
				c0.549-0.553,1.957-0.939,1.957-0.939s13.186,5.452,4.519,33.889L136.158,239.251z"/>
			<path style="fill:#EE9D7F;" d="M130.948,208.728c0,0,2.027-2.019,4.495,0.239c2.874,2.631,4.675,11.851,9.564,14.163
				c4.883,2.306,7.894,0.244,10.078-0.882c2.2-1.129,2.55-2.598,3.897-3.109c1.344-0.516,1.892,1.111-1.194,3.748
				c-1.475,1.26-8.018,8.371-14.346,6.691C135.149,227.373,126.934,211.583,130.948,208.728z"/>
			<path style="fill:#EFBEBD;" d="M132.069,206.51c0,0-3.874,1.122-2.375,6.934c1.5,5.813,2.954,8.137,2.954,8.137
				s3.929,0.179,8.906-3.442C141.554,218.138,137.297,204.162,132.069,206.51z"/>
		</g>
		<g>
			<g>
				<g>
					<rect x="496.156" y="168.101" style="fill:#FE839C;" width="4.393" height="114.476"/>
					<rect x="511.486" y="168.101" style="fill:#FE839C;" width="4.391" height="114.476"/>
					<rect x="496.199" y="173.787" style="fill:#FE839C;" width="18.773" height="5.022"/>
					<g>
						<rect x="496.199" y="187.304" style="fill:#FE839C;" width="18.773" height="5.023"/>
						<rect x="496.199" y="202.172" style="fill:#FE839C;" width="18.773" height="5.027"/>
						<rect x="496.199" y="221.094" style="fill:#FE839C;" width="18.773" height="5.026"/>
						<rect x="496.199" y="235.961" style="fill:#FE839C;" width="18.773" height="5.029"/>
					</g>
					<rect x="496.199" y="253.536" style="fill:#FE839C;" width="18.773" height="5.023"/>
					<rect x="496.199" y="268.405" style="fill:#FE839C;" width="18.773" height="5.024"/>
				</g>
			</g>
			<g>
				<path style="fill:#F9B5A0;" d="M502.635,244.713c0.615,5.719,2.922,13.334,2.728,17.206c-0.029,0.611-0.139,0.829-2.174,1.128
					c-2.039,0.296-0.33,1.711,3.049,2.155c3.373,0.436,3.85-16.015,3.285-23.844C509.035,234.513,501.92,238.073,502.635,244.713z"
					/>
				<path style="fill:#F28F19;" d="M507.924,263.789c0,0-3.135,0.824-4.734-0.742c0,0-3.377-0.02-1.443,1.185
					C503.682,265.439,507.576,266.798,507.924,263.789z"/>
			</g>
			<g>
				<path style="fill:#F9B5A0;" d="M518.881,264.295c1.148,5.641,4.162,13.002,4.334,16.875c0.025,0.614-0.06,0.837-2.06,1.323
					c-2.002,0.49-0.166,1.738,3.24,1.859c3.398,0.118,2.324-16.303,1.027-24.043C524.295,253.54,517.541,257.754,518.881,264.295z"
					/>
				<path style="fill:#F28F19;" d="M525.939,282.793c0,0-3.043,1.113-4.785-0.3c0,0-3.361,0.3-1.322,1.317
					C521.871,284.833,525.875,285.82,525.939,282.793z"/>
			</g>
			<path style="fill:#892856;" d="M522.352,232.722c0,0-1.545,3.204-2.166,6.256c-2.107,10.367-2.051,11.629-2.084,14.552
				c-0.063,4.98-0.26,14.662,3.621,23.144c0.373,0.813,4.111,1.1,4.301,0c1.377-8.059,2.844-9.329,1.633-18.591
				c0,0,2.17-6.779,3.086-9.645c2.605-8.137,2.188-9.457,0.863-13.574L522.352,232.722z"/>
			<path style="fill:#99305E;" d="M517.904,231.846c0,0-11.709-9.188-15.488-3.561c-3.396,5.063,0.635,27.535,0.635,27.535
				s3.305,2.205,7.055,0.881l1.652-15.788c0,0,10.912,6.954,14.662,4.369c5.865-4.041,0.793-13.149,0.793-13.149L517.904,231.846z"
				/>
			<g>
				<path style="fill:#FFAA83;" d="M515.871,198.339c0,0-2.516-5.145-2.936-3.388c-0.416,1.716,0.576,1.459,1.436,4.123
					L515.871,198.339z"/>
				<path style="fill:#FCDCDA;" d="M532.758,215.736c0.621,0.723,1.572,3.312-0.518,3.764c-3.316,0.73-11.213-3.853-12.961-5.64
					c-1.738-1.787-5.127-15.092-5.127-15.092s0.77-1.234,2.01-0.528l7.58,11.861C523.742,210.102,530.617,213.21,532.758,215.736z"
					/>
			</g>
			<path style="fill:#FCDCDA;" d="M521.992,212.989c-2.756,1.666-5.438,6.146-8.186,21.501c-0.605,3.37,19.023,6.396,19.475,2.996
				c1.195-9.051,0.072-12.957-1.613-21.422C531.215,213.759,527.455,209.682,521.992,212.989z"/>
			<g>
				<path style="fill:#FFAA83;" d="M501.795,198.335c0,0-0.551-5.114-1.672-3.749c-1.115,1.364-0.867,2.058,0.246,4.633
					L501.795,198.335z"/>
				<path style="fill:#FCDCDA;" d="M520.281,214.028c0.688,0.66,1.885,3.144-0.152,3.794c-3.236,1.047-11.537-2.757-13.441-4.366
					c-1.908-1.61-6.565-14.526-6.565-14.526s0.65-1.301,1.949-0.713l8.689,11.067C510.762,209.284,517.91,211.719,520.281,214.028z"
					/>
			</g>
			<path style="fill:#AA3C3C;" d="M525.512,198.282c-2.154,0.05-4.971,1.519-5.418,5.723c-0.447,4.195-0.57,4.268-2.137,5.657
				c-4.029,3.584,4.361,6.188,0.926,9.55c-14.732,14.438,14.799,15.482,14.049,11.517c-1.445-7.628,3.512-5.338,3.107-10.968
				c-0.166-2.231,3.279-4.323-0.629-7.546c-1.289-1.064,1.734-5.729-1.533-7.056C530.609,203.828,533.82,198.089,525.512,198.282z"
				/>
		</g>
		<g>
			<g>
				<path style="fill:#EE9D7F;" d="M382.209,281.001c2.291-1.181,3.148-2.635,1.625-2.319c-1.527,0.309-1.66,0.181-1.836-0.245
					c-2.248-5.446,1.301-15.752-3.135-22.332l-6.188,5.956c0.525,1.057,0.94,2.011,1.148,2.778
					C375.408,270.568,379.91,282.18,382.209,281.001z"/>
				<path style="fill:#F28F19;" d="M348.99,269.931c0,0-2.273,9.33,4.248,11.153c0,0,14.447-9.855,19.438-19.023
					c0,0,2.063,8.099,3.887,10.709c0,0,1.039,1.255,4.613-1.661c0,0,2.627-15.322-6.103-17.721
					C366.35,250.99,348.99,269.931,348.99,269.931L348.99,269.931z"/>
				<path style="fill:#7585F8;" d="M380.516,280.225c0,0,0.879,0,2.016-1.38c0,0,0.656-0.027,1.303-0.163
					c0.648-0.138,0.924-0.021,0.676,0.495c-0.246,0.523-1.611,1.622-2.578,1.905C380.961,281.358,380.516,280.225,380.516,280.225z"
					/>
			</g>
			<g>
				<path style="fill:#E28C71;" d="M359.15,314.779c-1.688-0.427-1.766-0.62-1.738-1.141c0.361-6.592,8.928-15.299,7.613-24.088
					l-0.018,0.008c-0.299-2.392-1.143-5.338-2.787-8.87c-1.248-2.671-2.746-5.039-4.072-6.973c-3.94-8.152-9.307-7.934-11.369-5.528
					c-5.6,6.533,4.668,17.367,9.078,23.794l0,0c0.012,1.331,0.02,3.088-0.143,3.971c-1.166,6.552-2.223,20.471,0.67,20.38
					C359.271,316.249,360.844,315.199,359.15,314.779z"/>
				<path style="fill:#F4A517;" d="M356.566,262.398c0,0,2.102-1.479-0.512,3.845c0,0,8.115,10.897,9.684,24.407
					c0.701,6.065-3.117,11.136-6.848,17.783c0,0-3.711,0.44-4.945-0.582c0,0-0.072-10.992,1.912-15.87
					c0,0-15.352-9.365-10.699-19.731c2.482-5.521,8.797-4.526,8.797-4.526S355.285,261.201,356.566,262.398z"/>
				<path style="fill:#7585F8;" d="M355.148,315.043c0,0,0.924,0.34,2.635-0.71c0,0,0.791,0.286,1.525,0.37
					c0.74,0.094,0.988,0.312,0.541,0.773c-0.447,0.462-2.287,1.143-3.418,1.093C355.303,316.519,355.148,315.043,355.148,315.043z"
					/>
			</g>
			<path style="fill:#EE9D7F;" d="M346.771,249.6c0,0-0.117-2.107,3.27-2.689c3.945-0.675,12.574,3.646,17.522,1.124
				c4.955-2.524,5.156-6.261,5.621-8.752c0.463-2.495-0.51-3.704-0.08-5.122c0.426-1.415,2.09-0.84,2.297,3.322
				c0.102,1.993,1.775,11.789-3.57,15.875C364.824,258.72,346.568,254.663,346.771,249.6z"/>
			<g>
				<path style="fill:#AA3C3C;" d="M353.4,235.362c0,0-0.227-1.74-1.813-1.954c-3.906-0.538-10.633,3.715-11.406,11.322
					c-1.307,12.83,3.891,9.088-0.154,16.013c-3.826,6.55,8.273,10.106,15.783,4.645c4.379-3.179-8.695-9.117-7.473-11.358
					c1.219-2.231,3.516-2.811,4.008-6.662c0.482-3.843,1.385-8.663,1.789-9.654C354.535,236.717,354.166,235.684,353.4,235.362z"/>
			</g>
			<g>
				<path style="fill:#963734;" d="M352.346,247.367c0.236-1.857,0.568-3.936,0.892-5.719c-0.791-0.166-1.488-1.337-2.676-1.413
					c0,0-12.697,9.518-3.967,21.138c8.81-2.696,0.344-3.428,2.379-5.735c0.031-0.03-0.953-1.158-0.926-1.202
					c0.117-0.143,0.219-0.274,0.289-0.406C349.557,251.798,351.853,251.219,352.346,247.367z"/>
			</g>
			<path style="fill:#FCDCDA;" d="M360.225,267.519c1.021-1.162-2.813-4.55-0.986-7.677c1.844-3.146,3.565-5.545-0.367-9.684
				c-3.932-4.156-7.1-5.902-9.627-3.962c-6.094,4.707-3.033,6.027-2.883,9.501c0.09,1.955,1.414,10.642-3.033,16.202
				c-0.225,0.308-0.551,0.61-0.551,0.61C339.25,277.459,360.225,267.519,360.225,267.519z"/>
			<path style="fill:#EE9D7F;" d="M348.895,246.481c0,0,6.963,5.695,8.789,5.421c1.543-0.226-1.99-4.214-3.021-5.174
				C354.078,246.182,351.742,243.969,348.895,246.481z"/>
			<g>
				<path style="fill:#E67052;" d="M349.244,238.627c0,0,2.328,4.797,1.48,6.714c-0.484,1.081,4.9,3.531,4.33,2.325
					c-1.053-2.222-0.818-3.14,0.373-4.97L349.244,238.627z"/>
			</g>
			<g>
				<path style="fill:#EE9D7F;" d="M354.135,235.441c1.795,1.679,3.607,9.047,1.984,10.717c-0.746,0.773-4.258,1.15-6.311-3.319
					c-0.668-1.454-2.002-3.83-0.697-6.36C349.701,235.334,352.041,233.486,354.135,235.441z"/>
			</g>
			<g>
				<path style="fill:#AA3C3C;" d="M355.086,235.697c0.184,0.934,0.213,1.488-1.94,1.301c-2.637-0.225-2.158,1.622-1.885,2.257
					c0.811,1.842-2.529,0.127-1.35,2.235c2.891,5.171-2.834,2.2-4.877,5.476c-0.225,0.354,0.197-8.184,1.639-11.388
					C348.121,232.364,354.533,232.805,355.086,235.697z"/>
			</g>
			<path style="fill:#E28C71;" d="M347.037,247.705c0,0,1.594-0.957,3.42,1.303c2.133,2.63,2.258,10.796,6.234,13.408
				c3.98,2.609,6.984,1.218,9.127,0.527c2.137-0.685,2.68-1.908,3.969-2.18c1.283-0.271,1.504,1.192-1.664,3.074
				c-1.525,0.902-8.496,6.185-13.859,3.928C347.227,264.813,342.998,249.652,347.037,247.705z"/>
		</g>
	</g>
</g>
</svg>
