<?xml version="1.0" encoding="UTF-8"?><svg id="a" xmlns="http://www.w3.org/2000/svg" xmlns:xlink="http://www.w3.org/1999/xlink" viewBox="0 0 372 655"><defs><linearGradient id="b" x1="92.24" y1="219.91" x2="92.24" y2="539.21" gradientUnits="userSpaceOnUse"><stop offset="0" stop-color="#32aaa0" stop-opacity="0"/><stop offset=".61" stop-color="#32aaa0" stop-opacity=".62"/><stop offset="1" stop-color="#32aaa0"/></linearGradient><linearGradient id="c" x1="111.41" y1="503.08" x2="73.08" y2="569.48" gradientUnits="userSpaceOnUse"><stop offset="0" stop-color="#30a49a"/><stop offset="0" stop-color="#32aaa0"/><stop offset=".5" stop-color="#056473"/><stop offset="1" stop-color="#1e2855"/></linearGradient><linearGradient id="d" x1="105.91" y1="503.72" x2="78.4" y2="551.37" gradientUnits="userSpaceOnUse"><stop offset="0" stop-color="#32aaa0"/><stop offset="1" stop-color="#056473"/></linearGradient><linearGradient id="e" x1="103.1" y1="501.37" x2="81.39" y2="538.97" gradientUnits="userSpaceOnUse"><stop offset="0" stop-color="#006473"/><stop offset="1" stop-color="#1e2855"/></linearGradient><linearGradient id="f" x1="105.69" y1="484" x2="78.68" y2="530.8" xlink:href="#d"/><linearGradient id="g" x1="102.89" y1="481.49" x2="81.6" y2="518.36" xlink:href="#e"/><linearGradient id="h" x1="105.91" y1="463.22" x2="78.4" y2="510.87" xlink:href="#d"/><linearGradient id="i" x1="103.1" y1="460.87" x2="81.39" y2="498.47" xlink:href="#e"/><linearGradient id="j" x1="103.52" y1="452.12" x2="80.79" y2="491.49" xlink:href="#e"/><linearGradient id="k" x1="103.1" y1="451.11" x2="81.39" y2="488.71" xlink:href="#d"/><linearGradient id="l" x1="1020" y1="2278.38" x2="1013.94" y2="2278.38" gradientTransform="translate(-979.33 -2065.85)" xlink:href="#b"/><linearGradient id="m" x1="1009.21" y1="2278.38" x2="1004.55" y2="2278.38" gradientTransform="translate(-969.25 -2055.77)" xlink:href="#b"/><linearGradient id="n" x1="1019.3" y1="2288.44" x2="1014.64" y2="2288.44" gradientTransform="translate(-969.27 -2075.92)" xlink:href="#b"/><linearGradient id="o" x1="1030.08" y1="2288.44" x2="1024.02" y2="2288.44" gradientTransform="translate(-979.35 -2086)" xlink:href="#b"/><linearGradient id="p" x1="892.95" y1="1894.2" x2="887.86" y2="1894.2" gradientTransform="translate(-782.96 2233.29) scale(1 -1)" xlink:href="#b"/><linearGradient id="q" x1="903.96" y1="1894.2" x2="898.87" y2="1894.2" gradientTransform="translate(-793.97 2222.28) scale(1 -1)" xlink:href="#b"/><linearGradient id="r" x1="882.7" y1="1894.2" x2="876.08" y2="1894.2" gradientTransform="translate(-771.95 2244.3) scale(1 -1)" xlink:href="#b"/><linearGradient id="s" x1="69.77" y1="366.12" x2="44.04" y2="387.89" gradientTransform="translate(197.43 24.82) rotate(30)" gradientUnits="userSpaceOnUse"><stop offset="0" stop-color="#32aaa0" stop-opacity=".4"/><stop offset=".37" stop-color="#32aaa0" stop-opacity=".63"/><stop offset="1" stop-color="#32aaa0"/></linearGradient><linearGradient id="ac" x1="34.07" y1="381.47" x2="69.66" y2="381.47" gradientTransform="matrix(1,0,0,1,0,0)" xlink:href="#s"/><linearGradient id="ah" x1="39.24" y1="368.84" x2="71.58" y2="402.11" gradientTransform="matrix(1,0,0,1,0,0)" xlink:href="#s"/><linearGradient id="aj" x1="-7540.1" y1="248.43" x2="-7518.09" y2="286.54" gradientTransform="translate(-7391.15) rotate(-180) scale(1 -1)" gradientUnits="userSpaceOnUse"><stop offset="0" stop-color="#32aaa0" stop-opacity=".2"/><stop offset=".52" stop-color="#32aaa0" stop-opacity=".63"/><stop offset="1" stop-color="#32aaa0"/></linearGradient><clipPath id="al"><path d="M165.91,307.43v-48.67c0-.33-.18-.64-.46-.8l-54.08-31.22c-.62-.36-1.39.09-1.39.8v48.67c0,.33.18.64.46.8l54.08,31.22c.62.36,1.39-.09,1.39-.8Z" style="fill:none; stroke-width:0px;"/></clipPath><clipPath id="ak"><path d="M165.91,307.43v-48.67c0-.33-.18-.64-.46-.8l-54.08-31.22c-.62-.36-1.39.09-1.39.8v48.67c0,.33.18.64.46.8l54.08,31.22c.62.36,1.39-.09,1.39-.8Z" style="clip-path:url(#al); fill:none; stroke-width:0px;"/></clipPath><clipPath id="am"><polygon points="122.88 257.3 122.88 242.03 162.56 264.94 162.56 280.2 122.88 257.3" style="fill:none; stroke-width:0px;"/></clipPath><linearGradient id="an" x1="865.67" y1="-1933.12" x2="865.67" y2="-1941.69" gradientTransform="translate(-606.97 2068.65) rotate(30) skewX(30)" xlink:href="#b"/><linearGradient id="ao" x1="370.02" y1="311.3" x2="386.21" y2="317.2" gradientTransform="translate(541.27) rotate(-180) scale(1 -1)" xlink:href="#s"/><linearGradient id="ap" x1="-9290.17" y1="-1032.06" x2="-9256.8" y2="-1032.06" gradientTransform="translate(-8963.01 -3885.97) rotate(-150) scale(1 -1) skewX(30)" xlink:href="#s"/><clipPath id="aq"><polygon points="92.97 161.02 90.72 168.74 96.29 162.93 92.97 161.02" style="fill:#056473; stroke-width:0px;"/></clipPath><linearGradient id="ar" x1="94.14" y1="228.54" x2="108.99" y2="228.54" gradientTransform="translate(146.75 9.51) rotate(10.89) scale(1.53 .65) skewX(-26.33)" xlink:href="#s"/><linearGradient id="as" x1="91.9" y1="231.87" x2="97.47" y2="231.87" gradientTransform="translate(-.38 41.84) rotate(-49.11) scale(1.53 .65) skewX(-26.33)" xlink:href="#s"/><clipPath id="at"><polygon points="93.76 162.12 91.51 169.85 97.08 164.04 93.76 162.12" style="fill:none; stroke-width:0px;"/></clipPath><linearGradient id="au" x1="91.07" y1="229.19" x2="109.83" y2="229.19" gradientTransform="translate(-.38 41.84) rotate(-49.11) scale(1.53 .65) skewX(-26.33)" xlink:href="#s"/><linearGradient id="av" x1="281.02" y1="64.02" x2="281.02" y2="530.66" xlink:href="#b"/><linearGradient id="aw" x1="300.37" y1="495.88" x2="261.67" y2="562.91" xlink:href="#c"/><linearGradient id="ax" x1="293.66" y1="509.96" x2="268.38" y2="553.75" xlink:href="#d"/><linearGradient id="ay" x1="281.02" y1="460.94" x2="281.02" y2="519.72" xlink:href="#d"/><linearGradient id="az" x1="281.02" y1="487.69" x2="281.02" y2="420.32" gradientUnits="userSpaceOnUse"><stop offset="0" stop-color="#fff"/><stop offset="1" stop-color="#fff" stop-opacity="0"/></linearGradient><linearGradient id="ba" x1="900.92" y1="2943.22" x2="894.31" y2="2943.22" gradientTransform="translate(-577.04 -2611.35)" xlink:href="#b"/><linearGradient id="bb" x1="878.14" y1="2943.22" x2="873.05" y2="2943.22" gradientTransform="translate(-555.02 -2589.33)" xlink:href="#b"/><linearGradient id="bc" x1="889.15" y1="2943.22" x2="884.06" y2="2943.22" gradientTransform="translate(-566.03 -2600.34)" xlink:href="#b"/><linearGradient id="bd" x1="1151.81" y1="1675.8" x2="1148.97" y2="1675.8" gradientTransform="translate(-824.55 1754.9) scale(1 -1)" xlink:href="#b"/><linearGradient id="be" x1="1157.94" y1="1675.8" x2="1155.11" y2="1675.8" gradientTransform="translate(-830.68 1748.76) scale(1 -1)" xlink:href="#b"/><linearGradient id="bf" x1="900.16" y1="2954.21" x2="895.07" y2="2954.21" gradientTransform="translate(-566.05 -2622.34)" xlink:href="#b"/><linearGradient id="bg" x1="911.93" y1="2954.21" x2="905.32" y2="2954.21" gradientTransform="translate(-577.06 -2633.35)" xlink:href="#b"/><linearGradient id="bh" x1="943.01" y1="1763.38" x2="936.96" y2="1763.38" gradientTransform="translate(-701.72 2052.88) scale(1 -1)" xlink:href="#b"/><linearGradient id="bi" x1="932.23" y1="1763.38" x2="927.57" y2="1763.38" gradientTransform="translate(-691.64 2062.97) scale(1 -1)" xlink:href="#b"/><linearGradient id="bj" x1="942.31" y1="1773.44" x2="937.65" y2="1773.44" gradientTransform="translate(-711.78 2062.95) scale(1 -1)" xlink:href="#b"/><linearGradient id="bk" x1="953.1" y1="1773.44" x2="947.04" y2="1773.44" gradientTransform="translate(-721.87 2052.87) scale(1 -1)" xlink:href="#b"/><linearGradient id="bl" x1="1146.1" y1="1675.8" x2="1142.41" y2="1675.8" gradientTransform="translate(-818.41 1761.03) scale(1 -1)" xlink:href="#b"/><linearGradient id="bm" x1="771.48" y1="1655.93" x2="766.39" y2="1655.93" gradientTransform="translate(-423.22 2116.49) scale(1 -1)" xlink:href="#b"/><linearGradient id="bn" x1="782.49" y1="1655.93" x2="777.4" y2="1655.93" gradientTransform="translate(-434.23 2105.48) scale(1 -1)" xlink:href="#b"/><linearGradient id="bo" x1="761.23" y1="1655.93" x2="754.61" y2="1655.93" gradientTransform="translate(-412.21 2127.5) scale(1 -1)" xlink:href="#b"/><linearGradient id="bp" x1="270.87" y1="83.58" x2="289.91" y2="119.07" xlink:href="#d"/><linearGradient id="bq" x1="276.85" y1="94.38" x2="284.54" y2="109.57" gradientUnits="userSpaceOnUse"><stop offset="0" stop-color="#32aaa0" stop-opacity="0"/><stop offset=".61" stop-color="#32aaa0" stop-opacity=".62"/><stop offset="1" stop-color="#32aaa0"/></linearGradient><clipPath id="br"><path d="M293.12,260.85v-42.87c0-.31.17-.61.44-.76l51.23-29.58c.59-.34,1.32.08,1.32.76v42.87c0,.31-.17.61-.44.76l-51.23,29.58c-.59.34-1.32-.08-1.32-.76Z" style="fill:none; stroke-width:0px;"/></clipPath><linearGradient id="bs" x1="319.62" y1="-661.72" x2="319.62" y2="-702.86" gradientTransform="translate(0 1091.9) rotate(-30) scale(1.15 .87) skewX(-23.41)" xlink:href="#d"/><linearGradient id="bt" x1="293.12" y1="236.74" x2="304.14" y2="236.74" xlink:href="#d"/><linearGradient id="bu" x1="324.69" y1="252.24" x2="324.69" y2="202.86" xlink:href="#bq"/><linearGradient id="bv" x1="348.64" y1="249.29" x2="348.64" y2="214.81" xlink:href="#d"/><linearGradient id="bw" x1="348.64" y1="249.29" x2="348.64" y2="214.81" gradientUnits="userSpaceOnUse"><stop offset="0" stop-color="#beff82"/><stop offset="1" stop-color="#5adc96"/></linearGradient><linearGradient id="bx" x1="342.14" y1="232.05" x2="355.14" y2="232.05" xlink:href="#bw"/><linearGradient id="by" x1="358.65" y1="215.6" x2="358.65" y2="192.29" xlink:href="#d"/><linearGradient id="bz" x1="358.65" y1="215.6" x2="358.65" y2="192.29" xlink:href="#bw"/><linearGradient id="ca" x1="354.26" y1="203.95" x2="363.04" y2="203.95" xlink:href="#bw"/><linearGradient id="cb" x1="241.64" y1="367" x2="263.74" y2="405.28" gradientTransform="matrix(1,0,0,1,0,0)" xlink:href="#aj"/><linearGradient id="cc" x1="245.67" y1="372.22" x2="263.02" y2="402.27" gradientUnits="userSpaceOnUse"><stop offset="0" stop-color="#30a49a"/><stop offset="0" stop-color="#32aaa0"/><stop offset="1" stop-color="#056473"/></linearGradient></defs><rect x="18.06" y="219.91" width="148.36" height="319.31" style="fill:url(#b); opacity:.2; stroke-width:0px;"/><path d="M165.18,564.93l-68.77,39.7c-2.58,1.49-5.75,1.49-8.32,0l-68.77-39.7c-1.66-.96-1.66-3.36,0-4.33l68.77-39.7c2.58-1.49,5.75-1.49,8.32,0l68.77,39.7c1.66.96,1.66,3.36,0,4.33Z" style="fill:#1e2855; opacity:.02; stroke-width:0px;"/><path d="M149.57,564.47l-54.06,31.21c-2.02,1.17-4.52,1.17-6.54,0l-54.06-31.21c-1.31-.76-1.31-2.64,0-3.4l54.06-31.21c2.02-1.17,4.52-1.17,6.54,0l54.06,31.21c1.31.76,1.31,2.64,0,3.4Z" style="fill:#1e2855; opacity:.08; stroke-width:0px;"/><rect x="142.03" y="536.28" width="24.39" height="5.87" style="fill:#1e2855; stroke-width:0px;"/><rect x="18.06" y="536.28" width="24.39" height="5.87" style="fill:#1e2855; stroke-width:0px;"/><path d="M165.18,544.31l-68.77,39.7c-2.58,1.49-5.75,1.49-8.32,0l-68.77-39.7c-1.66-.96-1.66-3.36,0-4.33l71.68-41.39c.77-.45,1.72-.45,2.5,0l71.68,41.39c1.66.96,1.66,3.36,0,4.33Z" style="fill:#1e2855; stroke-width:0px;"/><path d="M165.18,538.44l-68.77,39.7c-2.58,1.49-5.75,1.49-8.32,0l-68.77-39.7c-1.66-.96-1.66-3.36,0-4.33l68.77-39.7c2.58-1.49,5.75-1.49,8.32,0l68.77,39.7c1.66.96,1.66,3.36,0,4.33Z" style="fill:url(#c); stroke-width:0px;"/><rect x="142.03" y="536.28" width="24.39" height="5.87" style="fill:#1e2855; stroke-width:0px;"/><rect x="18.06" y="536.28" width="24.39" height="5.87" style="fill:#1e2855; stroke-width:0px;"/><path d="M165.18,544.31l-68.77,39.7c-2.58,1.49-5.75,1.49-8.32,0l-68.77-39.7c-1.66-.96-1.66-3.36,0-4.33l71.68-41.39c.77-.45,1.72-.45,2.5,0l71.68,41.39c1.66.96,1.66,3.36,0,4.33Z" style="fill:#1e2855; stroke-width:0px;"/><path d="M165.18,538.44l-68.77,39.7c-2.58,1.49-5.75,1.49-8.32,0l-68.77-39.7c-1.66-.96-1.66-3.36,0-4.33l68.77-39.7c2.58-1.49,5.75-1.49,8.32,0l68.77,39.7c1.66.96,1.66,3.36,0,4.33Z" style="fill:url(#c); stroke-width:0px;"/><path d="M147.65,537.92l-52.24,30.16c-1.96,1.13-4.37,1.13-6.32,0l-52.24-30.16c-1.26-.73-1.26-2.56,0-3.29l52.24-30.16c1.96-1.13,4.37-1.13,6.32,0l52.24,30.16c1.26.73,1.26,2.56,0,3.29Z" style="fill:none; stroke:#beff82; stroke-miterlimit:10; stroke-width:.84px;"/><path d="M138.73,536.64l-44.31,25.58c-1.35.78-3.01.78-4.36,0l-44.31-25.58c-1-.58-1-2.01,0-2.59l44.31-25.58c1.35-.78,3.01-.78,4.36,0l44.31,25.58c1,.58,1,2.01,0,2.59Z" style="fill:#1e2855; stroke-width:0px;"/><g style="opacity:.65;"><path d="M134.33,520.12h-23.23l-16.92-9.77c-1.2-.69-2.68-.69-3.88,0l-16.92,9.77h-23.23v14.18h0c0,.45.22.9.67,1.15l39.48,22.79c1.2.69,2.68.69,3.88,0l39.48-22.79c.44-.26.67-.7.67-1.15h0v-14.18Z" style="fill:url(#d); stroke-width:0px;"/><path d="M133.66,521.33l-39.48,22.79c-1.2.69-2.68.69-3.88,0l-39.48-22.79c-.89-.51-.89-1.79,0-2.31l39.48-22.79c1.2-.69,2.68-.69,3.88,0l39.48,22.79c.89.51.89,1.79,0,2.31Z" style="fill:url(#e); stroke-width:0px;"/><line x1="130.56" y1="530.08" x2="103.88" y2="545.49" style="fill:none; stroke:#32aaa0; stroke-linecap:round; stroke-miterlimit:10; stroke-width:.84px;"/><ellipse cx="96.52" cy="549.74" rx=".92" ry=".53" transform="translate(-427.83 358.45) rotate(-60)" style="fill:#32aaa0; stroke-width:0px;"/><ellipse cx="98.96" cy="548.33" rx=".92" ry=".53" transform="translate(-425.38 359.87) rotate(-60)" style="fill:#32aaa0; stroke-width:0px;"/><ellipse cx="101.41" cy="546.92" rx=".92" ry=".53" transform="translate(-422.94 361.28) rotate(-60)" style="fill:#32aaa0; stroke-width:0px;"/></g><path d="M92.24,538.1c-.61,0-1.21-.16-1.73-.46l-39.48-22.79c-.29-.17-.46-.46-.46-.79v-13.76s22.92,0,22.92,0l17.02-9.83c.53-.3,1.12-.46,1.73-.46s1.21.16,1.73.46l17.02,9.83h22.92v13.76c0,.33-.17.62-.46.79l-39.48,22.79c-.53.3-1.12.46-1.73.46Z" style="fill:url(#f); stroke-width:0px;"/><path d="M92.24,490.42c.53,0,1.06.14,1.52.41l16.92,9.77.2.11h22.61v13.34c0,.09-.02.3-.25.43l-39.48,22.79c-.46.27-.99.41-1.52.41s-1.06-.14-1.52-.41l-39.48-22.79c-.22-.13-.25-.34-.25-.43v-13.34h22.61l.19-.11,16.92-9.77c.46-.27.99-.41,1.52-.41M92.24,489.58c-.67,0-1.34.17-1.94.52l-16.92,9.77h-23.23v14.18h0c0,.45.22.9.67,1.15l39.48,22.79c.6.35,1.27.52,1.94.52s1.34-.17,1.94-.52l39.48-22.79c.44-.26.67-.7.67-1.15h0v-14.18h-23.23l-16.92-9.77c-.6-.35-1.27-.52-1.94-.52h0Z" style="fill:#fff; stroke-width:0px;"/><path d="M92.24,523.97c-.61,0-1.21-.16-1.73-.46l-39.48-22.79c-.29-.17-.46-.46-.46-.79s.17-.62.46-.79l39.48-22.79c.53-.3,1.12-.46,1.73-.46s1.21.16,1.73.46l39.48,22.79c.29.17.46.46.46.79s-.17.62-.46.79l-39.48,22.79c-.53.3-1.12.46-1.73.46Z" style="fill:url(#g); stroke-width:0px;"/><path d="M92.24,476.3c.53,0,1.06.14,1.52.41l39.48,22.79c.22.13.25.34.25.43s-.02.3-.25.43l-39.48,22.79c-.46.27-.99.41-1.52.41s-1.06-.14-1.52-.41l-39.48-22.79c-.22-.13-.25-.34-.25-.43s.02-.3.25-.43l39.48-22.79c.46-.27.99-.41,1.52-.41M92.24,475.46c-.67,0-1.34.17-1.94.52l-39.48,22.79c-.89.51-.89,1.79,0,2.31l39.48,22.79c.6.35,1.27.52,1.94.52s1.34-.17,1.94-.52l39.48-22.79c.89-.51.89-1.79,0-2.31l-39.48-22.79c-.6-.35-1.27-.52-1.94-.52h0Z" style="fill:#fff; stroke-width:0px;"/><line x1="130.56" y1="509.83" x2="103.88" y2="525.24" style="fill:none; stroke:#fff; stroke-linecap:round; stroke-miterlimit:10; stroke-width:.84px;"/><ellipse cx="96.52" cy="529.49" rx=".92" ry=".53" transform="translate(-410.29 348.33) rotate(-60)" style="fill:#fff; stroke-width:0px;"/><ellipse cx="98.96" cy="528.08" rx=".92" ry=".53" transform="translate(-407.85 349.74) rotate(-60)" style="fill:#fff; stroke-width:0px;"/><ellipse cx="101.41" cy="526.67" rx=".92" ry=".53" transform="translate(-405.4 351.15) rotate(-60)" style="fill:#fff; stroke-width:0px;"/><g style="opacity:.65;"><path d="M134.33,479.62h-23.23l-16.92-9.77c-1.2-.69-2.68-.69-3.88,0l-16.92,9.77h-23.23v14.18h0c0,.45.22.9.67,1.15l39.48,22.79c1.2.69,2.68.69,3.88,0l39.48-22.79c.44-.26.67-.7.67-1.15h0v-14.18Z" style="fill:url(#h); stroke-width:0px;"/><path d="M133.66,480.83l-39.48,22.79c-1.2.69-2.68.69-3.88,0l-39.48-22.79c-.89-.51-.89-1.79,0-2.31l39.48-22.79c1.2-.69,2.68-.69,3.88,0l39.48,22.79c.89.51.89,1.79,0,2.31Z" style="fill:url(#i); stroke-width:0px;"/><line x1="130.56" y1="489.58" x2="103.88" y2="504.99" style="fill:none; stroke:#32aaa0; stroke-linecap:round; stroke-miterlimit:10; stroke-width:.84px;"/><ellipse cx="96.52" cy="509.24" rx=".92" ry=".53" transform="translate(-392.76 338.21) rotate(-60)" style="fill:#32aaa0; stroke-width:0px;"/><ellipse cx="98.96" cy="507.83" rx=".92" ry=".53" transform="translate(-390.31 339.62) rotate(-60)" style="fill:#32aaa0; stroke-width:0px;"/><ellipse cx="101.41" cy="506.42" rx=".92" ry=".53" transform="translate(-387.86 341.03) rotate(-60)" style="fill:#32aaa0; stroke-width:0px;"/></g><g style="opacity:.65;"><path d="M134.33,469.91h-4.08l-36.07-20.82c-1.2-.69-2.68-.69-3.88,0l-36.07,20.82h-4.08v3.12h0c0,.45.22.9.67,1.15l39.48,22.79c1.2.69,2.68.69,3.88,0l39.48-22.79c.44-.26.67-.7.67-1.15h0v-3.12Z" style="fill:url(#j); stroke-width:0px;"/><path d="M133.66,471.07l-39.48,22.79c-1.2.69-2.68.69-3.88,0l-39.48-22.79c-.89-.51-.89-1.79,0-2.31l39.48-22.79c1.2-.69,2.68-.69,3.88,0l39.48,22.79c.89.51.89,1.79,0,2.31Z" style="fill:url(#k); stroke-width:0px;"/></g><rect x="34.61" y="209.49" width="6.06" height="6.06" rx="1.59" ry="1.59" transform="translate(-174.89 250.16) rotate(-90)" style="fill:url(#l); opacity:.4; stroke-width:0px;"/><rect x="35.31" y="220.28" width="4.66" height="4.66" rx="1.22" ry="1.22" transform="translate(-184.97 260.24) rotate(-90)" style="fill:url(#m); opacity:.4; stroke-width:0px;"/><rect x="45.37" y="210.19" width="4.66" height="4.66" rx="1.22" ry="1.22" transform="translate(-164.82 260.22) rotate(-90)" style="fill:url(#n); opacity:.4; stroke-width:0px;"/><rect x="44.67" y="199.41" width="6.06" height="6.06" rx="1.59" ry="1.59" transform="translate(-154.74 250.14) rotate(-90)" style="fill:url(#o); opacity:.4; stroke-width:0px;"/><rect x="104.89" y="336.54" width="5.09" height="5.09" rx="1.34" ry="1.34" transform="translate(-231.65 446.53) rotate(-90)" style="fill:url(#p); opacity:.4; stroke-width:0px;"/><rect x="104.89" y="325.53" width="5.09" height="5.09" rx="1.34" ry="1.34" transform="translate(-220.64 435.51) rotate(-90)" style="fill:url(#q); opacity:.4; stroke-width:0px;"/><rect x="104.13" y="346.79" width="6.62" height="6.62" rx="1.74" ry="1.74" transform="translate(-242.66 457.54) rotate(-90)" style="fill:url(#r); opacity:.4; stroke-width:0px;"/><polygon points="46.77 298.31 50.8 298.31 45.08 311.54 63.42 293.34 56.5 293.34 63.89 283.13 53.18 283.13 46.77 298.31" style="fill:none; opacity:.3; stroke:#32aaa0; stroke-linecap:round; stroke-linejoin:round;"/><polygon points="41.84 351.78 37.43 354.32 38.94 355.99 44.08 353.64 41.84 351.78" style="fill:#056473; stroke-width:0px;"/><polygon points="67.42 407.3 72.11 404.6 71.32 399.48 67.58 403.63 67.42 407.3" style="fill:#1e2855; stroke-width:0px;"/><ellipse cx="56.78" cy="378.3" rx="17.58" ry="30.44" transform="translate(-181.54 79.07) rotate(-30)" style="fill:#056473; stroke-width:0px;"/><ellipse cx="52.4" cy="380.83" rx="17.58" ry="30.44" transform="translate(-183.39 77.22) rotate(-30)" style="fill:#fff; stroke-width:0px;"/><ellipse cx="52.4" cy="380.83" rx="17.58" ry="30.44" transform="translate(-183.39 77.22) rotate(-30)" style="fill:url(#s); stroke-width:0px;"/><g id="t"><g id="u"><path id="v" d="M53.01,362.48c-4.38-2.53-8.35-2.77-11.22-1.11-2.87,1.65-4.65,5.21-4.65,10.27,0,5.06,1.78,10.66,4.65,15.64,2.87,4.97,6.84,9.32,11.22,11.85,4.38,2.53,8.35,2.77,11.22,1.11,2.87-1.65,4.64-5.21,4.64-10.27,0-5.06-1.77-10.67-4.64-15.64-2.87-4.98-6.84-9.32-11.22-11.85M53.01,360.26c9.83,5.67,17.79,19.47,17.79,30.82s-7.97,15.94-17.79,10.27c-9.82-5.67-17.79-19.47-17.79-30.82,0-11.35,7.97-15.95,17.79-10.28" style="fill:#056473; stroke-width:0px;"/></g><g id="w"><path id="x" d="M44.59,375.78c0-1.2-.69-2.27-1.66-2.84l-.6-.34v3.76s.58.33.58.33c.91.52,1.68.4,1.68-.91M55.2,383.25l-4.39,1.46-4.01-5.97c-.58,1.27-1.98,1.58-3.59.65l-3.44-1.98v-8.84s3.44,1.98,3.44,1.98c1.8,1.04,3.1,3.11,3.59,4.8l4.02-1.33,1.49,2.21-3.68,1.22.71,1.05,3.68-1.21,1.49,2.21-3.68,1.22.71,1.05,3.68-1.22v-3.07s2.67,1.54,2.67,1.54v6.26s2.66,1.54,2.66,1.54v2.59s-5.33-3.08-5.33-3.08v-3.08ZM63.91,388.77l2.66,1.54v2.59s-5.33-3.08-5.33-3.08v-8.85s2.67,1.54,2.67,1.54v6.26Z" style="fill:#056473; stroke-width:0px;"/></g><polygon points="45.79 379.77 44.73 380.39 43.46 378.87 45.88 378.5 45.79 379.77" style="fill:#056473; stroke-width:0px;"/><polygon points="39.76 368.58 38.62 369.24 40.09 373.49 41.9 370.44 39.76 368.58" style="fill:#056473; stroke-width:0px;"/><polygon points="52.29 376.25 51.15 376.91 49.42 375.18 50.8 374.04 52.29 376.25" style="fill:#056473; stroke-width:0px;"/><polygon points="53.34 380.16 54.49 379.5 53.46 378.75 52.45 379.57 53.34 380.16" style="fill:#056473; stroke-width:0px;"/><polygon points="66.57 392.9 65.43 393.56 62.16 389.22 60.1 381.63 61.24 380.97 63.37 388.72 66.57 392.9" style="fill:#056473; stroke-width:0px;"/><polygon points="60.53 389.41 59.39 390.07 56.15 385.77 54.05 378.15 55.2 377.48 57.36 385.26 60.53 389.41" style="fill:#056473; stroke-width:0px;"/></g><g id="y"><g id="z"><path id="aa" d="M51.86,363.14c-4.38-2.53-8.35-2.77-11.22-1.11-2.87,1.65-4.65,5.21-4.65,10.27,0,5.06,1.78,10.66,4.65,15.64,2.87,4.97,6.84,9.32,11.22,11.85,4.38,2.53,8.35,2.77,11.22,1.11,2.87-1.65,4.64-5.21,4.64-10.27,0-5.06-1.77-10.67-4.64-15.64-2.87-4.98-6.84-9.32-11.22-11.85M51.86,360.92c9.83,5.67,17.79,19.47,17.79,30.82s-7.97,15.94-17.79,10.27c-9.82-5.67-17.79-19.47-17.79-30.82s7.97-15.95,17.79-10.28" style="fill:#fff; stroke-width:0px;"/></g><g id="ab"><path id="ad" d="M51.86,363.14c-4.38-2.53-8.35-2.77-11.22-1.11-2.87,1.65-4.65,5.21-4.65,10.27,0,5.06,1.78,10.66,4.65,15.64,2.87,4.97,6.84,9.32,11.22,11.85,4.38,2.53,8.35,2.77,11.22,1.11,2.87-1.65,4.64-5.21,4.64-10.27,0-5.06-1.77-10.67-4.64-15.64-2.87-4.98-6.84-9.32-11.22-11.85M51.86,360.92c9.83,5.67,17.79,19.47,17.79,30.82s-7.97,15.94-17.79,10.27c-9.82-5.67-17.79-19.47-17.79-30.82s7.97-15.95,17.79-10.28" style="fill:url(#ac); stroke-width:0px;"/></g><g id="ae"><path id="af" d="M43.45,376.44c0-1.2-.69-2.27-1.66-2.84l-.6-.34v3.76s.58.33.58.33c.91.52,1.68.4,1.68-.91M54.05,383.92l-4.39,1.46-4.01-5.97c-.58,1.27-1.98,1.58-3.59.65l-3.44-1.98v-8.84s3.44,1.98,3.44,1.98c1.8,1.04,3.1,3.11,3.59,4.8l4.02-1.33,1.49,2.21-3.68,1.22.71,1.05,3.68-1.21,1.49,2.21-3.68,1.22.71,1.05,3.68-1.22v-3.07s2.67,1.54,2.67,1.54v6.26s2.66,1.54,2.66,1.54v2.59s-5.33-3.08-5.33-3.08v-3.08ZM62.77,389.44l2.66,1.54v2.59s-5.33-3.08-5.33-3.08v-8.85s2.67,1.54,2.67,1.54v6.26Z" style="fill:#fff; stroke-width:0px;"/></g><g id="ag"><path id="ai" d="M43.45,376.44c0-1.2-.69-2.27-1.66-2.84l-.6-.34v3.76s.58.33.58.33c.91.52,1.68.4,1.68-.91M54.05,383.92l-4.39,1.46-4.01-5.97c-.58,1.27-1.98,1.58-3.59.65l-3.44-1.98v-8.84s3.44,1.98,3.44,1.98c1.8,1.04,3.1,3.11,3.59,4.8l4.02-1.33,1.49,2.21-3.68,1.22.71,1.05,3.68-1.21,1.49,2.21-3.68,1.22.71,1.05,3.68-1.22v-3.07s2.67,1.54,2.67,1.54v6.26s2.66,1.54,2.66,1.54v2.59s-5.33-3.08-5.33-3.08v-3.08ZM62.77,389.44l2.66,1.54v2.59s-5.33-3.08-5.33-3.08v-8.85s2.67,1.54,2.67,1.54v6.26Z" style="fill:url(#ah); stroke-width:0px;"/></g></g><path d="M165.91,307.43v-48.67c0-.33-.18-.64-.46-.8l-54.08-31.22c-.31-.18-.66-.16-.93,0h0l2.06-1.2s.02-.02.03-.02l.03-.02h0c.14-.08.29-.12.45-.13.16,0,.32.04.48.13l54.08,31.22c.29.17.46.47.46.8v48.67c0,.33-.17.61-.42.77h0s-2.14,1.27-2.14,1.27h0c.25-.16.43-.44.43-.78Z" style="fill:#056473; stroke-width:0px;"/><path d="M165.91,307.43v-48.67c0-.33-.18-.64-.46-.8l-54.08-31.22c-.62-.36-1.39.09-1.39.8v48.67c0,.33.18.64.46.8l54.08,31.22c.62.36,1.39-.09,1.39-.8Z" style="fill:#fff; stroke-width:0px;"/><path d="M165.91,307.43v-48.67c0-.33-.18-.64-.46-.8l-54.08-31.22c-.62-.36-1.39.09-1.39.8v48.67c0,.33.18.64.46.8l54.08,31.22c.62.36,1.39-.09,1.39-.8Z" style="fill:url(#aj); stroke-width:0px;"/><g style="clip-path:url(#ak);"><polygon points="109.97 277.12 109.97 225.3 165.91 257.59 165.91 309.42 109.97 277.12" style="fill:#fff; opacity:.5; stroke-width:0px;"/><polygon points="120.37 282.45 109.97 276.45 109.97 228.65 120.37 234.65 120.37 282.45" style="fill:#32aaa0; opacity:.3; stroke-width:0px;"/><polygon points="130.01 243.98 122.88 239.87 122.88 238.85 130.01 242.96 130.01 243.98" style="fill:#32aaa0; stroke-width:0px;"/><polygon points="122.88 257.3 122.88 242.03 162.56 264.94 162.56 280.2 122.88 257.3" style="fill:#32aaa0; opacity:.1; stroke-width:0px;"/><polygon points="122.88 275.36 122.88 260.1 141.01 270.56 141.01 285.83 122.88 275.36" style="fill:#32aaa0; opacity:.25; stroke-width:0px;"/><polygon points="144.43 287.81 144.43 272.54 162.56 283.01 162.56 298.27 144.43 287.81" style="fill:#32aaa0; opacity:.25; stroke-width:0px;"/><polygon points="162.56 266.95 162.56 264.94 122.88 242.03 122.88 244.04 162.56 266.95" style="fill:#32aaa0; opacity:.2; stroke-width:0px;"/><polygon points="141.01 272.57 141.01 270.56 122.88 260.1 122.88 262.11 141.01 272.57" style="fill:#32aaa0; opacity:.4; stroke-width:0px;"/><polygon points="162.56 285.02 162.56 283.01 144.43 272.54 144.43 274.55 162.56 285.02" style="fill:#32aaa0; opacity:.4; stroke-width:0px;"/><polygon points="136.58 271.92 123.97 264.64 123.97 264.24 136.58 271.52 136.58 271.92" style="fill:#32aaa0; stroke-width:0px;"/><polygon points="136.58 274.91 123.97 267.62 123.97 267.23 136.58 274.51 136.58 274.91" style="fill:#32aaa0; stroke-width:0px;"/><polygon points="136.58 277.89 123.97 270.61 123.97 270.22 136.58 277.5 136.58 277.89" style="fill:#32aaa0; stroke-width:0px;"/><polygon points="136.58 280.88 123.97 273.6 123.97 273.21 136.58 280.49 136.58 280.88" style="fill:#32aaa0; stroke-width:0px;"/><polygon points="139.92 273.84 138.98 273.3 138.98 272.91 139.92 273.45 139.92 273.84" style="fill:#32aaa0; stroke-width:0px;"/><polygon points="139.92 276.83 138.98 276.29 138.98 275.9 139.92 276.44 139.92 276.83" style="fill:#32aaa0; stroke-width:0px;"/><polygon points="139.92 279.82 138.98 279.28 138.98 278.89 139.92 279.42 139.92 279.82" style="fill:#32aaa0; stroke-width:0px;"/><polygon points="139.92 282.81 138.98 282.27 138.98 281.87 139.92 282.41 139.92 282.81" style="fill:#32aaa0; stroke-width:0px;"/><polygon points="158.13 284.36 145.52 277.08 145.52 276.68 158.13 283.96 158.13 284.36" style="fill:#32aaa0; stroke-width:0px;"/><polygon points="158.13 287.35 145.52 280.07 145.52 279.67 158.13 286.95 158.13 287.35" style="fill:#32aaa0; stroke-width:0px;"/><polygon points="158.13 290.34 145.52 283.06 145.52 282.66 158.13 289.94 158.13 290.34" style="fill:#32aaa0; stroke-width:0px;"/><polygon points="158.13 293.32 145.52 286.04 145.52 285.65 158.13 292.93 158.13 293.32" style="fill:#32aaa0; stroke-width:0px;"/><polygon points="161.47 286.29 160.53 285.75 160.53 285.35 161.47 285.89 161.47 286.29" style="fill:#32aaa0; stroke-width:0px;"/><polygon points="161.47 289.27 160.53 288.74 160.53 288.34 161.47 288.88 161.47 289.27" style="fill:#32aaa0; stroke-width:0px;"/><polygon points="161.47 292.26 160.53 291.72 160.53 291.33 161.47 291.87 161.47 292.26" style="fill:#32aaa0; stroke-width:0px;"/><polygon points="161.47 295.25 160.53 294.71 160.53 294.32 161.47 294.86 161.47 295.25" style="fill:#32aaa0; stroke-width:0px;"/><g style="opacity:.6;"><polygon points="113.3 234.52 111.56 233.51 111.56 231.51 113.3 232.51 113.3 234.52" style="fill:#056473; stroke-width:0px;"/><polygon points="118.69 236.82 114.38 234.34 114.38 233.94 118.69 236.43 118.69 236.82" style="fill:#056473; stroke-width:0px;"/><polygon points="113.3 238.51 111.56 237.51 111.56 235.5 113.3 236.5 113.3 238.51" style="fill:#056473; stroke-width:0px;"/><polygon points="118.69 240.82 114.38 238.33 114.38 237.93 118.69 240.42 118.69 240.82" style="fill:#056473; stroke-width:0px;"/><polygon points="113.3 242.5 111.56 241.5 111.56 239.49 113.3 240.5 113.3 242.5" style="fill:#056473; stroke-width:0px;"/><polygon points="118.69 244.81 114.38 242.32 114.38 241.93 118.69 244.41 118.69 244.81" style="fill:#056473; stroke-width:0px;"/><polygon points="113.3 246.5 111.56 245.49 111.56 243.48 113.3 244.49 113.3 246.5" style="fill:#056473; stroke-width:0px;"/><polygon points="118.69 248.8 114.38 246.31 114.38 245.92 118.69 248.41 118.69 248.8" style="fill:#056473; stroke-width:0px;"/><polygon points="113.3 250.49 111.56 249.49 111.56 247.48 113.3 248.48 113.3 250.49" style="fill:#056473; stroke-width:0px;"/><polygon points="118.69 252.8 114.38 250.31 114.38 249.91 118.69 252.4 118.69 252.8" style="fill:#056473; stroke-width:0px;"/><polygon points="113.3 254.48 111.56 253.48 111.56 251.47 113.3 252.47 113.3 254.48" style="fill:#056473; stroke-width:0px;"/><polygon points="118.69 256.79 114.38 254.3 114.38 253.9 118.69 256.39 118.69 256.79" style="fill:#056473; stroke-width:0px;"/><polygon points="113.3 258.48 111.56 257.47 111.56 255.46 113.3 256.47 113.3 258.48" style="fill:#056473; stroke-width:0px;"/><polygon points="118.69 260.78 114.38 258.29 114.38 257.9 118.69 260.39 118.69 260.78" style="fill:#056473; stroke-width:0px;"/><polygon points="113.3 262.47 111.56 261.46 111.56 259.46 113.3 260.46 113.3 262.47" style="fill:#056473; stroke-width:0px;"/><polygon points="118.69 264.77 114.38 262.28 114.38 261.89 118.69 264.38 118.69 264.77" style="fill:#056473; stroke-width:0px;"/><polygon points="113.3 266.46 111.56 265.46 111.56 263.45 113.3 264.45 113.3 266.46" style="fill:#056473; stroke-width:0px;"/><polygon points="118.69 268.77 114.38 266.28 114.38 265.88 118.69 268.37 118.69 268.77" style="fill:#056473; stroke-width:0px;"/></g><polygon points="165.91 260.95 109.97 228.65 109.97 225.97 165.91 258.26 165.91 260.95" style="fill:#32aaa0; opacity:.2; stroke-width:0px;"/><g style="clip-path:url(#am);"><g style="opacity:.8;"><polygon points="122.47 255.87 127.06 252.03 131.5 259.85 137.84 256.98 140.38 262.33 141.98 261.83 145.62 268.41 151.23 264.32 157.65 275.35 162.97 271.49 162.97 281 122.47 257.62 122.47 255.87" style="fill:url(#an); stroke-width:0px;"/><polygon points="122.47 255.87 127.06 252.03 131.5 259.85 137.84 256.98 140.38 262.33 141.98 261.83 145.62 268.41 151.23 264.32 157.65 275.35 162.97 271.49 162.97 281 122.47 257.62 122.47 255.87" style="fill:none; opacity:.7; stroke:#32aaa0; stroke-miterlimit:10; stroke-width:.3px;"/></g></g></g><path d="M152.96,306.4l11.89,20.6,1.63-.94.45-3.21,4.64,3.2-1.28-4.38,2.19-.85.87,1.28,1.63-.94-11.89-20.6-1.63.94.27,3.72-4.82,1.51-2.33-1.27-1.63.94ZM160.86,310.33c0-2.89,2.03-4.06,4.53-2.62s4.53,4.96,4.53,7.85-2.03,4.06-4.53,2.62c-2.5-1.45-4.53-4.96-4.53-7.85Z" style="fill:#056473; stroke-width:0px;"/><path d="M157.23,311.54c.16.69.36,1.39.62,2.08l-1.46,1.76,2.4,4.15,2.26-.39c.47.57.97,1.1,1.5,1.58l.56,3.37,3.39,1.96.56-2.72c.52.12,1.02.17,1.5.15l2.26,3,2.4-1.38-1.46-3.45c.26-.4.46-.86.62-1.37l2.63.87v-3.91s-2.63-2.17-2.63-2.17c-.16-.69-.36-1.39-.62-2.08l1.46-1.76-2.4-4.15-2.26.39c-.47-.57-.97-1.1-1.5-1.58l-.56-3.37-3.39-1.96-.56,2.72c-.52-.12-1.02-.17-1.5-.15l-2.26-3-2.4,1.38,1.46,3.45c-.26.4-.46.86-.62,1.37l-2.63-.87v3.91s2.63,2.17,2.63,2.17ZM160.86,310.1c0-2.89,2.03-4.06,4.53-2.62,2.5,1.45,4.53,4.96,4.53,7.85s-2.03,4.06-4.53,2.62c-2.5-1.45-4.53-4.96-4.53-7.85ZM157.15,304.99s2.59.74,2.59.74,0-2.92,0-2.96-1.47-2.35-1.47-2.35l-1.86,1.08.75,3.49Z" style="fill:#056473; stroke-width:0px;"/><path d="M155.6,312.49c.16.69.36,1.39.62,2.08l-1.46,1.76,2.4,4.15,2.26-.39c.47.57.97,1.1,1.5,1.58l.56,3.37,3.39,1.96.56-2.72c.52.12,1.02.17,1.5.15l2.26,3,2.4-1.38-1.46-3.45c.26-.4.46-.86.62-1.37l2.63.87v-3.91s-2.63-2.17-2.63-2.17c-.16-.69-.36-1.39-.62-2.08l1.46-1.76-2.4-4.15-2.26.39c-.47-.57-.97-1.1-1.5-1.58l-.56-3.37-3.39-1.96-.56,2.72c-.52-.12-1.02-.17-1.5-.15l-2.26-3-2.4,1.38,1.46,3.45c-.26.4-.46.86-.62,1.37l-2.63-.87v3.91s2.63,2.17,2.63,2.17ZM158.63,311.63c0-2.89,2.03-4.06,4.53-2.62,2.5,1.45,4.53,4.96,4.53,7.85s-2.03,4.06-4.53,2.62-4.53-4.96-4.53-7.85Z" style="fill:#fff; stroke-width:0px;"/><path d="M155.6,312.49c.16.69.36,1.39.62,2.08l-1.46,1.76,2.4,4.15,2.26-.39c.47.57.97,1.1,1.5,1.58l.56,3.37,3.39,1.96.56-2.72c.52.12,1.02.17,1.5.15l2.26,3,2.4-1.38-1.46-3.45c.26-.4.46-.86.62-1.37l2.63.87v-3.91s-2.63-2.17-2.63-2.17c-.16-.69-.36-1.39-.62-2.08l1.46-1.76-2.4-4.15-2.26.39c-.47-.57-.97-1.1-1.5-1.58l-.56-3.37-3.39-1.96-.56,2.72c-.52-.12-1.02-.17-1.5-.15l-2.26-3-2.4,1.38,1.46,3.45c-.26.4-.46.86-.62,1.37l-2.63-.87v3.91s2.63,2.17,2.63,2.17ZM158.63,311.63c0-2.89,2.03-4.06,4.53-2.62,2.5,1.45,4.53,4.96,4.53,7.85s-2.03,4.06-4.53,2.62-4.53-4.96-4.53-7.85Z" style="fill:url(#ao); stroke-width:0px;"/><line x1="186" y1="33.56" x2="186" y2="621.44" style="fill:none; stroke:#32aaa0; stroke-linecap:round; stroke-linejoin:round;"/><ellipse cx="97.87" cy="153.65" rx="20.44" ry="11.8" transform="translate(-84.13 161.58) rotate(-60)" style="fill:#056473; stroke-width:0px;"/><ellipse cx="100.06" cy="155.04" rx="20.44" ry="11.8" transform="translate(-84.24 164.18) rotate(-60)" style="fill:#fff; stroke-width:0px;"/><ellipse cx="100.06" cy="155.04" rx="20.44" ry="11.8" transform="translate(-84.24 164.18) rotate(-60)" style="fill:url(#ap); stroke-width:0px;"/><rect x="88.87" y="150.07" width="23.05" height="3.84" transform="translate(-81.43 162.94) rotate(-60)" style="fill:#056473; stroke-width:0px;"/><polygon points="92.97 161.02 90.72 168.74 96.29 162.93 92.97 161.02" style="fill:#056473; stroke-width:0px;"/><rect x="88.87" y="150.07" width="23.05" height="3.84" transform="translate(-81.43 162.94) rotate(-60)" style="fill:#056473; stroke-width:0px;"/><polygon points="92.97 161.02 90.72 168.74 96.29 162.93 92.97 161.02" style="fill:#056473; stroke-width:0px;"/><polygon points="92.97 161.02 90.72 168.74 96.29 162.93 92.97 161.02" style="fill:#056473;"/><g style="clip-path:url(#aq);"><line x1="93.68" y1="165.95" x2="91.68" y2="164.81" style="fill:#056473; stroke-width:0px;"/></g><path d="M93.22,146.6l-3.33,5.76,15.43,8.91,3.33-5.76-15.43-8.91ZM93.39,150.54c-.31.53-.8.81-1.11.64-.31-.18-.31-.75,0-1.28.31-.53.8-.81,1.11-.64.31.18.31.75,0,1.28Z" style="fill:#056473; stroke-width:0px;"/><path d="M93.39,150.54c-.31.53-.8.81-1.11.64-.31-.18-.31-.75,0-1.28.31-.53.8-.81,1.11-.64.31.18.31.75,0,1.28Z" style="fill:#056473; stroke-width:0px;"/><polygon points="90.72 168.74 91.51 169.85 95.87 164.04 93.25 162.86 90.72 168.74" style="fill:#056473; stroke-width:0px;"/><rect x="89.66" y="151.18" width="23.05" height="3.84" transform="translate(-82 164.17) rotate(-60)" style="fill:#fff; stroke-width:0px;"/><polygon points="93.76 162.12 91.51 169.85 97.08 164.04 93.76 162.12" style="fill:#fff; stroke-width:0px;"/><rect x="89.66" y="151.18" width="23.05" height="3.84" transform="translate(-82 164.17) rotate(-60)" style="fill:url(#ar); stroke-width:0px;"/><rect x="104.89" y="142.38" width="2.74" height="3.84" transform="translate(-71.84 164.18) rotate(-60)" style="fill:#32aaa0; stroke-width:0px;"/><polygon points="93.76 162.12 91.51 169.85 97.08 164.04 93.76 162.12" style="fill:url(#as); stroke-width:0px;"/><g style="clip-path:url(#at);"><line x1="94.47" y1="167.06" x2="92.47" y2="165.91" style="fill:none; stroke:#056473; stroke-miterlimit:10; stroke-width:.52px;"/></g><path d="M94.01,147.71l-3.33,5.76,15.43,8.91,3.33-5.76-15.43-8.91ZM94.18,151.65c-.31.53-.8.81-1.11.64-.31-.18-.31-.75,0-1.28.31-.53.8-.81,1.11-.64.31.18.31.75,0,1.28Z" style="fill:#fff; stroke-width:0px;"/><path d="M94.01,147.71l-3.33,5.76,15.43,8.91,3.33-5.76-15.43-8.91ZM94.18,151.65c-.31.53-.8.81-1.11.64-.31-.18-.31-.75,0-1.28.31-.53.8-.81,1.11-.64.31.18.31.75,0,1.28Z" style="fill:url(#au); stroke-width:0px;"/><line x1="95.13" y1="151.71" x2="96.58" y2="149.19" style="fill:none; stroke:#056473; stroke-miterlimit:10; stroke-width:.52px;"/><line x1="96.41" y1="152.45" x2="97.87" y2="149.93" style="fill:none; stroke:#056473; stroke-miterlimit:10; stroke-width:.52px;"/><line x1="97.7" y1="153.19" x2="99.15" y2="150.68" style="fill:none; stroke:#056473; stroke-miterlimit:10; stroke-width:.52px;"/><line x1="98.99" y1="153.93" x2="100.44" y2="151.42" style="fill:none; stroke:#056473; stroke-miterlimit:10; stroke-width:.52px;"/><line x1="100.27" y1="154.68" x2="101.73" y2="152.16" style="fill:none; stroke:#056473; stroke-miterlimit:10; stroke-width:.52px;"/><line x1="101.56" y1="155.42" x2="103.01" y2="152.9" style="fill:none; stroke:#056473; stroke-miterlimit:10; stroke-width:.52px;"/><line x1="102.85" y1="156.16" x2="104.3" y2="153.65" style="fill:none; stroke:#056473; stroke-miterlimit:10; stroke-width:.52px;"/><line x1="104.13" y1="156.9" x2="105.58" y2="154.39" style="fill:none; stroke:#056473; stroke-miterlimit:10; stroke-width:.52px;"/><line x1="105.42" y1="157.65" x2="106.87" y2="155.13" style="fill:none; stroke:#056473; stroke-miterlimit:10; stroke-width:.52px;"/><line x1="106.7" y1="158.39" x2="108.16" y2="155.88" style="fill:none; stroke:#056473; stroke-miterlimit:10; stroke-width:.52px;"/><polygon points="90.68 153.47 89.89 152.36 93.22 146.6 94.01 147.71 90.68 153.47" style="fill:#056473; stroke-width:0px;"/><polygon points="108.61 144.08 107.82 142.97 104.49 141.05 105.28 142.16 108.61 144.08" style="fill:#056473; stroke-width:0px;"/><polygon points="108.65 155.51 109.44 156.62 103.4 153.1 103.67 152.64 108.65 155.51" style="fill:#056473; stroke-width:0px;"/><path d="M354.64,568.77l-69.42,40.08c-2.6,1.5-5.8,1.5-8.4,0l-69.42-40.08c-1.68-.97-1.68-3.4,0-4.37l69.42-40.08c2.6-1.5,5.8-1.5,8.4,0l69.42,40.08c1.68.97,1.68,3.4,0,4.37Z" style="fill:#1e2855; opacity:.02; stroke-width:0px;"/><path d="M340.59,568.36l-56.17,32.43c-2.1,1.21-4.7,1.21-6.8,0l-56.17-32.43c-1.36-.79-1.36-2.75,0-3.53l56.17-32.43c2.1-1.21,4.7-1.21,6.8,0l56.17,32.43c1.36.79,1.36,2.75,0,3.53Z" style="fill:#1e2855; opacity:.08; stroke-width:0px;"/><rect x="206.14" y="64.02" width="149.77" height="466.64" style="fill:url(#av); opacity:.2; stroke-width:0px;"/><rect x="331.28" y="529.4" width="24.62" height="17.84" style="fill:#1e2855; stroke-width:0px;"/><rect x="206.14" y="529.4" width="24.62" height="17.84" style="fill:#1e2855; stroke-width:0px;"/><path d="M354.64,549.42l-69.42,40.08c-2.6,1.5-5.8,1.5-8.4,0l-69.42-40.08c-1.68-.97-1.68-3.4,0-4.37l72.36-41.78c.78-.45,1.74-.45,2.52,0l72.36,41.78c1.68.97,1.68,3.4,0,4.37Z" style="fill:#1e2855; stroke-width:0px;"/><path d="M354.64,531.58l-69.42,40.08c-2.6,1.5-5.8,1.5-8.4,0l-69.42-40.08c-1.68-.97-1.68-3.4,0-4.37l69.42-40.08c2.6-1.5,5.8-1.5,8.4,0l69.42,40.08c1.68.97,1.68,3.4,0,4.37Z" style="fill:url(#aw); stroke-width:0px;"/><line x1="352.03" y1="541.91" x2="301.73" y2="570.95" style="fill:none; stroke:#beff82; stroke-linecap:round; stroke-miterlimit:10; stroke-width:1.33px;"/><ellipse cx="288.62" cy="578.51" rx="1.1" ry=".63" transform="translate(-356.7 539.21) rotate(-60)" style="fill:#beff82; stroke-width:0px;"/><ellipse cx="292.98" cy="576" rx="1.1" ry=".63" transform="translate(-352.34 541.72) rotate(-60)" style="fill:#beff82; stroke-width:0px;"/><ellipse cx="297.33" cy="573.49" rx="1.1" ry=".63" transform="translate(-347.99 544.24) rotate(-60)" style="fill:#beff82; stroke-width:0px;"/><path d="M282.7,503.63l48.88,28.22,1.58-.91c1.19-.69,1.19-2.41,0-3.09l-50.46-29.13c-1.04-.6-2.32-.6-3.36,0l-50.46,29.13c-1.19.69-1.19,2.41,0,3.09l1.58.91,48.88-28.22c1.04-.6,2.32-.6,3.36,0Z" style="fill:#1e2855; stroke-width:0px;"/><path d="M283.12,559.83l48.46-27.98-49.67-28.68c-.55-.32-1.23-.32-1.79,0l-49.67,28.68,48.46,27.98c1.3.75,2.9.75,4.2,0Z" style="fill:url(#ax); stroke-width:0px;"/><rect x="315.07" y="490.33" width="16.68" height="3.41" style="fill:#1e2855; stroke-width:0px;"/><rect x="230.3" y="490.33" width="16.68" height="3.41" style="fill:#1e2855; stroke-width:0px;"/><path d="M330.89,495.22l-47.02,27.15c-1.76,1.02-3.93,1.02-5.69,0l-47.02-27.15c-1.14-.66-1.14-2.3,0-2.96l47.02-27.15c1.76-1.02,3.93-1.02,5.69,0l47.02,27.15c1.14.66,1.14,2.3,0,2.96Z" style="fill:#1e2855; stroke-width:0px;"/><path d="M330.89,491.81l-47.02,27.15c-1.76,1.02-3.93,1.02-5.69,0l-47.02-27.15c-1.14-.66-1.14-2.3,0-2.96l47.02-27.15c1.76-1.02,3.93-1.02,5.69,0l47.02,27.15c1.14.66,1.14,2.3,0,2.96Z" style="fill:url(#ay); stroke-width:0px;"/><path d="M300.71,488.24l-18.77,10.83c-.57.33-1.27.33-1.85,0l-18.77-10.83c-.42-.24-.42-.85,0-1.1l18.77-10.83c.57-.33,1.27-.33,1.85,0l18.77,10.83c.42.24.42.85,0,1.1Z" style="fill:#fff; stroke-width:0px;"/><rect x="261.01" y="420.32" width="40.01" height="67.38" style="fill:url(#az); opacity:.4; stroke-width:0px;"/><rect x="317.26" y="328.57" width="6.62" height="6.62" rx="1.74" ry="1.74" transform="translate(-11.3 652.45) rotate(-90)" style="fill:url(#ba); opacity:.4; stroke-width:0px;"/><rect x="318.03" y="351.35" width="5.09" height="5.09" rx="1.34" ry="1.34" transform="translate(-33.32 674.47) rotate(-90)" style="fill:url(#bb); opacity:.4; stroke-width:0px;"/><rect x="318.03" y="340.34" width="5.09" height="5.09" rx="1.34" ry="1.34" transform="translate(-22.31 663.46) rotate(-90)" style="fill:url(#bc); opacity:.4; stroke-width:0px;"/><rect x="324.43" y="77.68" width="2.84" height="2.84" rx=".74" ry=".74" transform="translate(246.74 404.94) rotate(-90)" style="fill:url(#bd); opacity:.4; stroke-width:0px;"/><rect x="324.43" y="71.55" width="2.84" height="2.84" rx=".74" ry=".74" transform="translate(252.88 398.81) rotate(-90)" style="fill:url(#be); opacity:.4; stroke-width:0px;"/><rect x="329.02" y="329.33" width="5.09" height="5.09" rx="1.34" ry="1.34" transform="translate(-.31 663.44) rotate(-90)" style="fill:url(#bf); opacity:.4; stroke-width:0px;"/><rect x="328.26" y="317.56" width="6.62" height="6.62" rx="1.74" ry="1.74" transform="translate(10.7 652.43) rotate(-90)" style="fill:url(#bg); opacity:.4; stroke-width:0px;"/><rect x="235.23" y="286.48" width="6.06" height="6.06" rx="1.59" ry="1.59" transform="translate(-51.24 527.77) rotate(-90)" style="fill:url(#bh); opacity:.4; stroke-width:0px;"/><rect x="235.93" y="297.26" width="4.66" height="4.66" rx="1.22" ry="1.22" transform="translate(-61.32 537.85) rotate(-90)" style="fill:url(#bi); opacity:.4; stroke-width:0px;"/><rect x="225.87" y="287.18" width="4.66" height="4.66" rx="1.22" ry="1.22" transform="translate(-61.31 517.71) rotate(-90)" style="fill:url(#bj); opacity:.4; stroke-width:0px;"/><rect x="225.17" y="276.39" width="6.06" height="6.06" rx="1.59" ry="1.59" transform="translate(-51.22 507.62) rotate(-90)" style="fill:url(#bk); opacity:.4; stroke-width:0px;"/><rect x="324" y="83.39" width="3.69" height="3.69" rx=".97" ry=".97" transform="translate(240.61 411.08) rotate(-90)" style="fill:url(#bl); opacity:.4; stroke-width:0px;"/><rect x="343.17" y="458.01" width="5.09" height="5.09" rx="1.34" ry="1.34" transform="translate(-114.85 806.27) rotate(-90)" style="fill:url(#bm); opacity:.4; stroke-width:0px;"/><rect x="343.17" y="447" width="5.09" height="5.09" rx="1.34" ry="1.34" transform="translate(-103.84 795.26) rotate(-90)" style="fill:url(#bn); opacity:.4; stroke-width:0px;"/><rect x="342.4" y="468.26" width="6.62" height="6.62" rx="1.74" ry="1.74" transform="translate(-125.86 817.28) rotate(-90)" style="fill:url(#bo); opacity:.4; stroke-width:0px;"/><path d="M293.42,96.55v20.04c0,.94-.26,1.65-.69,2.06-.17.17-.37.28-.6.34l-1.33.77-.79-1.4-17.76-10.26c-1.55-.9-2.81-3.3-2.81-5.36v-20.04c0-.21.01-.42.04-.6l-.5-.88,1.31-.71c.1-.07.21-.13.32-.17h0c.46-.18,1.03-.11,1.64.24l18.37,10.61c1.55.9,2.81,3.3,2.81,5.36Z" style="fill:#1e2855; stroke-width:0px;"/><line x1="271.62" y1="81.15" x2="271.62" y2="78.17" style="fill:none; stroke:#056473; stroke-linecap:round; stroke-linejoin:round; stroke-width:.62px;"/><line x1="274.59" y1="82.86" x2="274.59" y2="79.89" style="fill:none; stroke:#056473; stroke-linecap:round; stroke-linejoin:round; stroke-width:.62px;"/><line x1="277.56" y1="84.58" x2="277.56" y2="81.6" style="fill:none; stroke:#056473; stroke-linecap:round; stroke-linejoin:round; stroke-width:.62px;"/><line x1="280.53" y1="86.29" x2="280.53" y2="83.32" style="fill:none; stroke:#056473; stroke-linecap:round; stroke-linejoin:round; stroke-width:.62px;"/><line x1="283.5" y1="88.01" x2="283.5" y2="85.03" style="fill:none; stroke:#056473; stroke-linecap:round; stroke-linejoin:round; stroke-width:.62px;"/><line x1="286.47" y1="89.72" x2="286.47" y2="86.74" style="fill:none; stroke:#056473; stroke-linecap:round; stroke-linejoin:round; stroke-width:.62px;"/><line x1="289.44" y1="91.43" x2="289.44" y2="88.46" style="fill:none; stroke:#056473; stroke-linecap:round; stroke-linejoin:round; stroke-width:.62px;"/><line x1="292.36" y1="96.48" x2="294.96" y2="97.98" style="fill:none; stroke:#056473; stroke-linecap:round; stroke-linejoin:round; stroke-width:.62px;"/><line x1="292.36" y1="99.89" x2="294.96" y2="101.39" style="fill:none; stroke:#056473; stroke-linecap:round; stroke-linejoin:round; stroke-width:.62px;"/><line x1="292.36" y1="103.3" x2="294.96" y2="104.79" style="fill:none; stroke:#056473; stroke-linecap:round; stroke-linejoin:round; stroke-width:.62px;"/><line x1="292.36" y1="106.7" x2="294.96" y2="108.2" style="fill:none; stroke:#056473; stroke-linecap:round; stroke-linejoin:round; stroke-width:.62px;"/><line x1="292.36" y1="110.11" x2="294.96" y2="111.61" style="fill:none; stroke:#056473; stroke-linecap:round; stroke-linejoin:round; stroke-width:.62px;"/><line x1="292.36" y1="113.52" x2="294.96" y2="115.01" style="fill:none; stroke:#056473; stroke-linecap:round; stroke-linejoin:round; stroke-width:.62px;"/><line x1="292.36" y1="116.92" x2="294.96" y2="118.42" style="fill:none; stroke:#056473; stroke-linecap:round; stroke-linejoin:round; stroke-width:.62px;"/><line x1="289.44" y1="118.59" x2="289.44" y2="121.57" style="fill:none; stroke:#056473; stroke-linecap:round; stroke-linejoin:round; stroke-width:.62px;"/><line x1="286.47" y1="116.88" x2="286.47" y2="119.86" style="fill:none; stroke:#056473; stroke-linecap:round; stroke-linejoin:round; stroke-width:.62px;"/><line x1="283.5" y1="115.17" x2="283.5" y2="118.14" style="fill:none; stroke:#056473; stroke-linecap:round; stroke-linejoin:round; stroke-width:.62px;"/><line x1="280.53" y1="113.45" x2="280.53" y2="116.43" style="fill:none; stroke:#056473; stroke-linecap:round; stroke-linejoin:round; stroke-width:.62px;"/><line x1="277.56" y1="111.74" x2="277.56" y2="114.71" style="fill:none; stroke:#056473; stroke-linecap:round; stroke-linejoin:round; stroke-width:.62px;"/><line x1="274.59" y1="110.02" x2="274.59" y2="113" style="fill:none; stroke:#056473; stroke-linecap:round; stroke-linejoin:round; stroke-width:.62px;"/><line x1="271.62" y1="108.31" x2="271.62" y2="111.29" style="fill:none; stroke:#056473; stroke-linecap:round; stroke-linejoin:round; stroke-width:.62px;"/><line x1="268.7" y1="103.26" x2="266.1" y2="101.76" style="fill:none; stroke:#056473; stroke-linecap:round; stroke-linejoin:round; stroke-width:.62px;"/><line x1="268.7" y1="99.85" x2="266.1" y2="98.35" style="fill:none; stroke:#056473; stroke-linecap:round; stroke-linejoin:round; stroke-width:.62px;"/><line x1="268.7" y1="96.45" x2="266.1" y2="94.95" style="fill:none; stroke:#056473; stroke-linecap:round; stroke-linejoin:round; stroke-width:.62px;"/><line x1="268.7" y1="93.04" x2="266.1" y2="91.54" style="fill:none; stroke:#056473; stroke-linecap:round; stroke-linejoin:round; stroke-width:.62px;"/><line x1="268.7" y1="89.63" x2="266.1" y2="88.13" style="fill:none; stroke:#056473; stroke-linecap:round; stroke-linejoin:round; stroke-width:.62px;"/><line x1="268.7" y1="86.23" x2="266.1" y2="84.73" style="fill:none; stroke:#056473; stroke-linecap:round; stroke-linejoin:round; stroke-width:.62px;"/><line x1="268.7" y1="82.82" x2="266.1" y2="81.32" style="fill:none; stroke:#056473; stroke-linecap:round; stroke-linejoin:round; stroke-width:.62px;"/><path d="M289.12,119.53l-18.37-10.61c-1.55-.89-2.81-3.3-2.81-5.36v-20.04c0-2.07,1.26-3.02,2.81-2.12l18.37,10.61c1.55.89,2.81,3.3,2.81,5.36v20.04c0,2.07-1.26,3.02-2.81,2.12Z" style="fill:#cdebe6; stroke-width:0px;"/><path d="M289.12,119.53l-18.37-10.61c-1.55-.89-2.81-3.3-2.81-5.36v-20.04c0-2.07,1.26-3.02,2.81-2.12l18.37,10.61c1.55.89,2.81,3.3,2.81,5.36v20.04c0,2.07-1.26,3.02-2.81,2.12Z" style="fill:url(#bp); stroke-width:0px;"/><path d="M285.87,110.84l-10.39-6c-.88-.51-1.59-1.86-1.59-3.03v-11.33c0-1.17.71-1.71,1.59-1.2l10.39,6c.88.51,1.59,1.86,1.59,3.03v11.33c0,1.17-.71,1.71-1.59,1.2Z" style="fill:#1e2855; stroke-width:0px;"/><path d="M285.12,111.25l-10.39-6c-.88-.51-1.59-1.86-1.59-3.03v-11.33c0-1.17.71-1.71,1.59-1.2l10.39,6c.88.51,1.59,1.86,1.59,3.03v11.33c0,1.17-.71,1.71-1.59,1.2Z" style="fill:#fff; stroke-width:0px;"/><path d="M285.12,111.25l-10.39-6c-.88-.51-1.59-1.86-1.59-3.03v-11.33c0-1.17.71-1.71,1.59-1.2l10.39,6c.88.51,1.59,1.86,1.59,3.03v11.33c0,1.17-.71,1.71-1.59,1.2Z" style="fill:url(#bq); opacity:.7; stroke-width:0px;"/><path d="M278,100.59c-.31-.1-.58-.22-.83-.36s-.44-.29-.59-.44c-.15-.15-.26-.33-.35-.53-.08-.2-.14-.41-.17-.64-.03-.22-.05-.49-.05-.8,0-.65.08-1.06.24-1.23.16-.16.46-.12.89.13.25.14.54.35.86.63l-.02.54c-.29-.21-.52-.38-.71-.49s-.32-.16-.4-.15c-.08.01-.14.09-.18.23s-.06.41-.06.8.04.68.12.88c.08.2.24.36.48.5.24.14.49.26.76.37v.57Z" style="fill:#056473; stroke-width:0px;"/><path d="M279.85,100.73l-.49-.28v.98l-.6-.35v-3.38l1.08.62c.7.4,1.05,1,1.05,1.78,0,.39-.09.64-.27.75-.18.11-.44.06-.78-.14ZM279.37,99.87l.48.28c.3.17.45.04.45-.38,0-.21-.04-.38-.11-.51-.07-.13-.18-.24-.34-.33l-.48-.28v1.22Z" style="fill:#056473; stroke-width:0px;"/><path d="M282.17,101.93c0,.39.17.69.52.89.35.2.52.11.52-.29v-2.25l.6.34v2.24c0,.41-.09.66-.28.75-.19.09-.47.02-.84-.2s-.66-.48-.84-.78c-.19-.3-.28-.66-.28-1.07v-2.24l.6.34v2.25Z" style="fill:#056473; stroke-width:0px;"/><g style="opacity:.3;"><polyline points="244.58 174.19 251.17 174.19 238.06 154.4 224.96 174.19 231.55 174.19 231.55 187.67 234.13 187.67" style="fill:none; stroke:#32aaa0; stroke-linecap:round; stroke-linejoin:round; stroke-width:1.41px;"/><line x1="244.58" y1="179.05" x2="244.58" y2="187.67" style="fill:none; stroke:#32aaa0; stroke-linecap:round; stroke-linejoin:round; stroke-width:1.41px;"/><line x1="248.89" y1="183.36" x2="240.27" y2="183.36" style="fill:none; stroke:#32aaa0; stroke-linecap:round; stroke-linejoin:round; stroke-width:1.41px;"/></g><path d="M345.67,187.65l-3.24-1.88s-.02-.01-.03-.02l-.03-.02h0c-.13-.07-.27-.12-.43-.12-.15,0-.31.03-.45.12l-51.23,29.58c-.27.16-.44.45-.44.76v42.87c0,.32.16.57.39.73h0s3.32,1.94,3.32,1.94l48.83-31.48c.27-.16.44-.45.44-.76l2.86-41.7Z" style="fill:#1e2855; stroke-width:0px;"/><g style="clip-path:url(#br);"><path d="M293.12,260.85v-42.87c0-.31.17-.61.44-.76l51.23-29.58c.59-.34,1.32.08,1.32.76v42.87c0,.31-.17.61-.44.76l-51.23,29.58c-.59.34-1.32-.08-1.32-.76Z" style="fill:url(#bs); stroke-width:0px;"/><polygon points="304.14 256.01 293.12 262.42 293.12 217.48 304.14 211.07 304.14 256.01" style="fill:url(#bt); stroke-width:0px;"/><path d="M345.23,188.1c.15,0,.31.12.31.31v42.87c0,.11-.06.21-.15.27l-51.23,29.58s-.1.04-.15.04c-.15,0-.31-.12-.31-.31v-42.87c0-.11.06-.21.15-.27l51.23-29.58s.1-.04.15-.04M345.23,187.53c-.15,0-.3.04-.44.12l-51.23,29.58c-.27.16-.44.45-.44.76v42.87c0,.51.42.88.88.88.15,0,.3-.04.44-.12l51.23-29.58c.27-.16.44-.45.44-.76v-42.87c0-.51-.42-.88-.88-.88h0Z" style="fill:#beff82; stroke-width:0px;"/><line x1="296.21" y1="224.22" x2="301.84" y2="220.87" style="fill:none; stroke:#fff; stroke-linecap:round; stroke-miterlimit:10; stroke-width:.57px;"/><line x1="296.21" y1="228.12" x2="301.84" y2="224.76" style="fill:none; stroke:#fff; stroke-linecap:round; stroke-miterlimit:10; stroke-width:.57px;"/><line x1="296.21" y1="232.02" x2="301.84" y2="228.66" style="fill:none; stroke:#fff; stroke-linecap:round; stroke-miterlimit:10; stroke-width:.57px;"/><line x1="296.21" y1="235.92" x2="301.84" y2="232.56" style="fill:none; stroke:#fff; stroke-linecap:round; stroke-miterlimit:10; stroke-width:.57px;"/><line x1="296.21" y1="239.81" x2="301.84" y2="236.46" style="fill:none; stroke:#fff; stroke-linecap:round; stroke-miterlimit:10; stroke-width:.57px;"/><line x1="296.21" y1="243.71" x2="301.84" y2="240.35" style="fill:none; stroke:#fff; stroke-linecap:round; stroke-miterlimit:10; stroke-width:.57px;"/><line x1="296.21" y1="247.61" x2="301.84" y2="244.25" style="fill:none; stroke:#fff; stroke-linecap:round; stroke-miterlimit:10; stroke-width:.57px;"/></g><polygon points="305.6 236.51 309.24 225.12 313.89 231.65 317.65 224.83 322.3 227.5 330.31 205.24 338.62 213.25 343.77 202.86 343.77 230.21 305.6 252.24 305.6 236.51" style="fill:url(#bu); opacity:.5; stroke-width:0px;"/><polyline points="305.6 236.51 309.24 225.12 313.89 231.65 317.65 224.83 322.3 227.5 330.31 205.24 338.62 213.25 343.77 202.86" style="fill:none; stroke:#32aaa0; stroke-linecap:round; stroke-miterlimit:10; stroke-width:.57px;"/><path d="M358.51,219.79l-1.71,2.42-6.3-1.98.35-4.86-3.47-2-15.55,26.94,3.47,2,1.14-1.67-2.27,4.84,3.47,2,6.06-4.19-.75,3.44,3.47,2,15.55-26.94-3.47-2ZM345.72,237.19c-3.27,1.89-5.93.36-5.93-3.42s2.65-8.38,5.93-10.27,5.93-.36,5.93,3.42-2.65,8.38-5.93,10.27Z" style="fill:#1e2855; stroke-width:0px;"/><path d="M358.51,224.91v-5.12s-3.44,1.14-3.44,1.14c-.2-.67-.48-1.27-.81-1.79l1.91-4.52-3.13-1.81-2.95,3.92c-.62-.03-1.27.04-1.96.2l-.74-3.55-4.43,2.56-.74,4.4c-.68.63-1.34,1.32-1.96,2.06l-2.95-.5-3.13,5.43,1.91,2.31c-.33.9-.61,1.82-.81,2.73l-3.44,2.84v5.12s3.44-1.14,3.44-1.14c.2.67.48,1.27.81,1.79l-1.91,4.52,3.13,1.81,2.95-3.92c.62.03,1.27-.04,1.96-.2l.74,3.55,4.43-2.56.74-4.4c.68-.63,1.34-1.32,1.96-2.06l2.95.5,3.13-5.43-1.91-2.31c.33-.9.6-1.82.81-2.73l3.44-2.84ZM345.72,236.9c-3.27,1.89-5.93.36-5.93-3.42,0-3.78,2.65-8.38,5.93-10.27s5.93-.36,5.93,3.42-2.65,8.38-5.93,10.27ZM357.48,215.38l-2.44-1.41s-1.93,3.01-1.92,3.07,0,3.87,0,3.87,3.38-.96,3.38-.96l.98-4.56Z" style="fill:#1e2855; stroke-width:0px;"/><path d="M361.97,226.91v-5.12s-3.44,1.14-3.44,1.14c-.2-.67-.48-1.27-.81-1.79l1.91-4.52-3.13-1.81-2.95,3.92c-.62-.03-1.27.04-1.96.2l-.74-3.55-4.43,2.56-.74,4.4c-.68.63-1.34,1.32-1.96,2.06l-2.95-.5-3.13,5.43,1.91,2.31c-.33.9-.61,1.82-.81,2.73l-3.44,2.84v5.12s3.44-1.14,3.44-1.14c.2.67.48,1.27.81,1.79l-1.91,4.52,3.13,1.81,2.95-3.92c.62.03,1.27-.04,1.96-.2l.74,3.55,4.43-2.56.74-4.4c.68-.63,1.34-1.32,1.96-2.06l2.95.5,3.13-5.43-1.91-2.31c.33-.9.6-1.82.81-2.73l3.44-2.84ZM348.64,238.9c-3.27,1.89-5.93.36-5.93-3.42,0-3.78,2.65-8.38,5.93-10.27,3.27-1.89,5.93-.36,5.93,3.42s-2.65,8.38-5.93,10.27Z" style="fill:url(#bv); stroke-width:0px;"/><path d="M356.65,215.56l2.26,1.3-1.72,4.05-.12.28.16.25c.3.47.55,1.03.74,1.65l.17.56.56-.18,2.69-.89v4.06l-3.24,2.67-.15.12-.04.19c-.2.88-.46,1.77-.79,2.65l-.11.31.21.25,1.66,2-2.74,4.74-2.56-.44-.32-.06-.21.25c-.6.72-1.24,1.4-1.9,2.01l-.14.13-.03.19-.69,4.14-3.52,2.03-.58-2.78-.12-.57-.57.13c-.53.12-1.05.19-1.53.19-.09,0-.18,0-.26,0h-.3s-.18.23-.18.23l-2.65,3.51-2.26-1.3,1.72-4.05.12-.28-.16-.25c-.3-.47-.55-1.03-.74-1.65l-.17-.56-.56.18-2.69.89v-4.06l3.24-2.67.15-.12.04-.19c.2-.88.46-1.77.79-2.65l.11-.31-.21-.25-1.66-2,2.74-4.74,2.56.44.32.06.21-.25c.6-.72,1.24-1.4,1.9-2.01l.14-.13.03-.19.69-4.14,3.52-2.03.58,2.78.12.57.57-.13c.53-.12,1.05-.19,1.53-.19.09,0,.18,0,.26,0h.3s.18-.23.18-.23l2.65-3.51M356.5,214.81l-2.95,3.92c-.1,0-.19,0-.29,0-.53,0-1.09.07-1.66.2l-.74-3.55-4.43,2.56-.74,4.4c-.68.63-1.34,1.32-1.96,2.06l-2.95-.5-3.13,5.43,1.91,2.31c-.33.9-.61,1.82-.81,2.73l-3.44,2.84v5.12l3.44-1.14c.2.67.48,1.27.81,1.79l-1.91,4.52,3.13,1.81,2.95-3.92c.1,0,.19,0,.29,0,.53,0,1.09-.07,1.66-.2l.74,3.55,4.43-2.56.74-4.4c.68-.63,1.34-1.32,1.96-2.06l2.95.5,3.13-5.43-1.91-2.31c.33-.9.6-1.82.81-2.73l3.44-2.84v-5.12l-3.44,1.14c-.2-.67-.47-1.27-.81-1.79l1.91-4.52-3.13-1.81h0Z" style="fill:url(#bw); stroke-width:0px;"/><path d="M351.28,224.4c1.94,0,3.28,1.55,3.28,4.23,0,3.78-2.65,8.38-5.93,10.27-.95.55-1.85.81-2.65.81-1.95,0-3.28-1.55-3.28-4.23,0-3.78,2.65-8.38,5.93-10.27.95-.55,1.85-.81,2.65-.81M351.29,223.83h0c-.93,0-1.91.3-2.93.89-3.43,1.98-6.21,6.81-6.21,10.76,0,2.92,1.51,4.8,3.85,4.8.93,0,1.91-.3,2.93-.89,3.43-1.98,6.21-6.81,6.21-10.76,0-2.92-1.51-4.8-3.85-4.8h0Z" style="fill:url(#bx); stroke-width:0px;"/><path d="M365.32,195.66l-1.15,1.64-4.26-1.34.24-3.29-2.34-1.35-10.52,18.22,2.34,1.35.77-1.13-1.53,3.27,2.34,1.35,4.1-2.83-.5,2.32,2.34,1.35,10.52-18.22-2.34-1.35ZM356.68,207.42c-2.21,1.28-4.01.24-4.01-2.31s1.79-5.66,4.01-6.94,4.01-.24,4.01,2.31-1.79,5.66-4.01,6.94Z" style="fill:#1e2855; stroke-width:0px;"/><path d="M365.32,199.12v-3.46s-2.33.77-2.33.77c-.14-.45-.32-.86-.55-1.21l1.29-3.05-2.12-1.22-2,2.65c-.42-.02-.86.02-1.32.13l-.5-2.4-3,1.73-.5,2.98c-.46.43-.91.89-1.32,1.4l-2-.34-2.12,3.67,1.29,1.56c-.23.61-.41,1.23-.55,1.84l-2.33,1.92v3.46s2.33-.77,2.33-.77c.14.45.32.86.55,1.21l-1.29,3.05,2.12,1.22,2-2.65c.42.02.86-.02,1.32-.13l.5,2.4,3-1.73.5-2.98c.46-.43.91-.89,1.32-1.4l2,.34,2.12-3.67-1.29-1.56c.23-.61.41-1.23.55-1.84l2.33-1.92ZM356.68,207.22c-2.21,1.28-4.01.24-4.01-2.31s1.79-5.66,4.01-6.94,4.01-.24,4.01,2.31-1.79,5.66-4.01,6.94ZM364.63,192.67l-1.65-.95s-1.31,2.04-1.3,2.07,0,2.62,0,2.62,2.29-.65,2.29-.65l.66-3.09Z" style="fill:#1e2855; stroke-width:0px;"/><path d="M367.67,200.47v-3.46s-2.33.77-2.33.77c-.14-.45-.32-.86-.55-1.21l1.29-3.05-2.12-1.22-2,2.65c-.42-.02-.86.02-1.32.13l-.5-2.4-3,1.73-.5,2.98c-.46.43-.91.89-1.32,1.4l-2-.34-2.12,3.67,1.29,1.56c-.23.61-.41,1.23-.55,1.84l-2.33,1.92v3.46s2.33-.77,2.33-.77c.14.45.32.86.55,1.21l-1.29,3.05,2.12,1.22,2-2.65c.42.02.86-.02,1.32-.13l.5,2.4,3-1.73.5-2.98c.46-.43.91-.89,1.32-1.4l2,.34,2.12-3.67-1.29-1.56c.23-.61.41-1.23.55-1.84l2.33-1.92ZM358.65,208.57c-2.21,1.28-4.01.24-4.01-2.31,0-2.56,1.79-5.66,4.01-6.94s4.01-.24,4.01,2.31-1.79,5.66-4.01,6.94Z" style="fill:url(#by); stroke-width:0px;"/><path d="M364.07,192.79l1.53.88-1.16,2.74-.08.19.11.17c.21.32.38.7.5,1.11l.11.38.38-.12,1.82-.6v2.74l-2.19,1.8-.1.08-.03.13c-.13.6-.31,1.2-.53,1.79l-.08.21.14.17,1.12,1.35-1.85,3.21-1.73-.3-.22-.04-.14.17c-.41.49-.84.94-1.29,1.36l-.1.09-.02.13-.47,2.8-2.38,1.37-.39-1.88-.08-.39-.39.09c-.36.08-.71.13-1.04.13-.06,0-.12,0-.18,0h-.2s-.12.15-.12.15l-1.79,2.38-1.53-.88,1.16-2.74.08-.19-.11-.17c-.21-.32-.38-.7-.5-1.11l-.11-.38-.38.12-1.82.6v-2.74l2.19-1.8.1-.08.03-.13c.13-.6.31-1.2.53-1.79l.08-.21-.14-.17-1.12-1.35,1.85-3.21,1.73.3.22.04.14-.17c.41-.49.84-.94,1.29-1.36l.1-.09.02-.13.47-2.8,2.38-1.37.39,1.88.08.39.39-.09c.36-.08.71-.13,1.04-.13.06,0,.12,0,.18,0h.2s.12-.15.12-.15l1.79-2.38M363.97,192.29l-2,2.65c-.07,0-.13,0-.2,0-.36,0-.73.05-1.13.14l-.5-2.4-3,1.73-.5,2.98c-.46.43-.91.89-1.32,1.4l-2-.34-2.12,3.67,1.29,1.56c-.23.61-.41,1.23-.55,1.84l-2.33,1.92v3.46l2.33-.77c.14.45.32.86.55,1.21l-1.29,3.05,2.12,1.22,2-2.65c.06,0,.13,0,.2,0,.36,0,.74-.05,1.13-.14l.5,2.4,3-1.73.5-2.98c.46-.43.91-.89,1.32-1.4l2,.34,2.12-3.67-1.29-1.56c.23-.61.41-1.23.55-1.84l2.33-1.92v-3.46l-2.33.77c-.14-.45-.32-.86-.55-1.21l1.29-3.05-2.12-1.22h0Z" style="fill:url(#bz); stroke-width:0px;"/><path d="M360.44,198.77c1.32,0,2.22,1.05,2.22,2.86,0,2.56-1.79,5.66-4.01,6.94-.64.37-1.25.55-1.79.55-1.32,0-2.22-1.05-2.22-2.86,0-2.56,1.79-5.66,4.01-6.94.64-.37,1.25-.55,1.79-.55M360.44,198.38h0c-.63,0-1.29.2-1.98.6-2.32,1.34-4.2,4.6-4.2,7.28,0,1.97,1.02,3.25,2.6,3.25.63,0,1.29-.2,1.98-.6,2.32-1.34,4.2-4.6,4.2-7.28,0-1.97-1.02-3.25-2.6-3.25h0Z" style="fill:url(#ca); stroke-width:0px;"/><path d="M217.02,430.2v-48.3c0-.42.23-.81.59-1.03l68.98-39.83c.4-.23.84-.2,1.19,0h0l-1.31-.76s-.03-.02-.04-.03l-.04-.03h0c-.17-.1-.37-.16-.57-.16-.2,0-.41.05-.61.16l-68.98,39.83c-.37.21-.59.6-.59,1.03v48.3c0,.43.22.77.53.98h0s1.42.84,1.42.84h0c-.32-.21-.55-.56-.55-1Z" style="fill:#32aaa0; stroke-width:0px;"/><path d="M217.02,430.2v-48.3c0-.42.23-.81.59-1.03l68.98-39.83c.79-.46,1.78.11,1.78,1.03v48.3c0,.42-.23.81-.59,1.03l-68.98,39.83c-.79.46-1.78-.11-1.78-1.03Z" style="fill:url(#cb); stroke-width:0px;"/><path d="M217.02,430.2v-48.3c0-.42.23-.81.59-1.03l68.98-39.83c.79-.46,1.78.11,1.78,1.03v48.3c0,.42-.23.81-.59,1.03l-68.98,39.83c-.79.46-1.78-.11-1.78-1.03Z" style="fill:none; stroke-width:0px;"/><polygon points="284.1 351.49 282.56 350.61 280.57 351.43 282.12 353.22 284.1 351.49" style="fill:#1e2855; stroke-width:0px;"/><path d="M224.49,382.81l55.7-32.16c1.63-.94,3.66.23,3.66,2.11v32.96c0,1.78-.95,3.43-2.49,4.32l-55.7,32.16c-1.63.94-3.66-.23-3.66-2.11v-32.96c0-1.78.95-3.43,2.49-4.32Z" style="fill:#1e2855; stroke-width:0px;"/><polygon points="223.25 422.22 224.67 423.04 225.71 421.14 223.58 420.75 223.25 422.22" style="fill:#1e2855; stroke-width:0px;"/><path d="M225.91,383.62l55.7-32.16c1.63-.94,3.66.23,3.66,2.11v32.96c0,1.78-.95,3.43-2.49,4.32l-55.7,32.16c-1.63.94-3.66-.23-3.66-2.11v-32.96c0-1.78.95-3.43,2.49-4.32Z" style="fill:url(#cc); stroke-width:0px;"/><path d="M234.56,391.42l.74,1.63-1.41.81.67-2.44ZM233.88,390.55l-1.84,6.34,1.21-.7.34-1.24,2.04-1.18.37.83,1.23-.71-2.03-4.11-1.32.76Z" style="fill:#fff; stroke-width:0px;"/><polygon points="241.69 386.04 242.68 385.47 242.68 390.75 241.54 391.4 241.54 388.11 240.31 390.47 240.14 390.58 238.9 389.63 238.9 392.93 237.76 393.59 237.76 388.31 238.75 387.74 240.22 388.85 241.69 386.04" style="fill:#fff; stroke-width:0px;"/><path d="M245.57,383.8c1.67-.96,2.53-.26,2.53,1.19,0,1.52-.83,3.11-2.65,4.16l-1.89,1.09v-5.28s2.02-1.16,2.02-1.16ZM244.69,388.62l.74-.43c1.15-.66,1.49-1.76,1.49-2.53,0-.91-.42-1.43-1.5-.8l-.73.42v3.34Z" style="fill:#fff; stroke-width:0px;"/><polygon points="252.72 380.92 250.36 382.29 248.93 381.46 254.16 378.44 254.16 384.48 252.72 383.65 252.72 380.92" style="fill:#fff; stroke-width:0px;"/><polygon points="250.36 385.01 250.36 382.62 248.88 385.18 248.88 387.57 250.95 386.38 252.43 383.81 250.36 385.01" style="fill:#fff; stroke-width:0px;"/><polygon points="232.27 402.07 241.72 396.61 241.72 394.43 232.27 399.89 232.27 402.07" style="fill:#fff; stroke-width:0px;"/><polygon points="232.27 404.25 232.27 410.81 241.72 405.35 241.72 403.16 234.16 407.53 234.16 405.35 241.72 400.98 241.72 398.8 232.27 404.25" style="fill:#fff; stroke-width:0px;"/><polygon points="260.62 387.85 257.91 385.08 255.57 386.43 259.66 390.62 259.66 394.99 261.55 393.9 261.55 389.53 265.66 380.61 263.33 381.96 260.62 387.85" style="fill:#fff; stroke-width:0px;"/><path d="M267.4,388.34c0,1.21.85,1.7,1.89,1.09l7.57-4.37v-2.19s-7.44,4.29-7.44,4.29c-.07.04-.13,0-.13-.08v-6.24c0-.09.06-.19.13-.23l7.44-4.29v-2.19s-7.57,4.37-7.57,4.37c-1.05.6-1.89,2.07-1.89,3.28v6.55Z" style="fill:#fff; stroke-width:0px;"/><path d="M252.26,388.34l-7.57,4.37v2.18s7.43-4.29,7.43-4.29c.07-.04.13,0,.13.08v1.87c0,.09-.06.19-.13.23l-7.43,4.29v6.55s1.89-1.09,1.89-1.09v-4.37s5.67-3.28,5.67-3.28c1.04-.6,1.89-2.07,1.89-3.28v-2.18c0-1.21-.85-1.7-1.89-1.09" style="fill:#fff; stroke-width:0px;"/></svg>