<?xml version="1.0" encoding="UTF-8"?><svg id="a" xmlns="http://www.w3.org/2000/svg" xmlns:xlink="http://www.w3.org/1999/xlink" viewBox="0 0 372 655"><defs><linearGradient id="b" x1="186.16" y1="10.48" x2="186.16" y2="545.89" gradientUnits="userSpaceOnUse"><stop offset="0" stop-color="#32aaa0" stop-opacity="0"/><stop offset=".61" stop-color="#32aaa0" stop-opacity=".62"/><stop offset="1" stop-color="#32aaa0"/></linearGradient><linearGradient id="c" x1="225.82" y1="470.71" x2="146.49" y2="608.12" gradientUnits="userSpaceOnUse"><stop offset="0" stop-color="#30a49a"/><stop offset="0" stop-color="#32aaa0"/><stop offset=".5" stop-color="#056473"/><stop offset="1" stop-color="#1e2855"/></linearGradient><linearGradient id="d" x1="105.24" y1="584.94" x2="267.08" y2="491.5" gradientUnits="userSpaceOnUse"><stop offset="0" stop-color="#32aaa0"/><stop offset="1" stop-color="#056473"/></linearGradient><linearGradient id="e" x1="212.58" y1="370.16" x2="159.42" y2="462.23" gradientUnits="userSpaceOnUse"><stop offset="0" stop-color="#30a49a"/><stop offset="0" stop-color="#32aaa0"/><stop offset=".5" stop-color="#056473"/><stop offset="1" stop-color="#1e2855"/></linearGradient><linearGradient id="f" x1="203.36" y1="389.5" x2="168.64" y2="449.64" xlink:href="#d"/><linearGradient id="g" x1="186" y1="322.18" x2="186" y2="402.91" xlink:href="#d"/><linearGradient id="h" x1="186" y1="358.92" x2="186" y2="288.18" gradientUnits="userSpaceOnUse"><stop offset="0" stop-color="#fff"/><stop offset="1" stop-color="#fff" stop-opacity="0"/></linearGradient><clipPath id="i"><path d="M39.52,201.21v-74.14c0-.54.29-1.05.76-1.32l88.6-51.16c1.02-.59,2.28.15,2.28,1.32v74.14c0,.54-.29,1.05-.76,1.32l-88.6,51.16c-1.02.59-2.28-.15-2.28-1.32Z" style="fill:none; stroke-width:0px;"/></clipPath><linearGradient id="j" x1="68.87" y1="105.56" x2="103.97" y2="175.78" xlink:href="#b"/><linearGradient id="k" x1="122.39" y1="162.9" x2="183.4" y2="162.9" xlink:href="#b"/><linearGradient id="l" x1="-333.02" y1="6023.84" x2="-339.64" y2="6023.84" gradientTransform="translate(609.81 6342.66) scale(1 -1)" xlink:href="#b"/><linearGradient id="m" x1="-355.8" y1="6023.84" x2="-360.89" y2="6023.84" gradientTransform="translate(631.83 6364.68) scale(1 -1)" xlink:href="#b"/><linearGradient id="n" x1="-344.79" y1="6023.84" x2="-349.88" y2="6023.84" gradientTransform="translate(620.82 6353.67) scale(1 -1)" xlink:href="#b"/><linearGradient id="o" x1="-333.78" y1="6034.83" x2="-338.87" y2="6034.83" gradientTransform="translate(598.82 6353.65) scale(1 -1)" xlink:href="#b"/><linearGradient id="p" x1="-322.01" y1="6034.83" x2="-328.63" y2="6034.83" gradientTransform="translate(587.81 6342.64) scale(1 -1)" xlink:href="#b"/><linearGradient id="q" x1="297.11" y1="205.5" x2="245.76" y2="248.59" xlink:href="#b"/><linearGradient id="r" x1="-256.48" y1="3994.92" x2="-263.09" y2="3994.92" gradientTransform="translate(398.81 -3752.64)" xlink:href="#b"/><linearGradient id="s" x1="-279.26" y1="3994.92" x2="-284.35" y2="3994.92" gradientTransform="translate(420.84 -3730.62)" xlink:href="#b"/><linearGradient id="t" x1="-268.25" y1="3994.92" x2="-273.34" y2="3994.92" gradientTransform="translate(409.83 -3741.63)" xlink:href="#b"/></defs><rect x="73.97" y="10.48" width="224.38" height="535.41" style="fill:url(#b); opacity:.2; stroke-width:0px;"/><ellipse cx="184.83" cy="590.53" rx="107.39" ry="62" style="fill:#1e2855; opacity:.02; stroke-width:0px;"/><path d="M184.83,637.97c-26.17,0-50.55-5.76-68.65-16.21-15.36-8.87-24.17-20.25-24.17-31.23,0-10.98,8.81-22.36,24.17-31.23,18.1-10.45,42.49-16.21,68.65-16.21s50.55,5.76,68.65,16.21c15.36,8.87,24.17,20.25,24.17,31.23s-8.81,22.36-24.17,31.23c-18.1,10.45-42.48,16.21-68.65,16.21Z" style="fill:#1e2855; opacity:.08; stroke-width:0px;"/><rect x="73.97" y="539.42" width="224.38" height="12.94" style="fill:#1e2855; stroke-width:0px;"/><ellipse cx="186.16" cy="552.36" rx="112.19" ry="64.77" style="fill:#1e2855; stroke-width:0px;"/><ellipse cx="186.16" cy="539.42" rx="112.19" ry="64.77" style="fill:url(#c); stroke-width:0px;"/><ellipse cx="186.16" cy="538.22" rx="102.61" ry="57.63" style="fill:url(#d); stroke-width:0px;"/><path d="M113.6,505.31c40.07-22.51,105.04-22.51,145.11,0,18.26,10.26,28.17,23.41,29.79,36.83,1.93-16.03-7.98-32.42-29.79-44.67-40.07-22.51-105.04-22.51-145.11,0-21.81,12.25-31.72,28.64-29.79,44.67,1.62-13.42,11.53-26.58,29.79-36.83Z" style="fill:#1e2855; stroke-width:0px;"/><path d="M283.53,510.93l-91.96,53.09c-3.44,1.99-7.69,1.99-11.13,0l-91.96-53.09c-2.23-1.29-2.23-4.5,0-5.78l91.96-53.09c3.44-1.99,7.69-1.99,11.13,0l91.96,53.09c2.23,1.29,2.23,4.5,0,5.78Z" style="fill:#1e2855; opacity:.1; stroke-width:0px;"/><path d="M310.1,446.25l-117.02,67.56c-4.38,2.53-9.78,2.53-14.16,0l-117.02-67.56c-2.83-1.64-2.83-5.72,0-7.36l117.02-67.56c4.38-2.53,9.78-2.53,14.16,0l117.02,67.56c2.83,1.64,2.83,5.72,0,7.36Z" style="fill:none; stroke:#beff82; stroke-miterlimit:10;"/><path d="M298.13,472.91l-105.73,61.04c-3.96,2.29-8.84,2.29-12.8,0l-105.73-61.04c-2.56-1.48-2.56-5.17,0-6.65l105.73-61.04c3.96-2.29,8.84-2.29,12.8,0l105.73,61.04c2.56,1.48,2.56,5.17,0,6.65Z" style="fill:none; stroke:#beff82; stroke-miterlimit:10;"/><rect x="255.03" y="416.2" width="33.81" height="24.5" style="fill:#1e2855; stroke-width:0px;"/><rect x="83.16" y="416.2" width="33.81" height="24.5" style="fill:#1e2855; stroke-width:0px;"/><path d="M287.11,443.69l-95.34,55.04c-3.57,2.06-7.97,2.06-11.54,0l-95.34-55.04c-2.31-1.33-2.31-4.66,0-6l99.38-57.38c1.07-.62,2.39-.62,3.46,0l99.38,57.38c2.31,1.33,2.31,4.66,0,6Z" style="fill:#1e2855; stroke-width:0px;"/><path d="M287.11,419.19l-95.34,55.04c-3.57,2.06-7.97,2.06-11.54,0l-95.34-55.04c-2.31-1.33-2.31-4.66,0-6l95.34-55.04c3.57-2.06,7.97-2.06,11.54,0l95.34,55.04c2.31,1.33,2.31,4.66,0,6Z" style="fill:url(#e); stroke-width:0px;"/><line x1="283.52" y1="433.38" x2="214.44" y2="473.26" style="fill:none; stroke:#beff82; stroke-linecap:round; stroke-miterlimit:10; stroke-width:2.33px;"/><ellipse cx="196.44" cy="483.65" rx="1.5" ry=".87" transform="translate(-320.63 411.95) rotate(-60)" style="fill:#beff82; stroke-width:0px;"/><ellipse cx="202.42" cy="480.2" rx="1.5" ry=".87" transform="translate(-314.66 415.4) rotate(-60)" style="fill:#beff82; stroke-width:0px;"/><ellipse cx="208.4" cy="476.75" rx="1.5" ry=".87" transform="translate(-308.68 418.85) rotate(-60)" style="fill:#beff82; stroke-width:0px;"/><path d="M188.31,380.81l67.13,38.76,2.16-1.25c1.63-.94,1.63-3.3,0-4.25l-69.3-40.01c-1.43-.82-3.19-.82-4.62,0l-69.3,40.01c-1.63.94-1.63,3.3,0,4.25l2.16,1.25,67.13-38.76c1.43-.82,3.19-.82,4.62,0Z" style="fill:#1e2855; stroke-width:0px;"/><path d="M188.88,458l66.56-38.43-68.22-39.38c-.76-.44-1.69-.44-2.45,0l-68.22,39.38,66.56,38.43c1.79,1.03,3.98,1.03,5.77,0Z" style="fill:url(#f); stroke-width:0px;"/><rect x="232.75" y="362.55" width="22.9" height="4.68" style="fill:#1e2855; stroke-width:0px;"/><rect x="116.34" y="362.55" width="22.9" height="4.68" style="fill:#1e2855; stroke-width:0px;"/><path d="M254.49,369.26l-64.58,37.28c-2.42,1.4-5.4,1.4-7.82,0l-64.58-37.28c-1.56-.9-1.56-3.16,0-4.06l64.58-37.28c2.42-1.4,5.4-1.4,7.82,0l64.58,37.28c1.56.9,1.56,3.16,0,4.06Z" style="fill:#1e2855; stroke-width:0px;"/><path d="M254.49,364.58l-64.58,37.28c-2.42,1.4-5.4,1.4-7.82,0l-64.58-37.28c-1.56-.9-1.56-3.16,0-4.06l64.58-37.28c2.42-1.4,5.4-1.4,7.82,0l64.58,37.28c1.56.9,1.56,3.16,0,4.06Z" style="fill:url(#g); stroke-width:0px;"/><path d="M213.04,359.68l-25.77,14.88c-.78.45-1.75.45-2.53,0l-25.77-14.88c-.58-.33-.58-1.17,0-1.51l25.77-14.88c.78-.45,1.75-.45,2.53,0l25.77,14.88c.58.33.58,1.17,0,1.51Z" style="fill:#fff; stroke-width:0px;"/><rect x="158.53" y="288.18" width="54.95" height="70.74" style="fill:url(#h); opacity:.4; stroke-width:0px;"/><path d="M130.4,74.6l-5.61-3.26s-.04-.03-.06-.04l-.05-.03h0c-.22-.12-.47-.2-.74-.21-.26,0-.53.06-.79.21l-88.6,51.16c-.47.27-.76.77-.76,1.32v74.14c0,.55.28.99.68,1.26h0s5.75,3.36,5.75,3.36l87.74-50.19c.47-.27,2.72-1.3,2.72-1.85l-.28-75.87Z" style="fill:#8cd2cd; stroke-width:0px;"/><g style="clip-path:url(#i);"><path d="M39.52,201.21v-74.14c0-.54.29-1.05.76-1.32l88.6-51.16c1.02-.59,2.28.15,2.28,1.32v74.14c0,.54-.29,1.05-.76,1.32l-88.6,51.16c-1.02.59-2.28-.15-2.28-1.32Z" style="fill:#fff; stroke-width:0px;"/><path d="M39.52,201.21v-74.14c0-.54.29-1.05.76-1.32l88.6-51.16c1.02-.59,2.28.15,2.28,1.32v74.14c0,.54-.29,1.05-.76,1.32l-88.6,51.16c-1.02.59-2.28-.15-2.28-1.32Z" style="fill:#fff; stroke-width:0px;"/><g style="opacity:.4;"><path d="M39.54,201.2v-74.14c0-.54.29-1.05.76-1.32l88.6-51.16c1.02-.59,2.28.15,2.28,1.32v74.14c0,.54-.29,1.05-.76,1.32l-88.6,51.16c-1.02.59-2.28-.15-2.28-1.32Z" style="fill:url(#j); stroke-width:0px;"/></g><polygon points="58.57 192.84 39.52 203.92 39.52 126.19 58.57 115.11 58.57 192.84" style="fill:#32aaa0; opacity:.3; stroke-width:0px;"/><line x1="44.85" y1="137.86" x2="54.6" y2="132.06" style="fill:none; stroke:#32aaa0; stroke-linecap:round; stroke-linejoin:round; stroke-width:1.32px;"/><line x1="44.85" y1="144.6" x2="54.6" y2="138.8" style="fill:none; stroke:#32aaa0; stroke-linecap:round; stroke-linejoin:round; stroke-width:1.32px;"/><line x1="44.85" y1="151.34" x2="54.6" y2="145.54" style="fill:none; stroke:#32aaa0; stroke-linecap:round; stroke-linejoin:round; stroke-width:1.32px;"/><line x1="44.85" y1="158.08" x2="54.6" y2="152.28" style="fill:none; stroke:#32aaa0; stroke-linecap:round; stroke-linejoin:round; stroke-width:1.32px;"/><line x1="44.85" y1="164.82" x2="54.6" y2="159.02" style="fill:none; stroke:#32aaa0; stroke-linecap:round; stroke-linejoin:round; stroke-width:1.32px;"/><line x1="44.85" y1="171.56" x2="54.6" y2="165.76" style="fill:none; stroke:#32aaa0; stroke-linecap:round; stroke-linejoin:round; stroke-width:1.32px;"/><line x1="44.85" y1="178.3" x2="54.6" y2="172.5" style="fill:none; stroke:#32aaa0; stroke-linecap:round; stroke-linejoin:round; stroke-width:1.32px;"/></g><polygon points="61.1 159.11 67.39 139.42 75.44 150.71 81.94 138.9 89.98 143.52 103.84 105.02 118.22 118.88 127.12 100.91 127.12 148.21 61.1 186.32 61.1 159.11" style="fill:#8cd2cd; stroke-width:0px;"/><polyline points="61.1 159.11 67.39 139.42 75.44 150.71 81.94 138.9 89.98 143.52 103.84 105.02 118.22 118.88 127.12 100.91" style="fill:none; stroke:#32aaa0; stroke-linecap:round; stroke-miterlimit:10; stroke-width:.99px;"/><path d="M154.38,147.16l-4.17,2.27-8.63-2.71.48-6.66-2.92-1.69-21.31,36.9,2.92,1.69,1.56-2.29,3.93,1.53-2.29,7.85,8.3-5.73.81,5.76,2.92,1.69,21.31-36.9-2.92-1.69ZM135.04,169.95c-4.48,2.59-8.12.49-8.12-4.69s3.64-11.47,8.12-14.06,8.12-.49,8.12,4.69-3.64,11.48-8.12,14.06Z" style="fill:#8cd2cd; stroke-width:0px;"/><path d="M154.38,154.17v-7.01s-4.72,1.56-4.72,1.56c-.28-.92-.65-1.74-1.11-2.45l2.62-6.19-4.29-2.48-4.05,5.37c-.84-.04-1.74.05-2.68.27l-1.01-4.87-6.07,3.51-1.01,6.03c-.94.86-1.83,1.81-2.68,2.83l-4.05-.69-4.29,7.44,2.62,3.16c-.46,1.24-.83,2.49-1.11,3.73l-4.72,3.89v7.01s4.72-1.56,4.72-1.56c.28.92.65,1.74,1.11,2.45l-2.62,6.19,4.29,2.48,4.05-5.37c.84.04,1.74-.05,2.68-.27l1.01,4.87,6.07-3.51,1.01-6.03c.94-.86,1.83-1.81,2.68-2.83l4.05.69,4.29-7.44-2.62-3.16c.46-1.24.83-2.49,1.11-3.73l4.72-3.89ZM135.04,169.54c-4.48,2.59-8.12.49-8.12-4.69s3.64-11.48,8.12-14.06c4.48-2.59,8.12-.49,8.12,4.69s-3.64,11.48-8.12,14.06ZM151.14,140.06l-3.34-1.93s-2.65,4.13-2.63,4.2,0,5.3,0,5.3,4.63-1.32,4.63-1.32l1.34-6.25Z" style="fill:#8cd2cd; stroke-width:0px;"/><path d="M157.3,155.86v-7.01s-4.72,1.56-4.72,1.56c-.28-.92-.65-1.74-1.11-2.45l2.62-6.19-4.29-2.48-4.05,5.37c-.84-.04-1.74.05-2.68.27l-1.01-4.87-6.07,3.51-1.01,6.03c-.94.86-1.83,1.81-2.68,2.83l-4.05-.69-4.29,7.44,2.62,3.16c-.46,1.24-.83,2.49-1.11,3.73l-4.72,3.89v7.01s4.72-1.56,4.72-1.56c.28.92.65,1.74,1.11,2.45l-2.62,6.19,4.29,2.48,4.05-5.37c.84.04,1.74-.05,2.68-.27l1.01,4.87,6.07-3.51,1.01-6.03c.94-.86,1.83-1.81,2.68-2.83l4.05.69,4.29-7.44-2.62-3.16c.46-1.24.83-2.49,1.11-3.73l4.72-3.89ZM139.03,172.28c-4.48,2.59-8.12.49-8.12-4.69,0-5.18,3.64-11.48,8.12-14.06,4.48-2.59,8.12-.49,8.12,4.69,0,5.18-3.64,11.48-8.12,14.06Z" style="fill:#fff; stroke-width:0px;"/><path d="M157.3,155.86v-7.01s-4.72,1.56-4.72,1.56c-.28-.92-.65-1.74-1.11-2.45l2.62-6.19-4.29-2.48-4.05,5.37c-.84-.04-1.74.05-2.68.27l-1.01-4.87-6.07,3.51-1.01,6.03c-.94.86-1.83,1.81-2.68,2.83l-4.05-.69-4.29,7.44,2.62,3.16c-.46,1.24-.83,2.49-1.11,3.73l-4.72,3.89v7.01s4.72-1.56,4.72-1.56c.28.92.65,1.74,1.11,2.45l-2.62,6.19,4.29,2.48,4.05-5.37c.84.04,1.74-.05,2.68-.27l1.01,4.87,6.07-3.51,1.01-6.03c.94-.86,1.83-1.81,2.68-2.83l4.05.69,4.29-7.44-2.62-3.16c.46-1.24.83-2.49,1.11-3.73l4.72-3.89ZM139.03,172.28c-4.48,2.59-8.12.49-8.12-4.69,0-5.18,3.64-11.48,8.12-14.06,4.48-2.59,8.12-.49,8.12,4.69,0,5.18-3.64,11.48-8.12,14.06Z" style="fill:url(#k); stroke-width:0px;"/><rect x="270.17" y="315.51" width="6.62" height="6.62" rx="1.74" ry="1.74" transform="translate(-45.33 592.3) rotate(-90)" style="fill:url(#l); opacity:.4; stroke-width:0px;"/><rect x="270.94" y="338.29" width="5.09" height="5.09" rx="1.34" ry="1.34" transform="translate(-67.36 614.32) rotate(-90)" style="fill:url(#m); opacity:.4; stroke-width:0px;"/><rect x="270.94" y="327.28" width="5.09" height="5.09" rx="1.34" ry="1.34" transform="translate(-56.35 603.31) rotate(-90)" style="fill:url(#n); opacity:.4; stroke-width:0px;"/><rect x="259.95" y="316.27" width="5.09" height="5.09" rx="1.34" ry="1.34" transform="translate(-56.32 581.31) rotate(-90)" style="fill:url(#o); opacity:.4; stroke-width:0px;"/><rect x="259.18" y="304.5" width="6.62" height="6.62" rx="1.74" ry="1.74" transform="translate(-45.31 570.3) rotate(-90)" style="fill:url(#p); opacity:.4; stroke-width:0px;"/><polygon points="241.66 432.83 246.22 435.38 252.57 431.71 248.01 429.17 241.66 432.83" style="fill:#1e2855; stroke-width:0px;"/><polygon points="254.82 423.65 259.38 426.19 265.73 422.53 271.85 392.8 268.08 386.84 254.82 423.65" style="fill:#1e2855; stroke-width:0px;"/><polygon points="267.99 417.63 272.54 420.18 278.89 416.51 274.34 413.97 267.99 417.63" style="fill:#1e2855; stroke-width:0px;"/><polygon points="218.51 446.2 223.07 448.75 234.8 441.97 230.25 439.42 218.51 446.2" style="fill:#1e2855; stroke-width:0px;"/><polygon points="202.45 455.47 207 458.02 214.32 453.79 209.77 451.25 202.45 455.47" style="fill:#1e2855; stroke-width:0px;"/><polygon points="186.62 464.61 191.17 467.16 197.52 463.49 192.97 460.95 186.62 464.61" style="fill:#1e2855; stroke-width:0px;"/><path d="M192.97,460.95l-6.35,3.67v-35.91s6.35-3.67,6.35-3.67v15.79s4.23-2.97,4.23-2.97l5.15-18.24,7.23-4.17-6.81,21.94,7,13.86-7.32,4.23-5.25-11.28-4.23,2.97v13.78Z" style="fill:#1e2855; stroke-width:0px;"/><path d="M230.85,403.16l6.67-3.85-7.27,40.11-11.74,6.78-7.27-31.72,6.67-3.85,5.43,26.44,2.07-1.2,5.43-32.71Z" style="fill:#1e2855; stroke-width:0px;"/><path d="M241.66,432.83v-35.91s10.82-6.24,10.82-6.24l5.52,23.01,5.52-29.38,10.82-6.24v35.91s-6.35,3.67-6.35,3.67v-27.78s-.69.4-.69.4l-6.12,29.73-6.35,3.67-6.12-22.66-.69.4v27.78s-6.35,3.67-6.35,3.67Z" style="fill:#1e2855; stroke-width:0px;"/><path d="M197.52,463.49l-6.35,3.67v-35.91s6.35-3.67,6.35-3.67v15.79s4.23-2.97,4.23-2.97l5.15-18.24,7.23-4.17-6.81,21.94,7,13.86-7.32,4.23-5.25-11.28-4.23,2.97v13.78Z" style="fill:#beff82; stroke-width:0px;"/><path d="M235.4,405.71l6.67-3.85-7.27,40.11-11.74,6.78-7.27-31.72,6.67-3.85,5.43,26.44,2.07-1.2,5.43-32.71Z" style="fill:#beff82; stroke-width:0px;"/><path d="M246.22,435.38v-35.91s10.82-6.24,10.82-6.24l5.52,23.01,5.52-29.38,10.82-6.24v35.91s-6.35,3.67-6.35,3.67v-27.78s-.69.4-.69.4l-6.12,29.73-6.35,3.67-6.12-22.66-.69.4v27.78s-6.35,3.67-6.35,3.67Z" style="fill:#beff82; stroke-width:0px;"/><polygon points="186.62 428.7 191.17 431.25 197.52 427.58 192.97 425.03 186.62 428.7" style="fill:#1e2855; stroke-width:0px;"/><polygon points="202.36 419.61 206.91 422.16 214.14 417.99 209.58 415.44 202.36 419.61" style="fill:#1e2855; stroke-width:0px;"/><polygon points="211.24 414.48 215.79 417.03 222.47 413.18 217.91 410.63 211.24 414.48" style="fill:#1e2855; stroke-width:0px;"/><polygon points="230.85 403.16 235.4 405.71 242.07 401.86 237.52 399.31 230.85 403.16" style="fill:#1e2855; stroke-width:0px;"/><polygon points="241.66 396.92 246.22 399.47 257.03 393.22 252.48 390.67 241.66 396.92" style="fill:#1e2855; stroke-width:0px;"/><polygon points="263.52 384.3 268.08 386.84 278.89 380.6 274.34 378.05 263.52 384.3" style="fill:#1e2855; stroke-width:0px;"/><path d="M303.46,213.4v35.81c0,1.68-.46,2.95-1.24,3.68-.31.3-.67.5-1.07.61l-2.38,1.37-1.42-2.5-31.74-18.33c-2.77-1.6-5.02-5.89-5.02-9.59v-35.81c0-.38.03-.74.07-1.08l-.89-1.57,2.33-1.26c.18-.13.37-.23.57-.31h0c.82-.32,1.83-.2,2.92.43l32.84,18.96c2.77,1.6,5.01,5.89,5.01,9.59Z" style="fill:#8cd2cd; stroke-width:0px;"/><line x1="264.52" y1="185.87" x2="264.52" y2="180.56" style="fill:none; stroke:#cdebe6; stroke-linecap:round; stroke-linejoin:round; stroke-width:.89px;"/><line x1="269.82" y1="188.94" x2="269.82" y2="183.62" style="fill:none; stroke:#cdebe6; stroke-linecap:round; stroke-linejoin:round; stroke-width:.89px;"/><line x1="275.13" y1="192" x2="275.13" y2="186.68" style="fill:none; stroke:#cdebe6; stroke-linecap:round; stroke-linejoin:round; stroke-width:.89px;"/><line x1="280.43" y1="195.06" x2="280.43" y2="189.74" style="fill:none; stroke:#cdebe6; stroke-linecap:round; stroke-linejoin:round; stroke-width:.89px;"/><line x1="285.74" y1="198.13" x2="285.74" y2="192.81" style="fill:none; stroke:#cdebe6; stroke-linecap:round; stroke-linejoin:round; stroke-width:.89px;"/><line x1="291.05" y1="201.19" x2="291.05" y2="195.87" style="fill:none; stroke:#cdebe6; stroke-linecap:round; stroke-linejoin:round; stroke-width:.89px;"/><line x1="296.35" y1="204.25" x2="296.35" y2="198.93" style="fill:none; stroke:#cdebe6; stroke-linecap:round; stroke-linejoin:round; stroke-width:.89px;"/><line x1="301.58" y1="213.28" x2="306.22" y2="215.95" style="fill:none; stroke:#cdebe6; stroke-linecap:round; stroke-linejoin:round; stroke-width:.89px;"/><line x1="301.58" y1="219.37" x2="306.22" y2="222.04" style="fill:none; stroke:#cdebe6; stroke-linecap:round; stroke-linejoin:round; stroke-width:.89px;"/><line x1="301.58" y1="225.45" x2="306.22" y2="228.13" style="fill:none; stroke:#cdebe6; stroke-linecap:round; stroke-linejoin:round; stroke-width:.89px;"/><line x1="301.58" y1="231.54" x2="306.22" y2="234.22" style="fill:none; stroke:#cdebe6; stroke-linecap:round; stroke-linejoin:round; stroke-width:.89px;"/><line x1="301.58" y1="237.63" x2="306.22" y2="240.3" style="fill:none; stroke:#cdebe6; stroke-linecap:round; stroke-linejoin:round; stroke-width:.89px;"/><line x1="301.58" y1="243.72" x2="306.22" y2="246.39" style="fill:none; stroke:#cdebe6; stroke-linecap:round; stroke-linejoin:round; stroke-width:.89px;"/><line x1="301.58" y1="249.81" x2="306.22" y2="252.48" style="fill:none; stroke:#cdebe6; stroke-linecap:round; stroke-linejoin:round; stroke-width:.89px;"/><line x1="296.35" y1="252.79" x2="296.35" y2="258.11" style="fill:none; stroke:#cdebe6; stroke-linecap:round; stroke-linejoin:round; stroke-width:.89px;"/><line x1="291.05" y1="249.73" x2="291.05" y2="255.04" style="fill:none; stroke:#cdebe6; stroke-linecap:round; stroke-linejoin:round; stroke-width:.89px;"/><line x1="285.74" y1="246.66" x2="285.74" y2="251.98" style="fill:none; stroke:#cdebe6; stroke-linecap:round; stroke-linejoin:round; stroke-width:.89px;"/><line x1="280.43" y1="243.6" x2="280.43" y2="248.92" style="fill:none; stroke:#cdebe6; stroke-linecap:round; stroke-linejoin:round; stroke-width:.89px;"/><line x1="275.13" y1="240.54" x2="275.13" y2="245.85" style="fill:none; stroke:#cdebe6; stroke-linecap:round; stroke-linejoin:round; stroke-width:.89px;"/><line x1="269.82" y1="237.47" x2="269.82" y2="242.79" style="fill:none; stroke:#cdebe6; stroke-linecap:round; stroke-linejoin:round; stroke-width:.89px;"/><line x1="264.52" y1="234.41" x2="264.52" y2="239.73" style="fill:none; stroke:#cdebe6; stroke-linecap:round; stroke-linejoin:round; stroke-width:.89px;"/><line x1="259.29" y1="225.38" x2="254.65" y2="222.71" style="fill:none; stroke:#cdebe6; stroke-linecap:round; stroke-linejoin:round; stroke-width:.89px;"/><line x1="259.29" y1="219.3" x2="254.65" y2="216.62" style="fill:none; stroke:#cdebe6; stroke-linecap:round; stroke-linejoin:round; stroke-width:.89px;"/><line x1="259.29" y1="213.21" x2="254.65" y2="210.53" style="fill:none; stroke:#cdebe6; stroke-linecap:round; stroke-linejoin:round; stroke-width:.89px;"/><line x1="259.29" y1="207.12" x2="254.65" y2="204.44" style="fill:none; stroke:#cdebe6; stroke-linecap:round; stroke-linejoin:round; stroke-width:.89px;"/><line x1="259.29" y1="201.03" x2="254.65" y2="198.36" style="fill:none; stroke:#cdebe6; stroke-linecap:round; stroke-linejoin:round; stroke-width:.89px;"/><line x1="259.29" y1="194.94" x2="254.65" y2="192.27" style="fill:none; stroke:#cdebe6; stroke-linecap:round; stroke-linejoin:round; stroke-width:.89px;"/><line x1="259.29" y1="188.86" x2="254.65" y2="186.18" style="fill:none; stroke:#cdebe6; stroke-linecap:round; stroke-linejoin:round; stroke-width:.89px;"/><path d="M295.78,254.47l-32.84-18.96c-2.77-1.6-5.02-5.89-5.02-9.58v-35.81c0-3.69,2.25-5.39,5.02-3.79l32.84,18.96c2.77,1.6,5.02,5.89,5.02,9.58v35.81c0,3.69-2.25,5.39-5.02,3.79Z" style="fill:#cdebe6; stroke-width:0px;"/><path d="M295.78,254.47l-32.84-18.96c-2.77-1.6-5.02-5.89-5.02-9.58v-35.81c0-3.69,2.25-5.39,5.02-3.79l32.84,18.96c2.77,1.6,5.02,5.89,5.02,9.58v35.81c0,3.69-2.25,5.39-5.02,3.79Z" style="fill:url(#q); stroke-width:0px;"/><path d="M289.98,238.93l-18.56-10.72c-1.57-.9-2.84-3.33-2.84-5.42v-20.25c0-2.09,1.27-3.05,2.84-2.14l18.56,10.72c1.57.9,2.84,3.33,2.84,5.42v20.25c0,2.09-1.27,3.05-2.84,2.14Z" style="fill:#8cd2cd; stroke-width:0px;"/><path d="M288.64,239.66l-18.56-10.72c-1.57-.9-2.84-3.33-2.84-5.42v-20.25c0-2.09,1.27-3.05,2.84-2.14l18.56,10.72c1.57.9,2.84,3.33,2.84,5.42v20.25c0,2.09-1.27,3.05-2.84,2.14Z" style="fill:#cdebe6; stroke-width:0px;"/><path d="M275.9,220.62c-.55-.18-1.04-.4-1.48-.65-.44-.25-.79-.52-1.05-.79-.26-.28-.47-.59-.62-.95-.15-.36-.25-.74-.31-1.14-.06-.4-.09-.88-.09-1.43,0-1.17.14-1.9.43-2.19.29-.29.81-.22,1.58.23.44.26.96.63,1.54,1.13l-.03.96c-.51-.38-.93-.67-1.27-.87s-.58-.28-.72-.26c-.14.02-.25.16-.32.41s-.11.72-.11,1.42.07,1.22.21,1.58c.14.35.43.65.85.9.43.25.88.47,1.36.66l.02,1.02Z" style="fill:#32aaa0; stroke-width:0px;"/><path d="M279.21,220.87l-.87-.5v1.76l-1.07-.62v-6.04l1.93,1.12c1.25.72,1.87,1.78,1.87,3.18,0,.7-.16,1.15-.48,1.35s-.78.11-1.4-.24ZM278.34,219.32l.86.5c.53.31.8.08.8-.68,0-.37-.06-.68-.19-.92-.13-.24-.33-.43-.6-.59l-.86-.5v2.18Z" style="fill:#32aaa0; stroke-width:0px;"/><path d="M283.35,223.01c0,.71.31,1.24.94,1.6s.94.19.94-.52v-4.02l1.07.62v4c0,.74-.17,1.19-.5,1.34-.33.15-.83.04-1.51-.35-.67-.39-1.17-.85-1.51-1.39-.33-.54-.5-1.18-.5-1.92v-4l1.07.62v4.02Z" style="fill:#32aaa0; stroke-width:0px;"/><polygon points="92.35 317.24 96.38 317.24 90.66 330.48 109 312.28 102.08 312.28 109.47 302.07 98.76 302.07 92.35 317.24" style="fill:none; opacity:.3; stroke:#32aaa0; stroke-linecap:round; stroke-linejoin:round;"/><g style="opacity:.3;"><polyline points="267.09 57.59 273.68 57.59 260.57 37.79 247.46 57.59 254.06 57.59 254.06 71.06 256.64 71.06" style="fill:none; stroke:#32aaa0; stroke-linecap:round; stroke-linejoin:round;"/><line x1="267.09" y1="62.44" x2="267.09" y2="71.06" style="fill:none; stroke:#32aaa0; stroke-linecap:round; stroke-linejoin:round;"/><line x1="271.39" y1="66.75" x2="262.78" y2="66.75" style="fill:none; stroke:#32aaa0; stroke-linecap:round; stroke-linejoin:round;"/></g><rect x="135.72" y="238.97" width="6.62" height="6.62" rx="1.74" ry="1.74" transform="translate(-103.25 381.3) rotate(-90)" style="fill:url(#r); opacity:.4; stroke-width:0px;"/><rect x="136.48" y="261.75" width="5.09" height="5.09" rx="1.34" ry="1.34" transform="translate(-125.27 403.33) rotate(-90)" style="fill:url(#s); opacity:.4; stroke-width:0px;"/><rect x="136.48" y="250.74" width="5.09" height="5.09" rx="1.34" ry="1.34" transform="translate(-114.26 392.32) rotate(-90)" style="fill:url(#t); opacity:.4; stroke-width:0px;"/></svg>