<?xml version="1.0" encoding="utf-8"?>
<!-- Generator: Adobe Illustrator 27.5.0, SVG Export Plug-In . SVG Version: 6.00 Build 0)  -->
<svg version="1.1" id="Ñëîé_1" xmlns="http://www.w3.org/2000/svg" xmlns:xlink="http://www.w3.org/1999/xlink" x="0px" y="0px"
	 viewBox="0 0 600 350" style="enable-background:new 0 0 600 350;" xml:space="preserve">
<g>
	<rect x="0" style="fill:#020230;" width="600" height="350"/>
	<g>
		<g>
			<defs>
				<rect id="SVGID_1_" x="0" y="0.062" width="600" height="349.875"/>
			</defs>
			<clipPath id="SVGID_00000149368546648425877240000008031016605886084029_">
				<use xlink:href="#SVGID_1_"  style="overflow:visible;"/>
			</clipPath>
			<g style="opacity:0.8;clip-path:url(#SVGID_00000149368546648425877240000008031016605886084029_);">
				
					<linearGradient id="SVGID_00000124856765795177282550000007400610360958550950_" gradientUnits="userSpaceOnUse" x1="1573.2056" y1="-36.0257" x2="1433.6036" y2="72.8825" gradientTransform="matrix(-1 0 0 -1 2021.929 350)">
					<stop  offset="0" style="stop-color:#183372"/>
					<stop  offset="1" style="stop-color:#020230"/>
				</linearGradient>
				<polygon style="fill:url(#SVGID_00000124856765795177282550000007400610360958550950_);" points="600,349.938 600,221.283 
					389.965,349.938 				"/>
				
					<linearGradient id="SVGID_00000083076230662603406780000004215226355453898906_" gradientUnits="userSpaceOnUse" x1="2085.4973" y1="316.8279" x2="1878.5432" y2="252.8072" gradientTransform="matrix(-1 0 0 -1 2021.929 350)">
					<stop  offset="0" style="stop-color:#183372"/>
					<stop  offset="1" style="stop-color:#020230"/>
				</linearGradient>
				<polygon style="fill:url(#SVGID_00000083076230662603406780000004215226355453898906_);" points="124.313,211.081 
					216.631,0.062 0,0.062 0,137.831 				"/>
				
					<linearGradient id="SVGID_00000000194427503651595040000012719282073729245591_" gradientUnits="userSpaceOnUse" x1="1486.6559" y1="69.4905" x2="1750.9656" y2="69.4905" gradientTransform="matrix(-1 0 0 -1 2021.929 350)">
					<stop  offset="0" style="stop-color:#183372"/>
					<stop  offset="1" style="stop-color:#020230"/>
				</linearGradient>
				<polygon style="fill:url(#SVGID_00000000194427503651595040000012719282073729245591_);" points="359.964,349.938 
					389.965,349.938 535.273,260.931 124.313,211.081 				"/>
				
					<linearGradient id="SVGID_00000076571261782133821500000000967028406031592588_" gradientUnits="userSpaceOnUse" x1="1410.656" y1="162.6815" x2="1635.1876" y2="162.6815" gradientTransform="matrix(-1 0 0 -1 2021.929 350)">
					<stop  offset="0" style="stop-color:#183372"/>
					<stop  offset="1" style="stop-color:#020230"/>
				</linearGradient>
				<polygon style="fill:url(#SVGID_00000076571261782133821500000000967028406031592588_);" points="535.273,260.931 
					480.732,113.706 310.741,233.695 				"/>
				
					<linearGradient id="SVGID_00000130622247325964829610000004737182414053682835_" gradientUnits="userSpaceOnUse" x1="1839.8651" y1="153.1109" x2="1794.9851" y2="257.8975" gradientTransform="matrix(-1 0 0 -1 2021.929 350)">
					<stop  offset="0" style="stop-color:#183372"/>
					<stop  offset="1" style="stop-color:#020230"/>
				</linearGradient>
				<polygon style="fill:url(#SVGID_00000130622247325964829610000004737182414053682835_);" points="265.78,122.075 216.631,0.062 
					124.313,211.081 				"/>
				
					<linearGradient id="SVGID_00000150782162672568159780000009688483075445677215_" gradientUnits="userSpaceOnUse" x1="1634.6875" y1="172.1151" x2="1821.1165" y2="172.1151" gradientTransform="matrix(-1 0 0 -1 2021.929 350)">
					<stop  offset="0" style="stop-color:#183372"/>
					<stop  offset="1" style="stop-color:#020230"/>
				</linearGradient>
				<polygon style="fill:url(#SVGID_00000150782162672568159780000009688483075445677215_);" points="310.741,233.695 
					265.78,122.075 124.313,211.081 				"/>
				
					<linearGradient id="SVGID_00000170247628789244654200000009026207104419829171_" gradientUnits="userSpaceOnUse" x1="1453.1969" y1="233.1213" x2="1717.2976" y2="233.1213" gradientTransform="matrix(-1 0 0 -1 2021.929 350)">
					<stop  offset="0" style="stop-color:#183372"/>
					<stop  offset="1" style="stop-color:#020230"/>
				</linearGradient>
				<polygon style="fill:url(#SVGID_00000170247628789244654200000009026207104419829171_);" points="310.741,233.695 
					480.732,113.706 216.631,0.062 				"/>
				
					<linearGradient id="SVGID_00000080167274385506837700000001214212422456626326_" gradientUnits="userSpaceOnUse" x1="1541.1968" y1="293.1156" x2="1805.2975" y2="293.1156" gradientTransform="matrix(-1 0 0 -1 2021.929 350)">
					<stop  offset="0" style="stop-color:#183372"/>
					<stop  offset="1" style="stop-color:#020230"/>
				</linearGradient>
				<polygon style="fill:url(#SVGID_00000080167274385506837700000001214212422456626326_);" points="480.732,113.706 
					438.631,0.062 216.631,0.062 				"/>
				
					<linearGradient id="SVGID_00000049205375776387240360000014033185441849328808_" gradientUnits="userSpaceOnUse" x1="2067.7349" y1="156.6651" x2="1913.7458" y2="41.7849" gradientTransform="matrix(-1 0 0 -1 2021.929 350)">
					<stop  offset="0" style="stop-color:#183372"/>
					<stop  offset="1" style="stop-color:#020230"/>
				</linearGradient>
				<polygon style="fill:url(#SVGID_00000049205375776387240360000014033185441849328808_);" points="208.908,260.929 0,137.831 
					0,349.938 				"/>
				
					<linearGradient id="SVGID_00000096035267591751774670000016543599590619866514_" gradientUnits="userSpaceOnUse" x1="1635.9646" y1="44.5667" x2="1800.8821" y2="44.5667" gradientTransform="matrix(-1 0 0 -1 2021.929 350)">
					<stop  offset="0" style="stop-color:#183372"/>
					<stop  offset="1" style="stop-color:#020230"/>
				</linearGradient>
				<polygon style="fill:url(#SVGID_00000096035267591751774670000016543599590619866514_);" points="359.964,349.938 
					208.908,260.929 195.047,349.938 				"/>
				
					<linearGradient id="SVGID_00000019669756344024268910000010636420664113580462_" gradientUnits="userSpaceOnUse" x1="2007.5778" y1="-47.5689" x2="1835.9272" y2="50.7323" gradientTransform="matrix(-1 0 0 -1 2021.929 350)">
					<stop  offset="0" style="stop-color:#183372"/>
					<stop  offset="1" style="stop-color:#020230"/>
				</linearGradient>
				<polygon style="fill:url(#SVGID_00000019669756344024268910000010636420664113580462_);" points="195.047,349.938 
					208.908,260.929 0,349.938 				"/>
				
					<linearGradient id="SVGID_00000183950942351791303830000012546029083876328878_" gradientUnits="userSpaceOnUse" x1="1347.9291" y1="219.5036" x2="1509.2976" y2="219.5036" gradientTransform="matrix(-1 0 0 -1 2021.929 350)">
					<stop  offset="0" style="stop-color:#183372"/>
					<stop  offset="1" style="stop-color:#020230"/>
				</linearGradient>
				<polygon style="fill:url(#SVGID_00000183950942351791303830000012546029083876328878_);" points="535.273,260.931 600,221.283 
					600,105.572 438.631,0.062 				"/>
				
					<linearGradient id="SVGID_00000103233365853946984680000006592771637958042779_" gradientUnits="userSpaceOnUse" x1="1422.4229" y1="390.1653" x2="1527.8115" y2="267.9649" gradientTransform="matrix(-1 0 0 -1 2021.929 350)">
					<stop  offset="0" style="stop-color:#183372"/>
					<stop  offset="1" style="stop-color:#020230"/>
				</linearGradient>
				<polygon style="fill:url(#SVGID_00000103233365853946984680000006592771637958042779_);" points="600,105.572 600,0.062 
					438.631,0.062 				"/>
			</g>
		</g>
		
			<rect x="379.337" y="304.599" transform="matrix(0.8518 -0.5239 0.5239 0.8518 -91.0272 287.989)" style="opacity:0.4;fill:#172F78;" width="168.262" height="0.548"/>
		
			<rect x="343.269" y="-83.452" transform="matrix(0.3956 -0.9184 0.9184 0.3956 157.3508 348.5913)" style="opacity:0.6;fill:#172F78;" width="0.549" height="276.377"/>
		<polygon style="fill:#172F78;" points="303.249,143.607 286.646,99.211 422.539,115.003 422.477,115.548 287.474,99.859 
			303.763,143.415 		"/>
		<polygon style="opacity:0.6;fill:#172F78;" points="358.13,349.175 207.865,260.901 11.807,345.205 11.59,344.701 
			207.903,260.288 208.023,260.358 358.407,348.702 		"/>
		
			<rect x="61.882" y="102.312" transform="matrix(0.5077 -0.8616 0.8616 0.5077 -119.7018 139.4421)" style="opacity:0.6;fill:#172F78;" width="0.549" height="144.288"/>
	</g>
	
		<linearGradient id="SVGID_00000175283072030248108750000006170018334493056677_" gradientUnits="userSpaceOnUse" x1="300.0001" y1="350" x2="300.0001" y2="-9.094947e-13">
		<stop  offset="0" style="stop-color:#020230"/>
		<stop  offset="0.274" style="stop-color:#030534"/>
		<stop  offset="0.5554" style="stop-color:#070D40"/>
		<stop  offset="0.8393" style="stop-color:#0D1B55"/>
		<stop  offset="1" style="stop-color:#112564"/>
	</linearGradient>
	
		<rect x="0" style="opacity:0.8;fill:url(#SVGID_00000175283072030248108750000006170018334493056677_);" width="600" height="350"/>
</g>
<g>
	<path style="opacity:0.4;fill:#172F78;" d="M171.911,146.484c0,0.872-0.706,1.578-1.578,1.578c-0.872,0-1.578-0.706-1.578-1.578
		c0-0.872,0.706-1.578,1.578-1.578C171.204,144.906,171.911,145.613,171.911,146.484z"/>
	<path style="opacity:0.6;fill:#172F78;" d="M77.818,87.147c0,1.293-1.048,2.34-2.34,2.34c-1.292,0-2.34-1.048-2.34-2.34
		c0-1.292,1.048-2.34,2.34-2.34C76.77,84.807,77.818,85.854,77.818,87.147z"/>
	<path style="opacity:0.8;fill:#172F78;" d="M76.447,87.147c0,0.535-0.434,0.969-0.969,0.969c-0.535,0-0.969-0.434-0.969-0.969
		c0-0.535,0.434-0.969,0.969-0.969C76.013,86.178,76.447,86.612,76.447,87.147z"/>
	<path style="opacity:0.4;fill:#172F78;" d="M194.95,123.175c0,3.454-2.8,6.253-6.253,6.253c-3.454,0-6.253-2.8-6.253-6.253
		c0-3.454,2.8-6.253,6.253-6.253C192.15,116.921,194.95,119.721,194.95,123.175z"/>
	<circle style="opacity:0.8;fill:#172F78;" cx="188.697" cy="123.175" r="2.599"/>
	<polygon style="fill:#172F78;" points="202.492,168.497 188.331,122.864 304.371,139.114 304.299,139.624 189.063,123.486 
		202.983,168.344 	"/>
	<g>
		<rect x="328.37" y="183.41" style="fill:#172F78;" width="0.537" height="10.553"/>
		<rect x="328.37" y="196.438" style="fill:#03A7D3;" width="0.537" height="3.382"/>
	</g>
	<g>
		<rect x="69.879" y="175.503" style="fill:#03A7D3;" width="0.537" height="10.552"/>
		<rect x="69.879" y="188.479" style="fill:#172F78;" width="0.537" height="3.015"/>
		<rect x="69.879" y="194.02" style="fill:#172F78;" width="0.537" height="3.014"/>
	</g>
	<g>
		<rect x="142.257" y="44.563" style="fill:#172F78;" width="0.537" height="10.552"/>
		<rect x="142.257" y="57.539" style="fill:#03A7D3;" width="0.537" height="3.014"/>
		<rect x="142.257" y="63.079" style="fill:#03A7D3;" width="0.537" height="3.015"/>
		<rect x="142.257" y="68.619" style="fill:#03A7D3;" width="0.537" height="8.554"/>
	</g>
	<g>
		<rect x="262.832" y="267.494" style="fill:#172F78;" width="0.537" height="3.383"/>
		<rect x="262.832" y="240.635" style="fill:#172F78;" width="0.537" height="10.702"/>
	</g>
	<g>
		<rect x="335.949" y="135.164" style="fill:#172F78;" width="0.537" height="3.383"/>
		<g>
			<rect x="335.949" y="122.137" style="fill:#03A7D3;" width="0.537" height="10.552"/>
			<rect x="335.949" y="108.304" style="fill:#172F78;" width="0.537" height="10.702"/>
			<rect x="335.949" y="92.413" style="fill:#172F78;" width="0.537" height="10.702"/>
		</g>
	</g>
	<g>
		<circle style="opacity:0.4;fill:#03A7D3;" cx="87.508" cy="77.083" r="5.881"/>
		<circle style="opacity:0.8;fill:#03A7D3;" cx="87.508" cy="77.083" r="2.89"/>
	</g>
	<g>
		<path style="opacity:0.4;fill:#03A7D3;" d="M130.882,249.525c0,2.191-1.777,3.968-3.968,3.968s-3.968-1.777-3.968-3.968
			s1.776-3.968,3.968-3.968S130.882,247.333,130.882,249.525z"/>
		<circle style="opacity:0.8;fill:#03A7D3;" cx="126.914" cy="249.525" r="1.95"/>
	</g>
	<g>
		<circle style="opacity:0.4;fill:#03A7D3;" cx="272.001" cy="202.073" r="4.134"/>
		<circle style="opacity:0.8;fill:#03A7D3;" cx="272.001" cy="202.073" r="2.031"/>
	</g>
	<g>
		<path style="opacity:0.4;fill:#03A7D3;" d="M167.195,113.909c0,1.766-1.431,3.197-3.197,3.197c-1.766,0-3.197-1.431-3.197-3.197
			c0-1.766,1.431-3.197,3.197-3.197C165.764,110.712,167.195,112.143,167.195,113.909z"/>
		<circle style="opacity:0.8;fill:#03A7D3;" cx="163.998" cy="113.909" r="1.571"/>
	</g>
	<circle style="opacity:0.4;fill:#03A7D3;" cx="284.314" cy="243.015" r="1.734"/>
	<path style="opacity:0.4;fill:#03A7D3;" d="M272.091,147.563c0,0.535-0.434,0.969-0.969,0.969c-0.535,0-0.969-0.434-0.969-0.969
		c0-0.535,0.434-0.969,0.969-0.969C271.657,146.594,272.091,147.028,272.091,147.563z"/>
	<path style="opacity:0.4;fill:#03A7D3;" d="M140.022,225.517c0,0.535-0.434,0.969-0.969,0.969c-0.535,0-0.969-0.434-0.969-0.969
		c0-0.535,0.434-0.969,0.969-0.969C139.588,224.548,140.022,224.982,140.022,225.517z"/>
	
		<radialGradient id="SVGID_00000181777519207872501320000001287813870854757518_" cx="123.6943" cy="110.7115" r="81.5802" gradientUnits="userSpaceOnUse">
		<stop  offset="0" style="stop-color:#F8359E"/>
		<stop  offset="0.0428" style="stop-color:#E63192"/>
		<stop  offset="0.1941" style="stop-color:#AA246C"/>
		<stop  offset="0.3446" style="stop-color:#76194B"/>
		<stop  offset="0.4909" style="stop-color:#4B1030"/>
		<stop  offset="0.6322" style="stop-color:#2B091B"/>
		<stop  offset="0.7669" style="stop-color:#13040C"/>
		<stop  offset="0.8926" style="stop-color:#050103"/>
		<stop  offset="1" style="stop-color:#000000"/>
	</radialGradient>
	
		<circle style="opacity:0.6;fill:url(#SVGID_00000181777519207872501320000001287813870854757518_);" cx="123.694" cy="110.712" r="81.58"/>
	<g>
		<g>
			<path style="fill:#03A7D3;" d="M198.982,195.984c-1.965,0-3.929-0.432-5.425-1.295l-36.479-21.062
				c-1.514-0.874-2.347-2.056-2.347-3.329c0-1.272,0.833-2.455,2.347-3.328l36.286-21.1c2.993-1.727,7.861-1.727,10.852,0
				l36.479,21.061c1.514,0.874,2.347,2.056,2.347,3.328c0,1.273-0.834,2.455-2.347,3.329l-36.286,21.1
				C202.913,195.553,200.947,195.984,198.982,195.984z M198.79,145.244c-1.842,0-3.684,0.405-5.086,1.214l-36.286,21.1
				c-1.295,0.748-2.008,1.721-2.008,2.741c0,1.02,0.713,1.994,2.007,2.741l36.479,21.062c2.805,1.62,7.368,1.618,10.173,0
				l36.286-21.1c1.295-0.748,2.008-1.721,2.008-2.741c0-1.02-0.713-1.993-2.007-2.74l-36.48-21.062
				C202.474,145.649,200.632,145.244,198.79,145.244z"/>
			<g>
				
					<linearGradient id="SVGID_00000036953094124196816900000012484793640870370484_" gradientUnits="userSpaceOnUse" x1="149.9809" y1="158.768" x2="211.7758" y2="158.768">
					<stop  offset="0" style="stop-color:#01C8EF"/>
					<stop  offset="0.1297" style="stop-color:#04B1DD"/>
					<stop  offset="0.5466" style="stop-color:#0E6BA7"/>
					<stop  offset="0.8476" style="stop-color:#154085"/>
					<stop  offset="1" style="stop-color:#172F78"/>
				</linearGradient>
				<path style="fill:url(#SVGID_00000036953094124196816900000012484793640870370484_);" d="M242.881,158.749L242.881,158.749
					l-0.006-17.49l-22.102,2.949l-16.549-9.555c-2.903-1.676-7.609-1.676-10.512,0l-2.577,1.638l-35.884,4.788v17.695
					c0,0.01,0,0.02,0,0.029v0.083l0.013-0.002c0.041,1.066,0.752,2.125,2.161,2.939l36.48,21.061c2.903,1.676,7.609,1.676,10.512,0
					l36.287-21.101c1.405-0.811,2.114-1.866,2.16-2.929l0.017-0.002V158.749z"/>
				
					<radialGradient id="SVGID_00000021119194494865802500000011312213328840584889_" cx="139.0233" cy="112.4303" r="138.0007" gradientUnits="userSpaceOnUse">
					<stop  offset="0" style="stop-color:#01C8EF"/>
					<stop  offset="0.1396" style="stop-color:#03BAE4"/>
					<stop  offset="0.4033" style="stop-color:#0895C8"/>
					<stop  offset="0.76" style="stop-color:#115A9A"/>
					<stop  offset="1" style="stop-color:#172F78"/>
				</radialGradient>
				<path style="fill:url(#SVGID_00000021119194494865802500000011312213328840584889_);" d="M240.704,138.093l-36.479-21.061
					c-2.903-1.676-7.609-1.676-10.512,0l-36.287,21.1c-2.903,1.676-2.903,4.393,0,6.069l36.48,21.061
					c2.903,1.676,7.609,1.676,10.512,0l36.287-21.1C243.607,142.486,243.607,139.769,240.704,138.093z"/>
				<path style="fill:#FFFFFF;" d="M240.704,143.102l-36.287,21.1c-2.903,1.676-7.609,1.676-10.512,0l-36.48-21.061
					c-1.217-0.703-1.917-1.589-2.113-2.505c-0.272,1.268,0.428,2.591,2.113,3.564l36.48,21.062c2.903,1.676,7.609,1.676,10.512,0
					l36.287-21.101c1.686-0.973,2.385-2.297,2.113-3.564C242.621,141.513,241.921,142.4,240.704,143.102z"/>
				<g>
					<polygon style="fill:#FFFFFF;" points="209.322,169.931 207.595,170.928 207.595,168.934 209.322,167.937 					"/>
					<polygon style="fill:#FFFFFF;" points="212.935,167.845 211.208,168.842 211.208,166.848 212.935,165.851 					"/>
					<polygon style="fill:#FFFFFF;" points="216.548,165.759 214.821,166.756 214.821,164.762 216.548,163.765 					"/>
					<polygon style="fill:#FFFFFF;" points="213.594,171.505 211.867,172.502 211.867,170.508 213.594,169.511 					"/>
					<polygon style="fill:#FFFFFF;" points="216.775,169.669 215.048,170.666 215.048,168.671 216.775,167.674 					"/>
					<polygon style="fill:#FFFFFF;" points="228.136,159.068 226.409,160.065 226.409,158.071 228.136,157.074 					"/>
					<polygon style="fill:#FFFFFF;" points="238.089,153.322 236.362,154.319 236.362,152.325 238.089,151.328 					"/>
					<polygon style="fill:#FFFFFF;" points="220.161,163.673 218.434,164.67 218.434,162.676 220.161,161.679 					"/>
				</g>
			</g>
			<path style="opacity:0.4;fill:#06033E;" d="M197.001,156.365l-24.543-14.17c-0.998-0.576-0.872-1.582,0.279-2.247l23.983-13.847
				c1.152-0.665,2.894-0.737,3.892-0.161l24.543,14.17c0.998,0.576,0.872,1.582-0.279,2.247l-23.983,13.847
				C199.741,156.869,197.999,156.941,197.001,156.365z"/>
			<path style="fill:#FFFFFF;" d="M187.345,171.703l-20.253-11.693c-0.483-0.279-0.875-1.028-0.875-1.673v-1.504
				c0-0.645,0.392-0.941,0.875-0.662l20.253,11.693c0.483,0.279,0.875,1.028,0.875,1.672v1.504
				C188.22,171.686,187.829,171.982,187.345,171.703z"/>
			<g>
				
					<linearGradient id="SVGID_00000031181501287366375310000004436110827956767878_" gradientUnits="userSpaceOnUse" x1="149.9809" y1="125.9555" x2="211.7758" y2="125.9555">
					<stop  offset="0" style="stop-color:#01C8EF"/>
					<stop  offset="0.1297" style="stop-color:#04B1DD"/>
					<stop  offset="0.5466" style="stop-color:#0E6BA7"/>
					<stop  offset="0.8476" style="stop-color:#154085"/>
					<stop  offset="1" style="stop-color:#172F78"/>
				</linearGradient>
				<path style="fill:url(#SVGID_00000031181501287366375310000004436110827956767878_);" d="M242.881,125.936L242.881,125.936
					l-0.006-17.49l-22.102,2.949l-16.549-9.556c-2.903-1.676-7.609-1.676-10.512,0l-2.577,1.638l-35.884,4.788v17.695
					c0,0.01,0,0.02,0,0.029v0.083l0.013-0.002c0.041,1.066,0.752,2.125,2.161,2.939l36.48,21.061c2.903,1.676,7.609,1.676,10.512,0
					l36.287-21.101c1.405-0.811,2.114-1.866,2.16-2.929l0.017-0.002V125.936z"/>
				
					<radialGradient id="SVGID_00000032610352630137598880000010954430639782701449_" cx="139.0233" cy="79.6179" r="138.0007" gradientUnits="userSpaceOnUse">
					<stop  offset="0" style="stop-color:#01C8EF"/>
					<stop  offset="0.1396" style="stop-color:#03BAE4"/>
					<stop  offset="0.4033" style="stop-color:#0895C8"/>
					<stop  offset="0.76" style="stop-color:#115A9A"/>
					<stop  offset="1" style="stop-color:#172F78"/>
				</radialGradient>
				<path style="fill:url(#SVGID_00000032610352630137598880000010954430639782701449_);" d="M240.704,105.281l-36.479-21.061
					c-2.903-1.676-7.609-1.676-10.512,0l-36.287,21.1c-2.903,1.676-2.903,4.393,0,6.069l36.48,21.061
					c2.903,1.676,7.609,1.676,10.512,0l36.287-21.1C243.607,109.674,243.607,106.957,240.704,105.281z"/>
				<path style="opacity:0.4;fill:#06033E;" d="M223.327,106.555l-21.256-12.272c-1.691-0.977-4.434-0.977-6.125,0l-21.144,12.295
					c-1.691,0.976-1.691,2.56,0,3.536l21.256,12.272c1.691,0.977,4.434,0.977,6.125,0l21.144-12.295
					C225.019,109.115,225.019,107.532,223.327,106.555z"/>
				<path style="fill:#FFFFFF;" d="M240.704,110.29l-36.287,21.1c-2.903,1.676-7.609,1.676-10.512,0l-36.48-21.061
					c-1.217-0.703-1.917-1.589-2.113-2.505c-0.272,1.268,0.428,2.591,2.113,3.564l36.48,21.062c2.903,1.676,7.609,1.676,10.512,0
					l36.287-21.1c1.686-0.973,2.385-2.297,2.113-3.564C242.621,108.701,241.921,109.587,240.704,110.29z"/>
				<g>
					<polygon style="fill:#FFFFFF;" points="209.322,137.118 207.595,138.116 207.595,136.122 209.322,135.124 					"/>
					<polygon style="fill:#FFFFFF;" points="212.935,135.033 211.208,136.03 211.208,134.036 212.935,133.038 					"/>
					<polygon style="fill:#FFFFFF;" points="216.548,132.947 214.821,133.944 214.821,131.95 216.548,130.953 					"/>
					<polygon style="fill:#FFFFFF;" points="213.594,138.693 211.867,139.69 211.867,137.696 213.594,136.699 					"/>
					<polygon style="fill:#FFFFFF;" points="216.775,136.856 215.048,137.853 215.048,135.859 216.775,134.862 					"/>
					<polygon style="fill:#FFFFFF;" points="228.136,126.256 226.409,127.253 226.409,125.259 228.136,124.262 					"/>
					<polygon style="fill:#FFFFFF;" points="238.089,120.51 236.362,121.507 236.362,119.513 238.089,118.516 					"/>
					<polygon style="fill:#FFFFFF;" points="220.161,130.861 218.434,131.858 218.434,129.864 220.161,128.867 					"/>
				</g>
			</g>
			<g>
				
					<linearGradient id="SVGID_00000008129301845912020650000003210790967830854846_" gradientUnits="userSpaceOnUse" x1="149.9809" y1="93.1431" x2="211.7758" y2="93.1431">
					<stop  offset="0" style="stop-color:#01C8EF"/>
					<stop  offset="0.1297" style="stop-color:#04B1DD"/>
					<stop  offset="0.5466" style="stop-color:#0E6BA7"/>
					<stop  offset="0.8476" style="stop-color:#154085"/>
					<stop  offset="1" style="stop-color:#172F78"/>
				</linearGradient>
				<path style="fill:url(#SVGID_00000008129301845912020650000003210790967830854846_);" d="M242.881,93.124L242.881,93.124
					l-0.006-17.49l-22.102,2.949l-16.549-9.556c-2.903-1.676-7.609-1.676-10.512,0l-2.577,1.638l-35.884,4.788v17.695
					c0,0.01,0,0.02,0,0.029v0.083l0.013-0.002c0.041,1.066,0.752,2.125,2.161,2.939l36.48,21.061c2.903,1.676,7.609,1.676,10.512,0
					l36.287-21.101c1.405-0.811,2.114-1.866,2.16-2.929l0.017-0.002V93.124z"/>
				
					<radialGradient id="SVGID_00000080171123253509051440000012176702030094606721_" cx="139.0233" cy="46.8054" r="138.0007" gradientUnits="userSpaceOnUse">
					<stop  offset="0" style="stop-color:#01C8EF"/>
					<stop  offset="0.1396" style="stop-color:#03BAE4"/>
					<stop  offset="0.4033" style="stop-color:#0895C8"/>
					<stop  offset="0.76" style="stop-color:#115A9A"/>
					<stop  offset="1" style="stop-color:#172F78"/>
				</radialGradient>
				<path style="fill:url(#SVGID_00000080171123253509051440000012176702030094606721_);" d="M240.704,72.468l-36.479-21.061
					c-2.903-1.676-7.609-1.676-10.512,0l-36.287,21.1c-2.903,1.676-2.903,4.393,0,6.069l36.48,21.061
					c2.903,1.676,7.609,1.676,10.512,0l36.287-21.1C243.607,76.861,243.607,74.144,240.704,72.468z"/>
				<path style="fill:#FFFFFF;" d="M240.704,77.477l-36.287,21.1c-2.903,1.676-7.609,1.676-10.512,0l-36.48-21.061
					c-1.217-0.703-1.917-1.589-2.113-2.504c-0.272,1.268,0.428,2.591,2.113,3.564l36.48,21.062c2.903,1.676,7.609,1.676,10.512,0
					l36.287-21.101c1.686-0.973,2.385-2.297,2.113-3.564C242.621,75.888,241.921,76.775,240.704,77.477z"/>
				<g>
					<polygon style="fill:#FFFFFF;" points="209.322,104.306 207.595,105.303 207.595,103.309 209.322,102.312 					"/>
					<polygon style="fill:#FFFFFF;" points="212.935,102.22 211.208,103.217 211.208,101.223 212.935,100.226 					"/>
					<polygon style="fill:#FFFFFF;" points="216.548,100.134 214.821,101.131 214.821,99.137 216.548,98.14 					"/>
					<polygon style="fill:#FFFFFF;" points="213.594,105.88 211.867,106.877 211.867,104.883 213.594,103.886 					"/>
					<polygon style="fill:#FFFFFF;" points="216.775,104.044 215.048,105.041 215.048,103.047 216.775,102.049 					"/>
					<polygon style="fill:#FFFFFF;" points="228.136,93.443 226.409,94.44 226.409,92.446 228.136,91.449 					"/>
					<polygon style="fill:#FFFFFF;" points="238.089,87.697 236.362,88.694 236.362,86.7 238.089,85.703 					"/>
					<polygon style="fill:#FFFFFF;" points="220.161,98.048 218.434,99.045 218.434,97.051 220.161,96.054 					"/>
				</g>
			</g>
		</g>
		<g>
			<path style="fill:#03A7D3;" d="M134.456,233.317c-1.965,0-3.93-0.432-5.425-1.295l-36.479-21.062
				c-1.514-0.874-2.347-2.056-2.347-3.328c0-1.273,0.834-2.455,2.347-3.329l36.286-21.1c2.992-1.729,7.86-1.728,10.852-0.001
				l36.479,21.062c1.514,0.874,2.347,2.056,2.347,3.328c0,1.273-0.833,2.455-2.347,3.329l-36.286,21.1
				C138.387,232.886,136.421,233.317,134.456,233.317z M134.264,182.576c-1.842,0-3.684,0.405-5.087,1.215l-36.286,21.1
				c-1.295,0.748-2.008,1.722-2.008,2.742c0,1.02,0.713,1.993,2.007,2.74l36.479,21.062c2.805,1.619,7.368,1.619,10.173,0
				l36.286-21.1c1.295-0.748,2.008-1.722,2.008-2.742c0-1.02-0.713-1.993-2.007-2.74l-36.479-21.061
				C137.948,182.981,136.106,182.576,134.264,182.576z"/>
			<g>
				
					<linearGradient id="SVGID_00000103254536040349049200000009156332088371518360_" gradientUnits="userSpaceOnUse" x1="85.4548" y1="196.1007" x2="147.2498" y2="196.1007">
					<stop  offset="0" style="stop-color:#01C8EF"/>
					<stop  offset="0.1297" style="stop-color:#04B1DD"/>
					<stop  offset="0.5466" style="stop-color:#0E6BA7"/>
					<stop  offset="0.8476" style="stop-color:#154085"/>
					<stop  offset="1" style="stop-color:#172F78"/>
				</linearGradient>
				<path style="fill:url(#SVGID_00000103254536040349049200000009156332088371518360_);" d="M178.355,196.081L178.355,196.081
					l-0.006-17.49l-22.102,2.949l-16.549-9.555c-2.903-1.676-7.609-1.676-10.512,0l-2.577,1.638l-35.884,4.788v17.695
					c0,0.01,0,0.02,0,0.029v0.083l0.013-0.002c0.041,1.066,0.752,2.125,2.161,2.939l36.479,21.061c2.903,1.676,7.609,1.676,10.512,0
					l36.287-21.101c1.405-0.811,2.114-1.866,2.16-2.929l0.018-0.002V196.081z"/>
				
					<radialGradient id="SVGID_00000088829616477501489740000017294843098798970247_" cx="74.4972" cy="149.763" r="138.0007" gradientUnits="userSpaceOnUse">
					<stop  offset="0" style="stop-color:#01C8EF"/>
					<stop  offset="0.1396" style="stop-color:#03BAE4"/>
					<stop  offset="0.4033" style="stop-color:#0895C8"/>
					<stop  offset="0.76" style="stop-color:#115A9A"/>
					<stop  offset="1" style="stop-color:#172F78"/>
				</radialGradient>
				<path style="fill:url(#SVGID_00000088829616477501489740000017294843098798970247_);" d="M176.178,175.426l-36.479-21.061
					c-2.903-1.676-7.609-1.676-10.512,0l-36.287,21.1c-2.903,1.676-2.903,4.393,0,6.069l36.479,21.061
					c2.903,1.676,7.609,1.676,10.512,0l36.287-21.1C179.081,179.819,179.081,177.102,176.178,175.426z"/>
				<path style="fill:#FFFFFF;" d="M176.178,180.435l-36.287,21.1c-2.903,1.676-7.609,1.676-10.512,0L92.9,180.474
					c-1.217-0.703-1.917-1.589-2.113-2.505c-0.272,1.268,0.428,2.591,2.113,3.564l36.479,21.062c2.903,1.676,7.609,1.676,10.512,0
					l36.287-21.101c1.686-0.973,2.385-2.297,2.113-3.564C178.095,178.846,177.395,179.732,176.178,180.435z"/>
				<g>
					<polygon style="fill:#FFFFFF;" points="144.796,207.264 143.069,208.261 143.069,206.267 144.796,205.27 					"/>
					<polygon style="fill:#FFFFFF;" points="148.409,205.178 146.682,206.175 146.682,204.181 148.409,203.184 					"/>
					<polygon style="fill:#FFFFFF;" points="152.021,203.092 150.295,204.089 150.295,202.095 152.021,201.098 					"/>
					<polygon style="fill:#FFFFFF;" points="149.068,208.838 147.341,209.835 147.341,207.841 149.068,206.844 					"/>
					<polygon style="fill:#FFFFFF;" points="152.249,207.001 150.522,207.998 150.522,206.004 152.249,205.007 					"/>
					<polygon style="fill:#FFFFFF;" points="163.61,196.401 161.883,197.398 161.883,195.404 163.61,194.407 					"/>
					<polygon style="fill:#FFFFFF;" points="173.563,190.655 171.836,191.652 171.836,189.658 173.563,188.661 					"/>
					<polygon style="fill:#FFFFFF;" points="155.635,201.006 153.908,202.003 153.908,200.009 155.635,199.012 					"/>
				</g>
			</g>
			<path style="opacity:0.4;fill:#06033E;" d="M132.475,193.698l-24.543-14.17c-0.998-0.576-0.872-1.582,0.279-2.247l23.983-13.847
				c1.152-0.665,2.894-0.737,3.892-0.161l24.543,14.17c0.998,0.576,0.873,1.582-0.279,2.247l-23.983,13.847
				C135.215,194.202,133.472,194.274,132.475,193.698z"/>
			<path style="fill:#FFFFFF;" d="M122.819,209.035l-20.253-11.693c-0.483-0.279-0.875-1.028-0.875-1.672v-1.504
				c0-0.645,0.392-0.941,0.875-0.662l20.253,11.693c0.483,0.279,0.875,1.028,0.875,1.673v1.504
				C123.694,209.018,123.302,209.314,122.819,209.035z"/>
			<g>
				
					<linearGradient id="SVGID_00000033344343851344760200000013389214890420922511_" gradientUnits="userSpaceOnUse" x1="85.4548" y1="163.2882" x2="147.2498" y2="163.2882">
					<stop  offset="0" style="stop-color:#01C8EF"/>
					<stop  offset="0.1297" style="stop-color:#04B1DD"/>
					<stop  offset="0.5466" style="stop-color:#0E6BA7"/>
					<stop  offset="0.8476" style="stop-color:#154085"/>
					<stop  offset="1" style="stop-color:#172F78"/>
				</linearGradient>
				<path style="fill:url(#SVGID_00000033344343851344760200000013389214890420922511_);" d="M178.355,163.269L178.355,163.269
					l-0.006-17.49l-22.102,2.949l-16.549-9.555c-2.903-1.676-7.609-1.676-10.512,0l-2.577,1.638l-35.884,4.788v17.695
					c0,0.01,0,0.02,0,0.029v0.083l0.013-0.002c0.041,1.066,0.752,2.125,2.161,2.939l36.479,21.061c2.903,1.676,7.609,1.676,10.512,0
					l36.287-21.101c1.405-0.811,2.114-1.866,2.16-2.929l0.018-0.002V163.269z"/>
				
					<radialGradient id="SVGID_00000142154058781287680850000007613101613401710235_" cx="74.4972" cy="116.9506" r="138.0007" gradientUnits="userSpaceOnUse">
					<stop  offset="0" style="stop-color:#01C8EF"/>
					<stop  offset="0.1396" style="stop-color:#03BAE4"/>
					<stop  offset="0.4033" style="stop-color:#0895C8"/>
					<stop  offset="0.76" style="stop-color:#115A9A"/>
					<stop  offset="1" style="stop-color:#172F78"/>
				</radialGradient>
				<path style="fill:url(#SVGID_00000142154058781287680850000007613101613401710235_);" d="M176.178,142.613l-36.479-21.061
					c-2.903-1.676-7.609-1.676-10.512,0l-36.287,21.1c-2.903,1.676-2.903,4.393,0,6.069l36.479,21.062
					c2.903,1.676,7.609,1.676,10.512,0l36.287-21.1C179.081,147.007,179.081,144.289,176.178,142.613z"/>
				<path style="opacity:0.4;fill:#06033E;" d="M158.801,143.888l-21.256-12.272c-1.691-0.977-4.434-0.977-6.125,0l-21.144,12.295
					c-1.691,0.977-1.691,2.56,0,3.536l21.256,12.272c1.691,0.977,4.434,0.977,6.125,0l21.144-12.295
					C160.493,146.448,160.493,144.865,158.801,143.888z"/>
				<path style="fill:#FFFFFF;" d="M176.178,147.622l-36.287,21.1c-2.903,1.676-7.609,1.676-10.512,0L92.9,147.661
					c-1.217-0.703-1.917-1.589-2.113-2.505c-0.272,1.268,0.428,2.591,2.113,3.564l36.479,21.062c2.903,1.676,7.609,1.676,10.512,0
					l36.287-21.1c1.686-0.973,2.385-2.297,2.113-3.564C178.095,146.033,177.395,146.92,176.178,147.622z"/>
				<g>
					<polygon style="fill:#FFFFFF;" points="144.796,174.451 143.069,175.448 143.069,173.454 144.796,172.457 					"/>
					<polygon style="fill:#FFFFFF;" points="148.409,172.365 146.682,173.362 146.682,171.368 148.409,170.371 					"/>
					<polygon style="fill:#FFFFFF;" points="152.021,170.279 150.295,171.276 150.295,169.282 152.021,168.285 					"/>
					<polygon style="fill:#FFFFFF;" points="149.068,176.025 147.341,177.023 147.341,175.028 149.068,174.031 					"/>
					<polygon style="fill:#FFFFFF;" points="152.249,174.189 150.522,175.186 150.522,173.192 152.249,172.195 					"/>
					<polygon style="fill:#FFFFFF;" points="163.61,163.589 161.883,164.586 161.883,162.592 163.61,161.594 					"/>
					<polygon style="fill:#FFFFFF;" points="173.563,157.842 171.836,158.839 171.836,156.845 173.563,155.848 					"/>
					<polygon style="fill:#FFFFFF;" points="155.635,168.193 153.908,169.191 153.908,167.196 155.635,166.199 					"/>
				</g>
			</g>
			<g>
				
					<linearGradient id="SVGID_00000096052161225189861900000000819921475480648099_" gradientUnits="userSpaceOnUse" x1="85.4548" y1="130.4758" x2="147.2498" y2="130.4758">
					<stop  offset="0" style="stop-color:#01C8EF"/>
					<stop  offset="0.1297" style="stop-color:#04B1DD"/>
					<stop  offset="0.5466" style="stop-color:#0E6BA7"/>
					<stop  offset="0.8476" style="stop-color:#154085"/>
					<stop  offset="1" style="stop-color:#172F78"/>
				</linearGradient>
				<path style="fill:url(#SVGID_00000096052161225189861900000000819921475480648099_);" d="M178.355,130.456L178.355,130.456
					l-0.006-17.49l-22.102,2.949l-16.549-9.555c-2.903-1.676-7.609-1.676-10.512,0l-2.577,1.638l-35.884,4.788v17.695
					c0,0.01,0,0.02,0,0.029v0.083l0.013-0.002c0.041,1.066,0.752,2.125,2.161,2.939l36.479,21.061c2.903,1.676,7.609,1.676,10.512,0
					l36.287-21.101c1.405-0.811,2.114-1.866,2.16-2.929l0.018-0.002V130.456z"/>
				
					<radialGradient id="SVGID_00000085962941760163375300000004145450585609644197_" cx="74.4972" cy="84.1381" r="138.0007" gradientUnits="userSpaceOnUse">
					<stop  offset="0" style="stop-color:#01C8EF"/>
					<stop  offset="0.1396" style="stop-color:#03BAE4"/>
					<stop  offset="0.4033" style="stop-color:#0895C8"/>
					<stop  offset="0.76" style="stop-color:#115A9A"/>
					<stop  offset="1" style="stop-color:#172F78"/>
				</radialGradient>
				<path style="fill:url(#SVGID_00000085962941760163375300000004145450585609644197_);" d="M176.178,109.801L139.699,88.74
					c-2.903-1.676-7.609-1.676-10.512,0L92.9,109.84c-2.903,1.676-2.903,4.393,0,6.069l36.479,21.061
					c2.903,1.676,7.609,1.676,10.512,0l36.287-21.1C179.081,114.194,179.081,111.477,176.178,109.801z"/>
				
					<radialGradient id="SVGID_00000128471109326849763600000012063727645845601920_" cx="86.6746" cy="92.4538" r="94.8803" gradientUnits="userSpaceOnUse">
					<stop  offset="0" style="stop-color:#F9636B"/>
					<stop  offset="1" style="stop-color:#B6246E"/>
				</radialGradient>
				<path style="fill:url(#SVGID_00000128471109326849763600000012063727645845601920_);" d="M176.178,109.801L139.699,88.74
					c-2.903-1.676-7.609-1.676-10.512,0L92.9,109.84c-2.903,1.676-2.903,4.393,0,6.069l36.479,21.061
					c2.903,1.676,7.609,1.676,10.512,0l36.287-21.1C179.081,114.194,179.081,111.477,176.178,109.801z"/>
				<path style="fill:#8B1E64;" d="M134.602,130.146c-1.338,0-2.676-0.301-3.719-0.903l-24.17-13.955
					c-1.083-0.625-1.679-1.485-1.679-2.42c0-0.936,0.596-1.796,1.679-2.421l24.041-13.981c2.088-1.205,5.355-1.205,7.44,0
					l24.171,13.955c1.083,0.625,1.679,1.485,1.679,2.42c0,0.936-0.596,1.796-1.679,2.421l-24.042,13.98
					C137.279,129.846,135.94,130.146,134.602,130.146z M134.475,96.512c-1.175,0-2.351,0.258-3.246,0.775l-24.042,13.98
					c-0.779,0.449-1.207,1.018-1.207,1.601c0,0.583,0.428,1.151,1.205,1.6l24.17,13.955c1.789,1.033,4.701,1.033,6.491,0
					l24.042-13.98c0.779-0.449,1.207-1.018,1.207-1.601c0-0.583-0.428-1.151-1.206-1.6l-24.171-13.955
					C136.826,96.77,135.65,96.512,134.475,96.512z"/>
				<path style="fill:#FFFFFF;" d="M176.178,114.81l-36.287,21.1c-2.903,1.676-7.609,1.676-10.512,0L92.9,114.849
					c-1.217-0.703-1.917-1.589-2.113-2.505c-0.272,1.268,0.428,2.591,2.113,3.564l36.479,21.062c2.903,1.676,7.609,1.676,10.512,0
					l36.287-21.1c1.686-0.973,2.385-2.297,2.113-3.564C178.095,113.221,177.395,114.107,176.178,114.81z"/>
				<g>
					<polygon style="fill:#FFFFFF;" points="144.796,141.639 143.069,142.636 143.069,140.642 144.796,139.645 					"/>
					<polygon style="fill:#FFFFFF;" points="148.409,139.553 146.682,140.55 146.682,138.556 148.409,137.559 					"/>
					<polygon style="fill:#FFFFFF;" points="152.021,137.467 150.295,138.464 150.295,136.47 152.021,135.473 					"/>
					<polygon style="fill:#FFFFFF;" points="149.068,143.213 147.341,144.21 147.341,142.216 149.068,141.219 					"/>
					<polygon style="fill:#FFFFFF;" points="152.249,141.376 150.522,142.373 150.522,140.379 152.249,139.382 					"/>
					<polygon style="fill:#FFFFFF;" points="163.61,130.776 161.883,131.773 161.883,129.779 163.61,128.782 					"/>
					<polygon style="fill:#FFFFFF;" points="173.563,125.03 171.836,126.027 171.836,124.033 173.563,123.036 					"/>
					<polygon style="fill:#FFFFFF;" points="155.635,135.381 153.908,136.378 153.908,134.384 155.635,133.387 					"/>
				</g>
			</g>
		</g>
		<g>
			<path style="fill:#03A7D3;" d="M263.275,233.28c-1.965,0-3.929-0.432-5.425-1.295l-36.479-21.062
				c-1.513-0.874-2.347-2.056-2.347-3.327c0-1.273,0.834-2.456,2.347-3.33l36.286-21.099c2.992-1.729,7.86-1.728,10.852-0.001
				l36.48,21.061c1.514,0.874,2.347,2.056,2.347,3.328c0,1.273-0.833,2.454-2.347,3.328l-36.287,21.1
				C267.206,232.849,265.24,233.28,263.275,233.28z M263.083,182.54c-1.842,0-3.684,0.405-5.086,1.215l-36.286,21.099
				c-1.295,0.749-2.009,1.723-2.008,2.742c0,1.02,0.713,1.993,2.007,2.74l36.479,21.062c2.805,1.619,7.368,1.619,10.173,0
				l36.286-21.1c1.296-0.748,2.009-1.722,2.009-2.741c0-1.02-0.713-1.993-2.008-2.74l-36.479-21.062
				C266.767,182.945,264.925,182.54,263.083,182.54z"/>
			<g>
				
					<linearGradient id="SVGID_00000012469072976287155060000002233668304086026141_" gradientUnits="userSpaceOnUse" x1="214.274" y1="196.0639" x2="276.069" y2="196.0639">
					<stop  offset="0" style="stop-color:#01C8EF"/>
					<stop  offset="0.1297" style="stop-color:#04B1DD"/>
					<stop  offset="0.5466" style="stop-color:#0E6BA7"/>
					<stop  offset="0.8476" style="stop-color:#154085"/>
					<stop  offset="1" style="stop-color:#172F78"/>
				</linearGradient>
				<path style="fill:url(#SVGID_00000012469072976287155060000002233668304086026141_);" d="M307.174,196.045L307.174,196.045
					l-0.006-17.49l-22.102,2.949l-16.549-9.555c-2.903-1.676-7.609-1.676-10.512,0l-2.577,1.638l-35.884,4.788v17.695
					c0,0.01,0,0.02,0,0.029v0.083l0.014-0.002c0.041,1.066,0.752,2.125,2.161,2.939l36.479,21.061c2.903,1.676,7.609,1.676,10.512,0
					l36.287-21.101c1.405-0.811,2.114-1.866,2.16-2.929l0.017-0.002V196.045z"/>
				
					<radialGradient id="SVGID_00000025409223004470818810000017554888051718603704_" cx="203.3165" cy="149.7263" r="138.0007" gradientUnits="userSpaceOnUse">
					<stop  offset="0" style="stop-color:#01C8EF"/>
					<stop  offset="0.1396" style="stop-color:#03BAE4"/>
					<stop  offset="0.4033" style="stop-color:#0895C8"/>
					<stop  offset="0.76" style="stop-color:#115A9A"/>
					<stop  offset="1" style="stop-color:#172F78"/>
				</radialGradient>
				<path style="fill:url(#SVGID_00000025409223004470818810000017554888051718603704_);" d="M304.997,175.389l-36.479-21.061
					c-2.903-1.676-7.609-1.676-10.512,0l-36.287,21.1c-2.903,1.676-2.903,4.393,0,6.069l36.479,21.061
					c2.903,1.676,7.609,1.676,10.512,0l36.287-21.1C307.9,179.782,307.9,177.065,304.997,175.389z"/>
				<path style="fill:#FFFFFF;" d="M304.997,180.398l-36.287,21.1c-2.903,1.676-7.609,1.676-10.512,0l-36.479-21.061
					c-1.217-0.703-1.917-1.589-2.113-2.505c-0.272,1.268,0.428,2.591,2.113,3.564l36.479,21.062c2.903,1.676,7.609,1.676,10.512,0
					l36.287-21.101c1.686-0.973,2.385-2.297,2.113-3.564C306.914,178.809,306.215,179.695,304.997,180.398z"/>
				<g>
					<polygon style="fill:#FFFFFF;" points="273.615,207.227 271.888,208.224 271.888,206.23 273.615,205.233 					"/>
					<polygon style="fill:#FFFFFF;" points="277.228,205.141 275.501,206.138 275.501,204.144 277.228,203.147 					"/>
					<polygon style="fill:#FFFFFF;" points="280.841,203.055 279.114,204.052 279.114,202.058 280.841,201.061 					"/>
					<polygon style="fill:#FFFFFF;" points="277.887,208.801 276.16,209.798 276.16,207.804 277.887,206.807 					"/>
					<polygon style="fill:#FFFFFF;" points="281.068,206.964 279.341,207.962 279.341,205.967 281.068,204.97 					"/>
					<polygon style="fill:#FFFFFF;" points="292.43,196.364 290.703,197.361 290.703,195.367 292.43,194.37 					"/>
					<polygon style="fill:#FFFFFF;" points="302.382,190.618 300.655,191.615 300.655,189.621 302.382,188.624 					"/>
					<polygon style="fill:#FFFFFF;" points="284.454,200.969 282.727,201.966 282.727,199.972 284.454,198.975 					"/>
				</g>
			</g>
			<path style="opacity:0.4;fill:#06033E;" d="M261.294,193.661l-24.543-14.17c-0.998-0.576-0.872-1.582,0.279-2.247l23.983-13.847
				c1.152-0.665,2.895-0.737,3.892-0.161l24.543,14.17c0.998,0.576,0.872,1.582-0.279,2.247L265.186,193.5
				C264.034,194.165,262.292,194.237,261.294,193.661z"/>
			<path style="fill:#FFFFFF;" d="M251.638,208.999l-20.253-11.693c-0.484-0.279-0.875-1.028-0.875-1.673v-1.504
				c0-0.645,0.392-0.941,0.875-0.662l20.253,11.693c0.483,0.279,0.875,1.028,0.875,1.673v1.504
				C252.514,208.981,252.122,209.278,251.638,208.999z"/>
			<g>
				
					<linearGradient id="SVGID_00000000915447284357957060000002596784397168167086_" gradientUnits="userSpaceOnUse" x1="214.274" y1="163.2514" x2="276.069" y2="163.2514">
					<stop  offset="0" style="stop-color:#01C8EF"/>
					<stop  offset="0.1297" style="stop-color:#04B1DD"/>
					<stop  offset="0.5466" style="stop-color:#0E6BA7"/>
					<stop  offset="0.8476" style="stop-color:#154085"/>
					<stop  offset="1" style="stop-color:#172F78"/>
				</linearGradient>
				<path style="fill:url(#SVGID_00000000915447284357957060000002596784397168167086_);" d="M307.174,163.232L307.174,163.232
					l-0.006-17.49l-22.102,2.949l-16.549-9.555c-2.903-1.676-7.609-1.676-10.512,0l-2.577,1.638l-35.884,4.788v17.695
					c0,0.01,0,0.02,0,0.029v0.083l0.014-0.002c0.041,1.066,0.752,2.125,2.161,2.939l36.479,21.061c2.903,1.676,7.609,1.676,10.512,0
					l36.287-21.101c1.405-0.811,2.114-1.866,2.16-2.929l0.017-0.002V163.232z"/>
				
					<radialGradient id="SVGID_00000034073057733221715450000013618622766980327845_" cx="203.3165" cy="116.9138" r="138.0007" gradientUnits="userSpaceOnUse">
					<stop  offset="0" style="stop-color:#01C8EF"/>
					<stop  offset="0.1396" style="stop-color:#03BAE4"/>
					<stop  offset="0.4033" style="stop-color:#0895C8"/>
					<stop  offset="0.76" style="stop-color:#115A9A"/>
					<stop  offset="1" style="stop-color:#172F78"/>
				</radialGradient>
				<path style="fill:url(#SVGID_00000034073057733221715450000013618622766980327845_);" d="M304.997,142.577l-36.479-21.061
					c-2.903-1.676-7.609-1.676-10.512,0l-36.287,21.1c-2.903,1.676-2.903,4.393,0,6.069l36.479,21.061
					c2.903,1.676,7.609,1.676,10.512,0l36.287-21.1C307.9,146.97,307.9,144.253,304.997,142.577z"/>
				<path style="opacity:0.4;fill:#06033E;" d="M287.62,143.851l-21.256-12.272c-1.691-0.977-4.434-0.977-6.125,0l-21.144,12.295
					c-1.691,0.977-1.691,2.56,0,3.536l21.256,12.272c1.691,0.977,4.434,0.977,6.125,0l21.144-12.295
					C289.312,146.411,289.312,144.828,287.62,143.851z"/>
				<path style="fill:#FFFFFF;" d="M304.997,147.586l-36.287,21.1c-2.903,1.676-7.609,1.676-10.512,0l-36.479-21.061
					c-1.217-0.703-1.917-1.589-2.113-2.505c-0.272,1.268,0.428,2.591,2.113,3.564l36.479,21.061c2.903,1.676,7.609,1.676,10.512,0
					l36.287-21.1c1.686-0.973,2.385-2.297,2.113-3.564C306.914,145.997,306.215,146.883,304.997,147.586z"/>
				<g>
					<polygon style="fill:#FFFFFF;" points="273.615,174.415 271.888,175.411 271.888,173.417 273.615,172.42 					"/>
					<polygon style="fill:#FFFFFF;" points="277.228,172.329 275.501,173.326 275.501,171.331 277.228,170.335 					"/>
					<polygon style="fill:#FFFFFF;" points="280.841,170.243 279.114,171.24 279.114,169.246 280.841,168.249 					"/>
					<polygon style="fill:#FFFFFF;" points="277.887,175.989 276.16,176.986 276.16,174.992 277.887,173.995 					"/>
					<polygon style="fill:#FFFFFF;" points="281.068,174.152 279.341,175.149 279.341,173.155 281.068,172.158 					"/>
					<polygon style="fill:#FFFFFF;" points="292.43,163.552 290.703,164.549 290.703,162.555 292.43,161.558 					"/>
					<polygon style="fill:#FFFFFF;" points="302.382,157.806 300.655,158.803 300.655,156.809 302.382,155.812 					"/>
					<polygon style="fill:#FFFFFF;" points="284.454,168.157 282.727,169.154 282.727,167.16 284.454,166.163 					"/>
				</g>
			</g>
			<g>
				
					<linearGradient id="SVGID_00000024688058341576838520000011876825899480692874_" gradientUnits="userSpaceOnUse" x1="214.274" y1="130.439" x2="276.069" y2="130.439">
					<stop  offset="0" style="stop-color:#01C8EF"/>
					<stop  offset="0.1297" style="stop-color:#04B1DD"/>
					<stop  offset="0.5466" style="stop-color:#0E6BA7"/>
					<stop  offset="0.8476" style="stop-color:#154085"/>
					<stop  offset="1" style="stop-color:#172F78"/>
				</linearGradient>
				<path style="fill:url(#SVGID_00000024688058341576838520000011876825899480692874_);" d="M307.174,130.42L307.174,130.42
					l-0.006-17.49l-22.102,2.949l-16.549-9.555c-2.903-1.676-7.609-1.676-10.512,0l-2.577,1.638l-35.884,4.788v17.695
					c0,0.01,0,0.02,0,0.029v0.083l0.014-0.002c0.041,1.066,0.752,2.125,2.161,2.939l36.479,21.061c2.903,1.676,7.609,1.676,10.512,0
					l36.287-21.101c1.405-0.811,2.114-1.866,2.16-2.929l0.017-0.002V130.42z"/>
				
					<radialGradient id="SVGID_00000027606532743161618000000000928064512878598822_" cx="203.3165" cy="84.1013" r="138.0007" gradientUnits="userSpaceOnUse">
					<stop  offset="0" style="stop-color:#01C8EF"/>
					<stop  offset="0.1396" style="stop-color:#03BAE4"/>
					<stop  offset="0.4033" style="stop-color:#0895C8"/>
					<stop  offset="0.76" style="stop-color:#115A9A"/>
					<stop  offset="1" style="stop-color:#172F78"/>
				</radialGradient>
				<path style="fill:url(#SVGID_00000027606532743161618000000000928064512878598822_);" d="M304.997,109.764l-36.479-21.061
					c-2.903-1.676-7.609-1.676-10.512,0l-36.287,21.1c-2.903,1.676-2.903,4.393,0,6.069l36.479,21.061
					c2.903,1.676,7.609,1.676,10.512,0l36.287-21.1C307.9,114.157,307.9,111.44,304.997,109.764z"/>
				<path style="fill:#FFFFFF;" d="M304.997,114.773l-36.287,21.1c-2.903,1.676-7.609,1.676-10.512,0l-36.479-21.061
					c-1.217-0.703-1.917-1.589-2.113-2.505c-0.272,1.268,0.428,2.591,2.113,3.564l36.479,21.061c2.903,1.676,7.609,1.676,10.512,0
					l36.287-21.1c1.686-0.973,2.385-2.297,2.113-3.564C306.914,113.184,306.215,114.071,304.997,114.773z"/>
				<g>
					<polygon style="fill:#FFFFFF;" points="273.615,141.602 271.888,142.599 271.888,140.605 273.615,139.608 					"/>
					<polygon style="fill:#FFFFFF;" points="277.228,139.516 275.501,140.513 275.501,138.519 277.228,137.522 					"/>
					<polygon style="fill:#FFFFFF;" points="280.841,137.43 279.114,138.427 279.114,136.433 280.841,135.436 					"/>
					<polygon style="fill:#FFFFFF;" points="277.887,143.176 276.16,144.173 276.16,142.179 277.887,141.182 					"/>
					<polygon style="fill:#FFFFFF;" points="281.068,141.339 279.341,142.337 279.341,140.342 281.068,139.345 					"/>
					<polygon style="fill:#FFFFFF;" points="292.43,130.739 290.703,131.736 290.703,129.742 292.43,128.745 					"/>
					<polygon style="fill:#FFFFFF;" points="302.382,124.993 300.655,125.99 300.655,123.996 302.382,122.999 					"/>
					<polygon style="fill:#FFFFFF;" points="284.454,135.344 282.727,136.341 282.727,134.347 284.454,133.35 					"/>
				</g>
			</g>
		</g>
		<g>
			<path style="fill:#03A7D3;" d="M198.749,270.613c-1.965,0-3.929-0.432-5.425-1.295l-36.48-21.062
				c-1.514-0.874-2.347-2.056-2.347-3.328c0-1.273,0.833-2.455,2.347-3.329l36.286-21.1c2.993-1.727,7.861-1.727,10.852-0.001
				l36.479,21.062c1.514,0.874,2.347,2.056,2.347,3.328c0,1.273-0.833,2.455-2.347,3.329l-36.286,21.1
				C202.68,270.182,200.714,270.613,198.749,270.613z M198.557,219.872c-1.842,0-3.684,0.405-5.086,1.215l-36.286,21.1
				c-1.295,0.748-2.008,1.722-2.008,2.742c0,1.02,0.713,1.993,2.007,2.74l36.48,21.062c2.805,1.619,7.368,1.619,10.173,0
				l36.286-21.1c1.295-0.748,2.008-1.722,2.008-2.742c0-1.02-0.713-1.993-2.007-2.74l-36.479-21.062
				C202.241,220.277,200.399,219.872,198.557,219.872z"/>
			<path style="opacity:0.2;fill:#03A7D3;" d="M231.267,242.517l-28.572-16.496c-2.274-1.313-5.96-1.313-8.233,0l-28.422,16.527
				c-2.274,1.313-2.274,3.441,0,4.754l28.572,16.496c2.274,1.313,5.96,1.313,8.233,0l28.422-16.527
				C233.541,245.958,233.54,243.829,231.267,242.517z"/>
			<g>
				
					<linearGradient id="SVGID_00000145736562049257206270000014027977232254414777_" gradientUnits="userSpaceOnUse" x1="149.7479" y1="233.3966" x2="211.5429" y2="233.3966">
					<stop  offset="0" style="stop-color:#01C8EF"/>
					<stop  offset="0.1297" style="stop-color:#04B1DD"/>
					<stop  offset="0.5466" style="stop-color:#0E6BA7"/>
					<stop  offset="0.8476" style="stop-color:#154085"/>
					<stop  offset="1" style="stop-color:#172F78"/>
				</linearGradient>
				<path style="fill:url(#SVGID_00000145736562049257206270000014027977232254414777_);" d="M242.648,233.377L242.648,233.377
					l-0.006-17.49l-22.102,2.949l-16.549-9.555c-2.903-1.676-7.609-1.676-10.512,0l-2.577,1.638l-35.884,4.788v17.695
					c0,0.01,0,0.02,0,0.029v0.083l0.014-0.002c0.041,1.066,0.752,2.125,2.161,2.939l36.479,21.061c2.903,1.676,7.609,1.676,10.512,0
					l36.287-21.101c1.405-0.811,2.114-1.866,2.16-2.929l0.017-0.002V233.377z"/>
				
					<radialGradient id="SVGID_00000098906628416301169850000002037004863731883957_" cx="138.7904" cy="187.0589" r="138.0007" gradientUnits="userSpaceOnUse">
					<stop  offset="0" style="stop-color:#01C8EF"/>
					<stop  offset="0.1396" style="stop-color:#03BAE4"/>
					<stop  offset="0.4033" style="stop-color:#0895C8"/>
					<stop  offset="0.76" style="stop-color:#115A9A"/>
					<stop  offset="1" style="stop-color:#172F78"/>
				</radialGradient>
				<path style="fill:url(#SVGID_00000098906628416301169850000002037004863731883957_);" d="M240.471,212.722l-36.479-21.061
					c-2.903-1.676-7.609-1.676-10.512,0l-36.287,21.1c-2.903,1.676-2.903,4.393,0,6.069l36.479,21.061
					c2.903,1.676,7.609,1.676,10.512,0l36.287-21.1C243.374,217.115,243.374,214.398,240.471,212.722z"/>
				<path style="fill:#FFFFFF;" d="M240.471,217.731l-36.287,21.1c-2.903,1.676-7.609,1.676-10.512,0l-36.479-21.061
					c-1.217-0.703-1.917-1.589-2.113-2.505c-0.272,1.268,0.428,2.591,2.113,3.564l36.479,21.062c2.903,1.676,7.609,1.676,10.512,0
					l36.287-21.101c1.685-0.973,2.385-2.297,2.113-3.564C242.388,216.142,241.688,217.028,240.471,217.731z"/>
				<g>
					<polygon style="fill:#FFFFFF;" points="209.089,244.56 207.362,245.557 207.362,243.563 209.089,242.566 					"/>
					<polygon style="fill:#FFFFFF;" points="212.702,242.474 210.975,243.471 210.975,241.477 212.702,240.48 					"/>
					<polygon style="fill:#FFFFFF;" points="216.315,240.388 214.588,241.385 214.588,239.391 216.315,238.394 					"/>
					<polygon style="fill:#FFFFFF;" points="213.361,246.134 211.634,247.131 211.634,245.137 213.361,244.14 					"/>
					<polygon style="fill:#FFFFFF;" points="216.542,244.297 214.815,245.294 214.815,243.3 216.542,242.303 					"/>
					<polygon style="fill:#FFFFFF;" points="227.903,233.697 226.176,234.694 226.176,232.7 227.903,231.703 					"/>
					<polygon style="fill:#FFFFFF;" points="237.856,227.951 236.129,228.948 236.129,226.954 237.856,225.957 					"/>
					<polygon style="fill:#FFFFFF;" points="219.928,238.302 218.201,239.299 218.201,237.305 219.928,236.308 					"/>
				</g>
			</g>
			<path style="opacity:0.4;fill:#06033E;" d="M196.768,230.994l-24.543-14.17c-0.998-0.576-0.873-1.582,0.279-2.247l23.983-13.847
				c1.152-0.665,2.895-0.737,3.892-0.161l24.543,14.17c0.998,0.576,0.872,1.582-0.279,2.247l-23.983,13.847
				C199.508,231.497,197.766,231.57,196.768,230.994z"/>
			<path style="fill:#FFFFFF;" d="M187.112,246.331l-20.253-11.693c-0.484-0.279-0.875-1.028-0.875-1.673v-1.504
				c0-0.645,0.392-0.941,0.875-0.662l20.253,11.693c0.483,0.279,0.875,1.028,0.875,1.673v1.504
				C187.987,246.314,187.596,246.61,187.112,246.331z"/>
			<g>
				
					<linearGradient id="SVGID_00000067950010741063466740000000202821402063789968_" gradientUnits="userSpaceOnUse" x1="149.7479" y1="200.5841" x2="211.5429" y2="200.5841">
					<stop  offset="0" style="stop-color:#01C8EF"/>
					<stop  offset="0.1297" style="stop-color:#04B1DD"/>
					<stop  offset="0.5466" style="stop-color:#0E6BA7"/>
					<stop  offset="0.8476" style="stop-color:#154085"/>
					<stop  offset="1" style="stop-color:#172F78"/>
				</linearGradient>
				<path style="fill:url(#SVGID_00000067950010741063466740000000202821402063789968_);" d="M242.648,200.565L242.648,200.565
					l-0.006-17.49l-22.102,2.949l-16.549-9.555c-2.903-1.676-7.609-1.676-10.512,0l-2.577,1.638l-35.884,4.788v17.695
					c0,0.01,0,0.02,0,0.029v0.083l0.014-0.002c0.041,1.066,0.752,2.125,2.161,2.939l36.479,21.061c2.903,1.676,7.609,1.676,10.512,0
					l36.287-21.101c1.405-0.811,2.114-1.866,2.16-2.929l0.017-0.002V200.565z"/>
				
					<radialGradient id="SVGID_00000155824745520474954440000014604583746419226250_" cx="138.7904" cy="154.2465" r="138.0007" gradientUnits="userSpaceOnUse">
					<stop  offset="0" style="stop-color:#01C8EF"/>
					<stop  offset="0.1396" style="stop-color:#03BAE4"/>
					<stop  offset="0.4033" style="stop-color:#0895C8"/>
					<stop  offset="0.76" style="stop-color:#115A9A"/>
					<stop  offset="1" style="stop-color:#172F78"/>
				</radialGradient>
				<path style="fill:url(#SVGID_00000155824745520474954440000014604583746419226250_);" d="M240.471,179.909l-36.479-21.061
					c-2.903-1.676-7.609-1.676-10.512,0l-36.287,21.1c-2.903,1.676-2.903,4.393,0,6.069l36.479,21.061
					c2.903,1.676,7.609,1.676,10.512,0l36.287-21.1C243.374,184.302,243.374,181.585,240.471,179.909z"/>
				<path style="opacity:0.4;fill:#06033E;" d="M223.094,181.184l-21.256-12.272c-1.691-0.977-4.434-0.977-6.125,0l-21.144,12.295
					c-1.691,0.977-1.691,2.56,0,3.536l21.256,12.272c1.691,0.977,4.434,0.977,6.125,0l21.144-12.295
					C224.786,183.744,224.786,182.16,223.094,181.184z"/>
				<path style="fill:#FFFFFF;" d="M240.471,184.918l-36.287,21.1c-2.903,1.676-7.609,1.676-10.512,0l-36.479-21.061
					c-1.217-0.703-1.917-1.589-2.113-2.505c-0.272,1.268,0.428,2.591,2.113,3.564l36.479,21.062c2.903,1.676,7.609,1.676,10.512,0
					l36.287-21.1c1.685-0.973,2.385-2.297,2.113-3.564C242.388,183.329,241.688,184.216,240.471,184.918z"/>
				<g>
					<polygon style="fill:#FFFFFF;" points="209.089,211.747 207.362,212.744 207.362,210.75 209.089,209.753 					"/>
					<polygon style="fill:#FFFFFF;" points="212.702,209.661 210.975,210.658 210.975,208.664 212.702,207.667 					"/>
					<polygon style="fill:#FFFFFF;" points="216.315,207.575 214.588,208.572 214.588,206.578 216.315,205.581 					"/>
					<polygon style="fill:#FFFFFF;" points="213.361,213.321 211.634,214.318 211.634,212.324 213.361,211.327 					"/>
					<polygon style="fill:#FFFFFF;" points="216.542,211.485 214.815,212.482 214.815,210.488 216.542,209.491 					"/>
					<polygon style="fill:#FFFFFF;" points="227.903,200.885 226.176,201.882 226.176,199.887 227.903,198.89 					"/>
					<polygon style="fill:#FFFFFF;" points="237.856,195.138 236.129,196.135 236.129,194.141 237.856,193.144 					"/>
					<polygon style="fill:#FFFFFF;" points="219.928,205.489 218.201,206.486 218.201,204.492 219.928,203.495 					"/>
				</g>
			</g>
			<g>
				
					<linearGradient id="SVGID_00000159431575907497821930000006688199607662629560_" gradientUnits="userSpaceOnUse" x1="149.7479" y1="167.7717" x2="211.5429" y2="167.7717">
					<stop  offset="0" style="stop-color:#01C8EF"/>
					<stop  offset="0.1297" style="stop-color:#04B1DD"/>
					<stop  offset="0.5466" style="stop-color:#0E6BA7"/>
					<stop  offset="0.8476" style="stop-color:#154085"/>
					<stop  offset="1" style="stop-color:#172F78"/>
				</linearGradient>
				<path style="fill:url(#SVGID_00000159431575907497821930000006688199607662629560_);" d="M242.648,167.752L242.648,167.752
					l-0.006-17.49l-22.102,2.949l-16.549-9.555c-2.903-1.676-7.609-1.676-10.512,0l-2.577,1.638l-35.884,4.788v17.695
					c0,0.01,0,0.02,0,0.029v0.083l0.014-0.002c0.041,1.066,0.752,2.125,2.161,2.939l36.479,21.061c2.903,1.676,7.609,1.676,10.512,0
					l36.287-21.101c1.405-0.811,2.114-1.866,2.16-2.929l0.017-0.002V167.752z"/>
				
					<radialGradient id="SVGID_00000160175871915485048940000018328024727553429134_" cx="138.7904" cy="121.434" r="138.0007" gradientUnits="userSpaceOnUse">
					<stop  offset="0" style="stop-color:#01C8EF"/>
					<stop  offset="0.1396" style="stop-color:#03BAE4"/>
					<stop  offset="0.4033" style="stop-color:#0895C8"/>
					<stop  offset="0.76" style="stop-color:#115A9A"/>
					<stop  offset="1" style="stop-color:#172F78"/>
				</radialGradient>
				<path style="fill:url(#SVGID_00000160175871915485048940000018328024727553429134_);" d="M240.471,147.097l-36.479-21.061
					c-2.903-1.676-7.609-1.676-10.512,0l-36.287,21.1c-2.903,1.676-2.903,4.393,0,6.069l36.479,21.061
					c2.903,1.676,7.609,1.676,10.512,0l36.287-21.1C243.374,151.49,243.374,148.773,240.471,147.097z"/>
				<path style="fill:#FFFFFF;" d="M240.471,152.106l-36.287,21.1c-2.903,1.676-7.609,1.676-10.512,0l-36.479-21.061
					c-1.217-0.703-1.917-1.589-2.113-2.505c-0.272,1.268,0.428,2.591,2.113,3.564l36.479,21.061c2.903,1.676,7.609,1.676,10.512,0
					l36.287-21.1c1.685-0.973,2.385-2.297,2.113-3.564C242.388,150.517,241.688,151.403,240.471,152.106z"/>
				<g>
					<polygon style="fill:#FFFFFF;" points="209.089,178.935 207.362,179.932 207.362,177.938 209.089,176.941 					"/>
					<polygon style="fill:#FFFFFF;" points="212.702,176.849 210.975,177.846 210.975,175.852 212.702,174.855 					"/>
					<polygon style="fill:#FFFFFF;" points="216.315,174.763 214.588,175.76 214.588,173.766 216.315,172.769 					"/>
					<polygon style="fill:#FFFFFF;" points="213.361,180.509 211.634,181.506 211.634,179.512 213.361,178.515 					"/>
					<polygon style="fill:#FFFFFF;" points="216.542,178.672 214.815,179.669 214.815,177.675 216.542,176.678 					"/>
					<polygon style="fill:#FFFFFF;" points="227.903,168.072 226.176,169.069 226.176,167.075 227.903,166.078 					"/>
					<polygon style="fill:#FFFFFF;" points="237.856,162.326 236.129,163.323 236.129,161.329 237.856,160.332 					"/>
					<polygon style="fill:#FFFFFF;" points="219.928,172.677 218.201,173.674 218.201,171.68 219.928,170.683 					"/>
				</g>
			</g>
		</g>
	</g>
	<g>
		
			<rect x="316.918" y="203.646" transform="matrix(0.5 -0.866 0.866 0.5 -49.1348 394.6932)" style="fill:#03A7D3;" width="0.679" height="72.507"/>
		<path style="fill:#03A7D3;" d="M375.129,242.938l-20.064-11.584c-1.83-1.057-4.256-1.75-6.831-1.953l-21.534-1.692
			c-2.674-0.209-5.201-0.934-7.117-2.04l-20.064-11.584l0.339-0.588l20.065,11.584c1.829,1.057,4.255,1.75,6.83,1.952l21.534,1.692
			c2.674,0.21,5.202,0.936,7.118,2.041l20.063,11.584L375.129,242.938z"/>
		<path style="fill:#03A7D3;" d="M321.839,273.705l-20.064-11.584c-1.954-1.129-3.239-2.636-3.618-4.243l-2.93-12.433
			c-0.336-1.424-1.507-2.777-3.298-3.811l-20.064-11.584l0.339-0.588l20.064,11.584c1.955,1.129,3.24,2.636,3.619,4.243l2.93,12.433
			c0.336,1.424,1.507,2.777,3.298,3.811l20.064,11.584L321.839,273.705z"/>
		<path style="fill:#03A7D3;" d="M335.161,266.013l-21.385-12.347c-1.089-0.629-1.964-1.362-2.599-2.179l-8.612-11.075
			c-0.582-0.747-1.391-1.423-2.402-2.007l-21.385-12.347l0.339-0.588l21.385,12.347c1.089,0.628,1.963,1.361,2.599,2.179
			l8.612,11.075c0.581,0.746,1.39,1.422,2.403,2.007l21.385,12.347L335.161,266.013z"/>
		<path style="fill:#03A7D3;" d="M361.807,250.629l-21.386-12.347c-1.022-0.591-2.213-1.064-3.54-1.409l-19.181-4.974
			c-1.384-0.358-2.632-0.855-3.71-1.477l-21.385-12.347l0.339-0.588l21.386,12.347c1.024,0.592,2.216,1.065,3.54,1.409l19.181,4.974
			c1.387,0.359,2.635,0.856,3.71,1.478l21.386,12.347L361.807,250.629z"/>
	</g>
	<g>
		
			<rect x="27.607" y="231.861" transform="matrix(0.8664 -0.4994 0.4994 0.8664 -107.2719 63.5199)" style="fill:#03A7D3;" width="74.891" height="0.679"/>
		
			<rect x="36.882" y="237.215" transform="matrix(0.8664 -0.4994 0.4994 0.8664 -108.7066 68.8675)" style="fill:#03A7D3;" width="74.891" height="0.679"/>
		
			<rect x="46.156" y="242.57" transform="matrix(0.8664 -0.4994 0.4994 0.8664 -110.1413 74.2149)" style="fill:#03A7D3;" width="74.891" height="0.679"/>
		
			<rect x="55.431" y="247.925" transform="matrix(0.8664 -0.4994 0.4994 0.8664 -111.5762 79.5626)" style="fill:#03A7D3;" width="74.892" height="0.679"/>
	</g>
</g>
<g>
	<g>
		<path style="opacity:0.6;fill:#172F78;" d="M423.784,35.826c13.699-3.974,29.906-6.212,47.204-6.07
			c2.283,0.019,4.543,0.078,6.778,0.178c15.189,1.387,20.591,17.428,11.434,24.446c-4.203,3.221-9.27,3.187-11.434,3.173
			c-2.235-0.099-4.496-0.159-6.778-0.178c-17.298-0.142-33.504,2.096-47.204,6.07c-13.833,3.37-14.65-10.688-9.812-19.286
			C415.598,41.266,418.621,37.473,423.784,35.826L423.784,35.826z"/>
		<path style="fill:#03A7D3;" d="M419.897,64.249c-3.66,0-5.737-1.565-6.895-3.092c-3.331-4.394-2.119-12.112,0.711-17.144
			c1.653-2.938,4.728-6.793,9.98-8.469l0.008-0.002c14.187-4.116,30.56-6.239,47.287-6.082c2.255,0.018,4.539,0.078,6.789,0.178
			c7.636,0.697,13.774,5.348,15.653,11.848c1.463,5.061-0.09,10.091-4.053,13.127c-4.283,3.283-9.412,3.248-11.615,3.234
			c-2.241-0.1-4.519-0.159-6.778-0.178c-16.708-0.128-32.986,1.958-47.119,6.058C422.371,64.092,421.055,64.249,419.897,64.249z
			 M423.87,36.108c-5.068,1.618-8.04,5.349-9.641,8.194c-2.739,4.868-3.935,12.304-0.756,16.497
			c2.031,2.679,5.572,3.495,10.24,2.357c14.175-4.113,30.549-6.217,47.275-6.078c2.268,0.018,4.552,0.078,6.789,0.178
			c2.13,0.01,7.117,0.049,11.241-3.112c3.765-2.886,5.238-7.673,3.845-12.494c-1.812-6.266-7.748-10.749-15.126-11.423
			c-2.23-0.099-4.507-0.158-6.753-0.177C454.281,29.916,438.003,32.009,423.87,36.108z"/>
	</g>
	<g>
		<path style="fill:#03A7D3;" d="M468.69,170.669c-1.794,0-3.587-0.394-4.953-1.183l-33.305-19.229
			c-1.381-0.797-2.143-1.876-2.143-3.039c0-1.162,0.762-2.241,2.143-3.038l33.129-19.263c2.73-1.578,7.175-1.578,9.907-0.001
			l33.305,19.228c1.381,0.798,2.142,1.877,2.142,3.039c0,1.162-0.761,2.241-2.142,3.038l-33.129,19.264
			C472.278,170.275,470.484,170.669,468.69,170.669z M468.515,124.346c-1.681,0-3.362,0.37-4.642,1.108l-33.129,19.263
			c-1.183,0.683-1.833,1.571-1.833,2.502c0,0.932,0.65,1.82,1.833,2.503l33.305,19.229c2.559,1.478,6.725,1.478,9.286,0
			l33.129-19.264c1.182-0.683,1.833-1.571,1.833-2.502c0-0.931-0.651-1.82-1.833-2.503l-33.305-19.228
			C471.878,124.715,470.196,124.346,468.515,124.346z"/>
		<g>
			
				<linearGradient id="SVGID_00000126312309076581335890000005590927758889325704_" gradientUnits="userSpaceOnUse" x1="423.9542" y1="136.692" x2="480.3707" y2="136.692">
				<stop  offset="0" style="stop-color:#01C8EF"/>
				<stop  offset="0.1297" style="stop-color:#04B1DD"/>
				<stop  offset="0.5466" style="stop-color:#0E6BA7"/>
				<stop  offset="0.8476" style="stop-color:#154085"/>
				<stop  offset="1" style="stop-color:#172F78"/>
			</linearGradient>
			<path style="fill:url(#SVGID_00000126312309076581335890000005590927758889325704_);" d="M508.769,136.674L508.769,136.674
				l-0.005-15.967l-20.178,2.692l-15.109-8.724c-2.65-1.53-6.947-1.53-9.597,0l-2.353,1.495l-32.761,4.371v16.155
				c0,0.009,0,0.018,0,0.027v0.076l0.012-0.002c0.038,0.974,0.687,1.94,1.973,2.683l33.304,19.228c2.65,1.53,6.947,1.53,9.597,0
				l33.129-19.264c1.282-0.74,1.93-1.704,1.972-2.674l0.016-0.002V136.674z"/>
			
				<radialGradient id="SVGID_00000029755785861847361180000000347014388050445727_" cx="413.9504" cy="94.3875" r="125.9894" gradientUnits="userSpaceOnUse">
				<stop  offset="0" style="stop-color:#01C8EF"/>
				<stop  offset="0.1396" style="stop-color:#03BAE4"/>
				<stop  offset="0.4033" style="stop-color:#0895C8"/>
				<stop  offset="0.76" style="stop-color:#115A9A"/>
				<stop  offset="1" style="stop-color:#172F78"/>
			</radialGradient>
			<path style="fill:url(#SVGID_00000029755785861847361180000000347014388050445727_);" d="M506.781,117.817l-33.304-19.228
				c-2.65-1.53-6.947-1.53-9.597,0l-33.129,19.264c-2.65,1.53-2.65,4.011,0,5.541l33.304,19.228c2.65,1.53,6.947,1.53,9.597,0
				l33.129-19.264C509.431,121.827,509.431,119.347,506.781,117.817z"/>
			<path style="fill:#FFFFFF;" d="M506.781,122.39l-33.129,19.264c-2.65,1.53-6.947,1.53-9.597,0l-33.304-19.228
				c-1.111-0.642-1.75-1.451-1.929-2.286c-0.248,1.157,0.391,2.366,1.929,3.254l33.304,19.228c2.65,1.53,6.947,1.53,9.597,0
				l33.129-19.264c1.539-0.888,2.178-2.097,1.93-3.254C508.531,120.939,507.892,121.748,506.781,122.39z"/>
			<g>
				<polygon style="fill:#FFFFFF;" points="478.13,146.883 476.553,147.794 476.553,145.973 478.13,145.063 				"/>
				<polygon style="fill:#FFFFFF;" points="481.429,144.979 479.852,145.889 479.852,144.069 481.429,143.159 				"/>
				<polygon style="fill:#FFFFFF;" points="484.727,143.075 483.151,143.985 483.151,142.165 484.727,141.254 				"/>
				<polygon style="fill:#FFFFFF;" points="482.03,148.321 480.454,149.231 480.454,147.41 482.03,146.5 				"/>
				<polygon style="fill:#FFFFFF;" points="484.935,146.644 483.358,147.554 483.358,145.734 484.935,144.823 				"/>
				<polygon style="fill:#FFFFFF;" points="495.307,136.966 493.731,137.877 493.731,136.056 495.307,135.146 				"/>
				<polygon style="fill:#FFFFFF;" points="504.394,131.72 502.817,132.63 502.817,130.81 504.394,129.9 				"/>
				<polygon style="fill:#FFFFFF;" points="488.026,141.17 486.449,142.081 486.449,140.26 488.026,139.35 				"/>
			</g>
		</g>
		<path style="opacity:0.4;fill:#06033E;" d="M466.882,134.498l-22.407-12.937c-0.911-0.526-0.797-1.444,0.255-2.051l21.896-12.642
			c1.052-0.607,2.643-0.673,3.553-0.147l22.407,12.937c0.911,0.526,0.797,1.444-0.255,2.052l-21.896,12.642
			C469.383,134.958,467.793,135.024,466.882,134.498z"/>
		<path style="fill:#FFFFFF;" d="M458.066,148.501l-18.49-10.675c-0.441-0.255-0.799-0.939-0.799-1.527v-1.373
			c0-0.589,0.358-0.859,0.799-0.604l18.49,10.675c0.441,0.255,0.799,0.938,0.799,1.527v1.373
			C458.866,148.485,458.508,148.756,458.066,148.501z"/>
		<g>
			
				<linearGradient id="SVGID_00000123410154010723148260000007849890154925692297_" gradientUnits="userSpaceOnUse" x1="423.9542" y1="106.7355" x2="480.3707" y2="106.7355">
				<stop  offset="0" style="stop-color:#01C8EF"/>
				<stop  offset="0.1297" style="stop-color:#04B1DD"/>
				<stop  offset="0.5466" style="stop-color:#0E6BA7"/>
				<stop  offset="0.8476" style="stop-color:#154085"/>
				<stop  offset="1" style="stop-color:#172F78"/>
			</linearGradient>
			<path style="fill:url(#SVGID_00000123410154010723148260000007849890154925692297_);" d="M508.769,106.718L508.769,106.718
				l-0.005-15.967l-20.178,2.692l-15.109-8.724c-2.65-1.53-6.947-1.53-9.597,0l-2.353,1.495l-32.761,4.371v16.155
				c0,0.009,0,0.018,0,0.027v0.076l0.012-0.002c0.038,0.974,0.687,1.94,1.973,2.683l33.304,19.228c2.65,1.53,6.947,1.53,9.597,0
				l33.129-19.264c1.282-0.74,1.93-1.704,1.972-2.674l0.016-0.002V106.718z"/>
			
				<radialGradient id="SVGID_00000070088416929740162970000016539361281636276635_" cx="413.9504" cy="64.431" r="125.9894" gradientUnits="userSpaceOnUse">
				<stop  offset="0" style="stop-color:#01C8EF"/>
				<stop  offset="0.1396" style="stop-color:#03BAE4"/>
				<stop  offset="0.4033" style="stop-color:#0895C8"/>
				<stop  offset="0.76" style="stop-color:#115A9A"/>
				<stop  offset="1" style="stop-color:#172F78"/>
			</radialGradient>
			<path style="fill:url(#SVGID_00000070088416929740162970000016539361281636276635_);" d="M506.781,87.86l-33.304-19.228
				c-2.65-1.53-6.947-1.53-9.597,0l-33.129,19.264c-2.65,1.53-2.65,4.011,0,5.541l33.304,19.228c2.65,1.53,6.947,1.53,9.597,0
				l33.129-19.264C509.431,91.871,509.431,89.39,506.781,87.86z"/>
			<path style="opacity:0.4;fill:#06033E;" d="M490.917,89.024L471.511,77.82c-1.544-0.892-4.048-0.892-5.592,0l-19.303,11.225
				c-1.544,0.892-1.544,2.337,0,3.229l19.406,11.204c1.544,0.892,4.048,0.892,5.592,0l19.303-11.225
				C492.461,91.361,492.461,89.915,490.917,89.024z"/>
			<path style="fill:#FFFFFF;" d="M506.781,92.433l-33.129,19.264c-2.65,1.53-6.947,1.53-9.597,0l-33.304-19.228
				c-1.111-0.642-1.75-1.451-1.929-2.287c-0.248,1.157,0.391,2.366,1.929,3.254l33.304,19.228c2.65,1.53,6.947,1.53,9.597,0
				l33.129-19.264c1.539-0.888,2.178-2.097,1.93-3.254C508.531,90.983,507.892,91.792,506.781,92.433z"/>
			<g>
				<polygon style="fill:#FFFFFF;" points="478.13,116.927 476.553,117.837 476.553,116.017 478.13,115.106 				"/>
				<polygon style="fill:#FFFFFF;" points="481.429,115.023 479.852,115.933 479.852,114.112 481.429,113.202 				"/>
				<polygon style="fill:#FFFFFF;" points="484.727,113.118 483.151,114.029 483.151,112.208 484.727,111.298 				"/>
				<polygon style="fill:#FFFFFF;" points="482.03,118.364 480.454,119.274 480.454,117.454 482.03,116.544 				"/>
				<polygon style="fill:#FFFFFF;" points="484.935,116.687 483.358,117.598 483.358,115.777 484.935,114.867 				"/>
				<polygon style="fill:#FFFFFF;" points="495.307,107.01 493.731,107.92 493.731,106.1 495.307,105.189 				"/>
				<polygon style="fill:#FFFFFF;" points="504.394,101.764 502.817,102.674 502.817,100.854 504.394,99.943 				"/>
				<polygon style="fill:#FFFFFF;" points="488.026,111.214 486.449,112.124 486.449,110.304 488.026,109.393 				"/>
			</g>
		</g>
		<g>
			
				<linearGradient id="SVGID_00000010992113234391606360000012920682799743757977_" gradientUnits="userSpaceOnUse" x1="423.9542" y1="76.779" x2="480.3707" y2="76.779">
				<stop  offset="0" style="stop-color:#01C8EF"/>
				<stop  offset="0.1297" style="stop-color:#04B1DD"/>
				<stop  offset="0.5466" style="stop-color:#0E6BA7"/>
				<stop  offset="0.8476" style="stop-color:#154085"/>
				<stop  offset="1" style="stop-color:#172F78"/>
			</linearGradient>
			<path style="fill:url(#SVGID_00000010992113234391606360000012920682799743757977_);" d="M508.769,76.761L508.769,76.761
				l-0.005-15.967l-20.178,2.692l-15.109-8.724c-2.65-1.53-6.947-1.53-9.597,0l-2.353,1.495l-32.761,4.371v16.155
				c0,0.009,0,0.018,0,0.027v0.076l0.012-0.002c0.038,0.974,0.687,1.94,1.973,2.683l33.304,19.228c2.65,1.53,6.947,1.53,9.597,0
				l33.129-19.264c1.282-0.74,1.93-1.704,1.972-2.674l0.016-0.002V76.761z"/>
			
				<radialGradient id="SVGID_00000037687871623400682120000006122469263059655328_" cx="413.9504" cy="34.4745" r="125.9894" gradientUnits="userSpaceOnUse">
				<stop  offset="0" style="stop-color:#01C8EF"/>
				<stop  offset="0.1396" style="stop-color:#03BAE4"/>
				<stop  offset="0.4033" style="stop-color:#0895C8"/>
				<stop  offset="0.76" style="stop-color:#115A9A"/>
				<stop  offset="1" style="stop-color:#172F78"/>
			</radialGradient>
			<path style="fill:url(#SVGID_00000037687871623400682120000006122469263059655328_);" d="M506.781,57.904l-33.304-19.228
				c-2.65-1.53-6.947-1.53-9.597,0l-33.129,19.264c-2.65,1.53-2.65,4.011,0,5.541l33.304,19.228c2.65,1.53,6.947,1.53,9.597,0
				l33.129-19.264C509.431,61.914,509.431,59.434,506.781,57.904z"/>
			
				<radialGradient id="SVGID_00000099645554003612752940000008963083365936018308_" cx="425.0679" cy="42.0663" r="86.6221" gradientUnits="userSpaceOnUse">
				<stop  offset="0" style="stop-color:#F9636B"/>
				<stop  offset="1" style="stop-color:#B6246E"/>
			</radialGradient>
			<path style="fill:url(#SVGID_00000099645554003612752940000008963083365936018308_);" d="M506.781,57.904l-33.304-19.228
				c-2.65-1.53-6.947-1.53-9.597,0l-33.129,19.264c-2.65,1.53-2.65,4.011,0,5.541l33.304,19.228c2.65,1.53,6.947,1.53,9.597,0
				l33.129-19.264C509.431,61.914,509.431,59.434,506.781,57.904z"/>
			<path style="fill:#8B1E64;" d="M468.824,76.479c-1.222,0-2.443-0.275-3.395-0.824l-22.066-12.741
				c-0.989-0.571-1.533-1.355-1.533-2.21c0-0.855,0.544-1.639,1.533-2.21L465.31,45.73c1.908-1.099,4.893-1.1,6.793,0L494.17,58.47
				c0.989,0.571,1.533,1.355,1.533,2.21s-0.544,1.639-1.533,2.21l-21.948,12.764C471.269,76.204,470.046,76.479,468.824,76.479z
				 M468.708,45.771c-1.073,0-2.147,0.236-2.964,0.708l-21.948,12.764c-0.711,0.41-1.103,0.929-1.103,1.461
				c0,0.532,0.392,1.051,1.101,1.461l22.066,12.741c1.635,0.943,4.293,0.943,5.928,0l21.948-12.764
				c0.711-0.41,1.103-0.929,1.103-1.461c0-0.532-0.392-1.051-1.101-1.461l-22.066-12.741
				C470.854,46.007,469.781,45.771,468.708,45.771z"/>
			<path style="fill:#FFFFFF;" d="M506.781,62.477L473.652,81.74c-2.65,1.53-6.947,1.53-9.597,0l-33.304-19.228
				c-1.111-0.642-1.75-1.451-1.929-2.286c-0.248,1.157,0.391,2.366,1.929,3.254l33.304,19.228c2.65,1.53,6.947,1.53,9.597,0
				l33.129-19.264c1.539-0.888,2.178-2.097,1.93-3.254C508.531,61.026,507.892,61.835,506.781,62.477z"/>
			<g>
				<polygon style="fill:#FFFFFF;" points="478.13,86.97 476.553,87.881 476.553,86.06 478.13,85.15 				"/>
				<polygon style="fill:#FFFFFF;" points="481.429,85.066 479.852,85.976 479.852,84.156 481.429,83.245 				"/>
				<polygon style="fill:#FFFFFF;" points="484.727,83.162 483.151,84.072 483.151,82.251 484.727,81.341 				"/>
				<polygon style="fill:#FFFFFF;" points="482.03,88.408 480.454,89.318 480.454,87.497 482.03,86.587 				"/>
				<polygon style="fill:#FFFFFF;" points="484.935,86.731 483.358,87.641 483.358,85.821 484.935,84.91 				"/>
				<polygon style="fill:#FFFFFF;" points="495.307,77.053 493.731,77.964 493.731,76.143 495.307,75.233 				"/>
				<polygon style="fill:#FFFFFF;" points="504.394,71.807 502.817,72.717 502.817,70.897 504.394,69.987 				"/>
				<polygon style="fill:#FFFFFF;" points="488.026,81.257 486.449,82.168 486.449,80.347 488.026,79.437 				"/>
			</g>
		</g>
	</g>
	<g>
		<path style="opacity:0.6;fill:#172F78;" d="M474.55,121.2c-2.18,0.059-4.381,0.08-6.6,0.062
			c-17.365-0.142-33.453-2.663-46.88-6.888c-13.412-3.583-14.223,10.451-9.542,19.119c3.333,6.172,7.844,7.863,9.542,8.499
			c13.427,4.226,29.515,6.746,46.88,6.889c2.219,0.018,4.42-0.003,6.6-0.061c15.759-1.161,19.886-16.297,12.521-23.362
			C485.015,123.485,481.174,121.146,474.55,121.2L474.55,121.2z"/>
		<g>
			<g style="opacity:0.3;">
				<path style="fill:#03A7D3;" d="M556.151,103.994l-0.24-0.478c-0.22-0.439-0.478-1.066-0.793-1.919
					c-2.929-8.553-11.487-16.309-24.753-22.435c-9.221-5.237-11.452-12.805-11.985-15.816l0,0
					c-0.629-3.555,0.085-8.592,3.138-11.252c2.237-1.949,5.286-2.317,9.063-1.099c13.448,6.208,22.115,14.083,25.095,22.786
					c0.626,2.459,1.115,4.381,1.121,13.061v14.725c-0.002,1.291-0.002,1.369-0.367,1.97L556.151,103.994z M518.962,63.243
					c0.519,2.929,2.693,10.292,11.673,15.394c13.394,6.184,22.06,14.059,25.04,22.762c0.184,0.498,0.348,0.917,0.495,1.263
					c0.033-0.208,0.033-0.508,0.034-1.096V86.842c-0.006-8.605-0.486-10.496-1.095-12.89c-2.92-8.527-11.478-16.282-24.744-22.408
					c-3.532-1.139-6.391-0.808-8.459,0.995C519.026,55.048,518.361,59.847,518.962,63.243L518.962,63.243z"/>
				<path style="fill:#03A7D3;" d="M382.732,108.067l-0.591-0.025V80.423c0-0.246,0.005-0.492,0.015-0.738
					c0.169-4.575,1.911-9.054,5.179-13.312l0.126-0.129c0.628-0.621,1.486-1.472,2.375-1.599c1.193-0.17,2.246,0.43,3.061,1.732
					c2.72,4.349,2.475,16.808-5.082,27.959C383.399,100.315,383.104,103.736,382.732,108.067z M390.217,65.21
					c-0.097,0-0.195,0.007-0.297,0.021c-0.695,0.1-1.475,0.871-2.043,1.434l-0.1,0.099c-3.164,4.128-4.866,8.493-5.031,12.943
					c-0.008,0.24-0.013,0.478-0.013,0.717v22.965c0.565-2.683,1.73-5.51,4.599-9.393c7.41-10.936,7.699-23.089,5.064-27.305
					C391.961,65.997,391.242,65.21,390.217,65.21z"/>
			</g>
			<g>
				<g>
					<path style="fill:#03A7D3;" d="M389.023,122.438c-0.728,0-1.684-0.386-2.73-1.816c-3.593-4.909-3.941-9.695-4.15-12.555
						l-0.001-27.643h0.592c0,4.173,1.359,8.291,4.042,12.24c5.892,9.743,6.588,19.361,6.072,23.511l0,0
						c-0.423,3.403-1.69,5.778-3.308,6.197C389.385,122.412,389.212,122.438,389.023,122.438z M382.733,85.241v22.801
						c0.203,2.778,0.544,7.459,4.036,12.231c0.619,0.846,1.577,1.791,2.622,1.527c1.356-0.352,2.482-2.589,2.87-5.699
						c0.506-4.074-0.185-13.528-5.983-23.119C384.569,90.467,383.384,87.876,382.733,85.241z"/>
					<path style="fill:#03A7D3;" d="M469.478,149.182c-0.512,0-1.021-0.002-1.53-0.006c-16.816-0.138-33.058-2.524-46.967-6.902
						c-1.741-0.652-6.327-2.37-9.713-8.64c-2.796-5.178-3.935-13.002-0.538-17.305c1.494-1.893,4.518-3.816,10.416-2.241
						c13.867,4.364,30.048,6.741,46.806,6.878c2.194,0.019,4.409-0.002,6.59-0.062h0.006c0.075-0.001,0.15-0.001,0.225-0.001
						c6.587,0,10.431,2.353,12.502,4.34c3.444,3.304,4.545,8.562,2.806,13.396c-2.16,6.001-7.958,9.917-15.51,10.474
						C472.88,149.159,471.175,149.182,469.478,149.182z M417.128,114.099c-2.555,0-4.573,0.873-5.934,2.595
						c-3.24,4.104-2.112,11.646,0.594,16.657c3.281,6.076,7.717,7.737,9.386,8.363c13.839,4.355,30.021,6.733,46.778,6.87
						c2.195,0.015,4.409-0.003,6.59-0.062c7.298-0.538,12.904-4.308,14.982-10.083c1.661-4.615,0.617-9.627-2.658-12.77
						c-2.015-1.934-5.792-4.225-12.312-4.175c-2.186,0.059-4.407,0.078-6.607,0.062c-16.815-0.138-33.056-2.524-46.966-6.902
						C419.592,114.284,418.303,114.099,417.128,114.099z"/>
					<path style="fill:#03A7D3;" d="M524.344,139.085c-2.686,0-4.917-0.982-6.48-2.892c-3.017-3.685-3.088-10.371-0.17-15.899
						c3.289-6.23,8.4-8.95,10.324-9.973c13.765-5.904,22.931-13.51,26.531-22.004c0.396-0.847,0.745-1.49,1.043-1.923l0.074-0.109
						l0.668-0.086l0.08,0.225c0.239,0.673,0.338,0.952,0.368,4.259v8.5c-0.077,11.989-0.784,14.182-1.68,16.958
						c-3.67,8.663-12.944,16.376-26.83,22.331C526.882,138.881,525.565,139.085,524.344,139.085z M555.956,86.914
						c-0.252,0.399-0.543,0.95-0.867,1.643c-3.657,8.628-12.932,16.341-26.816,22.296c-1.858,0.99-6.852,3.647-10.056,9.717
						c-2.813,5.327-2.769,11.74,0.104,15.249c1.497,1.827,4.406,3.674,9.752,2.097c13.71-5.882,22.877-13.487,26.477-21.981
						c0.871-2.704,1.566-4.859,1.642-16.755v-8.495C556.167,88.019,556.102,87.396,555.956,86.914z"/>
				</g>
			</g>
		</g>
	</g>
</g>
<g>
	
		<radialGradient id="SVGID_00000177458970521124639740000000608066211534982051_" cx="161.8963" cy="404.0316" r="65.4945" gradientTransform="matrix(1 0 0 0.4826 0 117.9607)" gradientUnits="userSpaceOnUse">
		<stop  offset="0" style="stop-color:#F8359E"/>
		<stop  offset="0.0428" style="stop-color:#E63192"/>
		<stop  offset="0.1941" style="stop-color:#AA246C"/>
		<stop  offset="0.3446" style="stop-color:#76194B"/>
		<stop  offset="0.4909" style="stop-color:#4B1030"/>
		<stop  offset="0.6322" style="stop-color:#2B091B"/>
		<stop  offset="0.7669" style="stop-color:#13040C"/>
		<stop  offset="0.8926" style="stop-color:#050103"/>
		<stop  offset="1" style="stop-color:#000000"/>
	</radialGradient>
	
		<ellipse style="opacity:0.6;fill:url(#SVGID_00000177458970521124639740000000608066211534982051_);" cx="161.896" cy="312.946" rx="65.491" ry="31.609"/>
	<g>
		<g>
			
				<linearGradient id="SVGID_00000034064217089140657070000004810558779188618169_" gradientUnits="userSpaceOnUse" x1="133.3497" y1="312.1774" x2="191.8658" y2="312.1774">
				<stop  offset="0" style="stop-color:#B6246E"/>
				<stop  offset="1" style="stop-color:#F9636B"/>
			</linearGradient>
			<path style="fill:url(#SVGID_00000034064217089140657070000004810558779188618169_);" d="M183.538,320.506h-41.86
				c-4.6,0-8.328-3.729-8.328-8.328l0,0c0-4.6,3.729-8.328,8.328-8.328h41.86c4.6,0,8.328,3.729,8.328,8.328l0,0
				C191.866,316.777,188.137,320.506,183.538,320.506z"/>
		</g>
		<g>
			<path style="fill:#03A7D3;" d="M254.66,320.506h-41.86c-4.6,0-8.328-3.729-8.328-8.328l0,0c0-4.6,3.729-8.328,8.328-8.328h41.86
				c4.6,0,8.328,3.729,8.328,8.328l0,0C262.988,316.777,259.26,320.506,254.66,320.506z"/>
		</g>
		<g>
			<path style="fill:#FFFFFF;" d="M217.212,315.179v-5.853h0.815v5.267h1.493v0.586H217.212z"/>
			<path style="fill:#FFFFFF;" d="M220.083,315.179v-5.853h2.267v0.603h-1.451v1.935h1.179v0.582h-1.179v2.147h1.469v0.586H220.083z
				"/>
			<path style="fill:#FFFFFF;" d="M222.702,315.179l1.25-5.853h0.787l1.25,5.853h-0.777l-0.268-1.476h-1.189l-0.279,1.476H222.702z
				 M223.86,313.121h0.978l-0.49-2.645L223.86,313.121z"/>
			<path style="fill:#FFFFFF;" d="M226.581,315.179v-5.853h1.176c0.593,0,1.027,0.121,1.304,0.363
				c0.276,0.242,0.415,0.638,0.415,1.186c0,0.753-0.241,1.208-0.724,1.365l0.837,2.938h-0.791l-0.77-2.746h-0.632v2.746H226.581z
				 M227.397,311.847h0.307c0.355,0,0.609-0.07,0.761-0.21c0.152-0.141,0.229-0.395,0.229-0.761c0-0.355-0.066-0.605-0.196-0.749
				c-0.131-0.144-0.377-0.215-0.739-0.215h-0.36V311.847z"/>
			<path style="fill:#FFFFFF;" d="M230.333,315.179v-5.853h0.554l1.663,3.887v-3.887h0.682v5.853h-0.522l-1.688-4v4H230.333z"/>
			<path style="fill:#FFFFFF;" d="M235.785,315.179l0.109-5.853h0.798l1.034,4.748l1.041-4.748h0.798l0.109,5.853h-0.66
				l-0.064-4.254l-0.991,4.254h-0.459l-0.985-4.254l-0.063,4.254H235.785z"/>
			<path style="fill:#FFFFFF;" d="M242.064,315.242c-0.291,0-0.541-0.044-0.75-0.131c-0.208-0.087-0.373-0.215-0.496-0.385
				c-0.122-0.169-0.212-0.367-0.268-0.593c-0.057-0.226-0.085-0.489-0.085-0.791v-2.217c0-0.609,0.124-1.071,0.372-1.386
				c0.248-0.313,0.657-0.471,1.227-0.471c0.567,0,0.976,0.158,1.226,0.475c0.249,0.316,0.374,0.777,0.374,1.382v2.221
				c0,0.609-0.125,1.078-0.376,1.405C243.037,315.079,242.629,315.242,242.064,315.242z M241.667,314.529
				c0.105,0.049,0.236,0.074,0.396,0.074c0.16,0,0.293-0.025,0.397-0.074c0.105-0.05,0.185-0.125,0.238-0.226
				c0.054-0.102,0.091-0.213,0.111-0.334c0.02-0.121,0.03-0.271,0.03-0.45v-2.563c0-0.177-0.011-0.324-0.03-0.441
				c-0.021-0.118-0.058-0.227-0.111-0.325c-0.054-0.099-0.134-0.171-0.238-0.217c-0.104-0.046-0.237-0.069-0.397-0.069
				c-0.16,0-0.292,0.023-0.396,0.069c-0.105,0.046-0.185,0.118-0.238,0.217c-0.055,0.099-0.092,0.207-0.111,0.325
				c-0.021,0.117-0.03,0.265-0.03,0.441v2.563c0,0.179,0.01,0.329,0.03,0.45c0.02,0.121,0.057,0.232,0.111,0.334
				C241.483,314.404,241.562,314.479,241.667,314.529z"/>
			<path style="fill:#FFFFFF;" d="M244.472,315.179v-5.853h1.176c0.593,0,1.027,0.121,1.304,0.363
				c0.276,0.242,0.415,0.638,0.415,1.186c0,0.753-0.241,1.208-0.724,1.365l0.837,2.938h-0.791l-0.77-2.746h-0.632v2.746H244.472z
				 M245.288,311.847h0.307c0.356,0,0.609-0.07,0.761-0.21c0.152-0.141,0.229-0.395,0.229-0.761c0-0.355-0.065-0.605-0.196-0.749
				c-0.131-0.144-0.377-0.215-0.739-0.215h-0.36V311.847z"/>
			<path style="fill:#FFFFFF;" d="M248.224,315.179v-5.853h2.267v0.603h-1.451v1.935h1.179v0.582h-1.179v2.147h1.469v0.586H248.224z
				"/>
		</g>
		<g>
			<path style="fill:#FFFFFF;" d="M148.124,315.179v-5.249h-1.07v-0.603h2.916v0.603h-1.031v5.249H148.124z"/>
			<path style="fill:#FFFFFF;" d="M150.418,315.179v-5.853h1.175c0.593,0,1.028,0.121,1.305,0.363
				c0.276,0.242,0.415,0.638,0.415,1.186c0,0.753-0.241,1.208-0.724,1.365l0.836,2.938h-0.79l-0.77-2.746h-0.632v2.746H150.418z
				 M151.233,311.847h0.307c0.355,0,0.609-0.07,0.761-0.21c0.152-0.141,0.227-0.395,0.227-0.761c0-0.355-0.065-0.605-0.196-0.749
				c-0.131-0.144-0.377-0.215-0.74-0.215h-0.36V311.847z"/>
			<path style="fill:#FFFFFF;" d="M155.06,315.179v-2.065l-1.264-3.787h0.759l0.893,2.82l0.883-2.82h0.77l-1.26,3.787v2.065H155.06z
				"/>
			<path style="fill:#FFFFFF;" d="M159.338,315.179v-5.853h0.802v5.853H159.338z"/>
			<path style="fill:#FFFFFF;" d="M161.689,315.179v-5.249h-1.07v-0.603h2.916v0.603h-1.031v5.249H161.689z"/>
			<path style="fill:#FFFFFF;" d="M165.636,315.179v-5.853h0.554l1.663,3.887v-3.887h0.681v5.853h-0.522l-1.687-4v4H165.636z"/>
			<path style="fill:#FFFFFF;" d="M170.942,315.242c-0.292,0-0.542-0.044-0.75-0.131c-0.208-0.087-0.374-0.215-0.496-0.385
				c-0.123-0.169-0.212-0.367-0.269-0.593c-0.056-0.226-0.084-0.489-0.084-0.791v-2.217c0-0.609,0.124-1.071,0.372-1.386
				c0.249-0.313,0.657-0.471,1.227-0.471c0.567,0,0.976,0.158,1.225,0.475c0.249,0.316,0.374,0.777,0.374,1.382v2.221
				c0,0.609-0.126,1.078-0.376,1.405C171.915,315.079,171.506,315.242,170.942,315.242z M170.544,314.529
				c0.105,0.049,0.237,0.074,0.397,0.074c0.16,0,0.293-0.025,0.397-0.074c0.105-0.05,0.184-0.125,0.238-0.226
				c0.054-0.102,0.091-0.213,0.111-0.334c0.02-0.121,0.03-0.271,0.03-0.45v-2.563c0-0.177-0.01-0.324-0.03-0.441
				c-0.02-0.118-0.057-0.227-0.111-0.325c-0.054-0.099-0.134-0.171-0.238-0.217c-0.104-0.046-0.237-0.069-0.397-0.069
				c-0.16,0-0.292,0.023-0.397,0.069c-0.105,0.046-0.184,0.118-0.238,0.217c-0.054,0.099-0.091,0.207-0.111,0.325
				c-0.02,0.117-0.03,0.265-0.03,0.441v2.563c0,0.179,0.01,0.329,0.03,0.45s0.057,0.232,0.111,0.334
				C170.36,314.404,170.44,314.479,170.544,314.529z"/>
			<path style="fill:#FFFFFF;" d="M174.105,315.179l-0.957-5.853h0.685l0.625,4.207l0.791-4.189h0.579l0.794,4.208l0.61-4.226h0.667
				l-0.939,5.853h-0.593l-0.816-4.335l-0.826,4.335H174.105z"/>
		</g>
	</g>
</g>
<g>
	<path style="opacity:0.6;fill:#172F78;" d="M517.2,284.133l-36.95-21.333c-2.092-1.208-3.788-4.448-3.788-7.238v-69.984
		c0-2.789,1.696-4.071,3.788-2.864l36.95,21.333c2.092,1.208,3.788,4.448,3.788,7.238v69.984
		C520.988,284.058,519.292,285.34,517.2,284.133z"/>
	<path style="fill:#03A7D3;" d="M518.706,284.897c-0.525,0-1.09-0.166-1.661-0.495l-36.95-21.333
		c-2.173-1.256-3.941-4.623-3.941-7.507v-69.984c0-1.58,0.533-2.795,1.464-3.332c0.786-0.454,1.777-0.382,2.788,0.2l36.95,21.333
		c2.174,1.256,3.942,4.623,3.942,7.506v69.984c0,1.58-0.533,2.794-1.464,3.332C519.491,284.798,519.11,284.897,518.706,284.897z
		 M517.356,283.864c0.809,0.469,1.58,0.538,2.169,0.199c0.733-0.423,1.154-1.442,1.154-2.795v-69.984
		c0-2.686-1.63-5.813-3.634-6.969l-36.95-21.333c-0.81-0.47-1.581-0.541-2.168-0.2c-0.733,0.423-1.154,1.442-1.154,2.795v69.984
		c0,2.686,1.63,5.814,3.633,6.97L517.356,283.864z"/>
</g>
<g>
	<path style="opacity:0.6;fill:#172F78;" d="M421.955,284.133l36.95-21.333c2.092-1.208,3.788-4.448,3.788-7.238v-69.984
		c0-2.789-1.696-4.071-3.788-2.864l-36.95,21.333c-2.092,1.208-3.788,4.448-3.788,7.238v69.984
		C418.168,284.058,419.863,285.34,421.955,284.133z"/>
	<path style="fill:#03A7D3;" d="M420.449,284.897c-0.404,0-0.785-0.099-1.127-0.296c-0.931-0.537-1.464-1.752-1.464-3.332v-69.984
		c0-2.884,1.769-6.25,3.941-7.506l36.95-21.333c1.011-0.583,2.001-0.655,2.789-0.199c0.931,0.537,1.464,1.751,1.464,3.331v69.984
		c0,2.884-1.768,6.251-3.942,7.507l-36.95,21.333C421.539,284.73,420.975,284.897,420.449,284.897z M460.41,182.571
		c-0.417,0-0.877,0.138-1.35,0.411l-36.95,21.333c-2.003,1.156-3.633,4.282-3.633,6.969v69.984c0,1.353,0.421,2.372,1.154,2.796
		c0.586,0.338,1.358,0.268,2.168-0.2l36.95-21.333c2.004-1.156,3.634-4.283,3.634-6.97v-69.984c0-1.353-0.421-2.371-1.155-2.795
		C460.984,182.641,460.708,182.571,460.41,182.571z"/>
</g>
<g>
	<path style="fill:#03A7D3;" d="M468.614,324.04c-1.791,0.001-3.581-0.393-4.944-1.18l-33.241-19.192
		c-1.379-0.796-2.138-1.873-2.138-3.033c0-1.16,0.759-2.237,2.138-3.033l33.066-19.227c2.728-1.577,7.163-1.575,9.889-0.001
		l33.241,19.191c1.379,0.797,2.139,1.874,2.139,3.033c0,1.16-0.76,2.237-2.139,3.034l-33.065,19.227
		C472.196,323.647,470.405,324.04,468.614,324.04z M468.44,277.804c-1.679,0-3.357,0.369-4.634,1.107l-33.066,19.227
		c-1.18,0.682-1.829,1.567-1.829,2.497c0,0.93,0.649,1.815,1.829,2.496l33.241,19.192c2.555,1.477,6.714,1.476,9.268,0
		l33.066-19.227c1.18-0.682,1.83-1.568,1.83-2.498c0-0.929-0.65-1.815-1.83-2.496l-33.241-19.191
		C471.796,278.173,470.118,277.804,468.44,277.804z"/>
	<g>
		
			<linearGradient id="SVGID_00000029728647700506331980000010830883979408321973_" gradientUnits="userSpaceOnUse" x1="423.9631" y1="290.1269" x2="480.2725" y2="290.1269">
			<stop  offset="0" style="stop-color:#01C8EF"/>
			<stop  offset="0.1297" style="stop-color:#04B1DD"/>
			<stop  offset="0.5466" style="stop-color:#0E6BA7"/>
			<stop  offset="0.8476" style="stop-color:#154085"/>
			<stop  offset="1" style="stop-color:#172F78"/>
		</linearGradient>
		<path style="fill:url(#SVGID_00000029728647700506331980000010830883979408321973_);" d="M508.617,290.109L508.617,290.109
			l-0.005-15.937l-20.14,2.687l-15.08-8.707c-2.645-1.527-6.934-1.527-9.579,0l-2.349,1.493l-32.699,4.363v16.124
			c0,0.009,0,0.018,0,0.027v0.076l0.012-0.002c0.038,0.972,0.685,1.936,1.969,2.678l33.241,19.192c2.645,1.527,6.934,1.527,9.579,0
			l33.066-19.228c1.28-0.739,1.927-1.701,1.968-2.669l0.016-0.002V290.109z"/>
		
			<radialGradient id="SVGID_00000039851389034047122760000010662922151630811531_" cx="413.9782" cy="247.9026" r="125.7504" gradientUnits="userSpaceOnUse">
			<stop  offset="0" style="stop-color:#01C8EF"/>
			<stop  offset="0.1396" style="stop-color:#03BAE4"/>
			<stop  offset="0.4033" style="stop-color:#0895C8"/>
			<stop  offset="0.76" style="stop-color:#115A9A"/>
			<stop  offset="1" style="stop-color:#172F78"/>
		</radialGradient>
		<path style="fill:url(#SVGID_00000039851389034047122760000010662922151630811531_);" d="M506.633,271.287l-33.241-19.192
			c-2.645-1.527-6.933-1.527-9.579,0l-33.066,19.227c-2.645,1.527-2.645,4.003,0,5.53l33.241,19.192
			c2.645,1.527,6.934,1.527,9.579,0l33.066-19.227C509.278,275.29,509.278,272.815,506.633,271.287z"/>
		<path style="fill:#FFFFFF;" d="M506.633,275.852l-33.066,19.227c-2.645,1.527-6.934,1.527-9.579,0l-33.241-19.192
			c-1.109-0.641-1.747-1.448-1.926-2.282c-0.248,1.155,0.39,2.361,1.926,3.248l33.241,19.192c2.645,1.527,6.934,1.527,9.579,0
			l33.066-19.228c1.536-0.887,2.174-2.093,1.926-3.248C508.38,274.404,507.742,275.211,506.633,275.852z"/>
		<g>
			<polygon style="fill:#FFFFFF;" points="478.036,300.299 476.462,301.207 476.462,299.39 478.036,298.482 			"/>
			<polygon style="fill:#FFFFFF;" points="481.328,298.398 479.755,299.307 479.755,297.49 481.328,296.581 			"/>
			<polygon style="fill:#FFFFFF;" points="484.621,296.497 483.047,297.406 483.047,295.589 484.621,294.68 			"/>
			<polygon style="fill:#FFFFFF;" points="481.929,301.733 480.355,302.642 480.355,300.825 481.929,299.916 			"/>
			<polygon style="fill:#FFFFFF;" points="484.828,300.06 483.254,300.968 483.254,299.151 484.828,298.243 			"/>
			<polygon style="fill:#FFFFFF;" points="495.181,290.401 493.607,291.309 493.607,289.492 495.181,288.583 			"/>
			<polygon style="fill:#FFFFFF;" points="504.25,285.164 502.676,286.073 502.676,284.256 504.25,283.347 			"/>
			<polygon style="fill:#FFFFFF;" points="487.913,294.597 486.339,295.505 486.339,293.688 487.913,292.78 			"/>
		</g>
	</g>
	<path style="opacity:0.4;fill:#06033E;" d="M466.809,287.937l-22.364-12.912c-0.909-0.525-0.795-1.441,0.255-2.048l21.854-12.617
		c1.05-0.606,2.638-0.672,3.547-0.147l22.364,12.912c0.909,0.525,0.795,1.442-0.255,2.048l-21.854,12.618
		C469.306,288.396,467.718,288.462,466.809,287.937z"/>
	<path style="fill:#FFFFFF;" d="M458.01,301.913l-18.455-10.655c-0.441-0.254-0.798-0.937-0.798-1.524v-1.37
		c0-0.587,0.357-0.857,0.798-0.603l18.455,10.655c0.44,0.254,0.798,0.937,0.798,1.524v1.37
		C458.808,301.898,458.451,302.168,458.01,301.913z"/>
	<g>
		
			<linearGradient id="SVGID_00000146498196266068638850000005453704346854051253_" gradientUnits="userSpaceOnUse" x1="423.9631" y1="260.2271" x2="480.2725" y2="260.2271">
			<stop  offset="0" style="stop-color:#01C8EF"/>
			<stop  offset="0.1297" style="stop-color:#04B1DD"/>
			<stop  offset="0.5466" style="stop-color:#0E6BA7"/>
			<stop  offset="0.8476" style="stop-color:#154085"/>
			<stop  offset="1" style="stop-color:#172F78"/>
		</linearGradient>
		<path style="fill:url(#SVGID_00000146498196266068638850000005453704346854051253_);" d="M508.617,260.21L508.617,260.21
			l-0.005-15.937l-20.14,2.687l-15.08-8.707c-2.645-1.527-6.934-1.527-9.579,0l-2.349,1.493l-32.699,4.363v16.124
			c0,0.009,0,0.018,0,0.027v0.076l0.012-0.002c0.038,0.972,0.685,1.936,1.969,2.678l33.241,19.192c2.645,1.527,6.934,1.527,9.579,0
			l33.066-19.228c1.28-0.739,1.927-1.7,1.968-2.669l0.016-0.002V260.21z"/>
		
			<radialGradient id="SVGID_00000160159126602311745930000011369477895784828548_" cx="413.9782" cy="218.0029" r="125.7504" gradientUnits="userSpaceOnUse">
			<stop  offset="0" style="stop-color:#01C8EF"/>
			<stop  offset="0.1396" style="stop-color:#03BAE4"/>
			<stop  offset="0.4033" style="stop-color:#0895C8"/>
			<stop  offset="0.76" style="stop-color:#115A9A"/>
			<stop  offset="1" style="stop-color:#172F78"/>
		</radialGradient>
		<path style="fill:url(#SVGID_00000160159126602311745930000011369477895784828548_);" d="M506.633,241.388l-33.241-19.192
			c-2.645-1.527-6.933-1.527-9.579,0l-33.066,19.227c-2.645,1.527-2.645,4.003,0,5.53l33.241,19.192
			c2.645,1.527,6.934,1.527,9.579,0l33.066-19.227C509.278,245.391,509.278,242.915,506.633,241.388z"/>
		<path style="opacity:0.4;fill:#06033E;" d="M490.798,242.549l-19.369-11.183c-1.541-0.89-4.04-0.89-5.581,0l-19.267,11.203
			c-1.541,0.89-1.541,2.333,0,3.222l19.369,11.183c1.541,0.89,4.04,0.89,5.581,0l19.267-11.203
			C492.34,244.882,492.34,243.439,490.798,242.549z"/>
		<path style="fill:#FFFFFF;" d="M506.633,245.952l-33.066,19.227c-2.645,1.527-6.934,1.527-9.579,0l-33.241-19.192
			c-1.109-0.641-1.747-1.448-1.926-2.282c-0.248,1.155,0.39,2.361,1.926,3.248l33.241,19.192c2.645,1.527,6.934,1.527,9.579,0
			l33.066-19.227c1.536-0.887,2.174-2.093,1.926-3.248C508.38,244.504,507.742,245.312,506.633,245.952z"/>
		<g>
			<polygon style="fill:#FFFFFF;" points="478.036,270.399 476.462,271.308 476.462,269.491 478.036,268.582 			"/>
			<polygon style="fill:#FFFFFF;" points="481.328,268.498 479.755,269.407 479.755,267.59 481.328,266.681 			"/>
			<polygon style="fill:#FFFFFF;" points="484.621,266.598 483.047,267.506 483.047,265.689 484.621,264.781 			"/>
			<polygon style="fill:#FFFFFF;" points="481.929,271.834 480.355,272.742 480.355,270.925 481.929,270.017 			"/>
			<polygon style="fill:#FFFFFF;" points="484.828,270.16 483.254,271.069 483.254,269.251 484.828,268.343 			"/>
			<polygon style="fill:#FFFFFF;" points="495.181,260.501 493.607,261.409 493.607,259.592 495.181,258.684 			"/>
			<polygon style="fill:#FFFFFF;" points="504.25,255.265 502.676,256.173 502.676,254.356 504.25,253.448 			"/>
			<polygon style="fill:#FFFFFF;" points="487.913,264.697 486.339,265.605 486.339,263.788 487.913,262.88 			"/>
		</g>
	</g>
	<g>
		
			<linearGradient id="SVGID_00000173846406197410899850000014086609411836695228_" gradientUnits="userSpaceOnUse" x1="423.9631" y1="230.3275" x2="480.2725" y2="230.3275">
			<stop  offset="0" style="stop-color:#01C8EF"/>
			<stop  offset="0.1297" style="stop-color:#04B1DD"/>
			<stop  offset="0.5466" style="stop-color:#0E6BA7"/>
			<stop  offset="0.8476" style="stop-color:#154085"/>
			<stop  offset="1" style="stop-color:#172F78"/>
		</linearGradient>
		<path style="fill:url(#SVGID_00000173846406197410899850000014086609411836695228_);" d="M508.617,230.31L508.617,230.31
			l-0.005-15.937l-20.14,2.687l-15.08-8.707c-2.645-1.527-6.934-1.527-9.579,0l-2.349,1.493l-32.699,4.363v16.124
			c0,0.009,0,0.018,0,0.027v0.076l0.012-0.002c0.038,0.972,0.685,1.936,1.969,2.678l33.241,19.192c2.645,1.527,6.934,1.527,9.579,0
			l33.066-19.228c1.28-0.739,1.927-1.7,1.968-2.669l0.016-0.002V230.31z"/>
		
			<radialGradient id="SVGID_00000050653096430444543480000015045940606285065913_" cx="413.9782" cy="188.1032" r="125.7504" gradientUnits="userSpaceOnUse">
			<stop  offset="0" style="stop-color:#01C8EF"/>
			<stop  offset="0.1396" style="stop-color:#03BAE4"/>
			<stop  offset="0.4033" style="stop-color:#0895C8"/>
			<stop  offset="0.76" style="stop-color:#115A9A"/>
			<stop  offset="1" style="stop-color:#172F78"/>
		</radialGradient>
		<path style="fill:url(#SVGID_00000050653096430444543480000015045940606285065913_);" d="M506.633,211.488l-33.241-19.192
			c-2.645-1.527-6.933-1.527-9.579,0l-33.066,19.227c-2.645,1.527-2.645,4.003,0,5.53l33.241,19.192
			c2.645,1.527,6.934,1.527,9.579,0l33.066-19.227C509.278,215.491,509.278,213.015,506.633,211.488z"/>
		<path style="fill:#FFFFFF;" d="M506.633,216.052l-33.066,19.227c-2.645,1.527-6.934,1.527-9.579,0l-33.241-19.192
			c-1.109-0.641-1.747-1.448-1.926-2.282c-0.248,1.155,0.39,2.361,1.926,3.248l33.241,19.192c2.645,1.527,6.934,1.527,9.579,0
			l33.066-19.228c1.536-0.887,2.174-2.093,1.926-3.248C508.38,214.604,507.742,215.412,506.633,216.052z"/>
		<g>
			<polygon style="fill:#FFFFFF;" points="478.036,240.499 476.462,241.408 476.462,239.591 478.036,238.682 			"/>
			<polygon style="fill:#FFFFFF;" points="481.328,238.599 479.755,239.507 479.755,237.69 481.328,236.782 			"/>
			<polygon style="fill:#FFFFFF;" points="484.621,236.698 483.047,237.607 483.047,235.79 484.621,234.881 			"/>
			<polygon style="fill:#FFFFFF;" points="481.929,241.934 480.355,242.842 480.355,241.025 481.929,240.117 			"/>
			<polygon style="fill:#FFFFFF;" points="484.828,240.26 483.254,241.169 483.254,239.352 484.828,238.443 			"/>
			<polygon style="fill:#FFFFFF;" points="495.181,230.601 493.607,231.51 493.607,229.693 495.181,228.784 			"/>
			<polygon style="fill:#FFFFFF;" points="504.25,225.365 502.676,226.274 502.676,224.456 504.25,223.548 			"/>
			<polygon style="fill:#FFFFFF;" points="487.913,234.797 486.339,235.706 486.339,233.889 487.913,232.98 			"/>
		</g>
	</g>
	<path style="fill:#FFFFFF;" d="M458.01,272.681l-18.455-10.655c-0.441-0.254-0.798-0.937-0.798-1.524v-1.37
		c0-0.587,0.357-0.857,0.798-0.603l18.455,10.655c0.44,0.254,0.798,0.937,0.798,1.524v1.37
		C458.808,272.666,458.451,272.936,458.01,272.681z"/>
	<path style="fill:#FFFFFF;" d="M458.01,243.45l-18.455-10.655c-0.441-0.254-0.798-0.937-0.798-1.524v-1.37
		c0-0.587,0.357-0.857,0.798-0.603l18.455,10.655c0.44,0.254,0.798,0.937,0.798,1.524v1.37
		C458.808,243.434,458.451,243.704,458.01,243.45z"/>
</g>
</svg>
